<svg width="77" height="40" viewBox="0 0 77 40" fill="none" xmlns="http://www.w3.org/2000/svg">
<g opacity="0.8">
<path opacity="0.8" d="M3.11162 32.1935H4.21288L7.29407 39.8065H5.83926L5.17242 38.0645H2.07094L1.42439 39.8065H0L3.11162 32.1935ZM4.72786 36.9032L3.62689 33.8065L2.50535 36.9032H4.72786ZM8.65934 32.1935H10.124L12.0738 37.9462L14.0842 32.1935H15.4581L12.5688 39.8065H11.4678L8.65934 32.1935ZM20.0072 32.1935H21.1084L24.1896 39.8065H22.7348L22.068 38.0645H18.9668L18.3202 39.8065H16.8959L20.0072 32.1935ZM21.6237 36.9032L20.5225 33.8065L19.4012 36.9032H21.6237ZM27.0048 32.1935H28.2776V38.5806H31.3185V39.8065H27.0048V32.1935ZM36.5773 32.1935H37.6783L40.7594 39.8065H39.3049L38.6381 38.0645H35.5366L34.8901 39.8065H33.4657L36.5773 32.1935ZM38.1935 36.9032L37.0926 33.8065L35.971 36.9032H38.1935ZM43.5749 32.1935H45.2618L48.727 37.8495H48.7473V32.1935H50.0201V39.8065H48.4036L44.868 33.9677H44.8477V39.8065H43.5749V32.1935ZM58.5453 33.9785C58.2827 33.6774 58.0268 33.4768 57.7776 33.3763C57.535 33.2759 57.2893 33.2258 57.04 33.2258C56.6697 33.2258 56.3329 33.2974 56.0298 33.4409C55.7336 33.577 55.4777 33.7705 55.2621 34.0215C55.0468 34.2651 54.8784 34.5521 54.757 34.8817C54.6425 35.2114 54.5854 35.5662 54.5854 35.9462C54.5854 36.3548 54.6425 36.7312 54.757 37.0753C54.8784 37.4194 55.0468 37.7167 55.2621 37.9677C55.4777 38.2187 55.7336 38.4157 56.0298 38.5591C56.3329 38.7026 56.6697 38.7742 57.04 38.7742C57.3299 38.7742 57.6092 38.7026 57.8787 38.5591C58.1549 38.4086 58.4108 38.172 58.6464 37.8495L59.697 38.6452C59.3738 39.1183 58.9797 39.4624 58.5151 39.6774C58.0503 39.8925 57.5553 40 57.0299 40C56.4778 40 55.9692 39.9069 55.5047 39.7204C55.0468 39.5269 54.6495 39.2581 54.3124 38.914C53.9826 38.5628 53.7233 38.1435 53.5346 37.6559C53.3462 37.1684 53.2517 36.6273 53.2517 36.0323C53.2517 35.423 53.3462 34.871 53.5346 34.3763C53.7233 33.8747 53.9826 33.4479 54.3124 33.0968C54.6495 32.7456 55.0468 32.4768 55.5047 32.2903C55.9692 32.0968 56.4778 32 57.0299 32C57.515 32 57.9628 32.0931 58.3737 32.2796C58.7913 32.4587 59.1785 32.7671 59.5353 33.2043L58.5453 33.9785ZM62.5718 32.1935H63.8446V35.2258H67.1887V32.1935H68.4615V39.8065H67.1887V36.4516H63.8446V39.8065H62.5718V32.1935ZM72.0803 32.1935H76.818V33.4194H73.3531V35.2903H76.6363V36.5161H73.3531V38.5806H77V39.8065H72.0803V32.1935Z" fill="black"/>
<path opacity="0.8" d="M9.19183 27H3.93107C2.68385 27 2.06025 27 1.68666 26.7554C1.28312 26.4911 1.02849 26.0477 1.00141 25.5623C0.976351 25.1128 1.28542 24.565 1.90327 23.4691L13.4214 3.0426C14.0482 1.93078 14.3616 1.3749 14.7605 1.16796C15.1914 0.944371 15.7024 0.943993 16.1333 1.16695C16.5325 1.37328 16.8468 1.92872 17.4753 3.03958L20.1319 7.73472C20.5887 8.54252 20.8174 8.94641 20.9179 9.37256C21.0271 9.83643 21.0274 10.3197 20.9185 10.7836C20.8183 11.2099 20.5902 11.614 20.1339 12.4222L13.246 24.6196C12.7831 25.4395 12.5515 25.8495 12.2344 26.1562C11.889 26.4896 11.4705 26.7357 11.0128 26.8735C10.5923 27 10.1254 27 9.19183 27Z" fill="black"/>
<path opacity="0.8" d="M28.0497 27H21.9477C20.6884 27 20.0587 27 19.6841 26.7496C19.2789 26.4789 19.025 26.0255 19.0011 25.5301C18.9789 25.0717 19.2956 24.5132 19.9293 23.3964L22.9754 18.0283C23.6013 16.9256 23.914 16.3742 24.3103 16.1677C24.7385 15.9445 25.2445 15.9441 25.6731 16.1666C26.0696 16.3725 26.3831 16.9235 27.0105 18.0254L30.0664 23.3935C30.7027 24.5111 31.0208 25.0699 30.9989 25.5286C30.9756 26.0244 30.7217 26.4783 30.3165 26.7493C29.9416 27 29.3111 27 28.0497 27Z" fill="black"/>
<path opacity="0.8" d="M54.1918 27H48.931C47.6838 27 47.0602 27 46.6866 26.7554C46.2831 26.4911 46.0285 26.0477 46.0014 25.5623C45.9766 25.1128 46.2854 24.565 46.9032 23.4691L58.4213 3.0426C59.0481 1.93078 59.3618 1.3749 59.7604 1.16796C60.1913 0.944371 60.7023 0.943993 61.1335 1.16695C61.5324 1.37328 61.8467 1.92872 62.4752 3.03958L65.1318 7.73472C65.5889 8.54252 65.8173 8.94641 65.9178 9.37256C66.0273 9.83643 66.0273 10.3197 65.9184 10.7836C65.8185 11.2099 65.59 11.614 65.1338 12.4222L58.2462 24.6196C57.783 25.4395 57.5518 25.8495 57.2343 26.1562C56.8893 26.4896 56.4705 26.7357 56.0128 26.8735C55.5922 27 55.1256 27 54.1918 27Z" fill="black"/>
<path opacity="0.8" d="M73.0498 27H66.9477C65.6884 27 65.0587 27 64.6841 26.7496C64.2789 26.4789 64.025 26.0255 64.0011 25.5301C63.9789 25.0717 64.2956 24.5132 64.9293 23.3964L67.9753 18.0283C68.6012 16.9256 68.9139 16.3742 69.3101 16.1677C69.7384 15.9445 70.2444 15.9441 70.6729 16.1666C71.0694 16.3725 71.383 16.9235 72.0103 18.0254L75.0664 23.3935C75.7024 24.5111 76.0206 25.0699 75.999 25.5286C75.9753 26.0244 75.7214 26.4783 75.3163 26.7493C74.9414 27 74.3108 27 73.0498 27Z" fill="black"/>
<path opacity="0.8" d="M32.3197 0H26.9273C25.682 0 25.0594 5.88026e-07 24.6864 0.244344C24.2832 0.508419 24.0288 0.951436 24.0014 1.43676C23.9761 1.88587 24.2841 2.43357 24.9 3.52905L36.3654 23.9229C37.0046 25.0597 37.3244 25.6285 37.7282 25.8356C38.1645 26.0593 38.6808 26.0544 39.1131 25.8226C39.5132 25.6081 39.8223 25.0336 40.4408 23.8849L43.1873 18.7842C43.6208 17.9793 43.8375 17.5768 43.9293 17.1545C44.0294 16.6949 44.0231 16.2182 43.9109 15.7616C43.8075 15.342 43.5799 14.9455 43.1252 14.1527L36.3539 2.35073C35.8891 1.54061 35.6568 1.13557 35.3405 0.832818C34.996 0.503312 34.5798 0.260767 34.1254 0.124856C33.7081 4.84257e-07 33.2453 0 32.3197 0Z" fill="black"/>
<path opacity="0.8" d="M51.0528 0H44.9447C43.6874 0 43.0585 -7.71029e-07 42.6841 0.249659C42.2794 0.519427 42.0253 0.971708 42.0011 1.46582C41.9787 1.9231 42.2944 2.48019 42.9263 3.5944L45.9753 8.9711C46.601 10.0743 46.9138 10.626 47.3101 10.8324C47.7382 11.0555 48.2449 11.0559 48.6732 10.8334C49.0698 10.6275 49.3835 10.0764 50.0106 8.97404L53.0697 3.59736C53.704 2.48248 54.0211 1.92504 53.9989 1.46744C53.9753 0.972912 53.7212 0.520133 53.3165 0.249983C52.9418 -5.25702e-08 52.3121 0 51.0528 0Z" fill="black"/>
</g>
</svg>
