<svg width="87" height="82" viewBox="0 0 87 82" fill="none" xmlns="http://www.w3.org/2000/svg">
<path fill-rule="evenodd" clip-rule="evenodd" d="M31.9839 27.606C32.1018 28.3867 31.5713 29.2373 30.4279 29.8781L19.4414 36.1119C17.5436 37.1839 14.6555 37.3004 13.0287 36.3799L1.09927 29.6218C0.179808 29.0974 -0.150262 28.3517 0.0619222 27.6177H0.0265596V10.0117C0.132652 10.4894 0.486297 10.9438 1.09927 11.2934L13.0287 18.0515C14.6673 18.9836 17.5553 18.8554 19.4414 17.7835L30.4279 11.5497C31.2177 11.1069 31.7128 10.5593 31.9132 10H31.9839V27.606Z" fill="#83D0F4"/>
<path fill-rule="evenodd" clip-rule="evenodd" d="M18.9701 0.615493L30.8974 7.3231C32.5357 8.24829 32.3235 9.86736 30.426 10.9313L19.4415 17.1185C17.544 18.1825 14.6564 18.2981 13.0299 17.3845L1.10257 10.6769C-0.535672 9.75172 -0.323532 8.13264 1.574 7.06867L12.5585 0.881488C14.4443 -0.182476 17.3318 -0.298129 18.9701 0.615493Z" fill="#3C69A2"/>
<path fill-rule="evenodd" clip-rule="evenodd" d="M86.9839 27.606C87.1018 28.3867 86.5713 29.2373 85.4279 29.8781L74.4414 36.1119C72.5436 37.1839 69.6555 37.3004 68.0287 36.3799L56.0993 29.6218C55.1798 29.0974 54.8497 28.3517 55.0619 27.6177H55.0266V10.0117C55.1327 10.4894 55.4863 10.9438 56.0993 11.2934L68.0287 18.0515C69.6673 18.9836 72.5553 18.8554 74.4414 17.7835L85.4279 11.5497C86.2177 11.1069 86.7128 10.5593 86.9132 10H86.9839V27.606Z" fill="#83D0F4"/>
<path fill-rule="evenodd" clip-rule="evenodd" d="M73.9701 0.615493L85.8974 7.3231C87.5357 8.24829 87.3235 9.86736 85.426 10.9313L74.4415 17.1185C72.544 18.1825 69.6564 18.2981 68.0299 17.3845L56.1026 10.6769C54.4643 9.75172 54.6765 8.13264 56.574 7.06867L67.5585 0.881488C69.4443 -0.182476 72.3318 -0.298129 73.9701 0.615493Z" fill="#3C69A2"/>
<path fill-rule="evenodd" clip-rule="evenodd" d="M58.9839 72.606C59.1018 73.3867 58.5713 74.2373 57.4279 74.8781L46.4415 81.1119C44.5436 82.1839 41.6555 82.3004 40.0288 81.3799L28.0993 74.6218C27.1798 74.0974 26.8497 73.3517 27.0619 72.6176H27.0266V55.0116C27.1327 55.4894 27.4863 55.9438 28.0993 56.2934L40.0288 63.0515C41.6673 63.9836 44.5554 63.8554 46.4415 62.7835L57.4279 56.5497C58.2177 56.1069 58.7128 55.5593 58.9132 55H58.9839V72.606Z" fill="#83D0F4"/>
<path fill-rule="evenodd" clip-rule="evenodd" d="M45.97 45.62L57.8974 52.3259C59.5357 53.2508 59.3235 54.8695 57.426 55.9332L46.4415 62.1187C44.544 63.1824 41.6682 63.298 40.0299 62.3847L28.1026 55.6788C26.4643 54.7539 26.6765 53.1352 28.574 52.0715L39.5585 45.886C41.4442 44.8223 44.3318 44.6951 45.97 45.62Z" fill="#3C69A2"/>
<path fill-rule="evenodd" clip-rule="evenodd" d="M25.2566 23.9902C24.657 24.0673 24.1045 23.6819 24.0105 23.1203C23.9282 22.5587 24.3396 22.0412 24.9392 21.9531L53.8472 18.011C53.8942 18 53.953 18 54 18V20.0701L25.2566 23.9902Z" fill="#83D0F4"/>
<path fill-rule="evenodd" clip-rule="evenodd" d="M61.887 20.7052C62.1104 20.1281 62.7455 19.8516 63.3101 20.08C63.8746 20.3085 64.1452 20.9577 63.9217 21.5348L53.113 49.2948C52.8896 49.8719 52.2545 50.1484 51.6899 49.92C51.1254 49.6915 50.8548 49.0423 51.0783 48.4652L61.887 20.7052Z" fill="#83D0F4"/>
<path fill-rule="evenodd" clip-rule="evenodd" d="M44.7551 55.2314C45.1444 55.6995 45.0593 56.39 44.5727 56.7645C44.0861 57.1389 43.3683 57.057 42.9791 56.5889L24.2448 33.7686C23.8556 33.3005 23.9407 32.61 24.4273 32.2355C24.9139 31.8611 25.6317 31.943 26.021 32.4111L44.7551 55.2314Z" fill="#83D0F4"/>
</svg>
