<svg width="68" height="89" viewBox="0 0 68 89" fill="none" xmlns="http://www.w3.org/2000/svg">
<path fill-rule="evenodd" clip-rule="evenodd" d="M15.2804 50.3731C16.8782 49.2038 18.6696 48.3025 20.6063 47.7057C21.3689 47.4743 22.1193 47.5596 23.5839 48.0589C24.5039 48.3756 25.5569 48.7288 26.7189 49.1064C27.7236 49.4352 29.0672 49.6179 30.7254 49.6545C32.3474 49.6788 33.9694 49.4474 35.5671 48.9481C37.1649 48.4487 38.7627 47.6814 40.3241 46.6583C41.934 45.6108 43.217 44.6121 44.1612 43.6743C45.2626 42.5781 46.2552 41.5915 47.1025 40.7389C48.4703 39.3505 49.1965 38.8024 49.9591 38.571C51.8958 37.9741 53.7114 37.7427 55.3818 37.8889C57.0522 38.0472 58.5047 38.5101 59.7272 39.2774C60.8892 40.0082 61.9302 41.0191 62.8502 42.2614C63.068 42.5659 63.2859 42.8704 63.4916 43.1992L64 43.5037L56.5075 34.7952L56.2291 34.4907L56.0355 34.2959L55.8902 34.1497L55.7934 34.0523L55.5996 33.8696L55.3455 33.6503L55.0308 33.4067L54.8734 33.285L54.7161 33.1753L54.4498 32.9926L54.2924 32.883L52.5373 32.0426C51.339 31.6285 50.0801 31.4458 48.8092 31.458C48.3492 32.274 47.8288 33.0779 47.2599 33.8696C43.9554 38.5101 39.7794 41.6402 34.853 43.1749C31.0765 44.3441 27.651 44.3441 24.6007 43.1627L21.3083 42.712L19.6501 42.164L18.1128 41.6402L17.786 41.5306L17.4834 41.4332L17.3745 41.3966L17.1566 41.3358L16.9024 41.2748L16.7087 41.2383L16.6603 41.2261L16.394 41.1896H16.3456L12.8475 42.2127L12.678 42.2979L12.2544 42.505L11.7581 42.7729L11.3586 43.0044L10.8019 43.3454L10.1119 43.8082L9.51881 44.2467L9.22832 44.4781L8.93779 44.7095L8.65942 44.9409L8.38101 45.1845L7.98158 45.5499L7.53369 45.9884C5.57281 47.9371 4.084 50.4096 3.00672 52.9552L2.87359 53.2718L2.55887 54.0757C0.452728 59.6297 -0.539814 68.5452 0.295379 74.221C0.646402 76.6691 1.37264 78.289 3.04303 80.0428L7.31583 85C6.29907 83.441 5.71809 81.4313 5.59704 78.9832C5.52442 77.4608 5.50021 75.9383 5.52442 74.4524C5.54863 72.9421 5.68176 71.2613 5.88753 69.4709C6.10541 67.6561 6.42013 65.9144 6.80747 64.2823C7.21901 62.6015 7.8 60.8842 8.52625 59.179C9.28882 57.413 10.2088 55.793 11.2618 54.368C12.3028 52.8943 13.6827 51.5423 15.2804 50.3731ZM15.9946 30.4714C16.1519 33.6016 16.975 36.2568 18.4517 38.4126L13.9853 33.285C11.6128 30.5933 10.6566 27.4143 10.5234 23.8579C10.4145 21.0931 10.8503 18.7911 11.4192 16.952C14.3968 7.36655 22.7851 2.26326 28.2683 0.777334C36.0271 -1.3054 40.0457 0.472834 48.3492 10.0948C46.8846 8.92555 47.514 9.31531 45.9405 8.01208C42.285 5.5396 37.9275 5.06459 33.0132 6.59923C28.0867 8.13387 23.9108 11.2641 20.6063 15.9045C17.3018 20.545 15.7525 25.4534 15.9946 30.4714Z" fill="#3C69A2"/>
<path fill-rule="evenodd" clip-rule="evenodd" d="M34.7575 43.4464C39.7503 41.9122 43.9826 38.7827 47.3316 34.1433C50.6806 29.504 52.2631 24.6089 52.0177 19.5799C51.7724 14.563 49.7605 10.7516 46.0558 8.29192C42.3511 5.82002 37.9348 5.34512 32.9543 6.8794C27.9615 8.41368 23.7292 11.5431 20.3802 16.1825C17.0312 20.8219 15.4487 25.717 15.6941 30.746C15.9394 35.775 17.9513 39.5742 21.656 42.0339C25.3607 44.4937 29.7647 44.9686 34.7575 43.4464ZM67.6096 55.4894C67.7813 56.9019 67.9039 58.3996 67.9776 59.9217C68.1738 63.8914 67.082 67.4836 64.7267 70.6008C62.4081 73.6816 59.2432 75.8612 55.3176 77.0667L19.0185 88.2207C15.093 89.4262 11.8176 89.2314 9.26597 87.6484C6.67756 86.0411 5.26684 83.216 5.08283 79.2585C5.00923 77.7364 4.98466 76.2143 5.0092 74.7288C5.03373 73.2188 5.16869 71.5384 5.37724 69.7484C5.59805 67.9341 5.91701 66.1928 6.30957 64.5611C6.72666 62.8807 7.31547 61.1637 8.05151 59.459C8.82436 57.6933 9.75669 56.0738 10.8239 54.6492C11.9403 53.1636 13.3265 51.8119 14.958 50.643C16.5773 49.474 18.3929 48.5729 20.3557 47.9762C21.1285 47.7449 21.8891 47.8301 23.3734 48.3294C24.3057 48.646 25.373 48.9991 26.5507 49.3766C27.5689 49.7054 28.9306 49.888 30.6112 49.9245C32.255 49.9489 33.8988 49.7175 35.5181 49.2183C37.1374 48.719 38.7567 47.9519 40.3392 46.929C41.9708 45.8818 43.2711 44.8833 44.2279 43.9457C45.3443 42.8498 46.3502 41.8635 47.2089 41.0111C48.5951 39.6229 49.3312 39.075 50.104 38.8436C52.0668 38.2469 53.9069 38.0156 55.5998 38.1617C57.2927 38.32 58.7648 38.7827 60.0038 39.5499C61.1814 40.2805 62.2365 41.2911 63.1688 42.5332C64.0643 43.7265 64.8003 45.0416 65.3646 46.4298C65.9044 47.7692 66.3828 49.267 66.7754 50.8865C67.1434 52.4817 67.4255 54.0403 67.6096 55.4894Z" fill="#83D0F4"/>
</svg>
