<svg width="68" height="101" viewBox="0 0 68 101" fill="none" xmlns="http://www.w3.org/2000/svg">
<path fill-rule="evenodd" clip-rule="evenodd" d="M5.81802 67.1176L48.1013 91.977C49.264 92.659 50.8329 93 52.4809 93C54.4563 93 56.5557 92.5453 58.1473 91.5678L64.5699 87.6007C67.4934 85.7934 67.8433 83.2018 65.2698 81.7013L61.7819 79.6553C60.8225 79.2234 37.8296 67.0381 14.6901 53L5.97603 57.8309L3.33473 59.3768C0.975627 60.7636 -0.153139 63.628 2.65747 65.2762L5.81802 67.1176Z" fill="#83D0F4"/>
<path fill-rule="evenodd" clip-rule="evenodd" d="M22 62.8994V35.2011L11 29V53.2533V62.8994C11 64.6105 13.4679 66 16.5 66C19.5321 66 22 64.6105 22 62.8994Z" fill="#3C69A2"/>
<path fill-rule="evenodd" clip-rule="evenodd" d="M47 49.2849V76.7699V82.9233C47 84.6212 49.4679 86 52.5 86C55.5321 86 58 84.6212 58 82.9233V49H57.4476L54.3569 50.732C53.2051 51.5525 51.7244 51.712 50.4434 51.2334L49.3622 50.6295L47 49.2849Z" fill="#3C69A2"/>
<path fill-rule="evenodd" clip-rule="evenodd" d="M40 72.8994V45.2011L29 39V66.6983V72.8994C29 74.6105 31.468 76 34.5 76C37.5321 76 40 74.6105 40 72.8994Z" fill="#3C69A2"/>
<path fill-rule="evenodd" clip-rule="evenodd" d="M58.7325 51.6662L34.0519 9.29035C31.1596 4.32215 28.6984 4.15354 24.8988 6.33415L2.20309 19.3167C0.785315 20.2272 -0.0540088 21.812 0.00270211 23.4868C0.059413 25.0942 0.932736 26.5554 2.31648 27.3872L52.5737 56.1399L53.6172 56.7356C54.8535 57.2077 56.2826 57.0503 57.3941 56.241C58.8232 55.1957 59.379 53.3186 58.7325 51.6662Z" fill="#83D0F4"/>
<path fill-rule="evenodd" clip-rule="evenodd" d="M48 47L28.3778 12.6608C28.2876 12.4899 28.141 12.2507 27.9831 12C27.9831 12 27.9718 12 27.9718 12.0114L8 23.6667L48 47Z" fill="#83D0F4"/>
<path fill-rule="evenodd" clip-rule="evenodd" d="M25 6.60875C28.7322 4.45382 31.1677 4.63529 34.0091 9.55759L58.5899 52.3839C59.2326 54.0511 58.6801 55.9452 57.2481 57L60.2474 55.2647L65.6483 52.1344C65.9077 52.021 66.1557 51.8735 66.3925 51.7034C67.8245 50.6486 68.377 48.7546 67.7343 47.0873L43.1987 4.32906C40.3235 -0.683977 37.8767 -0.8541 34.0994 1.34619L25 6.60875Z" fill="#3C69A2"/>
<path fill-rule="evenodd" clip-rule="evenodd" d="M48 47L44.8424 41.5136L11.1463 22L8 23.8326L48 47Z" fill="#83D0F4"/>
<path fill-rule="evenodd" clip-rule="evenodd" d="M27.2461 79.1949L5.69488 66.5661L5.49125 66.4525L2.53855 64.7263C1.95027 64.3855 1.53169 63.988 1.26018 63.5565C1.14705 63.3748 1.05656 63.1931 1 63V63.7041V63.9767V70.223V71.5517C1.20363 72.2104 1.7127 72.8237 2.53855 73.3007L48.39 100.035C50.811 101.443 55.076 101.307 57.8364 99.6487L64.8165 95.4694C67.0564 94.1292 66.9999 93.2775 66.9999 90.6427V85.7592V83.6582C66.9999 84.703 66.3098 85.8046 64.9862 86.7359C64.8843 86.8154 64.7825 86.8836 64.6807 86.9403C64.6468 86.9631 64.6015 86.9858 64.5676 87.0085L60.2573 89.6546L58.1192 90.972C57.7685 91.1878 57.3952 91.3809 56.9992 91.5399C56.162 91.8919 55.2344 92.1304 54.2954 92.2667C53.6732 92.3576 53.051 92.403 52.4401 92.403C51.2748 92.403 50.1322 92.2327 49.1593 91.8919C48.7633 91.7557 48.39 91.5853 48.0506 91.3809L27.2461 79.1949Z" fill="#83D0F4"/>
</svg>
