<svg width="43" height="49" viewBox="0 0 43 49" fill="none" xmlns="http://www.w3.org/2000/svg">
<path fill-rule="evenodd" clip-rule="evenodd" d="M42.9784 36.4747C43.1368 37.5156 42.4239 38.6497 40.8875 39.5042L26.1244 47.8158C23.5742 49.2451 19.6933 49.4005 17.5074 48.1732L1.47715 39.1624C0.241617 38.4633 -0.201915 37.469 0.083208 36.4902H0.0356895V13.0155C0.178251 13.6525 0.653461 14.2584 1.47715 14.7245L17.5074 23.7353C19.7092 24.9781 23.59 24.8072 26.1244 23.3779L40.8875 15.0663C41.9487 14.4759 42.614 13.7457 42.8833 13H42.9784V36.4747Z" fill="#83D0F4"/>
<path fill-rule="evenodd" clip-rule="evenodd" d="M25.491 0.820658L41.5184 9.76413C43.7198 10.9977 43.4347 13.1565 40.8849 14.5751L26.1245 22.8247C23.5747 24.2433 19.6945 24.3975 17.509 23.1793L1.48158 14.2359C-0.719809 13.0023 -0.434746 10.8435 2.11507 9.4249L16.8755 1.17532C19.4095 -0.243302 23.2896 -0.397505 25.491 0.820658Z" fill="#3C69A2"/>
</svg>
