<svg width="600" height="483" viewBox="0 0 600 483" fill="none" xmlns="http://www.w3.org/2000/svg">
<g clip-path="url(#clip0_1161:25946)">
<path opacity="0.0727" d="M0 328.924L329.11 483L582 302.421L302.166 144L0 328.924Z" fill="#231F20"/>
<path opacity="0.0934" d="M7 325.869L328.305 478L577 300.612L301.807 145L7 325.869Z" fill="#231F20"/>
<path opacity="0.1141" d="M15 323.808L327.93 474L572 299.794L301.924 147L15 323.808Z" fill="#231F20"/>
<path opacity="0.1347" d="M22 320.762L327.124 469L567 298.007L301.565 148L22 320.762Z" fill="#231F20"/>
<path opacity="0.1554" d="M29 318.23L326.317 465L562 296.665L301.203 149L29 318.23Z" fill="#231F20"/>
<path opacity="0.176" d="M37 315.175L325.968 460L557 294.856L301.332 150L37 315.175Z" fill="#231F20"/>
<path opacity="0.1967" d="M44 313.114L325.153 456L552 294.054L300.962 152L44 313.114Z" fill="#231F20"/>
<path opacity="0.2174" d="M51 310.054L323.792 451L546 292.251L300.095 153L51 310.054Z" fill="#231F20"/>
<path opacity="0.238" d="M59 307.003L323.982 446L542 290.458L300.747 154L59 307.003Z" fill="#231F20"/>
<path opacity="0.2587" d="M66 304.473L323.164 442L537 289.115L300.374 155L66 304.473Z" fill="#231F20"/>
<path opacity="0.2793" d="M73 302.398L321.808 438L531 288.298L299.511 157L73 302.398Z" fill="#231F20"/>
<path opacity="0.3" d="M81 299.355L321.996 433L527 286.511L300.145 158L81 299.355Z" fill="#231F20"/>
<path d="M236.194 168.111C243.594 160.862 260.216 158.703 272.498 163.607C282.369 167.556 286.17 176.1 280.778 182.238C277.719 185.724 272.637 188.161 266.828 189.364C264.078 189.935 263.769 192.109 266.288 192.973L316.093 210L345.646 181.066C347.562 179.2 352.459 179.478 353.648 181.544C355.564 184.891 359.673 187.852 365.605 189.642C376.728 192.988 390.647 190.829 397.29 184.737C404.582 178.043 400.766 169.221 388.994 165.196C383.711 163.391 377.732 162.867 372.155 163.453C368.432 163.854 365.621 161.51 367.536 159.628L397.089 130.695L269.146 86.9547C263.553 85.0422 256.354 86.091 253.079 89.3144L178 162.79L227.867 179.832C230.355 180.681 233.491 179.493 233.027 177.858C232.1 174.604 233.074 171.149 236.194 168.111Z" fill="url(#paint0_linear_1161:25946)"/>
<path d="M372.199 163.634C377.743 163.035 383.686 163.558 388.938 165.371C391.072 166.109 392.931 167.001 394.528 168L397 165.587V131L367.623 159.838C365.704 161.698 368.498 164.034 372.199 163.634Z" fill="url(#paint1_linear_1161:25946)"/>
<path d="M400.833 179.03C400.431 181.042 399.303 183.023 397.31 184.849C390.666 190.962 376.761 193.128 365.62 189.77C359.672 187.975 355.577 185.004 353.661 181.646C352.472 179.572 347.558 179.278 345.658 181.166L316.1 210.197L266.287 193.113C263.753 192.246 264.077 190.064 266.827 189.491C272.652 188.284 277.736 185.839 280.779 182.342C286.172 176.183 282.371 167.61 272.498 163.648C260.214 158.727 243.605 160.909 236.188 168.167C233.067 171.231 232.109 174.682 233.036 177.947C233.5 179.603 230.379 180.779 227.876 179.928L178 162.828V197.647L227.876 214.746C230.363 215.598 233.5 214.406 233.036 212.766C232.109 209.5 233.067 206.05 236.188 202.986C242.106 197.182 253.91 194.629 264.68 196.347V225.718C264.355 226.523 264.85 227.436 266.287 227.916L316.1 245L345.658 215.969C347.574 214.097 352.472 214.375 353.661 216.449C355.577 219.807 359.687 222.778 365.62 224.573C376.745 227.931 390.666 225.765 397.31 219.652C400.37 216.836 401.451 213.648 400.833 210.584V179.03Z" fill="url(#paint2_linear_1161:25946)"/>
<path d="M350 214.793V180.027C348.332 179.888 346.54 180.275 345.551 181.248L316 210.235V245L345.551 216.013C346.54 215.025 348.332 214.654 350 214.793Z" fill="url(#paint3_linear_1161:25946)"/>
<path d="M347.2 215C347.139 215.031 347.062 215.046 347 215.077C347.062 215.046 347.123 215.015 347.2 215Z" fill="url(#paint4_linear_1161:25946)"/>
<path d="M347.716 214.947C347.685 214.963 347.655 214.963 347.608 214.963C347.655 214.963 347.685 214.963 347.716 214.947Z" fill="url(#paint5_linear_1161:25946)"/>
<path d="M266.28 193.113C263.747 192.246 264.071 190.064 266.821 189.491C272.646 188.284 277.729 185.839 280.772 182.342C286.164 176.183 282.364 167.61 272.491 163.648C260.209 158.727 243.6 160.909 236.184 168.167C233.063 171.231 232.105 174.682 233.032 177.947C233.496 179.603 230.375 180.779 227.872 179.928L178 162.828V197.647L227.872 214.747C230.36 215.598 233.496 214.406 233.032 212.766C232.105 209.5 233.063 206.05 236.184 202.986C242.101 197.182 253.905 194.629 264.674 196.347V225.718C264.349 226.523 264.844 227.436 266.28 227.916L316.091 245V210.181L266.28 193.113Z" fill="url(#paint6_linear_1161:25946)"/>
<path d="M400.833 210.599V179.014C400.432 181.026 399.304 183.007 397.311 184.833C390.667 190.946 376.763 193.112 365.623 189.754C359.675 187.959 355.581 184.988 353.665 181.63C352.8 180.113 349.942 179.556 347.717 180.113C348.474 179.927 349.308 179.866 350.096 179.943V214.762C351.641 214.885 353.078 215.458 353.65 216.464C355.565 219.822 359.675 222.793 365.608 224.588C376.732 227.946 390.652 225.78 397.295 219.667C400.37 216.851 401.451 213.663 400.833 210.599Z" fill="url(#paint7_linear_1161:25946)"/>
<path d="M346.527 180.562C346.202 180.732 345.909 180.933 345.662 181.18C345.893 180.933 346.187 180.732 346.527 180.562Z" fill="url(#paint8_linear_1161:25946)"/>
<path d="M347.623 180.144C347.299 180.221 347.005 180.345 346.727 180.469C347.005 180.345 347.299 180.237 347.623 180.144Z" fill="url(#paint9_linear_1161:25946)"/>
<path d="M228.856 180.24C228.918 180.24 228.964 180.24 229.026 180.256C228.964 180.24 228.902 180.24 228.856 180.24Z" fill="url(#paint10_linear_1161:25946)"/>
<path d="M224.252 178.772L178.015 162.934L224.252 178.772Z" fill="url(#paint11_linear_1161:25946)"/>
<path d="M227.882 214.775L224.268 213.54L227.882 214.775C228.207 214.884 228.531 214.961 228.856 215.007C228.531 214.961 228.191 214.884 227.882 214.775Z" fill="url(#paint12_linear_1161:25946)"/>
<path d="M229.026 215.008C229.304 215.038 229.582 215.054 229.86 215.054C229.582 215.069 229.304 215.038 229.026 215.008Z" fill="url(#paint13_linear_1161:25946)"/>
<path d="M231.652 214.684C231.575 214.715 231.544 214.715 231.652 214.684V214.684Z" fill="url(#paint14_linear_1161:25946)"/>
<path d="M264.604 225.963C264.573 226.117 264.573 226.271 264.604 226.41V225.963Z" fill="url(#paint15_linear_1161:25946)"/>
<path d="M264.604 191.768C264.341 190.872 265.098 189.898 266.813 189.558C272.637 188.353 277.719 185.911 280.763 182.419C286.154 176.269 282.354 167.709 272.482 163.753C260.201 158.839 243.594 161.018 236.179 168.265C233.058 171.325 232.1 174.77 233.027 178.031C233.259 178.834 232.626 179.514 231.652 179.916V214.668C231.946 214.513 233.305 213.756 233.027 212.798C232.1 209.538 233.058 206.092 236.179 203.032C242.08 197.238 253.852 194.704 264.604 196.403V191.768Z" fill="url(#paint16_linear_1161:25946)"/>
<path opacity="0.24" d="M367.413 160.678C367.459 160.632 367.49 160.585 367.536 160.539L397.089 131.551L395.343 130.948L367.536 158.206C366.702 159.04 366.764 159.936 367.413 160.678Z" fill="url(#paint17_radial_1161:25946)"/>
<path opacity="0.24" d="M397.29 183.362C390.647 189.465 376.744 191.629 365.605 188.275C359.658 186.483 355.564 183.516 353.648 180.163C352.459 178.093 347.546 177.799 345.646 179.684L316.093 208.672L266.288 191.613C265.824 191.459 265.484 191.242 265.206 191.01C264.094 191.907 264.387 193.282 266.288 193.931L316.093 210.99L345.646 182.002C347.562 180.132 352.459 180.41 353.648 182.481C355.564 185.834 359.673 188.801 365.605 190.593C376.728 193.946 390.647 191.783 397.29 185.68C400.194 183.006 401.307 180.009 400.889 177.104C400.58 179.251 399.422 181.399 397.29 183.362Z" fill="url(#paint18_radial_1161:25946)"/>
<path opacity="0.24" d="M232.78 177.599C231.992 178.587 229.752 179.113 227.883 178.464L179.761 161.992L178.015 163.707L227.883 180.782C230.37 181.632 233.506 180.442 233.042 178.804C232.919 178.402 232.842 178 232.78 177.599Z" fill="url(#paint19_radial_1161:25946)"/>
<path opacity="0.24" d="M283.142 175.852C283.852 170.676 279.867 165.144 272.498 162.192C260.216 157.279 243.609 159.457 236.194 166.704C233.444 169.393 232.378 172.391 232.795 175.28C233.089 173.132 234.186 170.985 236.194 169.022C243.594 161.76 260.216 159.596 272.498 164.51C278.77 167.029 282.586 171.417 283.142 175.852Z" fill="url(#paint20_radial_1161:25946)"/>
<path d="M184.709 273.819C174.351 267.836 174.752 258.014 185.942 252.417C194.944 247.915 210.189 247.976 219.176 252.54C224.278 255.131 227.129 258.585 227.746 262.147C228.039 263.827 231.599 264.552 233.665 263.365L274.282 239.912L232.94 216.042C230.274 214.5 231.923 211.833 235.684 211.694C241.773 211.478 247.723 209.936 252.162 207.084C260.47 201.718 260.224 193.407 251.607 188.149C242.158 182.382 226.436 182.243 216.833 187.794C212.517 190.276 210.189 193.484 209.835 196.753C209.603 198.927 204.994 199.898 202.312 198.356L160.971 174.487L56.6322 234.746C52.0696 237.383 52.1004 241.67 56.6785 244.322L161.665 304.967L202.328 281.483C204.362 280.311 203.129 278.26 200.262 278.106C194.605 277.751 189.056 276.333 184.709 273.819Z" fill="url(#paint21_linear_1161:25946)"/>
<path d="M252.162 207.068C247.723 209.921 241.773 211.463 235.684 211.679C231.923 211.817 230.258 214.485 232.94 216.027L258.096 230.552V199.204C257.603 202.042 255.645 204.817 252.162 207.068Z" fill="url(#paint22_linear_1161:25946)"/>
<path d="M233.665 263.365C231.599 264.552 228.038 263.827 227.746 262.147C227.129 258.585 224.277 255.131 219.175 252.54C210.173 247.961 194.929 247.915 185.942 252.417C174.751 258.014 174.351 267.852 184.709 273.819C189.071 276.333 194.605 277.751 200.293 278.06C202.05 278.152 203.191 278.969 203.345 279.848H203.36V279.879C203.36 279.91 203.36 279.941 203.36 279.972V283.78C209.156 283.888 214.89 285.045 219.206 287.234C224.308 289.825 227.16 293.279 227.776 296.841C228.069 298.521 231.63 299.246 233.695 298.059L272.601 275.593L274.312 275.238V239.912L233.665 263.365Z" fill="url(#paint23_linear_1161:25946)"/>
<path d="M56.6936 244.291C54.4432 242.996 53.2871 241.3 53.2408 239.588V273.557L53.2871 273.542C52.9634 275.485 54.104 277.505 56.6936 279.001L161.68 339.645V304.952L56.6936 244.291Z" fill="url(#paint24_linear_1161:25946)"/>
<path d="M202.358 281.437L161.695 304.92V339.614L202.358 316.13C202.99 315.76 203.283 315.313 203.329 314.866H203.345V314.666C203.345 314.635 203.345 314.604 203.345 314.573V283.78V279.972C203.375 280.496 203.083 281.02 202.358 281.437Z" fill="url(#paint25_linear_1161:25946)"/>
<path d="M202.358 281.437L161.695 304.92V339.614L202.358 316.13C202.99 315.76 203.283 315.313 203.329 314.866H203.345V314.666C203.345 314.635 203.345 314.604 203.345 314.573V283.78V279.972C203.375 280.496 203.083 281.02 202.358 281.437Z" fill="url(#paint26_linear_1161:25946)"/>
<path opacity="0.24" d="M202.112 280.034L161.68 303.379L56.6939 242.734C55.0754 241.793 54.0426 240.668 53.5494 239.465C52.6553 241.67 53.7035 244.091 56.6939 245.818L161.68 306.463L202.343 282.979C203.869 282.115 203.561 280.743 202.112 280.034Z" fill="url(#paint27_radial_1161:25946)"/>
<path opacity="0.24" d="M252.162 205.526C247.723 208.379 241.773 209.921 235.699 210.137C232.154 210.26 230.474 212.635 232.54 214.208C233.249 213.668 234.328 213.267 235.699 213.221C241.788 213.005 247.738 211.463 252.162 208.61C256.863 205.573 258.821 201.594 258.066 197.755C257.557 200.577 255.599 203.306 252.162 205.526Z" fill="url(#paint28_radial_1161:25946)"/>
<path opacity="0.24" d="M233.665 261.823C231.599 263.01 228.039 262.285 227.746 260.605C227.129 257.043 224.278 253.589 219.175 250.998C210.174 246.419 194.929 246.373 185.942 250.875C179.407 254.144 176.57 258.862 177.403 263.411C178.05 259.895 180.886 256.488 185.942 253.959C194.944 249.456 210.189 249.518 219.175 254.082C224.278 256.673 227.129 260.127 227.746 263.689C228.039 265.369 231.599 266.094 233.665 264.907L274.281 241.454L271.615 239.912L233.665 261.823Z" fill="url(#paint29_radial_1161:25946)"/>
<path d="M421.272 201.949C431.63 207.932 431.23 217.754 420.039 223.351C411.037 227.854 395.792 227.792 386.806 223.228C381.704 220.637 378.852 217.183 378.235 213.622C377.942 211.941 374.382 211.216 372.316 212.403L331.7 235.856L373.025 259.741C375.692 261.283 374.043 263.951 370.282 264.09C364.193 264.305 358.243 265.847 353.804 268.7C345.495 274.066 345.742 282.377 354.359 287.635C363.808 293.402 379.53 293.541 389.133 287.99C393.449 285.507 395.777 282.3 396.131 279.031C396.362 276.857 400.971 275.885 403.653 277.427L444.994 301.297L549.334 241.037C553.896 238.401 553.865 234.114 549.287 231.462L444.301 170.817L403.638 194.301C401.603 195.473 402.836 197.524 405.704 197.678C411.361 198.017 416.91 199.436 421.272 201.949Z" fill="url(#paint30_linear_1161:25946)"/>
<path d="M421.272 201.949C431.63 207.932 431.23 217.754 420.039 223.351C411.037 227.854 395.792 227.792 386.806 223.228C381.704 220.637 378.852 217.183 378.235 213.622C377.942 211.941 374.382 211.216 372.316 212.403L331.7 235.856L373.025 259.741C375.692 261.283 374.043 263.951 370.282 264.09C364.193 264.305 358.243 265.847 353.804 268.7C345.495 274.066 345.742 282.377 354.359 287.635C363.808 293.402 379.53 293.541 389.133 287.99C393.449 285.507 395.777 282.3 396.131 279.031C396.362 276.857 400.971 275.885 403.653 277.427L444.994 301.297L549.334 241.037C553.896 238.401 553.865 234.114 549.287 231.462L444.301 170.817L403.638 194.301C401.603 195.473 402.836 197.524 405.704 197.678C411.361 198.017 416.91 199.436 421.272 201.949Z" fill="url(#paint31_linear_1161:25946)"/>
<path d="M420.023 223.367C431.214 217.769 431.615 207.932 421.257 201.964C416.894 199.451 411.361 198.032 405.673 197.724C403.838 197.616 402.682 196.753 402.621 195.828L402.559 195.843V226.713C408.91 226.821 415.322 225.726 420.023 223.367Z" fill="url(#paint32_linear_1161:25946)"/>
<path d="M552.724 270.797L552.802 270.782V236.088L552.724 236.103C552.802 237.876 551.676 239.665 549.333 241.022L444.994 301.281V335.975L549.333 275.716C551.676 274.374 552.802 272.586 552.724 270.797Z" fill="url(#paint33_linear_1161:25946)"/>
<path d="M552.724 270.797L552.802 270.782V236.088L552.724 236.103C552.802 237.876 551.676 239.665 549.333 241.022L444.994 301.281V335.975L549.333 275.716C551.676 274.374 552.802 272.586 552.724 270.797Z" fill="url(#paint34_linear_1161:25946)"/>
<path d="M353.804 268.7C358.243 265.848 364.193 264.306 370.281 264.09C374.042 263.951 375.707 261.284 373.025 259.742L331.684 235.872V270.566L347.777 279.864L347.962 279.818C347.083 275.886 348.994 271.8 353.804 268.7Z" fill="url(#paint35_linear_1161:25946)"/>
<path d="M403.653 277.427C402.327 276.656 400.539 276.518 399.029 276.826V311.52C400.539 311.212 402.327 311.366 403.653 312.121L444.994 335.991V301.297L403.653 277.427Z" fill="url(#paint36_linear_1161:25946)"/>
<path d="M396.13 279.032C395.776 282.3 393.448 285.492 389.132 287.99C379.529 293.541 363.806 293.418 354.357 287.636C350.735 285.415 348.608 282.655 347.961 279.802L347.776 279.849V311.968C347.467 315.684 349.656 319.446 354.357 322.314C363.806 328.096 379.529 328.22 389.132 322.669C393.448 320.186 395.776 316.979 396.13 313.71C396.253 312.6 397.487 311.813 399.043 311.505V276.811C397.487 277.135 396.253 277.921 396.13 279.032Z" fill="url(#paint37_linear_1161:25946)"/>
<path d="M396.13 279.032C395.776 282.3 393.448 285.492 389.132 287.99C379.529 293.541 363.806 293.418 354.357 287.636C350.735 285.415 348.608 282.655 347.961 279.802L347.776 279.849V311.968C347.467 315.684 349.656 319.446 354.357 322.314C363.806 328.096 379.529 328.22 389.132 322.669C393.448 320.186 395.776 316.979 396.13 313.71C396.253 312.6 397.487 311.813 399.043 311.505V276.811C397.487 277.135 396.253 277.921 396.13 279.032Z" fill="url(#paint38_linear_1161:25946)"/>
<path opacity="0.24" d="M373.442 261.561C374.675 260.605 374.721 259.171 373.025 258.2L334.366 235.872L331.7 237.414L373.025 261.283C373.179 261.376 373.318 261.469 373.442 261.561Z" fill="url(#paint39_radial_1161:25946)"/>
<path opacity="0.24" d="M405.688 199.251C411.361 199.559 416.91 200.978 421.272 203.491C425.573 205.974 427.993 209.135 428.578 212.373C429.364 208.117 426.944 203.691 421.272 200.407C416.91 197.894 411.376 196.475 405.688 196.167C404.964 196.12 404.347 195.966 403.854 195.735L403.607 195.874C401.588 197.046 402.806 199.096 405.688 199.251Z" fill="url(#paint40_radial_1161:25946)"/>
<path opacity="0.24" d="M403.652 275.886C400.97 274.344 396.361 275.3 396.13 277.49C395.775 280.758 393.448 283.95 389.132 286.448C379.529 291.999 363.806 291.876 354.357 286.094C350.627 283.812 348.469 280.959 347.899 278.014C347.174 281.977 349.332 286.109 354.357 289.178C363.806 294.96 379.529 295.083 389.132 289.532C393.448 287.05 395.775 283.842 396.13 280.573C396.361 278.399 400.97 277.428 403.652 278.97L444.7 302.67V299.586L403.652 275.886Z" fill="url(#paint41_radial_1161:25946)"/>
<path opacity="0.24" d="M549.333 242.579C552.293 240.868 553.31 238.478 552.416 236.273C551.938 237.46 550.921 238.57 549.333 239.496L444.994 299.755L444.701 299.585V302.669L444.994 302.839L549.333 242.579Z" fill="url(#paint42_radial_1161:25946)"/>
<path d="M365.21 309.238C357.118 316.223 340.331 317.826 328.586 312.538C319.137 308.282 316.208 299.632 322.189 293.68C325.58 290.303 330.882 288.036 336.802 287.034C339.607 286.556 340.131 284.397 337.696 283.456L289.757 264.83L257.418 292.708C255.322 294.512 250.466 294.065 249.48 291.968C247.908 288.56 244.1 285.476 238.366 283.503C227.607 279.802 213.534 281.498 206.304 287.358C198.381 293.788 201.295 302.731 212.624 307.125C217.711 309.099 223.615 309.824 229.241 309.423C232.986 309.145 235.561 311.582 233.464 313.386L201.141 341.264L324.285 389.142C329.665 391.239 336.94 390.421 340.532 387.322L422.644 316.5L374.644 297.843C372.239 296.918 369.002 297.997 369.31 299.647C369.911 302.9 368.617 306.308 365.21 309.238Z" fill="url(#paint43_linear_1161:25946)"/>
<path d="M340.532 387.307C336.94 390.406 329.665 391.223 324.285 389.126L201.141 341.249V375.943L324.285 423.82C329.665 425.917 336.94 425.1 340.532 422.001L422.644 351.179V316.485L340.532 387.307Z" fill="url(#paint44_linear_1161:25946)"/>
<path d="M229.256 309.392C223.63 309.808 217.726 309.084 212.64 307.095C206.212 304.597 202.497 300.634 201.927 296.501V329.145C201.588 332.059 202.821 334.973 205.487 337.486L233.464 313.355C235.561 311.551 233.002 309.13 229.256 309.392Z" fill="url(#paint45_linear_1161:25946)"/>
<path d="M336.801 287.034C330.882 288.051 325.58 290.303 322.189 293.68C316.208 299.632 319.137 308.282 328.586 312.538C331.807 313.987 335.414 314.912 339.114 315.359V285.6C338.852 286.247 338.065 286.818 336.801 287.034Z" fill="url(#paint46_linear_1161:25946)"/>
<path d="M369.402 300.495C369.341 300.634 369.325 300.788 369.325 300.957C369.356 300.803 369.387 300.649 369.402 300.495Z" fill="url(#paint47_radial_1161:25946)"/>
<path opacity="0.24" d="M322.189 292.138C319.63 294.682 318.721 297.719 319.229 300.711C319.553 298.783 320.509 296.887 322.189 295.222C325.58 291.845 330.882 289.578 336.802 288.576C339.484 288.113 340.054 286.124 337.958 285.137C337.634 285.291 337.264 285.415 336.802 285.492C330.882 286.494 325.565 288.761 322.189 292.138Z" fill="url(#paint48_radial_1161:25946)"/>
<path opacity="0.24" d="M212.64 308.652C217.726 310.626 223.63 311.351 229.256 310.95C230.967 310.826 232.431 311.273 233.325 311.967L233.48 311.844C235.576 310.04 233.017 307.604 229.256 307.881C223.63 308.297 217.726 307.573 212.64 305.584C206.412 303.163 202.744 299.37 202.004 295.391C201.002 300.418 204.824 305.614 212.64 308.652Z" fill="url(#paint49_radial_1161:25946)"/>
<path opacity="0.24" d="M340.532 385.765C336.94 388.864 329.665 389.682 324.285 387.585L203.591 340.678L201.125 342.806L324.27 390.668C329.649 392.765 336.925 391.948 340.516 388.849L422.628 318.027L420.162 317.071L340.532 385.765Z" fill="url(#paint50_radial_1161:25946)"/>
<path opacity="0.08" d="M331.976 427.49C330.019 427.475 328.57 416.064 328.724 402.017C328.878 387.97 330.605 376.606 332.547 376.621C334.504 376.636 335.953 388.047 335.799 402.094C335.645 416.141 333.934 427.506 331.976 427.49Z" fill="url(#paint51_radial_1161:25946)"/>
<path opacity="0.08" d="M347.391 385.796C352.077 397.206 348.655 409.434 339.745 413.103C330.836 416.773 319.799 410.482 315.113 399.072C310.428 387.661 313.849 375.434 322.759 371.764C331.668 368.094 342.69 374.37 347.391 385.796Z" fill="url(#paint52_radial_1161:25946)"/>
<path opacity="0.4" d="M331.144 455.538C329.911 455.538 328.663 455.307 327.46 454.844L200.848 405.455L201.403 404.021L328.015 453.41C330.959 454.566 334.289 453.996 336.694 451.961L422.135 379.381L423.137 380.553L337.695 453.132C335.846 454.705 333.518 455.538 331.144 455.538Z" fill="url(#paint53_radial_1161:25946)"/>
<path d="M453.827 118.314C452.409 118.314 450.913 118.098 449.387 117.682C449.156 117.62 448.971 117.45 448.879 117.234L445.935 110.049C445.087 109.694 444.362 109.34 443.638 108.923C443.021 108.569 442.374 108.152 441.665 107.643L439.075 111.005C438.952 111.174 438.752 111.282 438.536 111.298C438.32 111.313 438.12 111.252 437.95 111.113C436.008 109.417 434.158 107.443 432.416 105.284C432.262 105.099 432.216 104.853 432.262 104.621L433.542 99.2244C432.308 97.4512 431.214 95.5546 430.289 93.5963L424.94 91.9772C424.709 91.9156 424.54 91.7459 424.447 91.5301C423.43 88.9396 422.659 86.3645 422.15 83.8512C422.104 83.6353 422.15 83.4194 422.274 83.2498C422.397 83.0802 422.597 82.9568 422.798 82.9414L427.021 82.4017C426.929 81.5382 426.898 80.7827 426.898 80.0734C426.898 79.2562 426.96 78.4389 427.068 77.5446L422.289 71.4076C422.135 71.2226 422.089 70.9759 422.15 70.7292C422.675 68.7401 423.476 66.9977 424.524 65.5328C424.648 65.3632 424.848 65.2398 425.064 65.2244C425.264 65.1936 425.495 65.2707 425.65 65.4095L430.813 69.8194C431.615 69.1564 432.493 68.6476 433.48 68.2929L432.247 61.6625C432.201 61.4467 432.262 61.2308 432.386 61.0612C432.524 60.8915 432.709 60.7836 432.925 60.7528C434.713 60.5832 436.655 60.7836 438.644 61.3233C438.875 61.385 439.06 61.5546 439.152 61.7705L442.081 68.9559C442.913 69.2952 443.669 69.6652 444.378 70.0816C444.994 70.4362 445.642 70.8525 446.335 71.3614L448.94 67.9999C449.064 67.8303 449.264 67.7224 449.48 67.707C449.696 67.6915 449.896 67.7532 450.066 67.892C451.992 69.5881 453.858 71.5618 455.599 73.7206C455.754 73.9056 455.8 74.1523 455.754 74.3836L454.474 79.7804C455.707 81.5537 456.802 83.4503 457.727 85.4085L463.075 87.0276C463.307 87.0893 463.476 87.2589 463.569 87.4747C464.586 90.0652 465.357 92.6403 465.865 95.1536C465.912 95.3695 465.865 95.5854 465.742 95.755C465.619 95.9246 465.418 96.048 465.218 96.0634L460.994 96.6031C461.087 97.4512 461.118 98.2221 461.118 98.9314C461.118 99.7487 461.056 100.581 460.948 101.46L465.727 107.597C465.881 107.782 465.927 108.029 465.865 108.26C465.341 110.249 464.54 111.992 463.491 113.457C463.368 113.626 463.168 113.75 462.952 113.765C462.736 113.796 462.52 113.719 462.366 113.58L457.202 109.17C456.416 109.833 455.522 110.342 454.536 110.696L455.769 117.327C455.815 117.543 455.754 117.759 455.63 117.928C455.507 118.098 455.306 118.206 455.091 118.237C454.69 118.283 454.274 118.314 453.827 118.314ZM450.174 116.278C451.53 116.633 452.886 116.787 454.12 116.756L452.917 110.311C452.84 109.91 453.087 109.525 453.472 109.417C454.69 109.093 455.769 108.476 456.663 107.597C456.956 107.32 457.403 107.304 457.711 107.551L462.736 111.838C463.399 110.774 463.923 109.555 464.308 108.214L459.561 102.123C459.438 101.954 459.376 101.738 459.407 101.537C459.545 100.597 459.607 99.7332 459.607 98.9006C459.607 98.0525 459.545 97.1119 459.407 96.0017C459.36 95.5854 459.653 95.1999 460.069 95.1382L464.216 94.614C463.754 92.5632 463.122 90.4507 462.305 88.3537L456.987 86.75C456.771 86.6883 456.601 86.5342 456.509 86.3337C455.538 84.2367 454.366 82.2321 453.041 80.3509C452.917 80.1659 452.871 79.95 452.917 79.7342L454.197 74.3682C452.763 72.6104 451.253 71.0067 449.696 69.5727L447.137 72.8725C446.875 73.2117 446.397 73.2734 446.058 73.0113C445.149 72.3174 444.378 71.8085 443.638 71.3768C442.913 70.9605 442.127 70.575 441.233 70.2203C441.033 70.1432 440.879 69.989 440.802 69.804L437.888 62.6648C436.517 62.3256 435.191 62.1559 433.927 62.1868L435.129 68.6321C435.206 69.033 434.96 69.4185 434.574 69.5265C433.357 69.8503 432.278 70.467 431.384 71.346C431.091 71.6235 430.644 71.6389 430.335 71.3922L425.31 67.1056C424.648 68.1695 424.123 69.3877 423.738 70.7292L428.486 76.8199C428.609 76.9895 428.671 77.1899 428.64 77.4058C428.501 78.3618 428.439 79.1945 428.439 80.0426C428.439 80.8906 428.501 81.8158 428.64 82.9414C428.686 83.3577 428.393 83.7432 427.977 83.8049L423.831 84.3292C424.293 86.38 424.925 88.4924 425.742 90.5895L431.06 92.1931C431.276 92.2548 431.445 92.409 431.538 92.6094C432.509 94.6911 433.68 96.711 435.006 98.5922C435.129 98.7772 435.176 98.9931 435.129 99.209L433.85 104.575C435.283 106.333 436.794 107.936 438.351 109.37L440.894 106.071C441.156 105.731 441.634 105.67 441.973 105.932C442.867 106.61 443.653 107.135 444.393 107.566C445.133 107.983 445.888 108.353 446.798 108.723C446.983 108.8 447.152 108.954 447.229 109.139L450.174 116.278Z" fill="url(#paint54_linear_1161:25946)"/>
<path d="M446.997 98.7003C445.948 98.7003 444.823 98.3611 443.667 97.6981C439.829 95.4931 436.716 90.1116 436.716 85.7016C436.716 82.4173 438.442 80.2894 441.109 80.2894C442.157 80.2894 443.282 80.6286 444.438 81.2916C448.276 83.4966 451.389 88.8781 451.389 93.2881C451.374 96.5724 449.663 98.7003 446.997 98.7003ZM441.093 81.8159C439.305 81.8159 438.242 83.2653 438.242 85.6862C438.242 89.6028 441.016 94.3674 444.423 96.3411C445.332 96.8654 446.21 97.143 446.981 97.143C448.769 97.143 449.833 95.6935 449.833 93.2726C449.833 89.3715 447.058 84.5914 443.652 82.6177C442.758 82.0935 441.864 81.8159 441.093 81.8159Z" fill="url(#paint55_linear_1161:25946)"/>
<path opacity="0.4" d="M161.295 368.819L27.3604 291.459L28.1311 290.133L162.066 367.477L161.295 368.819Z" fill="url(#paint56_radial_1161:25946)"/>
<path opacity="0.4" d="M445.38 367.246L444.594 365.92L599.214 275.315L600 276.641L445.38 367.246Z" fill="url(#paint57_radial_1161:25946)"/>
<path d="M383.245 55.7569C382.736 55.7569 382.197 55.6027 381.657 55.2789L375.183 51.532C373.472 50.5451 372.131 48.2322 372.131 46.2585V42.9279C372.131 40.4608 371.16 37.5002 369.449 34.8018C365.996 29.3433 364.316 23.1447 364.933 18.2104C365.565 13.2916 368.617 10.2231 372.917 10.2231C374.397 10.2231 375.954 10.5778 377.557 11.3025C385.68 14.9261 392.817 26.3057 392.817 35.6499C392.817 40.2912 391.029 43.7451 387.915 45.1329C386.358 45.8267 385.495 47.4766 385.495 49.7741V53.1047C385.495 53.8603 385.295 54.5079 384.909 54.9859C384.493 55.4793 383.908 55.7569 383.245 55.7569ZM372.917 11.7805C369.403 11.7805 366.998 14.263 366.459 18.4109C365.873 23.0059 367.476 28.819 370.744 33.9846C372.593 36.9143 373.657 40.1832 373.657 42.9279V46.2585C373.657 47.6771 374.705 49.4812 375.938 50.2059L382.412 53.9528C382.705 54.1224 382.998 54.2149 383.229 54.2149C383.43 54.2149 383.584 54.1533 383.692 54.0145C383.846 53.8295 383.938 53.5056 383.938 53.1047V49.7741C383.938 46.8598 385.156 44.6549 387.283 43.7297C389.811 42.6041 391.26 39.6744 391.26 35.6653C391.26 26.8608 384.555 16.1442 376.909 12.7365C375.522 12.0889 374.166 11.7805 372.917 11.7805Z" fill="url(#paint58_linear_1161:25946)"/>
<path d="M381.039 61.2002C380.654 61.2002 380.238 61.0769 379.837 60.861L376.986 59.2111C375.629 58.4247 374.55 56.4202 374.55 54.6469V50.9308L383.043 55.8342V58.656C383.043 60.4138 382.041 61.2002 381.039 61.2002ZM376.092 53.5984V54.6315C376.092 55.8496 376.862 57.3607 377.756 57.8696L380.608 59.5195C380.808 59.6428 380.947 59.6583 381.039 59.6583C381.363 59.6583 381.502 59.134 381.502 58.6406V56.7131L376.092 53.5984Z" fill="url(#paint59_linear_1161:25946)"/>
<path d="M379.745 49.6047H378.203V36.6985L378.126 36.7448L372.315 26.722L384.708 33.8767L379.745 36.6985V49.6047ZM376.554 30.947L379.082 35.3107L381.61 33.8613L376.554 30.947Z" fill="url(#paint60_linear_1161:25946)"/>
<path d="M308.285 82.2475C305.988 82.2475 303.538 81.5074 300.994 80.0271C292.301 75.0004 285.21 62.7881 285.21 52.7963C285.21 45.7034 288.848 41.1238 294.459 41.1238C296.755 41.1238 299.206 41.8639 301.749 43.3442C310.459 48.3709 317.534 60.5832 317.534 70.575C317.534 77.6679 313.911 82.2475 308.285 82.2475ZM294.474 42.6657C289.711 42.6657 286.767 46.5514 286.767 52.7963C286.767 62.2947 293.503 73.9056 301.78 78.701C304.062 80.0117 306.312 80.7056 308.301 80.7056C313.064 80.7056 316.008 76.8199 316.008 70.575C316.008 61.0766 309.272 49.4657 300.994 44.6857C298.713 43.3596 296.462 42.6657 294.474 42.6657Z" fill="url(#paint61_linear_1161:25946)"/>
<path d="M311.366 67.0132L301.07 62.6032C300.793 62.4798 300.608 62.2023 300.608 61.8939V49.0803H302.149V61.3851L311.983 65.5946L311.366 67.0132Z" fill="url(#paint62_linear_1161:25946)"/>
<path d="M510.474 179.359C507.915 179.359 504.925 177.833 502.289 175.165C502.15 175.027 502.073 174.826 502.104 174.626C502.135 174.425 502.258 174.24 502.428 174.148L507.376 171.326L502.428 162.799L497.465 165.621C497.295 165.713 497.079 165.729 496.894 165.652C496.709 165.574 496.57 165.42 496.509 165.22C495.106 160.101 496.077 155.721 499.006 154.056C501.811 152.452 506.004 153.717 509.626 157.186L519.245 151.697C518.027 146.794 519.044 142.63 521.865 141.027C524.763 139.377 529.141 140.78 532.84 144.496C532.979 144.635 533.056 144.835 533.025 145.036C532.994 145.236 532.871 145.421 532.702 145.514L527.754 148.335L532.702 156.862L537.665 154.041C537.834 153.948 538.05 153.933 538.235 154.01C538.42 154.087 538.559 154.241 538.621 154.442C540.023 159.561 539.052 163.94 536.123 165.605C533.334 167.209 529.125 165.945 525.518 162.491L515.9 167.98C517.118 172.883 516.1 177.031 513.28 178.65C512.432 179.128 511.492 179.359 510.474 179.359ZM503.831 174.857C506.05 176.908 508.439 178.064 510.459 178.064C511.26 178.064 511.985 177.879 512.601 177.525C514.991 176.168 515.73 172.359 514.482 167.841C514.405 167.548 514.528 167.255 514.79 167.101L525.272 161.118C525.534 160.964 525.858 161.01 526.058 161.226C529.31 164.511 533.087 165.837 535.461 164.48C537.711 163.2 538.497 159.777 537.557 155.613L532.779 158.343C532.47 158.512 532.07 158.42 531.885 158.096L526.289 148.443C526.197 148.289 526.181 148.12 526.228 147.95C526.274 147.78 526.382 147.642 526.536 147.549L531.299 144.835C528.201 141.983 524.748 140.903 522.513 142.168C520.123 143.525 519.384 147.333 520.632 151.851C520.709 152.144 520.586 152.437 520.324 152.591L509.842 158.574C509.58 158.713 509.256 158.682 509.056 158.466C505.804 155.182 502.043 153.84 499.653 155.213C497.403 156.492 496.617 159.916 497.557 164.079L502.335 161.35C502.644 161.18 503.044 161.272 503.229 161.596L508.825 171.249C508.917 171.403 508.933 171.573 508.886 171.742C508.84 171.912 508.732 172.051 508.578 172.143L503.831 174.857Z" fill="url(#paint63_linear_1161:25946)"/>
<path d="M372.64 281.529C372.208 281.529 371.869 281.19 371.869 280.758V277.674C371.869 277.242 372.208 276.903 372.64 276.903C373.071 276.903 373.411 277.242 373.411 277.674V280.758C373.411 281.174 373.071 281.529 372.64 281.529ZM372.64 275.361C372.208 275.361 371.869 275.022 371.869 274.59V271.506C371.869 271.075 372.208 270.735 372.64 270.735C373.071 270.735 373.411 271.075 373.411 271.506V274.59C373.411 275.007 373.071 275.361 372.64 275.361ZM372.64 269.193C372.208 269.193 371.869 268.854 371.869 268.422V265.339C371.869 264.907 372.208 264.568 372.64 264.568C373.071 264.568 373.411 264.907 373.411 265.339V268.422C373.411 268.839 373.071 269.193 372.64 269.193ZM372.64 263.026C372.208 263.026 371.869 262.686 371.869 262.255V259.171C371.869 258.739 372.208 258.4 372.64 258.4C373.071 258.4 373.411 258.739 373.411 259.171V262.255C373.411 262.671 373.071 263.026 372.64 263.026ZM372.64 256.858C372.208 256.858 371.869 256.519 371.869 256.087V253.003C371.869 252.571 372.208 252.232 372.64 252.232C373.071 252.232 373.411 252.571 373.411 253.003V256.087C373.411 256.503 373.071 256.858 372.64 256.858ZM372.64 250.69C372.208 250.69 371.869 250.351 371.869 249.919V246.835C371.869 246.403 372.208 246.064 372.64 246.064C373.071 246.064 373.411 246.403 373.411 246.835V249.919C373.411 250.335 373.071 250.69 372.64 250.69ZM372.64 244.522C372.208 244.522 371.869 244.183 371.869 243.751V240.667C371.869 240.236 372.208 239.896 372.64 239.896C373.071 239.896 373.411 240.236 373.411 240.667V243.751C373.411 244.168 373.071 244.522 372.64 244.522ZM372.64 238.354C372.208 238.354 371.869 238.015 371.869 237.583V234.5C371.869 234.068 372.208 233.729 372.64 233.729C373.071 233.729 373.411 234.068 373.411 234.5V237.583C373.411 238 373.071 238.354 372.64 238.354ZM372.64 232.187C372.208 232.187 371.869 231.847 371.869 231.416V228.332C371.869 227.9 372.208 227.561 372.64 227.561C373.071 227.561 373.411 227.9 373.411 228.332V231.416C373.411 231.832 373.071 232.187 372.64 232.187ZM372.64 226.019C372.208 226.019 371.869 225.68 371.869 225.248V222.164C371.869 221.732 372.208 221.393 372.64 221.393C373.071 221.393 373.411 221.732 373.411 222.164V225.248C373.411 225.664 373.071 226.019 372.64 226.019ZM372.64 219.851C372.208 219.851 371.869 219.512 371.869 219.08V215.996C371.869 215.564 372.208 215.225 372.64 215.225C373.071 215.225 373.411 215.564 373.411 215.996V219.08C373.411 219.496 373.071 219.851 372.64 219.851ZM372.64 213.683C372.208 213.683 371.869 213.344 371.869 212.912V209.828C371.869 209.397 372.208 209.057 372.64 209.057C373.071 209.057 373.411 209.397 373.411 209.828V212.912C373.411 213.329 373.071 213.683 372.64 213.683ZM372.64 207.515C372.208 207.515 371.869 207.176 371.869 206.744V203.661C371.869 203.229 372.208 202.89 372.64 202.89C373.071 202.89 373.411 203.229 373.411 203.661V206.744C373.411 207.161 373.071 207.515 372.64 207.515ZM374.505 202.396C374.243 202.396 373.996 202.257 373.842 202.026C373.626 201.656 373.734 201.193 374.104 200.962L376.74 199.359C377.11 199.143 377.572 199.251 377.804 199.621C378.019 199.991 377.912 200.453 377.542 200.685L374.906 202.288C374.782 202.365 374.644 202.396 374.505 202.396ZM379.777 199.204C379.515 199.204 379.268 199.066 379.114 198.834C378.898 198.464 379.006 198.002 379.376 197.77L382.012 196.167C382.382 195.951 382.844 196.059 383.075 196.429C383.291 196.799 383.183 197.261 382.813 197.493L380.177 199.096C380.054 199.158 379.915 199.204 379.777 199.204ZM385.048 196.012C384.786 196.012 384.54 195.874 384.386 195.642C384.17 195.272 384.278 194.81 384.648 194.578L387.283 192.975C387.653 192.759 388.116 192.867 388.347 193.237C388.563 193.607 388.455 194.07 388.085 194.301L385.449 195.905C385.326 195.966 385.187 196.012 385.048 196.012ZM390.335 192.805C390.073 192.805 389.827 192.666 389.673 192.435C389.457 192.065 389.565 191.603 389.935 191.371L392.57 189.768C392.94 189.552 393.403 189.66 393.634 190.03C393.85 190.4 393.742 190.862 393.372 191.094L390.736 192.697C390.597 192.774 390.474 192.805 390.335 192.805ZM395.607 189.613C395.345 189.613 395.098 189.475 394.944 189.243C394.728 188.873 394.836 188.411 395.206 188.179L397.842 186.576C398.212 186.36 398.675 186.468 398.906 186.838C399.122 187.208 399.014 187.671 398.644 187.902L396.008 189.505C395.885 189.583 395.746 189.613 395.607 189.613ZM400.879 186.422C400.617 186.422 400.37 186.283 400.216 186.052C400 185.681 400.108 185.219 400.478 184.988L403.114 183.384C403.484 183.168 403.946 183.276 404.177 183.646C404.393 184.016 404.285 184.479 403.915 184.71L401.28 186.314C401.156 186.391 401.018 186.422 400.879 186.422ZM406.15 183.23C405.888 183.23 405.642 183.091 405.488 182.86C405.272 182.49 405.38 182.027 405.75 181.796L408.386 180.192C408.755 179.976 409.218 180.084 409.449 180.454C409.665 180.824 409.557 181.287 409.187 181.518L406.551 183.122C406.428 183.199 406.289 183.23 406.15 183.23ZM411.422 180.038C411.16 180.038 410.913 179.899 410.759 179.668C410.544 179.298 410.651 178.835 411.021 178.604L413.657 177C414.027 176.784 414.49 176.892 414.721 177.262C414.937 177.632 414.829 178.095 414.459 178.326L411.823 179.93C411.7 179.992 411.561 180.038 411.422 180.038ZM416.709 176.846C416.447 176.846 416.201 176.707 416.046 176.476C415.831 176.106 415.938 175.643 416.308 175.412L418.944 173.808C419.314 173.593 419.777 173.7 420.008 174.071C420.224 174.441 420.116 174.903 419.746 175.135L417.11 176.738C416.971 176.8 416.833 176.846 416.709 176.846ZM421.981 173.654C421.719 173.654 421.472 173.515 421.318 173.284C421.102 172.914 421.21 172.452 421.58 172.22L424.216 170.617C424.586 170.401 425.048 170.509 425.28 170.879C425.495 171.249 425.387 171.711 425.018 171.943L422.382 173.546C422.258 173.608 422.12 173.654 421.981 173.654ZM427.253 170.447C426.991 170.447 426.744 170.308 426.59 170.077C426.374 169.707 426.482 169.244 426.852 169.013L429.488 167.409C429.858 167.193 430.32 167.301 430.551 167.671C430.767 168.042 430.659 168.504 430.289 168.735L427.653 170.339C427.53 170.416 427.391 170.447 427.253 170.447ZM432.524 167.255C432.262 167.255 432.016 167.116 431.861 166.885C431.646 166.515 431.754 166.052 432.123 165.821L434.759 164.218C435.129 164.002 435.592 164.11 435.823 164.48C436.039 164.85 435.931 165.312 435.561 165.544L432.925 167.147C432.802 167.224 432.663 167.255 432.524 167.255ZM437.796 164.063C437.534 164.063 437.287 163.925 437.133 163.693C436.917 163.323 437.025 162.861 437.395 162.629L440.031 161.026C440.401 160.81 440.863 160.918 441.095 161.288C441.31 161.658 441.202 162.12 440.833 162.352L438.197 163.955C438.073 164.032 437.935 164.063 437.796 164.063ZM443.068 160.871C442.806 160.871 442.559 160.733 442.405 160.501C442.189 160.131 442.297 159.669 442.667 159.437L443.145 159.144V157.495C443.145 157.063 443.484 156.724 443.915 156.724C444.347 156.724 444.686 157.063 444.686 157.495V159.576C444.686 159.838 444.547 160.101 444.316 160.239L443.453 160.764C443.345 160.825 443.206 160.871 443.068 160.871ZM443.931 155.182C443.499 155.182 443.16 154.842 443.16 154.411V151.327C443.16 150.895 443.499 150.556 443.931 150.556C444.362 150.556 444.702 150.895 444.702 151.327V154.411C444.702 154.842 444.362 155.182 443.931 155.182ZM443.931 149.014C443.499 149.014 443.16 148.675 443.16 148.243V145.159C443.16 144.727 443.499 144.388 443.931 144.388C444.362 144.388 444.702 144.727 444.702 145.159V148.243C444.702 148.675 444.362 149.014 443.931 149.014ZM443.931 142.846C443.499 142.846 443.16 142.507 443.16 142.075V138.991C443.16 138.559 443.499 138.22 443.931 138.22C444.362 138.22 444.702 138.559 444.702 138.991V142.075C444.702 142.507 444.362 142.846 443.931 142.846ZM443.931 136.678C443.499 136.678 443.16 136.339 443.16 135.907V132.823C443.16 132.392 443.499 132.052 443.931 132.052C444.362 132.052 444.702 132.392 444.702 132.823V135.907C444.702 136.339 444.362 136.678 443.931 136.678ZM443.931 130.511C443.499 130.511 443.16 130.171 443.16 129.74V126.656C443.16 126.224 443.499 125.885 443.931 125.885C444.362 125.885 444.702 126.224 444.702 126.656V129.74C444.702 130.171 444.362 130.511 443.931 130.511ZM443.931 124.343C443.499 124.343 443.16 124.003 443.16 123.572V120.488C443.16 120.056 443.499 119.717 443.931 119.717C444.362 119.717 444.702 120.056 444.702 120.488V123.572C444.702 124.003 444.362 124.343 443.931 124.343ZM443.931 118.175C443.499 118.175 443.16 117.836 443.16 117.404V114.32C443.16 113.888 443.499 113.549 443.931 113.549C444.362 113.549 444.702 113.888 444.702 114.32V117.404C444.702 117.836 444.362 118.175 443.931 118.175Z" fill="url(#paint64_linear_1161:25946)"/>
<path d="M377.387 177.833C376.956 177.833 376.617 177.494 376.617 177.063V176.292C376.617 175.86 376.956 175.521 377.387 175.521C377.819 175.521 378.158 175.86 378.158 176.292V177.063C378.158 177.479 377.819 177.833 377.387 177.833ZM377.387 173.979C376.956 173.979 376.617 173.639 376.617 173.208V170.124C376.617 169.692 376.956 169.353 377.387 169.353C377.819 169.353 378.158 169.692 378.158 170.124V173.208C378.158 173.624 377.819 173.979 377.387 173.979ZM377.387 167.811C376.956 167.811 376.617 167.472 376.617 167.04V163.956C376.617 163.524 376.956 163.185 377.387 163.185C377.819 163.185 378.158 163.524 378.158 163.956V167.04C378.158 167.456 377.819 167.811 377.387 167.811ZM377.387 161.643C376.956 161.643 376.617 161.304 376.617 160.872V157.788C376.617 157.356 376.956 157.017 377.387 157.017C377.819 157.017 378.158 157.356 378.158 157.788V160.872C378.158 161.288 377.819 161.643 377.387 161.643ZM377.387 155.475C376.956 155.475 376.617 155.136 376.617 154.704V151.62C376.617 151.188 376.956 150.849 377.387 150.849C377.819 150.849 378.158 151.188 378.158 151.62V154.704C378.158 155.12 377.819 155.475 377.387 155.475ZM377.387 149.307C376.956 149.307 376.617 148.968 376.617 148.536V145.452C376.617 145.021 376.956 144.681 377.387 144.681C377.819 144.681 378.158 145.021 378.158 145.452V148.536C378.158 148.953 377.819 149.307 377.387 149.307ZM377.387 143.139C376.956 143.139 376.617 142.8 376.617 142.368V139.285C376.617 138.853 376.956 138.514 377.387 138.514C377.819 138.514 378.158 138.853 378.158 139.285V142.368C378.158 142.785 377.819 143.139 377.387 143.139ZM377.387 136.972C376.956 136.972 376.617 136.632 376.617 136.201V133.117C376.617 132.685 376.956 132.346 377.387 132.346C377.819 132.346 378.158 132.685 378.158 133.117V136.201C378.158 136.617 377.819 136.972 377.387 136.972ZM377.387 130.804C376.956 130.804 376.617 130.465 376.617 130.033V126.949C376.617 126.517 376.956 126.178 377.387 126.178C377.819 126.178 378.158 126.517 378.158 126.949V130.033C378.158 130.449 377.819 130.804 377.387 130.804ZM377.387 124.636C376.956 124.636 376.617 124.297 376.617 123.865V120.781C376.617 120.349 376.956 120.01 377.387 120.01C377.819 120.01 378.158 120.349 378.158 120.781V123.865C378.158 124.281 377.819 124.636 377.387 124.636ZM377.387 118.468C376.956 118.468 376.617 118.129 376.617 117.697V114.613C376.617 114.182 376.956 113.842 377.387 113.842C377.819 113.842 378.158 114.182 378.158 114.613V117.697C378.158 118.114 377.819 118.468 377.387 118.468ZM377.387 112.3C376.956 112.3 376.617 111.961 376.617 111.529V108.445C376.617 108.014 376.956 107.674 377.387 107.674C377.819 107.674 378.158 108.014 378.158 108.445V111.529C378.158 111.946 377.819 112.3 377.387 112.3ZM377.387 106.133C376.956 106.133 376.617 105.793 376.617 105.362V102.278C376.617 101.846 376.956 101.507 377.387 101.507C377.819 101.507 378.158 101.846 378.158 102.278V105.362C378.158 105.778 377.819 106.133 377.387 106.133ZM377.387 99.9647C376.956 99.9647 376.617 99.6255 376.617 99.1937V96.1098C376.617 95.6781 376.956 95.3388 377.387 95.3388C377.819 95.3388 378.158 95.6781 378.158 96.1098V99.1937C378.158 99.61 377.819 99.9647 377.387 99.9647ZM377.387 93.7969C376.956 93.7969 376.617 93.4576 376.617 93.0259V89.942C376.617 89.5102 376.956 89.171 377.387 89.171C377.819 89.171 378.158 89.5102 378.158 89.942V93.0259C378.158 93.4422 377.819 93.7969 377.387 93.7969ZM377.387 87.629C376.956 87.629 376.617 87.2898 376.617 86.8581V83.7741C376.617 83.3424 376.956 83.0032 377.387 83.0032C377.819 83.0032 378.158 83.3424 378.158 83.7741V86.8581C378.158 87.2744 377.819 87.629 377.387 87.629ZM377.387 81.4612C376.956 81.4612 376.617 81.122 376.617 80.6902V77.6063C376.617 77.1746 376.956 76.8353 377.387 76.8353C377.819 76.8353 378.158 77.1746 378.158 77.6063V80.6902C378.158 81.1066 377.819 81.4612 377.387 81.4612ZM377.387 75.2934C376.956 75.2934 376.617 74.9542 376.617 74.5224V71.4385C376.617 71.0068 376.956 70.6675 377.387 70.6675C377.819 70.6675 378.158 71.0068 378.158 71.4385V74.5224C378.158 74.9387 377.819 75.2934 377.387 75.2934ZM377.387 69.1256C376.956 69.1256 376.617 68.7863 376.617 68.3546V65.2707C376.617 64.8389 376.956 64.4997 377.387 64.4997C377.819 64.4997 378.158 64.8389 378.158 65.2707V68.3546C378.158 68.7709 377.819 69.1256 377.387 69.1256Z" fill="url(#paint65_linear_1161:25946)"/>
<path d="M233.526 195.813C233.094 195.813 232.755 195.473 232.755 195.042V191.958C232.755 191.526 233.094 191.187 233.526 191.187C233.958 191.187 234.297 191.526 234.297 191.958V195.042C234.297 195.473 233.958 195.813 233.526 195.813ZM233.526 189.645C233.094 189.645 232.755 189.306 232.755 188.874V185.79C232.755 185.358 233.094 185.019 233.526 185.019C233.958 185.019 234.297 185.358 234.297 185.79V188.874C234.297 189.306 233.958 189.645 233.526 189.645ZM233.526 183.477C233.094 183.477 232.755 183.138 232.755 182.706V179.622C232.755 179.19 233.094 178.851 233.526 178.851C233.958 178.851 234.297 179.19 234.297 179.622V182.706C234.297 183.138 233.958 183.477 233.526 183.477ZM233.526 177.309C233.094 177.309 232.755 176.97 232.755 176.538V173.454C232.755 173.023 233.094 172.683 233.526 172.683C233.958 172.683 234.297 173.023 234.297 173.454V176.538C234.297 176.97 233.958 177.309 233.526 177.309ZM233.526 171.141C233.094 171.141 232.755 170.802 232.755 170.37V167.286C232.755 166.855 233.094 166.516 233.526 166.516C233.958 166.516 234.297 166.855 234.297 167.286V170.37C234.297 170.802 233.958 171.141 233.526 171.141ZM233.526 164.974C233.094 164.974 232.755 164.634 232.755 164.203V161.119C232.755 160.687 233.094 160.348 233.526 160.348C233.958 160.348 234.297 160.687 234.297 161.119V164.203C234.297 164.634 233.958 164.974 233.526 164.974ZM233.526 158.806C233.094 158.806 232.755 158.467 232.755 158.035V154.951C232.755 154.519 233.094 154.18 233.526 154.18C233.958 154.18 234.297 154.519 234.297 154.951V158.035C234.297 158.467 233.958 158.806 233.526 158.806ZM233.526 152.638C233.094 152.638 232.755 152.299 232.755 151.867V148.783C232.755 148.351 233.094 148.012 233.526 148.012C233.958 148.012 234.297 148.351 234.297 148.783V151.867C234.297 152.299 233.958 152.638 233.526 152.638ZM233.526 146.47C233.094 146.47 232.755 146.131 232.755 145.699V142.615C232.755 142.183 233.094 141.844 233.526 141.844C233.958 141.844 234.297 142.183 234.297 142.615V145.699C234.297 146.131 233.958 146.47 233.526 146.47ZM233.526 140.302C233.094 140.302 232.755 139.963 232.755 139.531V136.447C232.755 136.016 233.094 135.676 233.526 135.676C233.958 135.676 234.297 136.016 234.297 136.447V139.531C234.297 139.963 233.958 140.302 233.526 140.302ZM233.526 134.134C233.094 134.134 232.755 133.795 232.755 133.363V130.28C232.755 129.848 233.094 129.509 233.526 129.509C233.958 129.509 234.297 129.848 234.297 130.28V133.363C234.297 133.795 233.958 134.134 233.526 134.134ZM233.526 127.967C233.094 127.967 232.755 127.627 232.755 127.196V124.112C232.755 123.68 233.094 123.341 233.526 123.341C233.958 123.341 234.297 123.68 234.297 124.112V127.196C234.297 127.627 233.958 127.967 233.526 127.967ZM233.526 121.799C233.094 121.799 232.755 121.46 232.755 121.028V117.944C232.755 117.512 233.094 117.173 233.526 117.173C233.958 117.173 234.297 117.512 234.297 117.944V121.028C234.297 121.46 233.958 121.799 233.526 121.799ZM233.526 115.631C233.094 115.631 232.755 115.292 232.755 114.86V111.776C232.755 111.344 233.094 111.005 233.526 111.005C233.958 111.005 234.297 111.344 234.297 111.776V114.86C234.297 115.292 233.958 115.631 233.526 115.631ZM233.526 109.463C233.094 109.463 232.755 109.124 232.755 108.692V105.608C232.755 105.177 233.094 104.837 233.526 104.837C233.958 104.837 234.297 105.177 234.297 105.608V108.692C234.297 109.124 233.958 109.463 233.526 109.463ZM233.526 103.295C233.094 103.295 232.755 102.956 232.755 102.524V99.4404C232.755 99.0087 233.094 98.6695 233.526 98.6695C233.958 98.6695 234.297 99.0087 234.297 99.4404V102.524C234.297 102.956 233.958 103.295 233.526 103.295ZM233.526 97.1275C233.094 97.1275 232.755 96.7883 232.755 96.3565V93.2726C232.755 92.8409 233.094 92.5017 233.526 92.5017C233.958 92.5017 234.297 92.8409 234.297 93.2726V96.3565C234.297 96.7883 233.958 97.1275 233.526 97.1275ZM233.526 90.9597C233.094 90.9597 232.755 90.6205 232.755 90.1887V87.1048C232.755 86.6731 233.094 86.3338 233.526 86.3338C233.958 86.3338 234.297 86.6731 234.297 87.1048V90.1887C234.297 90.6205 233.958 90.9597 233.526 90.9597ZM233.526 84.7919C233.094 84.7919 232.755 84.4526 232.755 84.0209V80.937C232.755 80.5052 233.094 80.166 233.526 80.166C233.958 80.166 234.297 80.5052 234.297 80.937V84.0209C234.297 84.4526 233.958 84.7919 233.526 84.7919ZM233.526 78.6241C233.094 78.6241 232.755 78.2848 232.755 77.8531V74.7692C232.755 74.3374 233.094 73.9982 233.526 73.9982C233.958 73.9982 234.297 74.3374 234.297 74.7692V77.8531C234.297 78.2848 233.958 78.6241 233.526 78.6241ZM233.526 72.4562C233.094 72.4562 232.755 72.117 232.755 71.6852V68.6013C232.755 68.1696 233.094 67.8304 233.526 67.8304C233.958 67.8304 234.297 68.1696 234.297 68.6013V71.6852C234.297 72.117 233.958 72.4562 233.526 72.4562ZM233.526 66.2884C233.094 66.2884 232.755 65.9492 232.755 65.5174V62.4335C232.755 62.0018 233.094 61.6625 233.526 61.6625C233.958 61.6625 234.297 62.0018 234.297 62.4335V65.5174C234.297 65.9492 233.958 66.2884 233.526 66.2884Z" fill="url(#paint66_linear_1161:25946)"/>
<path d="M224.278 293.988C223.846 293.988 223.507 293.649 223.507 293.217V290.133C223.507 289.702 223.846 289.362 224.278 289.362C224.709 289.362 225.048 289.702 225.048 290.133V293.217C225.048 293.649 224.709 293.988 224.278 293.988ZM224.278 287.82C223.846 287.82 223.507 287.481 223.507 287.05V283.966C223.507 283.534 223.846 283.195 224.278 283.195C224.709 283.195 225.048 283.534 225.048 283.966V287.05C225.048 287.481 224.709 287.82 224.278 287.82ZM224.278 281.653C223.846 281.653 223.507 281.313 223.507 280.882V277.798C223.507 277.366 223.846 277.027 224.278 277.027C224.709 277.027 225.048 277.366 225.048 277.798V280.882C225.048 281.313 224.709 281.653 224.278 281.653ZM224.278 275.485C223.846 275.485 223.507 275.146 223.507 274.714V271.63C223.507 271.198 223.846 270.859 224.278 270.859C224.709 270.859 225.048 271.198 225.048 271.63V274.714C225.048 275.146 224.709 275.485 224.278 275.485ZM224.278 269.317C223.846 269.317 223.507 268.978 223.507 268.546V265.462C223.507 265.03 223.846 264.691 224.278 264.691C224.709 264.691 225.048 265.03 225.048 265.462V268.546C225.048 268.978 224.709 269.317 224.278 269.317ZM224.278 263.149C223.846 263.149 223.507 262.81 223.507 262.378V259.294C223.507 258.863 223.846 258.523 224.278 258.523C224.709 258.523 225.048 258.863 225.048 259.294V262.378C225.048 262.81 224.709 263.149 224.278 263.149ZM224.278 256.982C223.846 256.982 223.507 256.642 223.507 256.211V253.127C223.507 252.695 223.846 252.356 224.278 252.356C224.709 252.356 225.048 252.695 225.048 253.127V256.211C225.048 256.642 224.709 256.982 224.278 256.982ZM224.278 250.814C223.846 250.814 223.507 250.474 223.507 250.043V246.959C223.507 246.527 223.846 246.188 224.278 246.188C224.709 246.188 225.048 246.527 225.048 246.959V250.043C225.048 250.474 224.709 250.814 224.278 250.814ZM224.278 244.646C223.846 244.646 223.507 244.307 223.507 243.875V240.791C223.507 240.359 223.846 240.02 224.278 240.02C224.709 240.02 225.048 240.359 225.048 240.791V243.875C225.048 244.307 224.709 244.646 224.278 244.646ZM224.278 238.478C223.846 238.478 223.507 238.139 223.507 237.707V234.623C223.507 234.191 223.846 233.852 224.278 233.852C224.709 233.852 225.048 234.191 225.048 234.623V237.707C225.048 238.139 224.709 238.478 224.278 238.478ZM224.278 232.31C223.846 232.31 223.507 231.971 223.507 231.539V228.455C223.507 228.024 223.846 227.684 224.278 227.684C224.709 227.684 225.048 228.024 225.048 228.455V231.539C225.048 231.971 224.709 232.31 224.278 232.31ZM224.278 226.143C223.846 226.143 223.507 225.803 223.507 225.372V222.288C223.507 221.856 223.846 221.517 224.278 221.517C224.709 221.517 225.048 221.856 225.048 222.288V225.372C225.048 225.803 224.709 226.143 224.278 226.143ZM222.151 221.224C222.027 221.224 221.888 221.193 221.765 221.131L219.083 219.62C218.713 219.404 218.574 218.942 218.79 218.572C218.991 218.201 219.468 218.063 219.838 218.279L222.52 219.79C222.89 220.006 223.029 220.468 222.813 220.838C222.675 221.07 222.413 221.224 222.151 221.224ZM216.786 218.186C216.663 218.186 216.524 218.155 216.401 218.094L213.719 216.582C213.349 216.367 213.21 215.904 213.426 215.534C213.626 215.164 214.104 215.025 214.474 215.241L217.156 216.752C217.526 216.968 217.665 217.431 217.449 217.801C217.31 218.047 217.048 218.186 216.786 218.186ZM211.407 215.164C211.283 215.164 211.145 215.133 211.021 215.071L208.339 213.56C207.969 213.344 207.831 212.882 208.046 212.512C208.262 212.142 208.725 212.003 209.095 212.219L211.777 213.73C212.147 213.946 212.285 214.408 212.07 214.778C211.946 215.01 211.684 215.164 211.407 215.164ZM206.043 212.126C205.919 212.126 205.781 212.095 205.657 212.034L202.975 210.523C202.605 210.307 202.467 209.844 202.682 209.474C202.898 209.104 203.361 208.965 203.73 209.181L206.413 210.692C206.783 210.908 206.921 211.371 206.705 211.741C206.567 211.987 206.305 212.126 206.043 212.126ZM200.663 209.104C200.54 209.104 200.401 209.073 200.278 209.011L197.596 207.5C197.226 207.284 197.087 206.822 197.303 206.452C197.519 206.082 197.981 205.943 198.351 206.159L201.033 207.67C201.403 207.886 201.542 208.348 201.326 208.718C201.203 208.965 200.94 209.104 200.663 209.104ZM195.299 206.066C195.176 206.066 195.037 206.036 194.914 205.974L192.231 204.463C191.862 204.247 191.723 203.784 191.939 203.414C192.154 203.044 192.617 202.905 192.987 203.121L195.669 204.632C196.039 204.848 196.177 205.311 195.962 205.681C195.823 205.928 195.561 206.066 195.299 206.066ZM189.919 203.044C189.796 203.044 189.657 203.013 189.534 202.952L186.852 201.44C186.482 201.225 186.343 200.762 186.559 200.392C186.775 200.022 187.237 199.883 187.607 200.099L190.289 201.61C190.659 201.826 190.798 202.289 190.582 202.659C190.459 202.905 190.197 203.044 189.919 203.044ZM184.555 200.006C184.432 200.006 184.293 199.976 184.17 199.914L181.488 198.403C181.118 198.187 180.979 197.724 181.195 197.354C181.395 196.984 181.873 196.845 182.243 197.061L184.925 198.572C185.295 198.788 185.434 199.251 185.218 199.621C185.079 199.868 184.817 200.006 184.555 200.006ZM179.191 196.984C179.068 196.984 178.929 196.953 178.806 196.892L176.124 195.381C175.754 195.165 175.615 194.702 175.831 194.332C176.046 193.962 176.509 193.823 176.879 194.039L179.561 195.55C179.931 195.766 180.07 196.229 179.854 196.599C179.715 196.845 179.453 196.984 179.191 196.984ZM173.811 193.962C173.688 193.962 173.549 193.931 173.426 193.87L170.744 192.358C170.374 192.143 170.235 191.68 170.451 191.31C170.651 190.94 171.129 190.801 171.499 191.017L174.181 192.528C174.551 192.744 174.69 193.206 174.474 193.577C174.336 193.808 174.073 193.962 173.811 193.962ZM168.447 190.924C168.324 190.924 168.185 190.894 168.062 190.832L165.38 189.321C165.01 189.105 164.871 188.642 165.087 188.272C165.303 187.902 165.765 187.763 166.135 187.979L168.817 189.49C169.187 189.706 169.326 190.169 169.11 190.539C168.971 190.786 168.709 190.924 168.447 190.924ZM163.068 187.902C162.944 187.902 162.806 187.871 162.682 187.81L160 186.299C159.63 186.083 159.492 185.62 159.707 185.25C159.923 184.88 160.386 184.741 160.756 184.957L163.438 186.468C163.808 186.684 163.946 187.147 163.73 187.517C163.607 187.748 163.345 187.902 163.068 187.902ZM157.704 184.865C157.58 184.865 157.441 184.834 157.318 184.772L154.636 183.261C154.266 183.045 154.127 182.582 154.343 182.212C154.544 181.842 155.021 181.704 155.391 181.919L158.073 183.431C158.443 183.646 158.582 184.109 158.366 184.479C158.228 184.726 157.966 184.865 157.704 184.865ZM152.324 181.842C152.201 181.842 152.062 181.811 151.939 181.75L149.257 180.239C148.887 180.023 148.748 179.56 148.964 179.19C149.179 178.82 149.642 178.681 150.012 178.897L152.694 180.408C153.064 180.624 153.203 181.087 152.987 181.457C152.863 181.704 152.601 181.842 152.324 181.842ZM146.96 178.805C146.836 178.805 146.698 178.774 146.574 178.712L143.892 177.201C143.522 176.985 143.384 176.523 143.599 176.153C143.815 175.782 144.278 175.644 144.648 175.86L147.33 177.371C147.7 177.587 147.838 178.049 147.623 178.419C147.484 178.666 147.222 178.805 146.96 178.805ZM141.58 175.782C141.457 175.782 141.318 175.752 141.195 175.69L138.513 174.179C138.143 173.963 138.004 173.5 138.22 173.13C138.436 172.76 138.898 172.621 139.268 172.837L141.95 174.348C142.32 174.564 142.459 175.027 142.243 175.397C142.12 175.644 141.858 175.782 141.58 175.782ZM136.216 172.76C136.093 172.76 135.954 172.729 135.831 172.668L135.26 172.344C135.014 172.205 134.875 171.958 134.875 171.665V169.229C134.875 168.797 135.214 168.458 135.646 168.458C136.077 168.458 136.416 168.797 136.416 169.229V171.203L136.601 171.311C136.971 171.527 137.11 171.989 136.894 172.359C136.74 172.606 136.478 172.76 136.216 172.76ZM135.646 166.916C135.214 166.916 134.875 166.577 134.875 166.145V163.061C134.875 162.63 135.214 162.29 135.646 162.29C136.077 162.29 136.416 162.63 136.416 163.061V166.145C136.416 166.577 136.077 166.916 135.646 166.916ZM135.646 160.748C135.214 160.748 134.875 160.409 134.875 159.977V156.894C134.875 156.462 135.214 156.123 135.646 156.123C136.077 156.123 136.416 156.462 136.416 156.894V159.977C136.416 160.409 136.077 160.748 135.646 160.748ZM135.646 154.581C135.214 154.581 134.875 154.241 134.875 153.81V150.726C134.875 150.294 135.214 149.955 135.646 149.955C136.077 149.955 136.416 150.294 136.416 150.726V153.81C136.416 154.241 136.077 154.581 135.646 154.581ZM135.646 148.413C135.214 148.413 134.875 148.074 134.875 147.642V144.558C134.875 144.126 135.214 143.787 135.646 143.787C136.077 143.787 136.416 144.126 136.416 144.558V147.642C136.416 148.074 136.077 148.413 135.646 148.413ZM135.646 142.245C135.214 142.245 134.875 141.906 134.875 141.474V138.39C134.875 137.958 135.214 137.619 135.646 137.619C136.077 137.619 136.416 137.958 136.416 138.39V141.474C136.416 141.906 136.077 142.245 135.646 142.245ZM135.646 136.077C135.214 136.077 134.875 135.738 134.875 135.306V133.363C134.875 132.932 135.214 132.592 135.646 132.592C136.077 132.592 136.416 132.932 136.416 133.363V135.306C136.416 135.738 136.077 136.077 135.646 136.077Z" fill="url(#paint67_linear_1161:25946)"/>
<path d="M510.413 199.359C510.274 199.359 510.151 199.328 510.027 199.251L507.376 197.693C507.006 197.477 506.883 196.999 507.099 196.645C507.315 196.275 507.792 196.167 508.147 196.367L510.798 197.925C511.168 198.14 511.291 198.618 511.076 198.973C510.921 199.235 510.675 199.359 510.413 199.359ZM511.369 197.955C510.937 197.955 510.598 197.616 510.598 197.184V194.101C510.598 193.669 510.937 193.33 511.369 193.33C511.8 193.33 512.139 193.669 512.139 194.101V197.184C512.139 197.616 511.8 197.955 511.369 197.955ZM505.095 196.244C504.956 196.244 504.833 196.213 504.71 196.136L502.058 194.579C501.688 194.363 501.565 193.885 501.781 193.53C501.997 193.16 502.474 193.037 502.829 193.252L505.48 194.81C505.85 195.026 505.973 195.504 505.758 195.858C505.604 196.105 505.357 196.244 505.095 196.244ZM499.777 193.129C499.638 193.129 499.515 193.098 499.392 193.021L496.74 191.464C496.37 191.248 496.247 190.77 496.463 190.415C496.679 190.045 497.157 189.937 497.511 190.138L500.162 191.695C500.532 191.911 500.656 192.389 500.44 192.744C500.286 192.99 500.039 193.129 499.777 193.129ZM511.369 191.788C510.937 191.788 510.598 191.448 510.598 191.017V187.933C510.598 187.501 510.937 187.162 511.369 187.162C511.8 187.162 512.139 187.501 512.139 187.933V191.017C512.139 191.448 511.8 191.788 511.369 191.788ZM494.459 189.999C494.32 189.999 494.197 189.968 494.074 189.891L491.422 188.334C491.053 188.118 490.929 187.64 491.145 187.285C491.361 186.915 491.839 186.807 492.193 187.008L494.844 188.565C495.214 188.781 495.338 189.259 495.122 189.613C494.968 189.86 494.721 189.999 494.459 189.999ZM489.141 186.884C489.002 186.884 488.879 186.853 488.756 186.776L486.089 185.219C485.719 185.003 485.596 184.525 485.812 184.17C486.027 183.8 486.505 183.692 486.86 183.893L489.526 185.45C489.896 185.666 490.02 186.144 489.804 186.499C489.65 186.745 489.403 186.884 489.141 186.884ZM511.369 185.62C510.937 185.62 510.598 185.281 510.598 184.849V182.968C510.598 182.536 510.937 182.197 511.369 182.197C511.8 182.197 512.139 182.536 512.139 182.968V184.849C512.139 185.281 511.8 185.62 511.369 185.62ZM483.823 183.754C483.684 183.754 483.561 183.723 483.438 183.646L480.771 182.089C480.401 181.873 480.278 181.395 480.494 181.04C480.71 180.67 481.187 180.547 481.542 180.763L484.209 182.32C484.579 182.536 484.702 183.014 484.486 183.369C484.332 183.631 484.085 183.754 483.823 183.754ZM478.505 180.639C478.367 180.639 478.243 180.608 478.12 180.531L475.453 178.974C475.083 178.758 474.96 178.28 475.176 177.925C475.392 177.555 475.869 177.432 476.224 177.648L478.891 179.205C479.261 179.421 479.384 179.899 479.168 180.254C479.014 180.501 478.767 180.639 478.505 180.639ZM473.187 177.525C473.049 177.525 472.925 177.494 472.802 177.417L470.135 175.859C469.765 175.643 469.642 175.165 469.858 174.811C470.074 174.441 470.552 174.333 470.906 174.533L473.573 176.091C473.943 176.306 474.066 176.784 473.85 177.139C473.696 177.386 473.449 177.525 473.187 177.525ZM467.869 174.394C467.731 174.394 467.607 174.364 467.484 174.286L464.833 172.729C464.463 172.513 464.34 172.035 464.555 171.681C464.771 171.31 465.249 171.187 465.604 171.403L468.255 172.96C468.625 173.176 468.748 173.654 468.532 174.009C468.378 174.256 468.131 174.394 467.869 174.394ZM462.552 171.28C462.413 171.28 462.289 171.249 462.166 171.172L459.5 169.614C459.13 169.398 459.006 168.92 459.222 168.566C459.438 168.196 459.916 168.072 460.27 168.288L462.921 169.846C463.291 170.062 463.415 170.54 463.199 170.894C463.06 171.141 462.814 171.28 462.552 171.28ZM457.218 168.15C457.079 168.15 456.956 168.119 456.833 168.042L454.182 166.484C453.812 166.268 453.688 165.79 453.904 165.436C454.12 165.066 454.598 164.942 454.952 165.158L457.604 166.715C457.973 166.931 458.097 167.409 457.881 167.764C457.742 168.026 457.496 168.15 457.218 168.15ZM451.9 165.035C451.762 165.035 451.638 165.004 451.515 164.927L448.864 163.369C448.494 163.154 448.37 162.676 448.586 162.321C448.802 161.951 449.28 161.843 449.634 162.043L452.286 163.601C452.656 163.817 452.779 164.295 452.563 164.649C452.424 164.896 452.178 165.035 451.9 165.035ZM446.582 161.905C446.444 161.905 446.32 161.874 446.197 161.797L443.546 160.239C443.176 160.023 443.052 159.545 443.268 159.191C443.484 158.821 443.962 158.713 444.316 158.913L446.968 160.471C447.338 160.686 447.461 161.164 447.245 161.519C447.106 161.781 446.86 161.905 446.582 161.905Z" fill="url(#paint68_linear_1161:25946)"/>
<path d="M374.181 87.7523C374.104 87.7523 374.012 87.7369 373.935 87.706L372.933 87.3668C372.532 87.228 372.316 86.7963 372.455 86.3954C372.594 85.9945 373.041 85.7786 373.426 85.9174L374.428 86.2566C374.829 86.3954 375.044 86.8271 374.906 87.228C374.798 87.5518 374.505 87.7523 374.181 87.7523ZM370.266 86.4262C370.189 86.4262 370.096 86.4108 370.019 86.38L367.091 85.3931C366.69 85.2543 366.474 84.8226 366.613 84.4217C366.752 84.0208 367.199 83.8049 367.584 83.9437L370.513 84.9305C370.913 85.0693 371.129 85.5011 370.99 85.902C370.883 86.2258 370.59 86.4262 370.266 86.4262ZM364.424 84.4525C364.347 84.4525 364.254 84.4371 364.177 84.4063L361.264 83.4194C360.863 83.2806 360.647 82.8489 360.786 82.448C360.925 82.0471 361.357 81.8312 361.757 81.97L364.671 82.9568C365.071 83.0956 365.287 83.5274 365.148 83.9283C365.041 84.2521 364.748 84.4525 364.424 84.4525ZM358.582 82.4788C358.505 82.4788 358.412 82.4634 358.335 82.4326L355.422 81.4457C355.021 81.307 354.805 80.8752 354.944 80.4743C355.083 80.0734 355.515 79.8575 355.915 79.9963L358.829 80.9831C359.229 81.1219 359.445 81.5537 359.306 81.9546C359.199 82.2784 358.906 82.4788 358.582 82.4788ZM352.74 80.5051C352.663 80.5051 352.57 80.4897 352.493 80.4589L349.58 79.472C349.179 79.3333 348.963 78.9015 349.102 78.5006C349.241 78.0997 349.673 77.8838 350.073 78.0226L352.987 79.0095C353.387 79.1482 353.603 79.58 353.464 79.9809C353.357 80.2893 353.064 80.5051 352.74 80.5051ZM346.898 78.5314C346.821 78.5314 346.728 78.516 346.651 78.4852L343.738 77.4983C343.337 77.3596 343.121 76.9278 343.26 76.5269C343.399 76.126 343.846 75.9101 344.231 76.0489L347.145 77.0358C347.545 77.1745 347.761 77.6063 347.622 78.0072C347.53 78.3156 347.222 78.5314 346.898 78.5314ZM341.056 76.5423C340.979 76.5423 340.886 76.5269 340.809 76.4961L337.896 75.5092C337.495 75.3705 337.279 74.9387 337.418 74.5378C337.557 74.1369 338.004 73.921 338.389 74.0598L341.303 75.0466C341.703 75.1854 341.919 75.6172 341.78 76.0181C341.688 76.3419 341.38 76.5423 341.056 76.5423ZM335.214 74.5686C335.137 74.5686 335.044 74.5532 334.967 74.5224L332.054 73.5355C331.653 73.3968 331.437 72.965 331.576 72.5641C331.715 72.1632 332.162 71.9473 332.547 72.0861L335.461 73.0729C335.861 73.2117 336.077 73.6435 335.938 74.0444C335.846 74.3682 335.538 74.5686 335.214 74.5686ZM329.372 72.5949C329.295 72.5949 329.202 72.5795 329.125 72.5487L326.212 71.5618C325.811 71.4231 325.595 70.9913 325.734 70.5904C325.873 70.1895 326.305 69.9736 326.705 70.1124L329.619 71.0993C330.019 71.238 330.235 71.6698 330.096 72.0707C330.004 72.3945 329.696 72.5949 329.372 72.5949ZM323.53 70.6213C323.453 70.6213 323.36 70.6058 323.283 70.575L320.37 69.5881C319.969 69.4494 319.753 69.0176 319.892 68.6167C320.031 68.2158 320.463 67.9999 320.863 68.1387L323.777 69.1256C324.177 69.2643 324.393 69.6961 324.254 70.097C324.162 70.4208 323.854 70.6213 323.53 70.6213Z" fill="url(#paint69_linear_1161:25946)"/>
<path d="M232.539 58.6865C232.447 58.6865 232.354 58.6711 232.262 58.6403C220.886 54.1686 213.009 47.5382 211.53 29.6516L211.129 24.8408C211.098 24.5478 211.252 24.2548 211.514 24.1006L211.792 23.9464C219.052 19.8294 226.034 13.307 232 5.07298C232.061 4.98046 232.139 4.90337 232.246 4.85711C232.416 4.76459 232.693 4.68749 232.878 4.71833C238.628 6.01357 245.703 4.44078 252.778 0.277521L253.056 0.107906C253.302 -0.0308689 253.611 -0.0308689 253.857 0.123326C254.104 0.277521 254.243 0.555072 254.212 0.832622L253.811 6.10609C252.362 25.4113 244.624 40.877 233.449 58.1777C233.387 58.2856 233.295 58.3627 233.187 58.4244L232.909 58.594C232.801 58.6557 232.678 58.6865 232.539 58.6865ZM212.717 25.1954L213.071 29.5129C214.458 46.3664 221.78 52.7654 232.385 57.0212C243.329 40.0444 250.882 24.8408 252.3 5.98273L252.593 2.1587C245.688 5.99815 238.813 7.463 233.017 6.30654C227.021 14.5097 220.008 21.0321 212.717 25.1954Z" fill="url(#paint70_linear_1161:25946)"/>
<path d="M232.616 45.4258C232.523 45.4258 232.431 45.4104 232.338 45.3796C225.278 42.6041 222.134 38.2095 221.487 30.2068L221.286 27.7397C221.255 27.4467 221.409 27.1538 221.671 26.9996L221.81 26.9225C225.479 24.8408 229.024 21.5256 232.045 17.3624C232.107 17.2699 232.199 17.1928 232.292 17.1465C232.461 17.054 232.708 16.9923 232.878 17.0386C235.729 17.6862 239.259 16.8844 242.789 14.8027L242.928 14.7256C243.174 14.5869 243.483 14.5869 243.729 14.7411C243.976 14.8953 244.115 15.1728 244.099 15.4504L243.899 18.1488C243.159 28.1098 239.167 36.0816 233.417 44.9941C233.355 45.102 233.263 45.1791 233.155 45.2408L233.016 45.3179C232.878 45.395 232.739 45.4258 232.616 45.4258ZM222.843 28.1098L222.997 30.0835C223.675 38.3637 227.221 41.6018 232.369 43.7297C237.856 35.1873 241.633 27.5084 242.342 18.0254L242.434 16.7456C239.12 18.4572 235.822 19.1202 233.001 18.6268C229.995 22.7129 226.496 25.9819 222.843 28.1098Z" fill="url(#paint71_linear_1161:25946)"/>
<path d="M118.135 136.972C117.996 136.972 117.873 136.941 117.75 136.864C117.518 136.725 117.364 136.478 117.364 136.201V117.805C117.364 117.528 117.518 117.281 117.75 117.142L125.765 112.516C125.996 112.377 126.304 112.377 126.535 112.516C126.766 112.655 126.921 112.902 126.921 113.179V131.575C126.921 131.852 126.766 132.099 126.535 132.238L118.52 136.864C118.397 136.925 118.258 136.972 118.135 136.972ZM118.906 118.252V134.859L125.379 131.128V114.521L118.906 118.252Z" fill="url(#paint72_linear_1161:25946)"/>
<path d="M130.805 129.647C130.666 129.647 130.543 129.617 130.42 129.539C130.188 129.401 130.034 129.154 130.034 128.876V95.1538C130.034 94.8762 130.188 94.6295 130.42 94.4908L138.434 89.8649C138.666 89.7261 138.974 89.7261 139.205 89.8649C139.436 90.0037 139.59 90.2504 139.59 90.5279V124.235C139.59 124.513 139.436 124.759 139.205 124.898L131.19 129.524C131.082 129.601 130.944 129.647 130.805 129.647ZM131.576 95.601V127.535L138.049 123.803V91.8694L131.576 95.601Z" fill="url(#paint73_linear_1161:25946)"/>
<path d="M143.491 122.323C143.353 122.323 143.229 122.292 143.106 122.215C142.875 122.076 142.721 121.83 142.721 121.552V72.5179C142.721 72.2403 142.875 71.9936 143.106 71.8548L151.121 67.229C151.352 67.0902 151.66 67.0902 151.892 67.229C152.123 67.3677 152.277 67.6144 152.277 67.892V116.926C152.277 117.204 152.123 117.45 151.892 117.589L143.877 122.215C143.753 122.277 143.63 122.323 143.491 122.323ZM144.262 72.9496V120.211L150.736 116.479V69.2181L144.262 72.9496Z" fill="url(#paint74_linear_1161:25946)"/>
</g>
<defs>
<linearGradient id="paint0_linear_1161:25946" x1="423.105" y1="-83.1193" x2="281.908" y2="186.416" gradientUnits="userSpaceOnUse">
<stop offset="0.0354" stop-color="#6B24D6"/>
<stop offset="0.2945" stop-color="#7733DC"/>
<stop offset="0.7943" stop-color="#975CED"/>
<stop offset="1" stop-color="#A56EF4"/>
</linearGradient>
<linearGradient id="paint1_linear_1161:25946" x1="325.84" y1="187.36" x2="563.461" y2="58.948" gradientUnits="userSpaceOnUse">
<stop offset="0.0354" stop-color="#6B24D6"/>
<stop offset="0.2945" stop-color="#7733DC"/>
<stop offset="0.7943" stop-color="#975CED"/>
<stop offset="1" stop-color="#A56EF4"/>
</linearGradient>
<linearGradient id="paint2_linear_1161:25946" x1="310.195" y1="213.973" x2="410.163" y2="336.82" gradientUnits="userSpaceOnUse">
<stop offset="0.0354" stop-color="#6B24D6"/>
<stop offset="0.2945" stop-color="#7733DC"/>
<stop offset="0.7943" stop-color="#975CED"/>
<stop offset="1" stop-color="#A56EF4"/>
</linearGradient>
<linearGradient id="paint3_linear_1161:25946" x1="337.345" y1="209.477" x2="576.293" y2="80.2492" gradientUnits="userSpaceOnUse">
<stop offset="0.0354" stop-color="#6B24D6"/>
<stop offset="0.2945" stop-color="#7733DC"/>
<stop offset="0.7943" stop-color="#975CED"/>
<stop offset="1" stop-color="#A56EF4"/>
</linearGradient>
<linearGradient id="paint4_linear_1161:25946" x1="347.102" y1="215.042" x2="347.138" y2="215.086" gradientUnits="userSpaceOnUse">
<stop offset="0.0354" stop-color="#6B24D6"/>
<stop offset="0.2945" stop-color="#7733DC"/>
<stop offset="0.7943" stop-color="#975CED"/>
<stop offset="1" stop-color="#A56EF4"/>
</linearGradient>
<linearGradient id="paint5_linear_1161:25946" x1="347.673" y1="214.963" x2="347.701" y2="214.997" gradientUnits="userSpaceOnUse">
<stop offset="0.0354" stop-color="#6B24D6"/>
<stop offset="0.2945" stop-color="#7733DC"/>
<stop offset="0.7943" stop-color="#975CED"/>
<stop offset="1" stop-color="#A56EF4"/>
</linearGradient>
<linearGradient id="paint6_linear_1161:25946" x1="40.7038" y1="250.258" x2="462.62" y2="155.831" gradientUnits="userSpaceOnUse">
<stop offset="0.0354" stop-color="#6B24D6"/>
<stop offset="0.2945" stop-color="#7733DC"/>
<stop offset="0.7943" stop-color="#975CED"/>
<stop offset="1" stop-color="#A56EF4"/>
</linearGradient>
<linearGradient id="paint7_linear_1161:25946" x1="349.72" y1="202.595" x2="401.222" y2="202.595" gradientUnits="userSpaceOnUse">
<stop stop-color="#6B24D6"/>
<stop offset="0.0671" stop-color="#712DD9"/>
<stop offset="0.1616" stop-color="#7734DC"/>
<stop offset="0.3232" stop-color="#8C4FE7"/>
<stop offset="0.4848" stop-color="#A56EF4"/>
<stop offset="0.8737" stop-color="#6B24D6"/>
</linearGradient>
<linearGradient id="paint8_linear_1161:25946" x1="346.093" y1="180.869" x2="346.141" y2="180.927" gradientUnits="userSpaceOnUse">
<stop offset="0.0354" stop-color="#6B24D6"/>
<stop offset="0.2945" stop-color="#7733DC"/>
<stop offset="0.7943" stop-color="#975CED"/>
<stop offset="1" stop-color="#A56EF4"/>
</linearGradient>
<linearGradient id="paint9_linear_1161:25946" x1="347.202" y1="180.354" x2="347.37" y2="180.561" gradientUnits="userSpaceOnUse">
<stop offset="0.0354" stop-color="#6B24D6"/>
<stop offset="0.2945" stop-color="#7733DC"/>
<stop offset="0.7943" stop-color="#975CED"/>
<stop offset="1" stop-color="#A56EF4"/>
</linearGradient>
<linearGradient id="paint10_linear_1161:25946" x1="228.685" y1="180.299" x2="229.202" y2="180.183" gradientUnits="userSpaceOnUse">
<stop offset="0.0354" stop-color="#6B24D6"/>
<stop offset="0.2945" stop-color="#7733DC"/>
<stop offset="0.7943" stop-color="#975CED"/>
<stop offset="1" stop-color="#A56EF4"/>
</linearGradient>
<linearGradient id="paint11_linear_1161:25946" x1="136.002" y1="185.453" x2="269.156" y2="155.611" gradientUnits="userSpaceOnUse">
<stop offset="0.0354" stop-color="#6B24D6"/>
<stop offset="0.2945" stop-color="#7733DC"/>
<stop offset="0.7943" stop-color="#975CED"/>
<stop offset="1" stop-color="#A56EF4"/>
</linearGradient>
<linearGradient id="paint12_linear_1161:25946" x1="220.045" y1="215.73" x2="233.354" y2="212.746" gradientUnits="userSpaceOnUse">
<stop offset="0.0354" stop-color="#6B24D6"/>
<stop offset="0.2945" stop-color="#7733DC"/>
<stop offset="0.7943" stop-color="#975CED"/>
<stop offset="1" stop-color="#A56EF4"/>
</linearGradient>
<linearGradient id="paint13_linear_1161:25946" x1="228.187" y1="215.314" x2="230.74" y2="214.742" gradientUnits="userSpaceOnUse">
<stop offset="0.0354" stop-color="#6B24D6"/>
<stop offset="0.2945" stop-color="#7733DC"/>
<stop offset="0.7943" stop-color="#975CED"/>
<stop offset="1" stop-color="#A56EF4"/>
</linearGradient>
<linearGradient id="paint14_linear_1161:25946" x1="231.507" y1="214.713" x2="231.737" y2="214.662" gradientUnits="userSpaceOnUse">
<stop offset="0.0354" stop-color="#6B24D6"/>
<stop offset="0.2945" stop-color="#7733DC"/>
<stop offset="0.7943" stop-color="#975CED"/>
<stop offset="1" stop-color="#A56EF4"/>
</linearGradient>
<linearGradient id="paint15_linear_1161:25946" x1="264.454" y1="226.23" x2="264.771" y2="226.159" gradientUnits="userSpaceOnUse">
<stop offset="0.0354" stop-color="#6B24D6"/>
<stop offset="0.2945" stop-color="#7733DC"/>
<stop offset="0.7943" stop-color="#975CED"/>
<stop offset="1" stop-color="#A56EF4"/>
</linearGradient>
<linearGradient id="paint16_linear_1161:25946" x1="234.742" y1="187.883" x2="281.531" y2="187.883" gradientUnits="userSpaceOnUse">
<stop stop-color="#7C3ADF"/>
<stop offset="0.0417" stop-color="#7733DC"/>
<stop offset="0.1437" stop-color="#6E28D8"/>
<stop offset="0.2525" stop-color="#6B24D6"/>
<stop offset="0.5556" stop-color="#9A60EE"/>
<stop offset="0.9747" stop-color="#7734DC"/>
</linearGradient>
<radialGradient id="paint17_radial_1161:25946" cx="0" cy="0" r="1" gradientUnits="userSpaceOnUse" gradientTransform="translate(389.475 146.842) scale(14.9752 14.9787)">
<stop stop-color="white"/>
<stop offset="0.0656" stop-color="#D8D8D8"/>
<stop offset="0.1615" stop-color="#A6A6A6"/>
<stop offset="0.2622" stop-color="#797979"/>
<stop offset="0.3658" stop-color="#545454"/>
<stop offset="0.4731" stop-color="#353535"/>
<stop offset="0.5852" stop-color="#1E1E1E"/>
<stop offset="0.7042" stop-color="#0D0D0D"/>
<stop offset="0.835" stop-color="#030303"/>
<stop offset="1"/>
</radialGradient>
<radialGradient id="paint18_radial_1161:25946" cx="0" cy="0" r="1" gradientUnits="userSpaceOnUse" gradientTransform="translate(376.149 202.929) scale(36.7778 36.7865)">
<stop stop-color="white"/>
<stop offset="0.0656" stop-color="#D8D8D8"/>
<stop offset="0.1615" stop-color="#A6A6A6"/>
<stop offset="0.2622" stop-color="#797979"/>
<stop offset="0.3658" stop-color="#545454"/>
<stop offset="0.4731" stop-color="#353535"/>
<stop offset="0.5852" stop-color="#1E1E1E"/>
<stop offset="0.7042" stop-color="#0D0D0D"/>
<stop offset="0.835" stop-color="#030303"/>
<stop offset="1"/>
</radialGradient>
<radialGradient id="paint19_radial_1161:25946" cx="0" cy="0" r="1" gradientUnits="userSpaceOnUse" gradientTransform="translate(205.543 171.526) scale(20.6054 20.6103)">
<stop stop-color="white"/>
<stop offset="0.0656" stop-color="#D8D8D8"/>
<stop offset="0.1615" stop-color="#A6A6A6"/>
<stop offset="0.2622" stop-color="#797979"/>
<stop offset="0.3658" stop-color="#545454"/>
<stop offset="0.4731" stop-color="#353535"/>
<stop offset="0.5852" stop-color="#1E1E1E"/>
<stop offset="0.7042" stop-color="#0D0D0D"/>
<stop offset="0.835" stop-color="#030303"/>
<stop offset="1"/>
</radialGradient>
<radialGradient id="paint20_radial_1161:25946" cx="0" cy="0" r="1" gradientUnits="userSpaceOnUse" gradientTransform="translate(257.958 167.704) scale(18.7682 18.7727)">
<stop stop-color="white"/>
<stop offset="0.0656" stop-color="#D8D8D8"/>
<stop offset="0.1615" stop-color="#A6A6A6"/>
<stop offset="0.2622" stop-color="#797979"/>
<stop offset="0.3658" stop-color="#545454"/>
<stop offset="0.4731" stop-color="#353535"/>
<stop offset="0.5852" stop-color="#1E1E1E"/>
<stop offset="0.7042" stop-color="#0D0D0D"/>
<stop offset="0.835" stop-color="#030303"/>
<stop offset="1"/>
</radialGradient>
<linearGradient id="paint21_linear_1161:25946" x1="308.233" y1="-36.2437" x2="150.337" y2="264.572" gradientUnits="userSpaceOnUse">
<stop offset="0.0354" stop-color="#138BBD"/>
<stop offset="0.2257" stop-color="#169AC7"/>
<stop offset="0.5946" stop-color="#1FC3DF"/>
<stop offset="1" stop-color="#2AF6FF"/>
</linearGradient>
<linearGradient id="paint22_linear_1161:25946" x1="240.085" y1="220.272" x2="294.725" y2="203.916" gradientUnits="userSpaceOnUse">
<stop offset="0.0354" stop-color="#138BBD"/>
<stop offset="0.2257" stop-color="#169AC7"/>
<stop offset="0.5946" stop-color="#1FC3DF"/>
<stop offset="1" stop-color="#2AF6FF"/>
</linearGradient>
<linearGradient id="paint23_linear_1161:25946" x1="177.649" y1="269.272" x2="274.932" y2="269.272" gradientUnits="userSpaceOnUse">
<stop stop-color="#1BB0D4"/>
<stop offset="0.1067" stop-color="#1EBFDD"/>
<stop offset="0.2374" stop-color="#23D8EC"/>
<stop offset="0.3669" stop-color="#1EC0DD"/>
<stop offset="0.4394" stop-color="#1BB0D4"/>
<stop offset="0.4954" stop-color="#1BB0D4"/>
<stop offset="0.5051" stop-color="#1BB0D4"/>
<stop offset="0.5455" stop-color="#20C6E2"/>
<stop offset="0.563" stop-color="#1BAFD4"/>
<stop offset="0.5842" stop-color="#179BC7"/>
<stop offset="0.6053" stop-color="#148FC0"/>
<stop offset="0.6263" stop-color="#138BBD"/>
</linearGradient>
<linearGradient id="paint24_linear_1161:25946" x1="-47.6316" y1="324.389" x2="269.374" y2="253.35" gradientUnits="userSpaceOnUse">
<stop offset="0.0354" stop-color="#138BBD"/>
<stop offset="0.2257" stop-color="#169AC7"/>
<stop offset="0.5946" stop-color="#1FC3DF"/>
<stop offset="1" stop-color="#2AF6FF"/>
</linearGradient>
<linearGradient id="paint25_linear_1161:25946" x1="170.308" y1="291.438" x2="221.84" y2="368.913" gradientUnits="userSpaceOnUse">
<stop offset="0.0354" stop-color="#138BBD"/>
<stop offset="0.2257" stop-color="#169AC7"/>
<stop offset="0.5946" stop-color="#1FC3DF"/>
<stop offset="1" stop-color="#2AF6FF"/>
</linearGradient>
<linearGradient id="paint26_linear_1161:25946" x1="188.965" y1="319.506" x2="209.89" y2="350.965" gradientUnits="userSpaceOnUse">
<stop offset="0.0354" stop-color="#138BBD"/>
<stop offset="0.2257" stop-color="#169AC7"/>
<stop offset="0.5946" stop-color="#1FC3DF"/>
<stop offset="1" stop-color="#2AF6FF"/>
</linearGradient>
<radialGradient id="paint27_radial_1161:25946" cx="0" cy="0" r="1" gradientUnits="userSpaceOnUse" gradientTransform="translate(107.492 267.582) scale(79.7626 79.7896)">
<stop stop-color="white"/>
<stop offset="0.0656" stop-color="#D8D8D8"/>
<stop offset="0.1615" stop-color="#A6A6A6"/>
<stop offset="0.2622" stop-color="#797979"/>
<stop offset="0.3658" stop-color="#545454"/>
<stop offset="0.4731" stop-color="#353535"/>
<stop offset="0.5852" stop-color="#1E1E1E"/>
<stop offset="0.7042" stop-color="#0D0D0D"/>
<stop offset="0.835" stop-color="#030303"/>
<stop offset="1"/>
</radialGradient>
<radialGradient id="paint28_radial_1161:25946" cx="0" cy="0" r="1" gradientUnits="userSpaceOnUse" gradientTransform="translate(244.93 205.985) scale(11.0538 11.0576)">
<stop stop-color="white"/>
<stop offset="0.0656" stop-color="#D8D8D8"/>
<stop offset="0.1615" stop-color="#A6A6A6"/>
<stop offset="0.2622" stop-color="#797979"/>
<stop offset="0.3658" stop-color="#545454"/>
<stop offset="0.4731" stop-color="#353535"/>
<stop offset="0.5852" stop-color="#1E1E1E"/>
<stop offset="0.7042" stop-color="#0D0D0D"/>
<stop offset="0.835" stop-color="#030303"/>
<stop offset="1"/>
</radialGradient>
<radialGradient id="paint29_radial_1161:25946" cx="0" cy="0" r="1" gradientUnits="userSpaceOnUse" gradientTransform="translate(206.5 245.757) scale(35.4742 35.4863)">
<stop stop-color="white"/>
<stop offset="0.0656" stop-color="#D8D8D8"/>
<stop offset="0.1615" stop-color="#A6A6A6"/>
<stop offset="0.2622" stop-color="#797979"/>
<stop offset="0.3658" stop-color="#545454"/>
<stop offset="0.4731" stop-color="#353535"/>
<stop offset="0.5852" stop-color="#1E1E1E"/>
<stop offset="0.7042" stop-color="#0D0D0D"/>
<stop offset="0.835" stop-color="#030303"/>
<stop offset="1"/>
</radialGradient>
<linearGradient id="paint30_linear_1161:25946" x1="331.689" y1="236.071" x2="552.732" y2="236.071" gradientUnits="userSpaceOnUse">
<stop offset="0.0354" stop-color="#9F19AB"/>
<stop offset="0.2438" stop-color="#AE25B1"/>
<stop offset="0.6455" stop-color="#D744BF"/>
<stop offset="1" stop-color="#FF63CE"/>
</linearGradient>
<linearGradient id="paint31_linear_1161:25946" x1="574.185" y1="-15.0222" x2="416.289" y2="285.793" gradientUnits="userSpaceOnUse">
<stop offset="0.0354" stop-color="#9F19AB"/>
<stop offset="0.2438" stop-color="#AE25B1"/>
<stop offset="0.6455" stop-color="#D744BF"/>
<stop offset="1" stop-color="#FF63CE"/>
</linearGradient>
<linearGradient id="paint32_linear_1161:25946" x1="445.665" y1="211.249" x2="393.589" y2="211.249" gradientUnits="userSpaceOnUse">
<stop stop-color="#9F19AB"/>
<stop offset="0.1364" stop-color="#AE25B1"/>
<stop offset="0.3993" stop-color="#D744BF"/>
<stop offset="0.6313" stop-color="#FF63CE"/>
<stop offset="0.8737" stop-color="#DC48C1"/>
</linearGradient>
<linearGradient id="paint33_linear_1161:25946" x1="485.308" y1="257.839" x2="525.921" y2="342.121" gradientUnits="userSpaceOnUse">
<stop offset="0.0354" stop-color="#9F19AB"/>
<stop offset="0.2438" stop-color="#AE25B1"/>
<stop offset="0.6455" stop-color="#D744BF"/>
<stop offset="1" stop-color="#FF63CE"/>
</linearGradient>
<linearGradient id="paint34_linear_1161:25946" x1="463.031" y1="296.79" x2="705.571" y2="224.19" gradientUnits="userSpaceOnUse">
<stop offset="0.0354" stop-color="#9F19AB"/>
<stop offset="0.2438" stop-color="#AE25B1"/>
<stop offset="0.6455" stop-color="#D744BF"/>
<stop offset="1" stop-color="#FF63CE"/>
</linearGradient>
<linearGradient id="paint35_linear_1161:25946" x1="282.458" y1="270.706" x2="421.866" y2="239.466" gradientUnits="userSpaceOnUse">
<stop offset="0.0354" stop-color="#9F19AB"/>
<stop offset="0.2438" stop-color="#AE25B1"/>
<stop offset="0.6455" stop-color="#D744BF"/>
<stop offset="1" stop-color="#FF63CE"/>
</linearGradient>
<linearGradient id="paint36_linear_1161:25946" x1="384.278" y1="314.871" x2="468.396" y2="296.021" gradientUnits="userSpaceOnUse">
<stop offset="0.0354" stop-color="#9F19AB"/>
<stop offset="0.2438" stop-color="#AE25B1"/>
<stop offset="0.6455" stop-color="#D744BF"/>
<stop offset="1" stop-color="#FF63CE"/>
</linearGradient>
<linearGradient id="paint37_linear_1161:25946" x1="379.668" y1="308.744" x2="420.281" y2="393.026" gradientUnits="userSpaceOnUse">
<stop offset="0.0354" stop-color="#9F19AB"/>
<stop offset="0.2438" stop-color="#AE25B1"/>
<stop offset="0.6455" stop-color="#D744BF"/>
<stop offset="1" stop-color="#FF63CE"/>
</linearGradient>
<linearGradient id="paint38_linear_1161:25946" x1="405.394" y1="301.787" x2="346.234" y2="301.787" gradientUnits="userSpaceOnUse">
<stop stop-color="#9F19AB"/>
<stop offset="0.1659" stop-color="#AE25B1"/>
<stop offset="0.4855" stop-color="#D744BF"/>
<stop offset="0.7677" stop-color="#FF63CE"/>
<stop offset="0.9242" stop-color="#DC48C1"/>
</linearGradient>
<radialGradient id="paint39_radial_1161:25946" cx="0" cy="0" r="1" gradientUnits="userSpaceOnUse" gradientTransform="translate(361.233 248.201) scale(23.9175 23.9256)">
<stop stop-color="white"/>
<stop offset="0.0656" stop-color="#D8D8D8"/>
<stop offset="0.1615" stop-color="#A6A6A6"/>
<stop offset="0.2622" stop-color="#797979"/>
<stop offset="0.3658" stop-color="#545454"/>
<stop offset="0.4731" stop-color="#353535"/>
<stop offset="0.5852" stop-color="#1E1E1E"/>
<stop offset="0.7042" stop-color="#0D0D0D"/>
<stop offset="0.835" stop-color="#030303"/>
<stop offset="1"/>
</radialGradient>
<radialGradient id="paint40_radial_1161:25946" cx="0" cy="0" r="1" gradientUnits="userSpaceOnUse" gradientTransform="translate(423.114 198.654) scale(17.2088 17.2146)">
<stop stop-color="white"/>
<stop offset="0.0656" stop-color="#D8D8D8"/>
<stop offset="0.1615" stop-color="#A6A6A6"/>
<stop offset="0.2622" stop-color="#797979"/>
<stop offset="0.3658" stop-color="#545454"/>
<stop offset="0.4731" stop-color="#353535"/>
<stop offset="0.5852" stop-color="#1E1E1E"/>
<stop offset="0.7042" stop-color="#0D0D0D"/>
<stop offset="0.835" stop-color="#030303"/>
<stop offset="1"/>
</radialGradient>
<radialGradient id="paint41_radial_1161:25946" cx="0" cy="0" r="1" gradientUnits="userSpaceOnUse" gradientTransform="translate(364.69 300.919) scale(55.6051 55.6239)">
<stop stop-color="white"/>
<stop offset="0.0656" stop-color="#D8D8D8"/>
<stop offset="0.1615" stop-color="#A6A6A6"/>
<stop offset="0.2622" stop-color="#797979"/>
<stop offset="0.3658" stop-color="#545454"/>
<stop offset="0.4731" stop-color="#353535"/>
<stop offset="0.5852" stop-color="#1E1E1E"/>
<stop offset="0.7042" stop-color="#0D0D0D"/>
<stop offset="0.835" stop-color="#030303"/>
<stop offset="1"/>
</radialGradient>
<radialGradient id="paint42_radial_1161:25946" cx="0" cy="0" r="1" gradientUnits="userSpaceOnUse" gradientTransform="translate(515.638 273.26) scale(59.3475 59.3676)">
<stop stop-color="white"/>
<stop offset="0.0656" stop-color="#D8D8D8"/>
<stop offset="0.1615" stop-color="#A6A6A6"/>
<stop offset="0.2622" stop-color="#797979"/>
<stop offset="0.3658" stop-color="#545454"/>
<stop offset="0.4731" stop-color="#353535"/>
<stop offset="0.5852" stop-color="#1E1E1E"/>
<stop offset="0.7042" stop-color="#0D0D0D"/>
<stop offset="0.835" stop-color="#030303"/>
<stop offset="1"/>
</radialGradient>
<linearGradient id="paint43_linear_1161:25946" x1="421.159" y1="97.2746" x2="285.406" y2="355.903" gradientUnits="userSpaceOnUse">
<stop offset="0.0354" stop-color="#FFA98C"/>
<stop offset="0.3169" stop-color="#FFB892"/>
<stop offset="0.8601" stop-color="#FEE1A3"/>
<stop offset="1" stop-color="#FEECA8"/>
</linearGradient>
<linearGradient id="paint44_linear_1161:25946" x1="201.413" y1="370.725" x2="422.926" y2="370.725" gradientUnits="userSpaceOnUse">
<stop offset="0.0657" stop-color="#FCCE9E"/>
<stop offset="0.5202" stop-color="#FAC099"/>
<stop offset="0.5855" stop-color="#FFE1A6"/>
<stop offset="0.5909" stop-color="#FFE4A7"/>
<stop offset="0.609" stop-color="#FDD4A1"/>
<stop offset="0.643" stop-color="#FABD98"/>
<stop offset="0.6748" stop-color="#F8AF92"/>
<stop offset="0.702" stop-color="#F7AA90"/>
<stop offset="1" stop-color="#F9B695"/>
</linearGradient>
<linearGradient id="paint45_linear_1161:25946" x1="160.51" y1="326.691" x2="274.818" y2="301.075" gradientUnits="userSpaceOnUse">
<stop offset="0.0354" stop-color="#FFA98C"/>
<stop offset="0.3169" stop-color="#FFB892"/>
<stop offset="0.8601" stop-color="#FEE1A3"/>
<stop offset="1" stop-color="#FEECA8"/>
</linearGradient>
<linearGradient id="paint46_linear_1161:25946" x1="339.627" y1="300.48" x2="274.371" y2="300.48" gradientUnits="userSpaceOnUse">
<stop offset="0.0354" stop-color="#F7AA90"/>
<stop offset="0.2316" stop-color="#F9B996"/>
<stop offset="0.6103" stop-color="#FFE2A6"/>
<stop offset="0.6313" stop-color="#FFE4A7"/>
<stop offset="0.8737" stop-color="#F7AA90"/>
</linearGradient>
<radialGradient id="paint47_radial_1161:25946" cx="0" cy="0" r="1" gradientUnits="userSpaceOnUse" gradientTransform="translate(369.371 300.723) scale(0.163206)">
<stop stop-color="white"/>
<stop offset="0.0656" stop-color="#D8D8D8"/>
<stop offset="0.1615" stop-color="#A6A6A6"/>
<stop offset="0.2622" stop-color="#797979"/>
<stop offset="0.3658" stop-color="#545454"/>
<stop offset="0.4731" stop-color="#353535"/>
<stop offset="0.5852" stop-color="#1E1E1E"/>
<stop offset="0.7042" stop-color="#0D0D0D"/>
<stop offset="0.835" stop-color="#030303"/>
<stop offset="1"/>
</radialGradient>
<radialGradient id="paint48_radial_1161:25946" cx="0" cy="0" r="1" gradientUnits="userSpaceOnUse" gradientTransform="translate(329.155 292.918) scale(8.99884 9.00187)">
<stop stop-color="white"/>
<stop offset="0.0656" stop-color="#D8D8D8"/>
<stop offset="0.1615" stop-color="#A6A6A6"/>
<stop offset="0.2622" stop-color="#797979"/>
<stop offset="0.3658" stop-color="#545454"/>
<stop offset="0.4731" stop-color="#353535"/>
<stop offset="0.5852" stop-color="#1E1E1E"/>
<stop offset="0.7042" stop-color="#0D0D0D"/>
<stop offset="0.835" stop-color="#030303"/>
<stop offset="1"/>
</radialGradient>
<radialGradient id="paint49_radial_1161:25946" cx="0" cy="0" r="1" gradientUnits="userSpaceOnUse" gradientTransform="translate(215.722 305.204) scale(12.8586 12.8629)">
<stop stop-color="white"/>
<stop offset="0.0656" stop-color="#D8D8D8"/>
<stop offset="0.1615" stop-color="#A6A6A6"/>
<stop offset="0.2622" stop-color="#797979"/>
<stop offset="0.3658" stop-color="#545454"/>
<stop offset="0.4731" stop-color="#353535"/>
<stop offset="0.5852" stop-color="#1E1E1E"/>
<stop offset="0.7042" stop-color="#0D0D0D"/>
<stop offset="0.835" stop-color="#030303"/>
<stop offset="1"/>
</radialGradient>
<radialGradient id="paint50_radial_1161:25946" cx="0" cy="0" r="1" gradientUnits="userSpaceOnUse" gradientTransform="translate(277.726 357.525) scale(82.6545 82.6825)">
<stop stop-color="white"/>
<stop offset="0.0656" stop-color="#D8D8D8"/>
<stop offset="0.1615" stop-color="#A6A6A6"/>
<stop offset="0.2622" stop-color="#797979"/>
<stop offset="0.3658" stop-color="#545454"/>
<stop offset="0.4731" stop-color="#353535"/>
<stop offset="0.5852" stop-color="#1E1E1E"/>
<stop offset="0.7042" stop-color="#0D0D0D"/>
<stop offset="0.835" stop-color="#030303"/>
<stop offset="1"/>
</radialGradient>
<radialGradient id="paint51_radial_1161:25946" cx="0" cy="0" r="1" gradientUnits="userSpaceOnUse" gradientTransform="translate(332.269 402.053) rotate(90.6482) scale(25.4316 3.53955)">
<stop stop-color="#972A74"/>
<stop offset="0.0413" stop-color="#8A266A"/>
<stop offset="0.1941" stop-color="#601B4A"/>
<stop offset="0.35" stop-color="#3D112F" stop-opacity="0.8"/>
<stop offset="0.5074" stop-color="#220A1B" stop-opacity="0.6"/>
<stop offset="0.6667" stop-color="#0F040C" stop-opacity="0.4"/>
<stop offset="0.8293" stop-color="#040103" stop-opacity="0.2"/>
<stop offset="1" stop-opacity="0"/>
</radialGradient>
<radialGradient id="paint52_radial_1161:25946" cx="0" cy="0" r="1" gradientUnits="userSpaceOnUse" gradientTransform="translate(331.247 392.429) rotate(-22.3521) scale(17.4503 22.3494)">
<stop stop-color="#972A74"/>
<stop offset="0.0413" stop-color="#8A266A"/>
<stop offset="0.1941" stop-color="#601B4A"/>
<stop offset="0.35" stop-color="#3D112F"/>
<stop offset="0.5074" stop-color="#220A1B" stop-opacity="0.6"/>
<stop offset="0.6667" stop-color="#0F040C" stop-opacity="0.4"/>
<stop offset="0.807292" stop-color="#040103" stop-opacity="0.2"/>
<stop offset="1" stop-opacity="0"/>
</radialGradient>
<radialGradient id="paint53_radial_1161:25946" cx="0" cy="0" r="1" gradientUnits="userSpaceOnUse" gradientTransform="translate(331.013 429.784) scale(83.0748 83.103)">
<stop stop-color="#FA45C1"/>
<stop offset="0.2052" stop-color="#CB389D"/>
<stop offset="0.6676" stop-color="#571843"/>
<stop offset="1"/>
</radialGradient>
<linearGradient id="paint54_linear_1161:25946" x1="13492" y1="3508.08" x2="12764.4" y2="2543.13" gradientUnits="userSpaceOnUse">
<stop stop-color="#C0D6FF"/>
<stop offset="0.3" stop-color="#C5DBFF"/>
<stop offset="0.65" stop-color="#D3E9FF"/>
<stop offset="1" stop-color="#E9FFFF"/>
</linearGradient>
<linearGradient id="paint55_linear_1161:25946" x1="4818.53" y1="1181.82" x2="4589.32" y2="862.895" gradientUnits="userSpaceOnUse">
<stop stop-color="#C0D6FF"/>
<stop offset="0.3" stop-color="#C5DBFF"/>
<stop offset="0.65" stop-color="#D3E9FF"/>
<stop offset="1" stop-color="#E9FFFF"/>
</linearGradient>
<radialGradient id="paint56_radial_1161:25946" cx="0" cy="0" r="1" gradientUnits="userSpaceOnUse" gradientTransform="translate(104.002 308.541) scale(68.1674 68.1905)">
<stop stop-color="#FA45C1"/>
<stop offset="0.2052" stop-color="#CB389D"/>
<stop offset="0.6676" stop-color="#571843"/>
<stop offset="1"/>
</radialGradient>
<radialGradient id="paint57_radial_1161:25946" cx="0" cy="0" r="1" gradientUnits="userSpaceOnUse" gradientTransform="translate(515.444 309.161) scale(69.2082 69.2317)">
<stop stop-color="#FA45C1"/>
<stop offset="0.2052" stop-color="#CB389D"/>
<stop offset="0.6676" stop-color="#571843"/>
<stop offset="1"/>
</radialGradient>
<linearGradient id="paint58_linear_1161:25946" x1="8729.09" y1="2734.51" x2="8132.53" y2="2093.84" gradientUnits="userSpaceOnUse">
<stop stop-color="#C0D6FF"/>
<stop offset="0.3" stop-color="#C5DBFF"/>
<stop offset="0.65" stop-color="#D3E9FF"/>
<stop offset="1" stop-color="#E9FFFF"/>
</linearGradient>
<linearGradient id="paint59_linear_1161:25946" x1="2910.65" y1="665.351" x2="2784.38" y2="483.038" gradientUnits="userSpaceOnUse">
<stop stop-color="#C0D6FF"/>
<stop offset="0.3" stop-color="#C5DBFF"/>
<stop offset="0.65" stop-color="#D3E9FF"/>
<stop offset="1" stop-color="#E9FFFF"/>
</linearGradient>
<linearGradient id="paint60_linear_1161:25946" x1="4072.91" y1="1395.79" x2="3772.82" y2="1112.07" gradientUnits="userSpaceOnUse">
<stop stop-color="#C0D6FF"/>
<stop offset="0.3" stop-color="#C5DBFF"/>
<stop offset="0.65" stop-color="#D3E9FF"/>
<stop offset="1" stop-color="#E9FFFF"/>
</linearGradient>
<linearGradient id="paint61_linear_1161:25946" x1="9937.72" y1="2501.56" x2="9423.52" y2="1795.96" gradientUnits="userSpaceOnUse">
<stop stop-color="#C0D6FF"/>
<stop offset="0.3" stop-color="#C5DBFF"/>
<stop offset="0.65" stop-color="#D3E9FF"/>
<stop offset="1" stop-color="#E9FFFF"/>
</linearGradient>
<linearGradient id="paint62_linear_1161:25946" x1="3697.42" y1="1122.01" x2="3463.09" y2="862.518" gradientUnits="userSpaceOnUse">
<stop stop-color="#C0D6FF"/>
<stop offset="0.3" stop-color="#C5DBFF"/>
<stop offset="0.65" stop-color="#D3E9FF"/>
<stop offset="1" stop-color="#E9FFFF"/>
</linearGradient>
<linearGradient id="paint63_linear_1161:25946" x1="13449.2" y1="2474.72" x2="13031.9" y2="1664.76" gradientUnits="userSpaceOnUse">
<stop stop-color="#C0D6FF"/>
<stop offset="0.3" stop-color="#C5DBFF"/>
<stop offset="0.65" stop-color="#D3E9FF"/>
<stop offset="1" stop-color="#E9FFFF"/>
</linearGradient>
<linearGradient id="paint64_linear_1161:25946" x1="22121.1" y1="10163.8" x2="19997.5" y2="8556.39" gradientUnits="userSpaceOnUse">
<stop stop-color="#C0D6FF"/>
<stop offset="0.3" stop-color="#C5DBFF"/>
<stop offset="0.65" stop-color="#D3E9FF"/>
<stop offset="1" stop-color="#E9FFFF"/>
</linearGradient>
<linearGradient id="paint65_linear_1161:25946" x1="836.904" y1="6845.26" x2="766.253" y2="6843.58" gradientUnits="userSpaceOnUse">
<stop stop-color="#C0D6FF"/>
<stop offset="0.3" stop-color="#C5DBFF"/>
<stop offset="0.65" stop-color="#D3E9FF"/>
<stop offset="1" stop-color="#E9FFFF"/>
</linearGradient>
<linearGradient id="paint66_linear_1161:25946" x1="693.038" y1="8087.87" x2="622.376" y2="8086.45" gradientUnits="userSpaceOnUse">
<stop stop-color="#C0D6FF"/>
<stop offset="0.3" stop-color="#C5DBFF"/>
<stop offset="0.65" stop-color="#D3E9FF"/>
<stop offset="1" stop-color="#E9FFFF"/>
</linearGradient>
<linearGradient id="paint67_linear_1161:25946" x1="27062.5" y1="9788.91" x2="24943.2" y2="7721.78" gradientUnits="userSpaceOnUse">
<stop stop-color="#C0D6FF"/>
<stop offset="0.3" stop-color="#C5DBFF"/>
<stop offset="0.65" stop-color="#D3E9FF"/>
<stop offset="1" stop-color="#E9FFFF"/>
</linearGradient>
<linearGradient id="paint68_linear_1161:25946" x1="21041.1" y1="2584.6" x2="20719" y2="1627.95" gradientUnits="userSpaceOnUse">
<stop stop-color="#C0D6FF"/>
<stop offset="0.3" stop-color="#C5DBFF"/>
<stop offset="0.65" stop-color="#D3E9FF"/>
<stop offset="1" stop-color="#E9FFFF"/>
</linearGradient>
<linearGradient id="paint69_linear_1161:25946" x1="16773.1" y1="1244.1" x2="16671.8" y2="748.441" gradientUnits="userSpaceOnUse">
<stop stop-color="#C0D6FF"/>
<stop offset="0.3" stop-color="#C5DBFF"/>
<stop offset="0.65" stop-color="#D3E9FF"/>
<stop offset="1" stop-color="#E9FFFF"/>
</linearGradient>
<linearGradient id="paint70_linear_1161:25946" x1="13079" y1="3510.88" x2="12331.4" y2="2552.48" gradientUnits="userSpaceOnUse">
<stop stop-color="#C0D6FF"/>
<stop offset="0.3" stop-color="#C5DBFF"/>
<stop offset="0.65" stop-color="#D3E9FF"/>
<stop offset="1" stop-color="#E9FFFF"/>
</linearGradient>
<linearGradient id="paint71_linear_1161:25946" x1="7035.24" y1="1857.53" x2="6643.68" y2="1351.13" gradientUnits="userSpaceOnUse">
<stop stop-color="#C0D6FF"/>
<stop offset="0.3" stop-color="#C5DBFF"/>
<stop offset="0.65" stop-color="#D3E9FF"/>
<stop offset="1" stop-color="#E9FFFF"/>
</linearGradient>
<linearGradient id="paint72_linear_1161:25946" x1="2971.06" y1="1581.81" x2="2671.17" y2="1378.09" gradientUnits="userSpaceOnUse">
<stop stop-color="#C0D6FF"/>
<stop offset="0.3" stop-color="#C5DBFF"/>
<stop offset="0.65" stop-color="#D3E9FF"/>
<stop offset="1" stop-color="#E9FFFF"/>
</linearGradient>
<linearGradient id="paint73_linear_1161:25946" x1="2983.73" y1="2476.17" x2="2610.72" y2="2320.15" gradientUnits="userSpaceOnUse">
<stop stop-color="#C0D6FF"/>
<stop offset="0.3" stop-color="#C5DBFF"/>
<stop offset="0.65" stop-color="#D3E9FF"/>
<stop offset="1" stop-color="#E9FFFF"/>
</linearGradient>
<linearGradient id="paint74_linear_1161:25946" x1="2996.42" y1="3369.63" x2="2594.83" y2="3248.25" gradientUnits="userSpaceOnUse">
<stop stop-color="#C0D6FF"/>
<stop offset="0.3" stop-color="#C5DBFF"/>
<stop offset="0.65" stop-color="#D3E9FF"/>
<stop offset="1" stop-color="#E9FFFF"/>
</linearGradient>
<clipPath id="clip0_1161:25946">
<rect width="600" height="483" fill="white"/>
</clipPath>
</defs>
</svg>
