<svg width="28" height="21" viewBox="0 0 28 21" fill="none" xmlns="http://www.w3.org/2000/svg">
<path d="M27.4926 1.91724C26.9551 0.986187 25.9662 0.35376 24.8205 0.35376H13.9615V1.91724H27.4926ZM0 15.9885H27.9231V17.552H0V15.9885ZM13.9615 9.73463H27.9231V11.2981H13.9615V9.73463ZM13.9615 6.60767H27.9231V8.17115H13.9615V6.60767ZM0 12.8616H27.9231V14.4251H0V12.8616ZM3.10257 20.679H24.8205C25.9662 20.679 26.9551 20.0466 27.4926 19.1155H0.430481C0.968001 20.0466 1.95694 20.679 3.10257 20.679ZM13.9615 3.48072H27.9231V5.0442H13.9615V3.48072Z" fill="#B22334"/>
<path d="M0.0527436 18.0828C0.0659295 18.1555 0.0806667 18.2282 0.0985065 18.2994C0.118673 18.3783 0.143494 18.4542 0.169866 18.5308C0.238898 18.7332 0.322667 18.9287 0.428154 19.1116L0.430481 19.1155H27.4926L27.4942 19.1124C27.5989 18.9302 27.6826 18.7348 27.7517 18.5331C27.7781 18.4557 27.8036 18.3783 27.8238 18.2978C27.8417 18.2275 27.8564 18.1555 27.8696 18.0828C27.9014 17.9108 27.9231 17.7342 27.9231 17.552H0C0 17.7342 0.021718 17.9101 0.0527436 18.0828ZM0 14.4251H27.9231V15.9886H0V14.4251ZM0 11.2981V12.8616H27.9231V11.2981H13.9615H0ZM13.9615 8.17115H27.9231V9.73463H13.9615V8.17115ZM13.9615 5.04419H27.9231V6.60767H13.9615V5.04419ZM0 3.48072C0 3.29857 0.0232693 3.12346 0.0527436 2.94991C0.021718 3.12268 0 3.29857 0 3.48072ZM0.430481 1.91724L0.428154 1.92115L0.430481 1.91724ZM0.0992821 2.73337C0.118673 2.65363 0.145821 2.57781 0.170641 2.5012C0.144269 2.57781 0.119449 2.65442 0.0992821 2.73337ZM13.9615 3.48072H27.9231C27.9231 3.29857 27.9014 3.1219 27.8696 2.94913C27.8564 2.87721 27.8424 2.80529 27.8238 2.73494C27.8029 2.65442 27.7781 2.57624 27.7509 2.49885C27.6819 2.29716 27.5981 2.10251 27.4934 1.92036C27.4942 1.91958 27.4934 1.91802 27.4926 1.91724H13.9615V3.48072Z" fill="#EEEEEE"/>
<path d="M13.9615 0.35376H3.10257C1.38917 0.35376 0 1.75385 0 3.48072V11.2981H13.9615V0.35376Z" fill="#3C3B6E"/>
<path d="M1.55371 2.48478L2.03306 2.83578L1.85 3.40254L2.32857 3.05232L2.80792 3.40254L2.62487 2.83578L3.10421 2.48478H2.51162L2.32857 1.91724L2.1463 2.48478H1.55371ZM3.10499 4.04826L3.58433 4.39926L3.40128 4.96602L3.87985 4.6158L4.35919 4.96602L4.17614 4.39926L4.65549 4.04826H4.0629L3.87985 3.48072L3.69757 4.04826H3.10499ZM6.20754 4.04826L6.68688 4.39926L6.50383 4.96602L6.9824 4.6158L7.46174 4.96602L7.27869 4.39926L7.75804 4.04826H7.16545L6.9824 3.48072L6.80013 4.04826H6.20754ZM9.31009 4.04826L9.78943 4.39926L9.60638 4.96602L10.085 4.6158L10.5643 4.96602L10.3812 4.39926L10.8606 4.04826H10.268L10.085 3.48072L9.90268 4.04826H9.31009ZM3.10499 7.17522L3.58433 7.52622L3.40128 8.09298L3.87985 7.74276L4.35919 8.09298L4.17614 7.52622L4.65549 7.17522H4.0629L3.87985 6.60768L3.69757 7.17522H3.10499ZM6.20754 7.17522L6.68688 7.52622L6.50383 8.09298L6.9824 7.74276L7.46174 8.09298L7.27869 7.52622L7.75804 7.17522H7.16545L6.9824 6.60768L6.80013 7.17522H6.20754ZM9.31009 7.17522L9.78943 7.52622L9.60638 8.09298L10.085 7.74276L10.5643 8.09298L10.3812 7.52622L10.8606 7.17522H10.268L10.085 6.60768L9.90268 7.17522H9.31009ZM4.65626 2.48478L5.13561 2.83578L4.95256 3.40254L5.43112 3.05232L5.91047 3.40254L5.72742 2.83578L6.20676 2.48478H5.61417L5.43112 1.91724L5.24885 2.48478H4.65626ZM7.75881 2.48478L8.23816 2.83578L8.05511 3.40254L8.53368 3.05232L9.01302 3.40254L8.82997 2.83578L9.30931 2.48478H8.71673L8.53368 1.91724L8.3514 2.48478H7.75881ZM10.8614 2.48478L11.3407 2.83578L11.1577 3.40254L11.6362 3.05232L12.1156 3.40254L11.9325 2.83578L12.4119 2.48478H11.8193L11.6362 1.91724L11.454 2.48478H10.8614ZM1.55371 5.61174L2.03306 5.96274L1.85 6.5295L2.32857 6.17928L2.80792 6.5295L2.62487 5.96274L3.10421 5.61174H2.51162L2.32857 5.0442L2.1463 5.61174H1.55371ZM4.95256 6.5295L5.43112 6.17928L5.91047 6.5295L5.72742 5.96274L6.20676 5.61174H5.61417L5.43112 5.0442L5.24885 5.61174H4.65626L5.13561 5.96274L4.95256 6.5295ZM7.75881 5.61174L8.23816 5.96274L8.05511 6.5295L8.53368 6.17928L9.01302 6.5295L8.82997 5.96274L9.30931 5.61174H8.71673L8.53368 5.0442L8.3514 5.61174H7.75881ZM10.8614 5.61174L11.3407 5.96274L11.1577 6.5295L11.6362 6.17928L12.1156 6.5295L11.9325 5.96274L12.4119 5.61174H11.8193L11.6362 5.0442L11.454 5.61174H10.8614ZM1.55371 8.7387L2.03306 9.0897L1.85 9.65646L2.32857 9.30624L2.80792 9.65646L2.62487 9.0897L3.10421 8.7387H2.51162L2.32857 8.17115L2.1463 8.7387H1.55371ZM4.95256 9.65646L5.43112 9.30624L5.91047 9.65646L5.72742 9.0897L6.20676 8.7387H5.61417L5.43112 8.17115L5.24885 8.7387H4.65626L5.13561 9.0897L4.95256 9.65646ZM7.75881 8.7387L8.23816 9.0897L8.05511 9.65646L8.53368 9.30624L9.01302 9.65646L8.82997 9.0897L9.30931 8.7387H8.71673L8.53368 8.17115L8.3514 8.7387H7.75881ZM10.8614 8.7387L11.3407 9.0897L11.1577 9.65646L11.6362 9.30624L12.1156 9.65646L11.9325 9.0897L12.4119 8.7387H11.8193L11.6362 8.17115L11.454 8.7387H10.8614Z" fill="white"/>
</svg>
