<svg width="27" height="22" viewBox="0 0 27 22" fill="none" xmlns="http://www.w3.org/2000/svg">
<path d="M5.60603 5.09683C6.96548 5.09683 8.06753 3.99478 8.06753 2.63533C8.06753 1.27588 6.96548 0.173828 5.60603 0.173828C4.24658 0.173828 3.14453 1.27588 3.14453 2.63533C3.14453 3.99478 4.24658 5.09683 5.60603 5.09683Z" fill="white"/>
<path d="M10.3917 6.96177V20.6181H14.6318V13.8648C14.6318 12.0828 14.9671 10.357 17.1766 10.357C19.3557 10.357 19.3827 12.3944 19.3827 13.9773V20.6193H23.6251V13.1301C23.6251 9.45139 22.8331 6.62427 18.5333 6.62427C16.4689 6.62427 15.0852 7.75714 14.5193 8.82927H14.4619V6.96177H10.3917ZM3.48193 6.96177H7.72881V20.6181H3.48193V6.96177Z" fill="white"/>
</svg>
