<svg width="498" height="401" viewBox="0 0 498 401" fill="none" xmlns="http://www.w3.org/2000/svg">
<path opacity="0.0727" d="M0 272.831L273.127 401L483 250.784L250.767 119L0 272.831Z" fill="#231F20"/>
<path opacity="0.0934" d="M6 270.453L272.627 397L479 249.443L250.638 120L6 270.453Z" fill="#231F20"/>
<path opacity="0.1141" d="M12 268.069L271.558 393L474 248.095L249.988 121L12 268.069Z" fill="#231F20"/>
<path opacity="0.1347" d="M18 265.699L271.057 389L470 246.772L249.859 122L18 265.699Z" fill="#231F20"/>
<path opacity="0.1554" d="M24 263.846L270.555 386L466 245.899L249.73 123L24 263.846Z" fill="#231F20"/>
<path opacity="0.176" d="M30 261.468L270.065 382L462 244.557L249.599 124L30 261.468Z" fill="#231F20"/>
<path opacity="0.1967" d="M37 259.085L270.002 378L458 243.222L249.955 125L37 259.085Z" fill="#231F20"/>
<path opacity="0.2174" d="M43 256.703L269.5 374L454 241.887L249.824 126L43 256.703Z" fill="#231F20"/>
<path opacity="0.238" d="M49 254.328L268.996 370L450 240.559L249.705 127L49 254.328Z" fill="#231F20"/>
<path opacity="0.2587" d="M55 251.954L268.485 366L446 239.218L249.565 128L55 251.954Z" fill="#231F20"/>
<path opacity="0.2793" d="M61 250.561L267.435 363L441 238.87L248.935 130L61 250.561Z" fill="#231F20"/>
<path opacity="0.3" d="M67 248.71L266.929 360L437 238.015L248.802 131L67 248.71Z" fill="#231F20"/>
<path d="M196.278 139.205C202.416 133.184 216.206 131.39 226.395 135.464C234.584 138.744 237.737 145.841 233.264 150.94C230.727 153.835 226.51 155.859 221.692 156.859C219.41 157.333 219.154 159.139 221.243 159.857L262.562 174L287.078 149.966C288.668 148.416 292.73 148.647 293.717 150.364C295.306 153.144 298.715 155.603 303.637 157.089C312.864 159.869 324.411 158.076 329.922 153.015C335.971 147.455 332.806 140.127 323.04 136.784C318.657 135.285 313.697 134.849 309.071 135.336C305.982 135.669 303.649 133.722 305.239 132.159L329.756 108.125L223.614 71.793C218.975 70.2044 213.002 71.0756 210.285 73.7531L148 134.785L189.37 148.941C191.433 149.646 194.035 148.66 193.65 147.302C192.881 144.599 193.689 141.729 196.278 139.205Z" fill="url(#paint0_linear_1317:1277)"/>
<path d="M309.333 135.342C313.952 134.84 318.905 135.278 323.282 136.798C325.06 137.416 326.609 138.163 327.94 139L330 136.978V108L305.519 132.161C303.92 133.72 306.249 135.677 309.333 135.342Z" fill="url(#paint1_linear_1317:1277)"/>
<path d="M332.862 148.025C332.528 149.702 331.593 151.352 329.939 152.874C324.427 157.968 312.891 159.773 303.649 156.975C298.714 155.479 295.318 153.003 293.728 150.205C292.741 148.477 288.665 148.232 287.088 149.805L262.567 173.997L221.242 159.76C219.14 159.038 219.409 157.22 221.691 156.743C226.523 155.737 230.74 153.699 233.265 150.785C237.739 145.652 234.586 138.508 226.395 135.207C216.205 131.106 202.425 132.924 196.273 138.972C193.683 141.526 192.889 144.402 193.658 147.123C194.042 148.502 191.453 149.482 189.377 148.773L148 134.523V163.539L189.377 177.789C191.44 178.498 194.042 177.505 193.658 176.138C192.889 173.417 193.683 170.541 196.273 167.988C201.182 163.152 210.975 161.024 219.909 162.456V186.932C219.64 187.602 220.05 188.363 221.242 188.763L262.567 203L287.088 178.808C288.678 177.247 292.741 177.479 293.728 179.207C295.318 182.006 298.727 184.482 303.649 185.978C312.878 188.776 324.427 186.971 329.939 181.877C332.477 179.53 333.374 176.873 332.862 174.32V148.025Z" fill="url(#paint2_linear_1317:1277)"/>
<path d="M291 177.905V149.023C289.626 148.907 288.15 149.228 287.336 150.037L263 174.118V203L287.336 178.919C288.15 178.097 289.626 177.789 291 177.905Z" fill="url(#paint3_linear_1317:1277)"/>
<path d="M288.166 178C288.115 178.026 288.051 178.038 288 178.064C288.051 178.038 288.102 178.013 288.166 178Z" fill="url(#paint4_linear_1317:1277)"/>
<path d="M288.796 177.956C288.771 177.969 288.745 177.969 288.707 177.969C288.745 177.969 288.771 177.969 288.796 177.956Z" fill="url(#paint5_linear_1317:1277)"/>
<path d="M221.237 159.76C219.135 159.038 219.404 157.22 221.686 156.743C226.518 155.737 230.735 153.699 233.26 150.785C237.733 145.652 234.58 138.508 226.39 135.207C216.2 131.106 202.422 132.924 196.269 138.972C193.68 141.526 192.886 144.402 193.655 147.123C194.039 148.502 191.45 149.482 189.374 148.773L148 134.523V163.539L189.374 177.789C191.437 178.498 194.039 177.505 193.655 176.138C192.886 173.417 193.68 170.541 196.269 167.988C201.178 163.152 210.971 161.024 219.904 162.456V186.932C219.635 187.602 220.045 188.363 221.237 188.763L262.56 203V173.984L221.237 159.76Z" fill="url(#paint6_linear_1317:1277)"/>
<path d="M332.862 174.332V148.012C332.529 149.689 331.593 151.339 329.939 152.861C324.428 157.955 312.893 159.76 303.651 156.962C298.717 155.466 295.32 152.99 293.731 150.192C293.013 148.928 290.642 148.463 288.796 148.928C289.424 148.773 290.117 148.721 290.77 148.786V177.801C292.052 177.905 293.244 178.382 293.718 179.22C295.308 182.018 298.717 184.494 303.639 185.99C312.867 188.789 324.415 186.983 329.927 181.889C332.477 179.542 333.374 176.886 332.862 174.332Z" fill="url(#paint7_linear_1317:1277)"/>
<path d="M287.81 149.302C287.54 149.443 287.297 149.611 287.092 149.817C287.284 149.611 287.528 149.443 287.81 149.302Z" fill="url(#paint8_linear_1317:1277)"/>
<path d="M288.719 148.954C288.45 149.018 288.207 149.121 287.976 149.224C288.207 149.121 288.45 149.031 288.719 148.954Z" fill="url(#paint9_linear_1317:1277)"/>
<path d="M190.19 149.237C190.241 149.237 190.279 149.237 190.331 149.25C190.279 149.237 190.228 149.237 190.19 149.237Z" fill="url(#paint10_linear_1317:1277)"/>
<path d="M186.371 148.018L148.013 134.869L186.371 148.018Z" fill="url(#paint11_linear_1317:1277)"/>
<path d="M189.383 177.908L186.384 176.882L189.383 177.908C189.652 177.997 189.921 178.061 190.19 178.1C189.921 178.061 189.639 177.997 189.383 177.908Z" fill="url(#paint12_linear_1317:1277)"/>
<path d="M190.331 178.101C190.561 178.126 190.792 178.139 191.023 178.139C190.792 178.152 190.561 178.126 190.331 178.101Z" fill="url(#paint13_linear_1317:1277)"/>
<path d="M192.509 177.831C192.446 177.857 192.42 177.857 192.509 177.831V177.831Z" fill="url(#paint14_linear_1317:1277)"/>
<path d="M219.846 187.196C219.821 187.324 219.821 187.452 219.846 187.567V187.196Z" fill="url(#paint15_linear_1317:1277)"/>
<path d="M219.846 158.807C219.628 158.063 220.256 157.255 221.678 156.973C226.51 155.972 230.726 153.945 233.251 151.046C237.724 145.941 234.571 138.834 226.382 135.55C216.193 131.47 202.416 133.279 196.264 139.296C193.676 141.836 192.881 144.696 193.65 147.403C193.842 148.07 193.317 148.634 192.509 148.968V177.818C192.753 177.69 193.881 177.062 193.65 176.266C192.881 173.559 193.676 170.699 196.264 168.159C201.16 163.348 210.926 161.244 219.846 162.656V158.807Z" fill="url(#paint16_linear_1317:1277)"/>
<path opacity="0.24" d="M305.136 132.997C305.174 132.958 305.2 132.92 305.238 132.882L329.755 108.816L328.307 108.316L305.238 130.944C304.546 131.637 304.598 132.381 305.136 132.997Z" fill="url(#paint17_radial_1317:1277)"/>
<path opacity="0.24" d="M329.922 151.829C324.411 156.896 312.877 158.692 303.637 155.908C298.702 154.42 295.306 151.957 293.717 149.173C292.73 147.454 288.655 147.211 287.078 148.776L262.561 172.841L221.243 158.679C220.858 158.551 220.576 158.371 220.346 158.179C219.423 158.923 219.667 160.064 221.243 160.603L262.561 174.765L287.078 150.7C288.668 149.148 292.73 149.378 293.717 151.097C295.306 153.881 298.715 156.344 303.637 157.832C312.864 160.616 324.411 158.82 329.922 153.753C332.331 151.534 333.254 149.045 332.908 146.633C332.652 148.416 331.691 150.199 329.922 151.829Z" fill="url(#paint18_radial_1317:1277)"/>
<path opacity="0.24" d="M193.445 147.044C192.792 147.865 190.933 148.301 189.383 147.762L149.461 134.088L148.013 135.512L189.383 149.687C191.446 150.392 194.048 149.404 193.663 148.045C193.561 147.711 193.496 147.378 193.445 147.044Z" fill="url(#paint19_radial_1317:1277)"/>
<path opacity="0.24" d="M235.225 145.594C235.814 141.297 232.508 136.704 226.395 134.254C216.206 130.175 202.429 131.984 196.277 138C193.996 140.232 193.112 142.721 193.458 145.12C193.701 143.336 194.611 141.553 196.277 139.924C202.416 133.895 216.206 132.099 226.395 136.178C231.598 138.269 234.763 141.912 235.225 145.594Z" fill="url(#paint20_radial_1317:1277)"/>
<path d="M153.309 227.332C144.711 222.365 145.044 214.211 154.332 209.564C161.804 205.826 174.457 205.877 181.916 209.666C186.15 211.817 188.517 214.684 189.029 217.641C189.272 219.037 192.227 219.639 193.942 218.653L227.654 199.181L193.34 179.364C191.127 178.084 192.496 175.87 195.618 175.754C200.671 175.575 205.61 174.295 209.294 171.927C216.19 167.472 215.986 160.572 208.834 156.206C200.991 151.418 187.941 151.303 179.971 155.912C176.389 157.973 174.457 160.636 174.163 163.35C173.971 165.155 170.145 165.961 167.919 164.681L133.606 144.864L47.0046 194.893C43.2176 197.082 43.2432 200.641 47.043 202.843L134.182 253.192L167.932 233.695C169.621 232.722 168.597 231.019 166.218 230.891C161.522 230.597 156.916 229.419 153.309 227.332Z" fill="url(#paint21_linear_1317:1277)"/>
<path d="M209.294 171.914C205.61 174.282 200.671 175.562 195.618 175.742C192.496 175.857 191.114 178.071 193.34 179.352L214.22 191.411V165.385C213.811 167.741 212.186 170.045 209.294 171.914Z" fill="url(#paint22_linear_1317:1277)"/>
<path d="M193.942 218.653C192.227 219.639 189.272 219.037 189.029 217.641C188.517 214.684 186.15 211.817 181.916 209.666C174.444 205.864 161.791 205.826 154.332 209.564C145.044 214.211 144.711 222.378 153.309 227.332C156.929 229.419 161.522 230.597 166.243 230.853C167.702 230.93 168.648 231.608 168.776 232.338H168.789V232.363C168.789 232.389 168.789 232.415 168.789 232.44V235.602C173.6 235.692 178.359 236.652 181.941 238.47C186.176 240.621 188.543 243.488 189.055 246.445C189.298 247.841 192.253 248.442 193.967 247.457L226.259 228.805L227.679 228.51V199.181L193.942 218.653Z" fill="url(#paint23_linear_1317:1277)"/>
<path d="M47.0556 202.817C45.1877 201.742 44.2282 200.334 44.1898 198.913V227.115L44.2282 227.102C43.9595 228.715 44.9062 230.392 47.0556 231.634L134.194 281.983V253.179L47.0556 202.817Z" fill="url(#paint24_linear_1317:1277)"/>
<path d="M167.957 233.656L134.207 253.153V281.957L167.957 262.46C168.482 262.153 168.725 261.782 168.763 261.41H168.776V261.244C168.776 261.218 168.776 261.193 168.776 261.167V235.602V232.44C168.802 232.876 168.558 233.311 167.957 233.656Z" fill="url(#paint25_linear_1317:1277)"/>
<path d="M167.957 233.656L134.207 253.153V281.957L167.957 262.46C168.482 262.153 168.725 261.782 168.763 261.41H168.776V261.244C168.776 261.218 168.776 261.193 168.776 261.167V235.602V232.44C168.802 232.876 168.558 233.311 167.957 233.656Z" fill="url(#paint26_linear_1317:1277)"/>
<path opacity="0.24" d="M167.753 232.492L134.195 251.873L47.0561 201.524C45.7127 200.743 44.8555 199.809 44.4461 198.81C43.7041 200.641 44.5741 202.651 47.0561 204.085L134.195 254.434L167.945 234.937C169.212 234.22 168.956 233.081 167.753 232.492Z" fill="url(#paint27_radial_1317:1277)"/>
<path opacity="0.24" d="M209.294 170.634C205.61 173.002 200.671 174.282 195.631 174.461C192.688 174.564 191.294 176.535 193.008 177.841C193.596 177.393 194.492 177.06 195.631 177.022C200.684 176.843 205.623 175.562 209.294 173.194C213.197 170.672 214.821 167.369 214.194 164.182C213.772 166.524 212.147 168.79 209.294 170.634Z" fill="url(#paint28_radial_1317:1277)"/>
<path opacity="0.24" d="M193.942 217.373C192.228 218.358 189.272 217.757 189.029 216.361C188.517 213.404 186.151 210.537 181.916 208.386C174.444 204.584 161.791 204.545 154.332 208.283C148.908 210.997 146.554 214.915 147.244 218.691C147.782 215.772 150.136 212.943 154.332 210.844C161.804 207.106 174.457 207.157 181.916 210.946C186.151 213.097 188.517 215.964 189.029 218.922C189.272 220.317 192.228 220.919 193.942 219.933L227.654 200.462L225.44 199.181L193.942 217.373Z" fill="url(#paint29_radial_1317:1277)"/>
<path d="M349.655 167.664C358.253 172.631 357.92 180.785 348.632 185.432C341.16 189.171 328.507 189.119 321.048 185.33C316.814 183.179 314.447 180.312 313.935 177.355C313.692 175.959 310.737 175.357 309.022 176.343L275.311 195.815L309.611 215.644C311.824 216.925 310.455 219.139 307.334 219.254C302.28 219.434 297.342 220.714 293.657 223.082C286.761 227.537 286.966 234.437 294.117 238.803C301.96 243.59 315.01 243.706 322.98 239.097C326.563 237.036 328.494 234.373 328.789 231.659C328.981 229.854 332.806 229.048 335.032 230.328L369.345 250.145L455.947 200.116C459.734 197.927 459.708 194.368 455.908 192.166L368.769 141.817L335.019 161.314C333.331 162.287 334.354 163.99 336.734 164.118C341.429 164.399 346.035 165.577 349.655 167.664Z" fill="url(#paint30_linear_1317:1277)"/>
<path d="M349.655 167.664C358.253 172.631 357.92 180.785 348.632 185.432C341.16 189.171 328.507 189.119 321.048 185.33C316.814 183.179 314.447 180.312 313.935 177.355C313.692 175.959 310.737 175.357 309.022 176.343L275.311 195.815L309.611 215.644C311.824 216.925 310.455 219.139 307.334 219.254C302.28 219.434 297.342 220.714 293.657 223.082C286.761 227.537 286.966 234.437 294.117 238.803C301.96 243.59 315.01 243.706 322.98 239.097C326.563 237.036 328.494 234.373 328.789 231.659C328.981 229.854 332.806 229.048 335.032 230.328L369.345 250.145L455.947 200.116C459.734 197.927 459.708 194.368 455.908 192.166L368.769 141.817L335.019 161.314C333.331 162.287 334.354 163.99 336.734 164.118C341.429 164.399 346.035 165.577 349.655 167.664Z" fill="url(#paint31_linear_1317:1277)"/>
<path d="M348.619 185.445C357.908 180.798 358.24 172.631 349.643 167.676C346.022 165.59 341.429 164.412 336.708 164.156C335.186 164.066 334.226 163.35 334.175 162.581L334.124 162.594V188.223C339.395 188.313 344.717 187.404 348.619 185.445Z" fill="url(#paint32_linear_1317:1277)"/>
<path d="M458.761 224.823L458.825 224.81V196.007L458.761 196.019C458.825 197.492 457.891 198.977 455.947 200.103L369.345 250.132V278.936L455.947 228.907C457.891 227.793 458.825 226.308 458.761 224.823Z" fill="url(#paint33_linear_1317:1277)"/>
<path d="M458.761 224.823L458.825 224.81V196.007L458.761 196.019C458.825 197.492 457.891 198.977 455.947 200.103L369.345 250.132V278.936L455.947 228.907C457.891 227.793 458.825 226.308 458.761 224.823Z" fill="url(#paint34_linear_1317:1277)"/>
<path d="M293.657 223.082C297.342 220.714 302.28 219.434 307.334 219.255C310.455 219.139 311.837 216.925 309.611 215.645L275.298 195.828V224.631L288.655 232.351L288.808 232.312C288.079 229.048 289.665 225.656 293.657 223.082Z" fill="url(#paint35_linear_1317:1277)"/>
<path d="M335.032 230.328C333.932 229.688 332.448 229.573 331.194 229.829V258.632C332.448 258.376 333.932 258.504 335.032 259.132L369.346 278.949V250.145L335.032 230.328Z" fill="url(#paint36_linear_1317:1277)"/>
<path d="M328.788 231.66C328.494 234.374 326.562 237.024 322.979 239.097C315.009 243.706 301.959 243.604 294.117 238.803C291.11 236.959 289.344 234.668 288.807 232.3L288.654 232.338V259.004C288.398 262.089 290.214 265.213 294.117 267.594C301.959 272.395 315.009 272.497 322.979 267.888C326.562 265.827 328.494 263.165 328.788 260.451C328.89 259.529 329.914 258.876 331.206 258.62V229.816C329.914 230.085 328.89 230.738 328.788 231.66Z" fill="url(#paint37_linear_1317:1277)"/>
<path d="M328.788 231.66C328.494 234.374 326.562 237.024 322.979 239.097C315.009 243.706 301.959 243.604 294.117 238.803C291.11 236.959 289.344 234.668 288.807 232.3L288.654 232.338V259.004C288.398 262.089 290.214 265.213 294.117 267.594C301.959 272.395 315.009 272.497 322.979 267.888C326.562 265.827 328.494 263.165 328.788 260.451C328.89 259.529 329.914 258.876 331.206 258.62V229.816C329.914 230.085 328.89 230.738 328.788 231.66Z" fill="url(#paint38_linear_1317:1277)"/>
<path opacity="0.24" d="M309.956 217.155C310.98 216.361 311.018 215.171 309.611 214.364L277.524 195.828L275.311 197.108L309.611 216.925C309.739 217.002 309.854 217.078 309.956 217.155Z" fill="url(#paint39_radial_1317:1277)"/>
<path opacity="0.24" d="M336.721 165.423C341.429 165.679 346.035 166.857 349.655 168.944C353.225 171.005 355.233 173.629 355.72 176.318C356.372 172.784 354.363 169.11 349.655 166.384C346.035 164.297 341.442 163.119 336.721 162.863C336.119 162.825 335.608 162.697 335.198 162.505L334.994 162.62C333.318 163.593 334.328 165.295 336.721 165.423Z" fill="url(#paint40_radial_1317:1277)"/>
<path opacity="0.24" d="M335.031 229.048C332.805 227.768 328.98 228.562 328.788 230.379C328.494 233.093 326.562 235.743 322.979 237.817C315.009 242.426 301.959 242.323 294.117 237.523C291.02 235.628 289.229 233.26 288.756 230.815C288.155 234.105 289.946 237.536 294.117 240.083C301.959 244.884 315.009 244.986 322.979 240.378C326.562 238.316 328.494 235.654 328.788 232.94C328.98 231.135 332.805 230.328 335.031 231.608L369.101 251.285V248.724L335.031 229.048Z" fill="url(#paint41_radial_1317:1277)"/>
<path opacity="0.24" d="M455.947 201.396C458.403 199.975 459.247 197.991 458.505 196.16C458.109 197.146 457.264 198.068 455.947 198.836L369.345 248.865L369.102 248.724V251.284L369.345 251.425L455.947 201.396Z" fill="url(#paint42_radial_1317:1277)"/>
<path d="M303.124 256.738C296.408 262.537 282.475 263.868 272.726 259.477C264.884 255.944 262.453 248.762 267.417 243.821C270.231 241.017 274.632 239.135 279.545 238.303C281.874 237.907 282.309 236.114 280.287 235.333L240.499 219.869L213.657 243.014C211.917 244.512 207.887 244.141 207.068 242.4C205.763 239.571 202.603 237.01 197.844 235.372C188.914 232.299 177.233 233.708 171.233 238.572C164.657 243.911 167.075 251.336 176.478 254.984C180.7 256.623 185.6 257.224 190.27 256.891C193.379 256.661 195.515 258.684 193.775 260.181L166.947 283.327L269.157 323.076C273.622 324.817 279.66 324.139 282.641 321.566L350.794 262.767L310.954 247.277C308.958 246.509 306.272 247.405 306.528 248.775C307.026 251.476 305.952 254.306 303.124 256.738Z" fill="url(#paint43_linear_1317:1277)"/>
<path d="M282.641 321.553C279.66 324.126 273.622 324.805 269.157 323.064L166.947 283.314V312.118L269.157 351.867C273.622 353.608 279.66 352.93 282.641 350.357L350.794 291.559V262.755L282.641 321.553Z" fill="url(#paint44_linear_1317:1277)"/>
<path d="M190.283 256.866C185.613 257.212 180.713 256.61 176.491 254.958C171.156 252.885 168.073 249.595 167.599 246.164V273.265C167.318 275.684 168.341 278.104 170.555 280.191L193.776 260.156C195.516 258.658 193.392 256.648 190.283 256.866Z" fill="url(#paint45_linear_1317:1277)"/>
<path d="M279.545 238.303C274.632 239.148 270.231 241.017 267.417 243.821C262.453 248.762 264.883 255.944 272.726 259.477C275.4 260.681 278.394 261.449 281.464 261.82V237.113C281.247 237.651 280.594 238.124 279.545 238.303Z" fill="url(#paint46_linear_1317:1277)"/>
<path d="M306.604 249.479C306.553 249.594 306.541 249.722 306.541 249.863C306.566 249.735 306.592 249.607 306.604 249.479Z" fill="url(#paint47_radial_1317:1277)"/>
<path opacity="0.24" d="M267.417 242.541C265.293 244.653 264.538 247.175 264.961 249.659C265.229 248.058 266.023 246.484 267.417 245.101C270.232 242.298 274.633 240.416 279.546 239.584C281.772 239.2 282.245 237.548 280.505 236.729C280.236 236.857 279.929 236.959 279.546 237.023C274.633 237.855 270.219 239.737 267.417 242.541Z" fill="url(#paint48_radial_1317:1277)"/>
<path opacity="0.24" d="M176.491 256.251C180.713 257.89 185.613 258.492 190.283 258.159C191.703 258.056 192.919 258.428 193.661 259.004L193.789 258.901C195.529 257.404 193.405 255.381 190.283 255.611C185.613 255.957 180.713 255.355 176.491 253.704C171.323 251.694 168.278 248.545 167.664 245.242C166.832 249.415 170.005 253.729 176.491 256.251Z" fill="url(#paint49_radial_1317:1277)"/>
<path opacity="0.24" d="M282.642 320.273C279.661 322.846 273.622 323.524 269.157 321.783L168.981 282.841L166.934 284.607L269.144 324.344C273.609 326.085 279.648 325.406 282.629 322.833L350.781 264.035L348.734 263.241L282.642 320.273Z" fill="url(#paint50_radial_1317:1277)"/>
<path opacity="0.08" d="M275.541 354.914C273.916 354.901 272.713 345.428 272.841 333.766C272.969 322.103 274.402 312.668 276.014 312.681C277.639 312.694 278.841 322.167 278.713 333.83C278.585 345.492 277.165 354.927 275.541 354.914Z" fill="url(#paint51_radial_1317:1277)"/>
<path opacity="0.08" d="M288.335 320.298C292.224 329.771 289.384 339.923 281.989 342.97C274.594 346.017 265.434 340.794 261.544 331.32C257.655 321.847 260.495 311.695 267.89 308.649C275.285 305.602 284.432 310.812 288.335 320.298Z" fill="url(#paint52_radial_1317:1277)"/>
<path opacity="0.4" d="M274.85 378.2C273.826 378.2 272.79 378.008 271.792 377.624L166.704 336.62L167.164 335.43L272.253 376.434C274.696 377.394 277.46 376.92 279.456 375.23L350.372 314.973L351.203 315.946L280.287 376.203C278.752 377.509 276.82 378.2 274.85 378.2Z" fill="url(#paint53_radial_1317:1277)"/>
<path d="M376.676 98.2274C375.499 98.2274 374.258 98.0481 372.991 97.7025C372.8 97.6513 372.646 97.5105 372.569 97.3313L370.126 91.3657C369.422 91.0712 368.821 90.7768 368.219 90.4311C367.708 90.1367 367.17 89.7911 366.582 89.3686L364.432 92.1594C364.33 92.3002 364.164 92.3898 363.985 92.4026C363.805 92.4154 363.639 92.3642 363.498 92.249C361.886 90.8408 360.351 89.2022 358.905 87.4099C358.777 87.2563 358.739 87.0515 358.777 86.8595L359.839 82.3789C358.816 80.9067 357.907 79.3321 357.14 77.7063L352.7 76.3621C352.508 76.3109 352.368 76.1701 352.291 75.9908C351.447 73.8402 350.807 71.7023 350.385 69.6156C350.346 69.4364 350.385 69.2572 350.487 69.1163C350.589 68.9755 350.756 68.8731 350.922 68.8603L354.428 68.4122C354.351 67.6953 354.325 67.0681 354.325 66.4792C354.325 65.8007 354.376 65.1222 354.466 64.3797L350.5 59.2846C350.372 59.131 350.334 58.9262 350.385 58.7214C350.82 57.0699 351.485 55.6234 352.355 54.4072C352.457 54.2664 352.624 54.164 352.803 54.1512C352.969 54.1256 353.161 54.1896 353.289 54.3048L357.575 57.9661C358.24 57.4156 358.969 56.9931 359.788 56.6987L358.765 51.194C358.726 51.0147 358.777 50.8355 358.88 50.6947C358.995 50.5539 359.148 50.4643 359.328 50.4387C360.812 50.2979 362.424 50.4643 364.074 50.9123C364.266 50.9635 364.42 51.1044 364.496 51.2836L366.927 57.2492C367.618 57.5308 368.245 57.838 368.833 58.1837C369.345 58.4781 369.883 58.8238 370.458 59.2462L372.62 56.4555C372.723 56.3146 372.889 56.225 373.068 56.2122C373.247 56.1994 373.414 56.2506 373.554 56.3659C375.154 57.774 376.702 59.4127 378.147 61.2049C378.275 61.3585 378.314 61.5633 378.275 61.7554L377.213 66.236C378.237 67.7082 379.145 69.2828 379.913 70.9086L384.352 72.2527C384.544 72.304 384.685 72.4448 384.762 72.624C385.606 74.7747 386.246 76.9126 386.668 78.9992C386.706 79.1785 386.668 79.3577 386.566 79.4985C386.463 79.6393 386.297 79.7417 386.131 79.7545L382.625 80.2026C382.702 80.9067 382.727 81.5468 382.727 82.1357C382.727 82.8141 382.676 83.5054 382.587 84.2351L386.553 89.3302C386.681 89.4838 386.719 89.6886 386.668 89.8807C386.233 91.5321 385.568 92.9787 384.698 94.1948C384.595 94.3357 384.429 94.4381 384.25 94.4509C384.071 94.4765 383.892 94.4125 383.764 94.2973L379.478 90.636C378.825 91.1865 378.083 91.6089 377.265 91.9033L378.288 97.4081C378.326 97.5873 378.275 97.7665 378.173 97.9073C378.071 98.0482 377.904 98.1378 377.725 98.1634C377.392 98.2018 377.047 98.2274 376.676 98.2274ZM373.644 96.5376C374.77 96.832 375.896 96.96 376.919 96.9344L375.921 91.5833C375.857 91.2505 376.062 90.9304 376.382 90.8408C377.392 90.572 378.288 90.0599 379.03 89.3302C379.273 89.0998 379.644 89.087 379.9 89.2918L384.071 92.8507C384.621 91.9673 385.056 90.956 385.376 89.8423L381.435 84.7856C381.333 84.6448 381.282 84.4656 381.307 84.2991C381.423 83.5182 381.474 82.8013 381.474 82.11C381.474 81.406 381.423 80.6251 381.307 79.7033C381.269 79.3577 381.512 79.0376 381.858 78.9864L385.299 78.5512C384.915 76.8486 384.391 75.0947 383.713 73.3537L379.299 72.0223C379.12 71.9711 378.979 71.8431 378.902 71.6767C378.096 69.9356 377.124 68.2714 376.024 66.7096C375.921 66.556 375.883 66.3768 375.921 66.1975L376.983 61.7426C375.793 60.2832 374.539 58.9518 373.247 57.7612L371.123 60.5008C370.906 60.7824 370.509 60.8336 370.228 60.616C369.473 60.0399 368.833 59.6175 368.219 59.259C367.618 58.9134 366.966 58.5933 366.223 58.2989C366.057 58.2349 365.929 58.1069 365.865 57.9533L363.447 52.0261C362.309 51.7444 361.208 51.6036 360.159 51.6292L361.157 56.9803C361.221 57.3132 361.016 57.6332 360.697 57.7228C359.686 57.9917 358.79 58.5037 358.048 59.2334C357.805 59.4639 357.434 59.4767 357.178 59.2718L353.007 55.713C352.457 56.5963 352.022 57.6076 351.702 58.7214L355.643 63.778C355.745 63.9188 355.796 64.0853 355.771 64.2645C355.656 65.0582 355.605 65.7495 355.605 66.4536C355.605 67.1577 355.656 67.9258 355.771 68.8603C355.809 69.2059 355.566 69.526 355.221 69.5772L351.779 70.0125C352.163 71.7151 352.688 73.4689 353.366 75.2099L357.78 76.5413C357.959 76.5925 358.099 76.7205 358.176 76.887C358.982 78.6152 359.954 80.2922 361.055 81.854C361.157 82.0076 361.196 82.1869 361.157 82.3661L360.095 86.8211C361.285 88.2805 362.539 89.6118 363.831 90.8024L365.942 88.0628C366.16 87.7812 366.556 87.73 366.838 87.9476C367.58 88.5109 368.232 88.9462 368.846 89.3046C369.46 89.6502 370.087 89.9575 370.842 90.2647C370.996 90.3287 371.136 90.4567 371.2 90.6104L373.644 96.5376Z" fill="url(#paint54_linear_1317:1277)"/>
<path d="M371.007 81.9437C370.137 81.9437 369.203 81.6621 368.244 81.1116C365.058 79.281 362.474 74.8132 362.474 71.1519C362.474 68.4251 363.907 66.6584 366.12 66.6584C366.99 66.6584 367.924 66.9401 368.883 67.4906C372.069 69.3212 374.653 73.789 374.653 77.4503C374.64 80.1771 373.22 81.9437 371.007 81.9437ZM366.107 67.9258C364.623 67.9258 363.741 69.1292 363.741 71.1391C363.741 74.3907 366.043 78.3464 368.871 79.9851C369.625 80.4203 370.355 80.6507 370.994 80.6507C372.478 80.6507 373.361 79.4474 373.361 77.4375C373.361 74.1987 371.058 70.2301 368.231 68.5915C367.489 68.1563 366.747 67.9258 366.107 67.9258Z" fill="url(#paint55_linear_1317:1277)"/>
<path opacity="0.4" d="M133.875 306.203L22.709 241.977L23.3487 240.877L134.514 305.09L133.875 306.203Z" fill="url(#paint56_radial_1317:1277)"/>
<path opacity="0.4" d="M369.665 304.898L369.013 303.797L497.348 228.574L498 229.675L369.665 304.898Z" fill="url(#paint57_radial_1317:1277)"/>
<path d="M318.093 46.2909C317.671 46.2909 317.223 46.1629 316.775 45.8941L311.402 42.7833C309.982 41.964 308.869 40.0437 308.869 38.4051V35.6399C308.869 33.5917 308.063 31.1337 306.643 28.8934C303.777 24.3616 302.382 19.2154 302.894 15.1188C303.419 11.0351 305.952 8.48755 309.521 8.48755C310.75 8.48755 312.042 8.78199 313.372 9.38367C320.115 12.3921 326.038 21.8397 326.038 29.5975C326.038 33.4508 324.554 36.3184 321.97 37.4706C320.678 38.0466 319.961 39.4164 319.961 41.3239V44.089C319.961 44.7163 319.795 45.254 319.475 45.6508C319.13 46.0605 318.643 46.2909 318.093 46.2909ZM309.521 9.78052C306.604 9.78052 304.609 11.8416 304.161 15.2852C303.675 19.1001 305.005 23.9264 307.717 28.2149C309.253 30.6473 310.135 33.3612 310.135 35.6399V38.4051C310.135 39.5828 311.005 41.0806 312.029 41.6823L317.402 44.7931C317.645 44.9339 317.888 45.0108 318.08 45.0108C318.247 45.0108 318.375 44.9595 318.464 44.8443C318.592 44.6907 318.669 44.4219 318.669 44.089V41.3239C318.669 38.9044 319.68 37.0737 321.445 36.3056C323.543 35.3711 324.746 32.9388 324.746 29.6103C324.746 22.3006 319.181 13.4034 312.835 10.5742C311.684 10.0366 310.558 9.78052 309.521 9.78052Z" fill="url(#paint58_linear_1317:1277)"/>
<path d="M316.263 50.8101C315.943 50.8101 315.598 50.7077 315.265 50.5284L312.898 49.1586C311.772 48.5058 310.877 46.8415 310.877 45.3693V42.2841L317.926 46.3551V48.6978C317.926 50.1572 317.094 50.8101 316.263 50.8101ZM312.156 44.4988V45.3565C312.156 46.3679 312.796 47.6224 313.538 48.0449L315.905 49.4147C316.071 49.5171 316.186 49.5299 316.263 49.5299C316.531 49.5299 316.647 49.0946 316.647 48.685V47.0848L312.156 44.4988Z" fill="url(#paint59_linear_1317:1277)"/>
<path d="M315.188 41.1832H313.909V30.4681L313.845 30.5066L309.022 22.1854L319.308 28.1254L315.188 30.4681V41.1832V41.1832ZM312.54 25.6931L314.638 29.316L316.736 28.1126L312.54 25.6931Z" fill="url(#paint60_linear_1317:1277)"/>
<path d="M255.876 68.2842C253.97 68.2842 251.936 67.6697 249.825 66.4407C242.609 62.2674 236.724 52.1285 236.724 43.833C236.724 37.9442 239.743 34.1421 244.4 34.1421C246.307 34.1421 248.341 34.7566 250.452 35.9855C257.68 40.1589 263.553 50.2978 263.553 58.5933C263.553 64.4821 260.546 68.2842 255.876 68.2842ZM244.413 35.4223C240.46 35.4223 238.016 38.6483 238.016 43.833C238.016 51.7188 243.607 61.3585 250.477 65.3398C252.371 66.4279 254.239 67.004 255.889 67.004C259.843 67.004 262.286 63.778 262.286 58.5933C262.286 50.7075 256.695 41.0678 249.825 37.0993C247.932 35.9983 246.064 35.4223 244.413 35.4223Z" fill="url(#paint61_linear_1317:1277)"/>
<path d="M258.434 55.6362L249.888 51.9749C249.658 51.8725 249.504 51.6421 249.504 51.386V40.7478H250.784V50.9636L258.946 54.4585L258.434 55.6362Z" fill="url(#paint62_linear_1317:1277)"/>
<path d="M423.693 148.909C421.569 148.909 419.087 147.642 416.9 145.427C416.784 145.312 416.72 145.146 416.746 144.979C416.772 144.813 416.874 144.659 417.015 144.582L421.122 142.24L417.015 135.16L412.895 137.503C412.754 137.58 412.575 137.593 412.422 137.529C412.268 137.465 412.153 137.336 412.102 137.17C410.938 132.92 411.744 129.284 414.175 127.902C416.503 126.57 419.983 127.62 422.989 130.5L430.973 125.943C429.962 121.872 430.806 118.416 433.148 117.084C435.553 115.714 439.186 116.879 442.257 119.965C442.372 120.08 442.436 120.246 442.41 120.413C442.385 120.579 442.283 120.733 442.142 120.81L438.035 123.152L442.142 130.232L446.261 127.889C446.402 127.812 446.581 127.799 446.735 127.863C446.888 127.927 447.003 128.055 447.055 128.222C448.219 132.472 447.413 136.108 444.982 137.49C442.666 138.821 439.174 137.772 436.18 134.904L428.197 139.462C429.207 143.533 428.363 146.976 426.022 148.32C425.318 148.717 424.538 148.909 423.693 148.909ZM418.179 145.171C420.021 146.874 422.004 147.834 423.68 147.834C424.346 147.834 424.947 147.68 425.459 147.386C427.442 146.259 428.056 143.097 427.02 139.346C426.956 139.103 427.058 138.86 427.275 138.732L435.975 133.765C436.193 133.637 436.461 133.675 436.628 133.854C439.327 136.581 442.462 137.682 444.432 136.556C446.3 135.493 446.952 132.651 446.172 129.195L442.206 131.461C441.95 131.601 441.617 131.525 441.464 131.256L436.82 123.242C436.743 123.114 436.73 122.973 436.768 122.832C436.807 122.691 436.896 122.576 437.024 122.499L440.978 120.246C438.406 117.878 435.54 116.982 433.685 118.032C431.702 119.158 431.088 122.32 432.124 126.071C432.188 126.314 432.086 126.557 431.868 126.685L423.169 131.653C422.951 131.768 422.682 131.742 422.516 131.563C419.817 128.836 416.695 127.722 414.712 128.862C412.844 129.924 412.191 132.766 412.972 136.223L416.938 133.957C417.194 133.816 417.527 133.893 417.68 134.162L422.324 142.176C422.401 142.304 422.414 142.444 422.375 142.585C422.337 142.726 422.247 142.841 422.119 142.918L418.179 145.171Z" fill="url(#paint63_linear_1317:1277)"/>
<path d="M309.291 233.733C308.933 233.733 308.651 233.452 308.651 233.093V230.533C308.651 230.174 308.933 229.893 309.291 229.893C309.649 229.893 309.931 230.174 309.931 230.533V233.093C309.931 233.439 309.649 233.733 309.291 233.733ZM309.291 228.613C308.933 228.613 308.651 228.331 308.651 227.972V225.412C308.651 225.054 308.933 224.772 309.291 224.772C309.649 224.772 309.931 225.054 309.931 225.412V227.972C309.931 228.318 309.649 228.613 309.291 228.613ZM309.291 223.492C308.933 223.492 308.651 223.21 308.651 222.852V220.291C308.651 219.933 308.933 219.651 309.291 219.651C309.649 219.651 309.931 219.933 309.931 220.291V222.852C309.931 223.197 309.649 223.492 309.291 223.492ZM309.291 218.371C308.933 218.371 308.651 218.09 308.651 217.731V215.171C308.651 214.812 308.933 214.531 309.291 214.531C309.649 214.531 309.931 214.812 309.931 215.171V217.731C309.931 218.077 309.649 218.371 309.291 218.371ZM309.291 213.251C308.933 213.251 308.651 212.969 308.651 212.61V210.05C308.651 209.692 308.933 209.41 309.291 209.41C309.649 209.41 309.931 209.692 309.931 210.05V212.61C309.931 212.956 309.649 213.251 309.291 213.251ZM309.291 208.13C308.933 208.13 308.651 207.848 308.651 207.49V204.929C308.651 204.571 308.933 204.289 309.291 204.289C309.649 204.289 309.931 204.571 309.931 204.929V207.49C309.931 207.835 309.649 208.13 309.291 208.13ZM309.291 203.009C308.933 203.009 308.651 202.728 308.651 202.369V199.809C308.651 199.45 308.933 199.169 309.291 199.169C309.649 199.169 309.931 199.45 309.931 199.809V202.369C309.931 202.715 309.649 203.009 309.291 203.009ZM309.291 197.888C308.933 197.888 308.651 197.607 308.651 197.248V194.688C308.651 194.33 308.933 194.048 309.291 194.048C309.649 194.048 309.931 194.33 309.931 194.688V197.248C309.931 197.594 309.649 197.888 309.291 197.888ZM309.291 192.768C308.933 192.768 308.651 192.486 308.651 192.128V189.567C308.651 189.209 308.933 188.927 309.291 188.927C309.649 188.927 309.931 189.209 309.931 189.567V192.128C309.931 192.473 309.649 192.768 309.291 192.768ZM309.291 187.647C308.933 187.647 308.651 187.366 308.651 187.007V184.447C308.651 184.088 308.933 183.807 309.291 183.807C309.649 183.807 309.931 184.088 309.931 184.447V187.007C309.931 187.353 309.649 187.647 309.291 187.647ZM309.291 182.526C308.933 182.526 308.651 182.245 308.651 181.886V179.326C308.651 178.968 308.933 178.686 309.291 178.686C309.649 178.686 309.931 178.968 309.931 179.326V181.886C309.931 182.232 309.649 182.526 309.291 182.526ZM309.291 177.406C308.933 177.406 308.651 177.124 308.651 176.766V174.205C308.651 173.847 308.933 173.565 309.291 173.565C309.649 173.565 309.931 173.847 309.931 174.205V176.766C309.931 177.111 309.649 177.406 309.291 177.406ZM309.291 172.285C308.933 172.285 308.651 172.003 308.651 171.645V169.085C308.651 168.726 308.933 168.445 309.291 168.445C309.649 168.445 309.931 168.726 309.931 169.085V171.645C309.931 171.991 309.649 172.285 309.291 172.285ZM310.839 168.035C310.622 168.035 310.417 167.92 310.289 167.728C310.11 167.42 310.199 167.036 310.506 166.844L312.694 165.513C313.001 165.334 313.385 165.423 313.577 165.731C313.756 166.038 313.667 166.422 313.359 166.614L311.172 167.945C311.069 168.009 310.954 168.035 310.839 168.035ZM315.215 165.385C314.997 165.385 314.792 165.27 314.664 165.078C314.485 164.771 314.575 164.386 314.882 164.194L317.07 162.863C317.377 162.684 317.761 162.773 317.952 163.081C318.132 163.388 318.042 163.772 317.735 163.964L315.547 165.295C315.445 165.347 315.33 165.385 315.215 165.385ZM319.59 162.735C319.373 162.735 319.168 162.62 319.04 162.428C318.861 162.121 318.95 161.737 319.257 161.545L321.445 160.213C321.752 160.034 322.136 160.124 322.328 160.431C322.507 160.738 322.418 161.122 322.11 161.314L319.923 162.645C319.82 162.697 319.705 162.735 319.59 162.735ZM323.978 160.072C323.761 160.072 323.556 159.957 323.428 159.765C323.249 159.458 323.339 159.074 323.646 158.882L325.833 157.55C326.141 157.371 326.524 157.461 326.716 157.768C326.895 158.075 326.806 158.459 326.499 158.651L324.311 159.983C324.196 160.047 324.094 160.072 323.978 160.072ZM328.354 157.422C328.136 157.422 327.932 157.307 327.804 157.115C327.625 156.808 327.714 156.424 328.021 156.232L330.209 154.9C330.516 154.721 330.9 154.811 331.092 155.118C331.271 155.425 331.181 155.809 330.874 156.001L328.687 157.333C328.584 157.397 328.469 157.422 328.354 157.422ZM332.729 154.772C332.512 154.772 332.307 154.657 332.179 154.465C332 154.158 332.09 153.774 332.397 153.582L334.584 152.25C334.892 152.071 335.275 152.161 335.467 152.468C335.646 152.775 335.557 153.159 335.25 153.351L333.062 154.683C332.96 154.747 332.845 154.772 332.729 154.772ZM337.105 152.122C336.887 152.122 336.683 152.007 336.555 151.815C336.376 151.508 336.465 151.124 336.772 150.932L338.96 149.601C339.267 149.421 339.651 149.511 339.843 149.818C340.022 150.125 339.932 150.509 339.625 150.701L337.438 152.033C337.335 152.097 337.22 152.122 337.105 152.122ZM341.48 149.473C341.263 149.473 341.058 149.357 340.93 149.165C340.751 148.858 340.841 148.474 341.148 148.282L343.335 146.951C343.643 146.771 344.026 146.861 344.218 147.168C344.397 147.475 344.308 147.86 344.001 148.052L341.813 149.383C341.711 149.434 341.596 149.473 341.48 149.473ZM345.869 146.823C345.651 146.823 345.446 146.707 345.319 146.515C345.139 146.208 345.229 145.824 345.536 145.632L347.724 144.301C348.031 144.121 348.415 144.211 348.607 144.518C348.786 144.826 348.696 145.21 348.389 145.402L346.201 146.733C346.086 146.784 345.971 146.823 345.869 146.823ZM350.244 144.173C350.027 144.173 349.822 144.057 349.694 143.865C349.515 143.558 349.604 143.174 349.912 142.982L352.099 141.651C352.406 141.471 352.79 141.561 352.982 141.868C353.161 142.176 353.072 142.56 352.765 142.752L350.577 144.083C350.474 144.134 350.359 144.173 350.244 144.173ZM354.62 141.51C354.402 141.51 354.197 141.395 354.069 141.203C353.89 140.895 353.98 140.511 354.287 140.319L356.475 138.988C356.782 138.809 357.166 138.898 357.358 139.206C357.537 139.513 357.447 139.897 357.14 140.089L354.952 141.42C354.85 141.484 354.735 141.51 354.62 141.51ZM358.995 138.86C358.778 138.86 358.573 138.745 358.445 138.553C358.266 138.245 358.355 137.861 358.662 137.669L360.85 136.338C361.157 136.159 361.541 136.248 361.733 136.556C361.912 136.863 361.823 137.247 361.516 137.439L359.328 138.77C359.225 138.834 359.11 138.86 358.995 138.86ZM363.371 136.21C363.153 136.21 362.948 136.095 362.82 135.903C362.641 135.596 362.731 135.211 363.038 135.019L365.226 133.688C365.533 133.509 365.917 133.598 366.109 133.906C366.288 134.213 366.198 134.597 365.891 134.789L363.703 136.12C363.601 136.184 363.486 136.21 363.371 136.21ZM367.746 133.56C367.529 133.56 367.324 133.445 367.196 133.253C367.017 132.946 367.106 132.562 367.413 132.369L367.81 132.126V130.756C367.81 130.398 368.092 130.116 368.45 130.116C368.808 130.116 369.089 130.398 369.089 130.756V132.485C369.089 132.702 368.974 132.92 368.782 133.035L368.066 133.47C367.976 133.522 367.861 133.56 367.746 133.56ZM368.463 128.836C368.104 128.836 367.823 128.555 367.823 128.196V125.636C367.823 125.277 368.104 124.996 368.463 124.996C368.821 124.996 369.102 125.277 369.102 125.636V128.196C369.102 128.555 368.821 128.836 368.463 128.836ZM368.463 123.716C368.104 123.716 367.823 123.434 367.823 123.075V120.515C367.823 120.157 368.104 119.875 368.463 119.875C368.821 119.875 369.102 120.157 369.102 120.515V123.075C369.102 123.434 368.821 123.716 368.463 123.716ZM368.463 118.595C368.104 118.595 367.823 118.313 367.823 117.955V115.394C367.823 115.036 368.104 114.754 368.463 114.754C368.821 114.754 369.102 115.036 369.102 115.394V117.955C369.102 118.313 368.821 118.595 368.463 118.595ZM368.463 113.474C368.104 113.474 367.823 113.193 367.823 112.834V110.274C367.823 109.915 368.104 109.634 368.463 109.634C368.821 109.634 369.102 109.915 369.102 110.274V112.834C369.102 113.193 368.821 113.474 368.463 113.474ZM368.463 108.354C368.104 108.354 367.823 108.072 367.823 107.713V105.153C367.823 104.795 368.104 104.513 368.463 104.513C368.821 104.513 369.102 104.795 369.102 105.153V107.713C369.102 108.072 368.821 108.354 368.463 108.354ZM368.463 103.233C368.104 103.233 367.823 102.951 367.823 102.593V100.032C367.823 99.674 368.104 99.3923 368.463 99.3923C368.821 99.3923 369.102 99.674 369.102 100.032V102.593C369.102 102.951 368.821 103.233 368.463 103.233ZM368.463 98.1122C368.104 98.1122 367.823 97.8305 367.823 97.4721V94.9118C367.823 94.5533 368.104 94.2717 368.463 94.2717C368.821 94.2717 369.102 94.5533 369.102 94.9118V97.4721C369.102 97.8305 368.821 98.1122 368.463 98.1122Z" fill="url(#paint64_linear_1317:1277)"/>
<path d="M313.231 147.642C312.873 147.642 312.592 147.361 312.592 147.002V146.362C312.592 146.004 312.873 145.722 313.231 145.722C313.59 145.722 313.871 146.004 313.871 146.362V147.002C313.871 147.348 313.59 147.642 313.231 147.642ZM313.231 144.442C312.873 144.442 312.592 144.16 312.592 143.802V141.241C312.592 140.883 312.873 140.601 313.231 140.601C313.59 140.601 313.871 140.883 313.871 141.241V143.802C313.871 144.147 313.59 144.442 313.231 144.442ZM313.231 139.321C312.873 139.321 312.592 139.039 312.592 138.681V136.121C312.592 135.762 312.873 135.481 313.231 135.481C313.59 135.481 313.871 135.762 313.871 136.121V138.681C313.871 139.027 313.59 139.321 313.231 139.321ZM313.231 134.2C312.873 134.2 312.592 133.919 312.592 133.56V131C312.592 130.642 312.873 130.36 313.231 130.36C313.59 130.36 313.871 130.642 313.871 131V133.56C313.871 133.906 313.59 134.2 313.231 134.2ZM313.231 129.08C312.873 129.08 312.592 128.798 312.592 128.44V125.879C312.592 125.521 312.873 125.239 313.231 125.239C313.59 125.239 313.871 125.521 313.871 125.879V128.44C313.871 128.785 313.59 129.08 313.231 129.08ZM313.231 123.959C312.873 123.959 312.592 123.677 312.592 123.319V120.759C312.592 120.4 312.873 120.119 313.231 120.119C313.59 120.119 313.871 120.4 313.871 120.759V123.319C313.871 123.665 313.59 123.959 313.231 123.959ZM313.231 118.838C312.873 118.838 312.592 118.557 312.592 118.198V115.638C312.592 115.279 312.873 114.998 313.231 114.998C313.59 114.998 313.871 115.279 313.871 115.638V118.198C313.871 118.544 313.59 118.838 313.231 118.838ZM313.231 113.718C312.873 113.718 312.592 113.436 312.592 113.078V110.517C312.592 110.159 312.873 109.877 313.231 109.877C313.59 109.877 313.871 110.159 313.871 110.517V113.078C313.871 113.423 313.59 113.718 313.231 113.718ZM313.231 108.597C312.873 108.597 312.592 108.315 312.592 107.957V105.397C312.592 105.038 312.873 104.756 313.231 104.756C313.59 104.756 313.871 105.038 313.871 105.397V107.957C313.871 108.303 313.59 108.597 313.231 108.597ZM313.231 103.476C312.873 103.476 312.592 103.195 312.592 102.836V100.276C312.592 99.9174 312.873 99.6357 313.231 99.6357C313.59 99.6357 313.871 99.9174 313.871 100.276V102.836C313.871 103.182 313.59 103.476 313.231 103.476ZM313.231 98.3556C312.873 98.3556 312.592 98.0739 312.592 97.7155V95.1551C312.592 94.7967 312.873 94.515 313.231 94.515C313.59 94.515 313.871 94.7967 313.871 95.1551V97.7155C313.871 98.0611 313.59 98.3556 313.231 98.3556ZM313.231 93.2349C312.873 93.2349 312.592 92.9532 312.592 92.5948V90.0344C312.592 89.676 312.873 89.3944 313.231 89.3944C313.59 89.3944 313.871 89.676 313.871 90.0344V92.5948C313.871 92.9404 313.59 93.2349 313.231 93.2349ZM313.231 88.1142C312.873 88.1142 312.592 87.8325 312.592 87.4741V84.9137C312.592 84.5553 312.873 84.2737 313.231 84.2737C313.59 84.2737 313.871 84.5553 313.871 84.9137V87.4741C313.871 87.8197 313.59 88.1142 313.231 88.1142ZM313.231 82.9935C312.873 82.9935 312.592 82.7119 312.592 82.3534V79.7931C312.592 79.4346 312.873 79.153 313.231 79.153C313.59 79.153 313.871 79.4346 313.871 79.7931V82.3534C313.871 82.699 313.59 82.9935 313.231 82.9935ZM313.231 77.8728C312.873 77.8728 312.592 77.5912 312.592 77.2327V74.6724C312.592 74.3139 312.873 74.0323 313.231 74.0323C313.59 74.0323 313.871 74.3139 313.871 74.6724V77.2327C313.871 77.5784 313.59 77.8728 313.231 77.8728ZM313.231 72.7521C312.873 72.7521 312.592 72.4705 312.592 72.112V69.5517C312.592 69.1932 312.873 68.9116 313.231 68.9116C313.59 68.9116 313.871 69.1932 313.871 69.5517V72.112C313.871 72.4577 313.59 72.7521 313.231 72.7521ZM313.231 67.6314C312.873 67.6314 312.592 67.3498 312.592 66.9913V64.431C312.592 64.0725 312.873 63.7909 313.231 63.7909C313.59 63.7909 313.871 64.0725 313.871 64.431V66.9913C313.871 67.337 313.59 67.6314 313.231 67.6314ZM313.231 62.5107C312.873 62.5107 312.592 62.2291 312.592 61.8706V59.3103C312.592 58.9518 312.873 58.6702 313.231 58.6702C313.59 58.6702 313.871 58.9518 313.871 59.3103V61.8706C313.871 62.2163 313.59 62.5107 313.231 62.5107ZM313.231 57.39C312.873 57.39 312.592 57.1084 312.592 56.7499V54.1896C312.592 53.8311 312.873 53.5495 313.231 53.5495C313.59 53.5495 313.871 53.8311 313.871 54.1896V56.7499C313.871 57.0956 313.59 57.39 313.231 57.39Z" fill="url(#paint65_linear_1317:1277)"/>
<path d="M193.827 162.569C193.468 162.569 193.187 162.287 193.187 161.929V159.369C193.187 159.01 193.468 158.729 193.827 158.729C194.185 158.729 194.466 159.01 194.466 159.369V161.929C194.466 162.287 194.185 162.569 193.827 162.569ZM193.827 157.448C193.468 157.448 193.187 157.167 193.187 156.808V154.248C193.187 153.889 193.468 153.608 193.827 153.608C194.185 153.608 194.466 153.889 194.466 154.248V156.808C194.466 157.167 194.185 157.448 193.827 157.448ZM193.827 152.328C193.468 152.328 193.187 152.046 193.187 151.688V149.127C193.187 148.769 193.468 148.487 193.827 148.487C194.185 148.487 194.466 148.769 194.466 149.127V151.688C194.466 152.046 194.185 152.328 193.827 152.328ZM193.827 147.207C193.468 147.207 193.187 146.925 193.187 146.567V144.007C193.187 143.648 193.468 143.366 193.827 143.366C194.185 143.366 194.466 143.648 194.466 144.007V146.567C194.466 146.925 194.185 147.207 193.827 147.207ZM193.827 142.086C193.468 142.086 193.187 141.805 193.187 141.446V138.886C193.187 138.527 193.468 138.246 193.827 138.246C194.185 138.246 194.466 138.527 194.466 138.886V141.446C194.466 141.805 194.185 142.086 193.827 142.086ZM193.827 136.966C193.468 136.966 193.187 136.684 193.187 136.325V133.765C193.187 133.407 193.468 133.125 193.827 133.125C194.185 133.125 194.466 133.407 194.466 133.765V136.325C194.466 136.684 194.185 136.966 193.827 136.966ZM193.827 131.845C193.468 131.845 193.187 131.563 193.187 131.205V128.644C193.187 128.286 193.468 128.004 193.827 128.004C194.185 128.004 194.466 128.286 194.466 128.644V131.205C194.466 131.563 194.185 131.845 193.827 131.845ZM193.827 126.724C193.468 126.724 193.187 126.443 193.187 126.084V123.524C193.187 123.165 193.468 122.884 193.827 122.884C194.185 122.884 194.466 123.165 194.466 123.524V126.084C194.466 126.443 194.185 126.724 193.827 126.724ZM193.827 121.603C193.468 121.603 193.187 121.322 193.187 120.963V118.403C193.187 118.045 193.468 117.763 193.827 117.763C194.185 117.763 194.466 118.045 194.466 118.403V120.963C194.466 121.322 194.185 121.603 193.827 121.603ZM193.827 116.483C193.468 116.483 193.187 116.201 193.187 115.843V113.282C193.187 112.924 193.468 112.642 193.827 112.642C194.185 112.642 194.466 112.924 194.466 113.282V115.843C194.466 116.201 194.185 116.483 193.827 116.483ZM193.827 111.362C193.468 111.362 193.187 111.08 193.187 110.722V108.162C193.187 107.803 193.468 107.522 193.827 107.522C194.185 107.522 194.466 107.803 194.466 108.162V110.722C194.466 111.08 194.185 111.362 193.827 111.362ZM193.827 106.241C193.468 106.241 193.187 105.96 193.187 105.601V103.041C193.187 102.683 193.468 102.401 193.827 102.401C194.185 102.401 194.466 102.683 194.466 103.041V105.601C194.466 105.96 194.185 106.241 193.827 106.241ZM193.827 101.121C193.468 101.121 193.187 100.839 193.187 100.481V97.9203C193.187 97.5618 193.468 97.2802 193.827 97.2802C194.185 97.2802 194.466 97.5618 194.466 97.9203V100.481C194.466 100.839 194.185 101.121 193.827 101.121ZM193.827 96C193.468 96 193.187 95.7184 193.187 95.3599V92.7996C193.187 92.4411 193.468 92.1595 193.827 92.1595C194.185 92.1595 194.466 92.4411 194.466 92.7996V95.3599C194.466 95.7184 194.185 96 193.827 96ZM193.827 90.8793C193.468 90.8793 193.187 90.5977 193.187 90.2393V87.6789C193.187 87.3205 193.468 87.0388 193.827 87.0388C194.185 87.0388 194.466 87.3205 194.466 87.6789V90.2393C194.466 90.5977 194.185 90.8793 193.827 90.8793ZM193.827 85.7586C193.468 85.7586 193.187 85.477 193.187 85.1186V82.5582C193.187 82.1998 193.468 81.9181 193.827 81.9181C194.185 81.9181 194.466 82.1998 194.466 82.5582V85.1186C194.466 85.477 194.185 85.7586 193.827 85.7586ZM193.827 80.638C193.468 80.638 193.187 80.3563 193.187 79.9979V77.4375C193.187 77.0791 193.468 76.7974 193.827 76.7974C194.185 76.7974 194.466 77.0791 194.466 77.4375V79.9979C194.466 80.3563 194.185 80.638 193.827 80.638ZM193.827 75.5173C193.468 75.5173 193.187 75.2356 193.187 74.8772V72.3168C193.187 71.9584 193.468 71.6767 193.827 71.6767C194.185 71.6767 194.466 71.9584 194.466 72.3168V74.8772C194.466 75.2356 194.185 75.5173 193.827 75.5173ZM193.827 70.3966C193.468 70.3966 193.187 70.1149 193.187 69.7565V67.1961C193.187 66.8377 193.468 66.556 193.827 66.556C194.185 66.556 194.466 66.8377 194.466 67.1961V69.7565C194.466 70.1149 194.185 70.3966 193.827 70.3966ZM193.827 65.2759C193.468 65.2759 193.187 64.9942 193.187 64.6358V62.0754C193.187 61.717 193.468 61.4354 193.827 61.4354C194.185 61.4354 194.466 61.717 194.466 62.0754V64.6358C194.466 64.9942 194.185 65.2759 193.827 65.2759ZM193.827 60.1552C193.468 60.1552 193.187 59.8735 193.187 59.5151V56.9547C193.187 56.5963 193.468 56.3147 193.827 56.3147C194.185 56.3147 194.466 56.5963 194.466 56.9547V59.5151C194.466 59.8735 194.185 60.1552 193.827 60.1552ZM193.827 55.0345C193.468 55.0345 193.187 54.7529 193.187 54.3944V51.8341C193.187 51.4756 193.468 51.194 193.827 51.194C194.185 51.194 194.466 51.4756 194.466 51.8341V54.3944C194.466 54.7529 194.185 55.0345 193.827 55.0345Z" fill="url(#paint66_linear_1317:1277)"/>
<path d="M186.151 244.077C185.792 244.077 185.511 243.796 185.511 243.437V240.877C185.511 240.518 185.792 240.237 186.151 240.237C186.509 240.237 186.79 240.518 186.79 240.877V243.437C186.79 243.796 186.509 244.077 186.151 244.077ZM186.151 238.956C185.792 238.956 185.511 238.675 185.511 238.316V235.756C185.511 235.398 185.792 235.116 186.151 235.116C186.509 235.116 186.79 235.398 186.79 235.756V238.316C186.79 238.675 186.509 238.956 186.151 238.956ZM186.151 233.836C185.792 233.836 185.511 233.554 185.511 233.196V230.635C185.511 230.277 185.792 229.995 186.151 229.995C186.509 229.995 186.79 230.277 186.79 230.635V233.196C186.79 233.554 186.509 233.836 186.151 233.836ZM186.151 228.715C185.792 228.715 185.511 228.434 185.511 228.075V225.515C185.511 225.156 185.792 224.875 186.151 224.875C186.509 224.875 186.79 225.156 186.79 225.515V228.075C186.79 228.434 186.509 228.715 186.151 228.715ZM186.151 223.594C185.792 223.594 185.511 223.313 185.511 222.954V220.394C185.511 220.036 185.792 219.754 186.151 219.754C186.509 219.754 186.79 220.036 186.79 220.394V222.954C186.79 223.313 186.509 223.594 186.151 223.594ZM186.151 218.474C185.792 218.474 185.511 218.192 185.511 217.834V215.273C185.511 214.915 185.792 214.633 186.151 214.633C186.509 214.633 186.79 214.915 186.79 215.273V217.834C186.79 218.192 186.509 218.474 186.151 218.474ZM186.151 213.353C185.792 213.353 185.511 213.071 185.511 212.713V210.153C185.511 209.794 185.792 209.513 186.151 209.513C186.509 209.513 186.79 209.794 186.79 210.153V212.713C186.79 213.071 186.509 213.353 186.151 213.353ZM186.151 208.232C185.792 208.232 185.511 207.951 185.511 207.592V205.032C185.511 204.674 185.792 204.392 186.151 204.392C186.509 204.392 186.79 204.674 186.79 205.032V207.592C186.79 207.951 186.509 208.232 186.151 208.232ZM186.151 203.112C185.792 203.112 185.511 202.83 185.511 202.472V199.911C185.511 199.553 185.792 199.271 186.151 199.271C186.509 199.271 186.79 199.553 186.79 199.911V202.472C186.79 202.83 186.509 203.112 186.151 203.112ZM186.151 197.991C185.792 197.991 185.511 197.709 185.511 197.351V194.791C185.511 194.432 185.792 194.151 186.151 194.151C186.509 194.151 186.79 194.432 186.79 194.791V197.351C186.79 197.709 186.509 197.991 186.151 197.991ZM186.151 192.87C185.792 192.87 185.511 192.589 185.511 192.23V189.67C185.511 189.312 185.792 189.03 186.151 189.03C186.509 189.03 186.79 189.312 186.79 189.67V192.23C186.79 192.589 186.509 192.87 186.151 192.87ZM186.151 187.75C185.792 187.75 185.511 187.468 185.511 187.11V184.549C185.511 184.191 185.792 183.909 186.151 183.909C186.509 183.909 186.79 184.191 186.79 184.549V187.11C186.79 187.468 186.509 187.75 186.151 187.75ZM184.385 183.666C184.283 183.666 184.167 183.64 184.065 183.589L181.839 182.335C181.532 182.155 181.417 181.771 181.596 181.464C181.762 181.157 182.159 181.042 182.466 181.221L184.692 182.475C184.999 182.655 185.114 183.039 184.935 183.346C184.82 183.538 184.602 183.666 184.385 183.666ZM179.933 181.144C179.83 181.144 179.715 181.118 179.613 181.067L177.387 179.813C177.08 179.633 176.965 179.249 177.144 178.942C177.31 178.635 177.707 178.52 178.014 178.699L180.24 179.954C180.547 180.133 180.662 180.517 180.483 180.824C180.368 181.029 180.15 181.144 179.933 181.144ZM175.468 178.635C175.365 178.635 175.25 178.609 175.148 178.558L172.922 177.304C172.615 177.124 172.499 176.74 172.679 176.433C172.858 176.126 173.242 176.011 173.549 176.19L175.775 177.444C176.082 177.624 176.197 178.008 176.018 178.315C175.915 178.507 175.698 178.635 175.468 178.635ZM171.015 176.113C170.913 176.113 170.798 176.087 170.696 176.036L168.469 174.782C168.162 174.602 168.047 174.218 168.226 173.911C168.405 173.604 168.789 173.489 169.096 173.668L171.322 174.922C171.63 175.102 171.745 175.486 171.566 175.793C171.45 175.998 171.233 176.113 171.015 176.113ZM166.55 173.604C166.448 173.604 166.333 173.578 166.231 173.527L164.004 172.273C163.697 172.093 163.582 171.709 163.761 171.402C163.94 171.095 164.324 170.98 164.631 171.159L166.857 172.413C167.164 172.593 167.28 172.977 167.1 173.284C166.998 173.489 166.781 173.604 166.55 173.604ZM162.098 171.082C161.996 171.082 161.881 171.056 161.778 171.005L159.552 169.751C159.245 169.571 159.13 169.187 159.309 168.88C159.488 168.573 159.872 168.458 160.179 168.637L162.405 169.891C162.712 170.071 162.827 170.455 162.648 170.762C162.533 170.967 162.316 171.082 162.098 171.082ZM157.633 168.573C157.531 168.573 157.416 168.547 157.313 168.496L155.087 167.241C154.78 167.062 154.665 166.678 154.844 166.371C155.023 166.064 155.407 165.948 155.714 166.128L157.94 167.382C158.247 167.561 158.362 167.946 158.183 168.253C158.081 168.458 157.863 168.573 157.633 168.573ZM153.181 166.051C153.078 166.051 152.963 166.025 152.861 165.974L150.635 164.72C150.328 164.54 150.213 164.156 150.392 163.849C150.558 163.542 150.955 163.427 151.262 163.606L153.488 164.86C153.795 165.04 153.91 165.424 153.731 165.731C153.616 165.936 153.398 166.051 153.181 166.051ZM148.729 163.542C148.626 163.542 148.511 163.516 148.409 163.465L146.183 162.21C145.876 162.031 145.76 161.647 145.939 161.34C146.119 161.033 146.502 160.917 146.809 161.097L149.036 162.351C149.343 162.53 149.458 162.914 149.279 163.222C149.164 163.427 148.946 163.542 148.729 163.542ZM144.264 161.033C144.161 161.033 144.046 161.007 143.944 160.956L141.718 159.701C141.41 159.522 141.295 159.138 141.474 158.831C141.641 158.523 142.037 158.408 142.344 158.587L144.571 159.842C144.878 160.021 144.993 160.405 144.814 160.713C144.698 160.905 144.481 161.033 144.264 161.033ZM139.811 158.511C139.709 158.511 139.594 158.485 139.491 158.434L137.265 157.179C136.958 157 136.843 156.616 137.022 156.309C137.201 156.002 137.585 155.886 137.892 156.066L140.118 157.32C140.425 157.499 140.54 157.883 140.361 158.191C140.246 158.395 140.029 158.511 139.811 158.511ZM135.346 156.002C135.244 156.002 135.129 155.976 135.026 155.925L132.8 154.67C132.493 154.491 132.378 154.107 132.557 153.8C132.736 153.492 133.12 153.377 133.427 153.556L135.653 154.811C135.96 154.99 136.075 155.374 135.896 155.682C135.794 155.874 135.576 156.002 135.346 156.002ZM130.894 153.48C130.792 153.48 130.676 153.454 130.574 153.403L128.348 152.148C128.041 151.969 127.926 151.585 128.105 151.278C128.271 150.97 128.668 150.855 128.975 151.035L131.201 152.289C131.508 152.468 131.623 152.852 131.444 153.16C131.329 153.364 131.111 153.48 130.894 153.48ZM126.429 150.97C126.327 150.97 126.211 150.945 126.109 150.894L123.883 149.639C123.576 149.46 123.461 149.076 123.64 148.769C123.819 148.461 124.203 148.346 124.51 148.525L126.736 149.78C127.043 149.959 127.158 150.343 126.979 150.65C126.877 150.855 126.659 150.97 126.429 150.97ZM121.977 148.449C121.874 148.449 121.759 148.423 121.657 148.372L119.431 147.117C119.124 146.938 119.008 146.554 119.188 146.247C119.367 145.939 119.751 145.824 120.058 146.003L122.284 147.258C122.591 147.437 122.706 147.821 122.527 148.129C122.412 148.333 122.194 148.449 121.977 148.449ZM117.512 145.939C117.409 145.939 117.294 145.914 117.192 145.863L114.966 144.608C114.659 144.429 114.543 144.045 114.723 143.738C114.902 143.43 115.285 143.315 115.593 143.494L117.819 144.749C118.126 144.928 118.241 145.312 118.062 145.619C117.959 145.824 117.742 145.939 117.512 145.939ZM113.059 143.43C112.957 143.43 112.842 143.405 112.74 143.353L112.266 143.085C112.061 142.969 111.946 142.765 111.946 142.521V140.499C111.946 140.14 112.228 139.859 112.586 139.859C112.944 139.859 113.226 140.14 113.226 140.499V142.137L113.379 142.227C113.686 142.406 113.801 142.79 113.622 143.097C113.494 143.302 113.277 143.43 113.059 143.43ZM112.586 138.578C112.228 138.578 111.946 138.297 111.946 137.938V135.378C111.946 135.02 112.228 134.738 112.586 134.738C112.944 134.738 113.226 135.02 113.226 135.378V137.938C113.226 138.297 112.944 138.578 112.586 138.578ZM112.586 133.458C112.228 133.458 111.946 133.176 111.946 132.818V130.257C111.946 129.899 112.228 129.617 112.586 129.617C112.944 129.617 113.226 129.899 113.226 130.257V132.818C113.226 133.176 112.944 133.458 112.586 133.458ZM112.586 128.337C112.228 128.337 111.946 128.055 111.946 127.697V125.137C111.946 124.778 112.228 124.497 112.586 124.497C112.944 124.497 113.226 124.778 113.226 125.137V127.697C113.226 128.055 112.944 128.337 112.586 128.337ZM112.586 123.216C112.228 123.216 111.946 122.935 111.946 122.576V120.016C111.946 119.658 112.228 119.376 112.586 119.376C112.944 119.376 113.226 119.658 113.226 120.016V122.576C113.226 122.935 112.944 123.216 112.586 123.216ZM112.586 118.096C112.228 118.096 111.946 117.814 111.946 117.456V114.895C111.946 114.537 112.228 114.255 112.586 114.255C112.944 114.255 113.226 114.537 113.226 114.895V117.456C113.226 117.814 112.944 118.096 112.586 118.096ZM112.586 112.975C112.228 112.975 111.946 112.693 111.946 112.335V110.722C111.946 110.364 112.228 110.082 112.586 110.082C112.944 110.082 113.226 110.364 113.226 110.722V112.335C113.226 112.693 112.944 112.975 112.586 112.975Z" fill="url(#paint67_linear_1317:1277)"/>
<path d="M423.642 165.513C423.527 165.513 423.425 165.487 423.322 165.423L421.122 164.13C420.815 163.951 420.713 163.554 420.892 163.26C421.071 162.953 421.467 162.863 421.762 163.03L423.962 164.322C424.269 164.502 424.372 164.899 424.192 165.193C424.064 165.411 423.86 165.513 423.642 165.513ZM424.436 164.348C424.077 164.348 423.796 164.066 423.796 163.708V161.148C423.796 160.789 424.077 160.508 424.436 160.508C424.794 160.508 425.075 160.789 425.075 161.148V163.708C425.075 164.066 424.794 164.348 424.436 164.348ZM419.228 162.927C419.113 162.927 419.011 162.901 418.909 162.837L416.708 161.545C416.401 161.365 416.299 160.968 416.478 160.674C416.657 160.367 417.053 160.264 417.348 160.444L419.548 161.737C419.855 161.916 419.958 162.313 419.779 162.607C419.651 162.812 419.446 162.927 419.228 162.927ZM414.815 160.341C414.699 160.341 414.597 160.316 414.495 160.252L412.294 158.959C411.987 158.779 411.885 158.382 412.064 158.088C412.243 157.781 412.64 157.691 412.934 157.858L415.134 159.151C415.441 159.33 415.544 159.727 415.365 160.021C415.237 160.226 415.032 160.341 414.815 160.341ZM424.436 159.227C424.077 159.227 423.796 158.946 423.796 158.587V156.027C423.796 155.669 424.077 155.387 424.436 155.387C424.794 155.387 425.075 155.669 425.075 156.027V158.587C425.075 158.946 424.794 159.227 424.436 159.227ZM410.401 157.742C410.286 157.742 410.183 157.717 410.081 157.653L407.88 156.36C407.573 156.181 407.471 155.784 407.65 155.489C407.829 155.182 408.226 155.092 408.52 155.259L410.721 156.552C411.028 156.731 411.13 157.128 410.951 157.422C410.823 157.627 410.618 157.742 410.401 157.742ZM405.987 155.156C405.872 155.156 405.769 155.131 405.667 155.067L403.454 153.774C403.147 153.595 403.044 153.198 403.223 152.903C403.402 152.596 403.799 152.507 404.093 152.673L406.307 153.966C406.614 154.145 406.716 154.542 406.537 154.836C406.409 155.041 406.204 155.156 405.987 155.156ZM424.436 154.107C424.077 154.107 423.796 153.825 423.796 153.467V151.905C423.796 151.546 424.077 151.265 424.436 151.265C424.794 151.265 425.075 151.546 425.075 151.905V153.467C425.075 153.825 424.794 154.107 424.436 154.107ZM401.573 152.558C401.458 152.558 401.355 152.532 401.253 152.468L399.04 151.175C398.733 150.996 398.63 150.599 398.809 150.305C398.989 149.997 399.385 149.895 399.679 150.074L401.893 151.367C402.2 151.546 402.302 151.943 402.123 152.238C401.995 152.455 401.79 152.558 401.573 152.558ZM397.159 149.972C397.044 149.972 396.942 149.946 396.839 149.882L394.626 148.589C394.319 148.41 394.216 148.013 394.396 147.719C394.575 147.411 394.971 147.309 395.266 147.488L397.479 148.781C397.786 148.96 397.888 149.357 397.709 149.652C397.581 149.857 397.377 149.972 397.159 149.972ZM392.745 147.386C392.63 147.386 392.528 147.36 392.425 147.296L390.212 146.003C389.905 145.824 389.803 145.427 389.982 145.133C390.161 144.826 390.557 144.736 390.852 144.902L393.065 146.195C393.372 146.374 393.474 146.771 393.295 147.066C393.167 147.271 392.963 147.386 392.745 147.386ZM388.331 144.787C388.216 144.787 388.114 144.761 388.011 144.697L385.811 143.405C385.504 143.225 385.402 142.828 385.581 142.534C385.76 142.227 386.156 142.124 386.451 142.304L388.651 143.597C388.958 143.776 389.061 144.173 388.881 144.467C388.753 144.672 388.549 144.787 388.331 144.787ZM383.917 142.201C383.802 142.201 383.7 142.176 383.598 142.112L381.384 140.819C381.077 140.639 380.975 140.242 381.154 139.948C381.333 139.641 381.73 139.538 382.024 139.718L384.224 141.011C384.532 141.19 384.634 141.587 384.455 141.881C384.34 142.086 384.135 142.201 383.917 142.201ZM379.491 139.602C379.376 139.602 379.273 139.577 379.171 139.513L376.97 138.22C376.663 138.041 376.561 137.644 376.74 137.349C376.919 137.042 377.316 136.94 377.61 137.119L379.811 138.412C380.118 138.591 380.22 138.988 380.041 139.282C379.926 139.5 379.721 139.602 379.491 139.602ZM375.077 137.016C374.962 137.016 374.859 136.991 374.757 136.927L372.557 135.634C372.249 135.455 372.147 135.058 372.326 134.763C372.505 134.456 372.902 134.367 373.196 134.533L375.397 135.826C375.704 136.005 375.806 136.402 375.627 136.696C375.512 136.901 375.307 137.016 375.077 137.016ZM370.663 134.418C370.548 134.418 370.446 134.392 370.343 134.328L368.143 133.035C367.836 132.856 367.733 132.459 367.912 132.165C368.091 131.857 368.488 131.768 368.782 131.934L370.983 133.227C371.29 133.406 371.392 133.803 371.213 134.098C371.098 134.315 370.893 134.418 370.663 134.418Z" fill="url(#paint68_linear_1317:1277)"/>
<path d="M310.571 72.8544C310.507 72.8544 310.43 72.8416 310.366 72.816L309.535 72.5344C309.202 72.4191 309.023 72.0607 309.138 71.7278C309.253 71.395 309.624 71.2158 309.944 71.331L310.776 71.6126C311.108 71.7278 311.287 72.0863 311.172 72.4191C311.083 72.688 310.84 72.8544 310.571 72.8544ZM307.321 71.7534C307.257 71.7534 307.181 71.7406 307.117 71.715L304.686 70.8957C304.353 70.7805 304.174 70.4221 304.289 70.0892C304.404 69.7564 304.775 69.5772 305.095 69.6924L307.526 70.5117C307.859 70.6269 308.038 70.9853 307.923 71.3182C307.833 71.587 307.59 71.7534 307.321 71.7534ZM302.472 70.1148C302.408 70.1148 302.332 70.102 302.268 70.0764L299.85 69.2571C299.517 69.1419 299.338 68.7835 299.453 68.4506C299.568 68.1178 299.926 67.9385 300.259 68.0538L302.677 68.8731C303.01 68.9883 303.189 69.3467 303.074 69.6796C302.984 69.9484 302.741 70.1148 302.472 70.1148ZM297.624 68.4762C297.56 68.4762 297.483 68.4634 297.419 68.4378L295.001 67.6185C294.668 67.5033 294.489 67.1448 294.604 66.812C294.719 66.4792 295.078 66.2999 295.41 66.4151L297.828 67.2345C298.161 67.3497 298.34 67.7081 298.225 68.041C298.135 68.3098 297.892 68.4762 297.624 68.4762ZM292.775 66.8376C292.711 66.8376 292.634 66.8248 292.57 66.7992L290.152 65.9799C289.819 65.8647 289.64 65.5062 289.755 65.1734C289.87 64.8405 290.229 64.6613 290.561 64.7765L292.979 65.5958C293.312 65.7111 293.491 66.0695 293.376 66.4023C293.286 66.6584 293.043 66.8376 292.775 66.8376ZM287.926 65.199C287.862 65.199 287.785 65.1862 287.721 65.1606L285.303 64.3413C284.97 64.2261 284.791 63.8676 284.906 63.5348C285.022 63.2019 285.393 63.0227 285.712 63.1379L288.131 63.9572C288.463 64.0724 288.642 64.4309 288.527 64.7637C288.45 65.0198 288.194 65.199 287.926 65.199ZM283.077 63.5476C283.013 63.5476 282.936 63.5348 282.872 63.5092L280.454 62.6899C280.122 62.5746 279.942 62.2162 280.058 61.8834C280.173 61.5505 280.544 61.3713 280.864 61.4865L283.282 62.3058C283.614 62.421 283.793 62.7795 283.678 63.1123C283.601 63.3811 283.346 63.5476 283.077 63.5476ZM278.228 61.909C278.164 61.909 278.087 61.8962 278.023 61.8706L275.605 61.0512C275.273 60.936 275.094 60.5776 275.209 60.2447C275.324 59.9119 275.695 59.7327 276.015 59.8479L278.433 60.6672C278.765 60.7824 278.945 61.1409 278.829 61.4737C278.753 61.7425 278.497 61.909 278.228 61.909ZM273.379 60.2703C273.315 60.2703 273.238 60.2575 273.175 60.2319L270.756 59.4126C270.424 59.2974 270.245 58.939 270.36 58.6061C270.475 58.2733 270.833 58.0941 271.166 58.2093L273.584 59.0286C273.917 59.1438 274.096 59.5022 273.981 59.8351C273.904 60.1039 273.648 60.2703 273.379 60.2703ZM268.53 58.6317C268.466 58.6317 268.39 58.6189 268.326 58.5933L265.908 57.774C265.575 57.6588 265.396 57.3004 265.511 56.9675C265.626 56.6347 265.984 56.4554 266.317 56.5707L268.735 57.39C269.068 57.5052 269.247 57.8636 269.132 58.1965C269.055 58.4653 268.799 58.6317 268.53 58.6317Z" fill="url(#paint69_linear_1317:1277)"/>
<path d="M193.008 48.7232C192.931 48.7232 192.854 48.7104 192.777 48.6848C183.336 44.9723 176.798 39.4676 175.57 24.6177L175.237 20.6235C175.212 20.3803 175.339 20.1371 175.557 20.0091L175.787 19.881C181.813 16.463 187.609 11.0479 192.56 4.21178C192.611 4.13497 192.675 4.07096 192.765 4.03255C192.905 3.95574 193.136 3.89174 193.289 3.91734C198.061 4.99268 203.934 3.68691 209.806 0.230454L210.036 0.0896351C210.241 -0.0255801 210.497 -0.0255801 210.702 0.102437C210.906 0.230454 211.021 0.460884 210.996 0.691314L210.663 5.06949C209.461 21.0972 203.038 33.9373 193.763 48.3008C193.711 48.3904 193.635 48.4544 193.545 48.5056L193.315 48.6464C193.225 48.6976 193.123 48.7232 193.008 48.7232ZM176.555 20.918L176.849 24.5024C178.001 38.4947 184.078 43.8074 192.88 47.3407C201.963 33.246 208.232 20.6235 209.409 4.96708L209.653 1.79226C203.921 4.97988 198.215 6.19604 193.404 5.23591C188.428 12.0464 182.606 17.4615 176.555 20.918Z" fill="url(#paint70_linear_1317:1277)"/>
<path d="M193.071 37.7138C192.995 37.7138 192.918 37.701 192.841 37.6754C186.981 35.3711 184.371 31.7226 183.834 25.0786L183.668 23.0303C183.642 22.7871 183.77 22.5438 183.988 22.4158L184.103 22.3518C187.148 20.6236 190.09 17.8712 192.598 14.4148C192.649 14.338 192.726 14.274 192.803 14.2355C192.943 14.1587 193.148 14.1075 193.289 14.1459C195.656 14.6836 198.585 14.0179 201.515 12.2897L201.63 12.2257C201.835 12.1105 202.091 12.1105 202.296 12.2385C202.5 12.3665 202.615 12.5969 202.603 12.8274L202.436 15.0677C201.822 23.3375 198.509 29.956 193.737 37.3554C193.685 37.445 193.609 37.509 193.519 37.5602L193.404 37.6242C193.289 37.6882 193.174 37.7138 193.071 37.7138ZM184.96 23.3375L185.088 24.9762C185.651 31.8507 188.593 34.539 192.867 36.3056C197.421 29.2135 200.556 22.8383 201.144 14.9652L201.221 13.9027C198.47 15.3237 195.732 15.8742 193.391 15.4645C190.896 18.857 187.992 21.5709 184.96 23.3375Z" fill="url(#paint71_linear_1317:1277)"/>
<path d="M98.0518 113.718C97.9366 113.718 97.8343 113.692 97.7319 113.628C97.54 113.513 97.4121 113.308 97.4121 113.078V97.805C97.4121 97.5746 97.54 97.3698 97.7319 97.2546L104.384 93.414C104.576 93.2988 104.832 93.2988 105.024 93.414C105.216 93.5293 105.344 93.7341 105.344 93.9645V109.237C105.344 109.467 105.216 109.672 105.024 109.787L98.3716 113.628C98.2692 113.679 98.1541 113.718 98.0518 113.718ZM98.6914 98.1763V111.964L104.065 108.866V95.0783L98.6914 98.1763Z" fill="url(#paint72_linear_1317:1277)"/>
<path d="M108.568 107.637C108.453 107.637 108.35 107.611 108.248 107.547C108.056 107.432 107.928 107.227 107.928 106.997V78.9993C107.928 78.7689 108.056 78.5641 108.248 78.4488L114.9 74.6083C115.092 74.4931 115.348 74.4931 115.54 74.6083C115.732 74.7235 115.86 74.9284 115.86 75.1588V103.143C115.86 103.374 115.732 103.579 115.54 103.694L108.888 107.534C108.798 107.598 108.683 107.637 108.568 107.637ZM109.208 79.3706V105.883L114.581 102.785V76.2726L109.208 79.3706Z" fill="url(#paint73_linear_1317:1277)"/>
<path d="M119.098 101.556C118.983 101.556 118.88 101.53 118.778 101.466C118.586 101.351 118.458 101.146 118.458 100.916V60.2064C118.458 59.9759 118.586 59.7711 118.778 59.6559L125.43 55.8154C125.622 55.7001 125.878 55.7001 126.07 55.8154C126.262 55.9306 126.39 56.1354 126.39 56.3658V97.0754C126.39 97.3058 126.262 97.5106 126.07 97.6258L119.417 101.466C119.315 101.518 119.213 101.556 119.098 101.556ZM119.737 60.5648V99.8021L125.11 96.7041V57.4668L119.737 60.5648Z" fill="url(#paint74_linear_1317:1277)"/>
<defs>
<linearGradient id="paint0_linear_1317:1277" x1="351.338" y1="-69.4781" x2="233.969" y2="154.288" gradientUnits="userSpaceOnUse">
<stop offset="0.0354" stop-color="#6B24D6"/>
<stop offset="0.2945" stop-color="#7733DC"/>
<stop offset="0.7943" stop-color="#975CED"/>
<stop offset="1" stop-color="#A56EF4"/>
</linearGradient>
<linearGradient id="paint1_linear_1317:1277" x1="270.7" y1="155.221" x2="469.199" y2="48.5273" gradientUnits="userSpaceOnUse">
<stop offset="0.0354" stop-color="#6B24D6"/>
<stop offset="0.2945" stop-color="#7733DC"/>
<stop offset="0.7943" stop-color="#975CED"/>
<stop offset="1" stop-color="#A56EF4"/>
</linearGradient>
<linearGradient id="paint2_linear_1317:1277" x1="257.668" y1="177.144" x2="341.051" y2="279.15" gradientUnits="userSpaceOnUse">
<stop offset="0.0354" stop-color="#6B24D6"/>
<stop offset="0.2945" stop-color="#7733DC"/>
<stop offset="0.7943" stop-color="#975CED"/>
<stop offset="1" stop-color="#A56EF4"/>
</linearGradient>
<linearGradient id="paint3_linear_1317:1277" x1="280.578" y1="173.488" x2="478.134" y2="67.5774" gradientUnits="userSpaceOnUse">
<stop offset="0.0354" stop-color="#6B24D6"/>
<stop offset="0.2945" stop-color="#7733DC"/>
<stop offset="0.7943" stop-color="#975CED"/>
<stop offset="1" stop-color="#A56EF4"/>
</linearGradient>
<linearGradient id="paint4_linear_1317:1277" x1="288.085" y1="178.035" x2="288.115" y2="178.071" gradientUnits="userSpaceOnUse">
<stop offset="0.0354" stop-color="#6B24D6"/>
<stop offset="0.2945" stop-color="#7733DC"/>
<stop offset="0.7943" stop-color="#975CED"/>
<stop offset="1" stop-color="#A56EF4"/>
</linearGradient>
<linearGradient id="paint5_linear_1317:1277" x1="288.761" y1="177.969" x2="288.783" y2="177.997" gradientUnits="userSpaceOnUse">
<stop offset="0.0354" stop-color="#6B24D6"/>
<stop offset="0.2945" stop-color="#7733DC"/>
<stop offset="0.7943" stop-color="#975CED"/>
<stop offset="1" stop-color="#A56EF4"/>
</linearGradient>
<linearGradient id="paint6_linear_1317:1277" x1="34.0994" y1="207.382" x2="384.27" y2="129.363" gradientUnits="userSpaceOnUse">
<stop offset="0.0354" stop-color="#6B24D6"/>
<stop offset="0.2945" stop-color="#7733DC"/>
<stop offset="0.7943" stop-color="#975CED"/>
<stop offset="1" stop-color="#A56EF4"/>
</linearGradient>
<linearGradient id="paint7_linear_1317:1277" x1="290.458" y1="167.662" x2="333.184" y2="167.662" gradientUnits="userSpaceOnUse">
<stop stop-color="#6B24D6"/>
<stop offset="0.0671" stop-color="#712DD9"/>
<stop offset="0.1616" stop-color="#7734DC"/>
<stop offset="0.3232" stop-color="#8C4FE7"/>
<stop offset="0.4848" stop-color="#A56EF4"/>
<stop offset="0.8737" stop-color="#6B24D6"/>
</linearGradient>
<linearGradient id="paint8_linear_1317:1277" x1="287.45" y1="149.558" x2="287.489" y2="149.606" gradientUnits="userSpaceOnUse">
<stop offset="0.0354" stop-color="#6B24D6"/>
<stop offset="0.2945" stop-color="#7733DC"/>
<stop offset="0.7943" stop-color="#975CED"/>
<stop offset="1" stop-color="#A56EF4"/>
</linearGradient>
<linearGradient id="paint9_linear_1317:1277" x1="288.37" y1="149.129" x2="288.511" y2="149.3" gradientUnits="userSpaceOnUse">
<stop offset="0.0354" stop-color="#6B24D6"/>
<stop offset="0.2945" stop-color="#7733DC"/>
<stop offset="0.7943" stop-color="#975CED"/>
<stop offset="1" stop-color="#A56EF4"/>
</linearGradient>
<linearGradient id="paint10_linear_1317:1277" x1="190.048" y1="149.286" x2="190.477" y2="149.19" gradientUnits="userSpaceOnUse">
<stop offset="0.0354" stop-color="#6B24D6"/>
<stop offset="0.2945" stop-color="#7733DC"/>
<stop offset="0.7943" stop-color="#975CED"/>
<stop offset="1" stop-color="#A56EF4"/>
</linearGradient>
<linearGradient id="paint11_linear_1317:1277" x1="113.158" y1="153.565" x2="223.63" y2="128.824" gradientUnits="userSpaceOnUse">
<stop offset="0.0354" stop-color="#6B24D6"/>
<stop offset="0.2945" stop-color="#7733DC"/>
<stop offset="0.7943" stop-color="#975CED"/>
<stop offset="1" stop-color="#A56EF4"/>
</linearGradient>
<linearGradient id="paint12_linear_1317:1277" x1="182.881" y1="178.699" x2="193.922" y2="176.225" gradientUnits="userSpaceOnUse">
<stop offset="0.0354" stop-color="#6B24D6"/>
<stop offset="0.2945" stop-color="#7733DC"/>
<stop offset="0.7943" stop-color="#975CED"/>
<stop offset="1" stop-color="#A56EF4"/>
</linearGradient>
<linearGradient id="paint13_linear_1317:1277" x1="189.635" y1="178.355" x2="191.752" y2="177.88" gradientUnits="userSpaceOnUse">
<stop offset="0.0354" stop-color="#6B24D6"/>
<stop offset="0.2945" stop-color="#7733DC"/>
<stop offset="0.7943" stop-color="#975CED"/>
<stop offset="1" stop-color="#A56EF4"/>
</linearGradient>
<linearGradient id="paint14_linear_1317:1277" x1="192.39" y1="177.855" x2="192.579" y2="177.813" gradientUnits="userSpaceOnUse">
<stop offset="0.0354" stop-color="#6B24D6"/>
<stop offset="0.2945" stop-color="#7733DC"/>
<stop offset="0.7943" stop-color="#975CED"/>
<stop offset="1" stop-color="#A56EF4"/>
</linearGradient>
<linearGradient id="paint15_linear_1317:1277" x1="219.722" y1="187.417" x2="219.985" y2="187.358" gradientUnits="userSpaceOnUse">
<stop offset="0.0354" stop-color="#6B24D6"/>
<stop offset="0.2945" stop-color="#7733DC"/>
<stop offset="0.7943" stop-color="#975CED"/>
<stop offset="1" stop-color="#A56EF4"/>
</linearGradient>
<linearGradient id="paint16_linear_1317:1277" x1="195.072" y1="155.582" x2="233.888" y2="155.582" gradientUnits="userSpaceOnUse">
<stop stop-color="#7C3ADF"/>
<stop offset="0.0417" stop-color="#7733DC"/>
<stop offset="0.1437" stop-color="#6E28D8"/>
<stop offset="0.2525" stop-color="#6B24D6"/>
<stop offset="0.5556" stop-color="#9A60EE"/>
<stop offset="0.9747" stop-color="#7734DC"/>
</linearGradient>
<radialGradient id="paint17_radial_1317:1277" cx="0" cy="0" r="1" gradientUnits="userSpaceOnUse" gradientTransform="translate(323.439 121.51) scale(12.4234 12.4352)">
<stop stop-color="white"/>
<stop offset="0.0656" stop-color="#D8D8D8"/>
<stop offset="0.1615" stop-color="#A6A6A6"/>
<stop offset="0.2622" stop-color="#797979"/>
<stop offset="0.3658" stop-color="#545454"/>
<stop offset="0.4731" stop-color="#353535"/>
<stop offset="0.5852" stop-color="#1E1E1E"/>
<stop offset="0.7042" stop-color="#0D0D0D"/>
<stop offset="0.835" stop-color="#030303"/>
<stop offset="1"/>
</radialGradient>
<radialGradient id="paint18_radial_1317:1277" cx="0" cy="0" r="1" gradientUnits="userSpaceOnUse" gradientTransform="translate(312.384 168.073) scale(30.5108 30.5397)">
<stop stop-color="white"/>
<stop offset="0.0656" stop-color="#D8D8D8"/>
<stop offset="0.1615" stop-color="#A6A6A6"/>
<stop offset="0.2622" stop-color="#797979"/>
<stop offset="0.3658" stop-color="#545454"/>
<stop offset="0.4731" stop-color="#353535"/>
<stop offset="0.5852" stop-color="#1E1E1E"/>
<stop offset="0.7042" stop-color="#0D0D0D"/>
<stop offset="0.835" stop-color="#030303"/>
<stop offset="1"/>
</radialGradient>
<radialGradient id="paint19_radial_1317:1277" cx="0" cy="0" r="1" gradientUnits="userSpaceOnUse" gradientTransform="translate(170.85 142.003) scale(17.0941 17.1104)">
<stop stop-color="white"/>
<stop offset="0.0656" stop-color="#D8D8D8"/>
<stop offset="0.1615" stop-color="#A6A6A6"/>
<stop offset="0.2622" stop-color="#797979"/>
<stop offset="0.3658" stop-color="#545454"/>
<stop offset="0.4731" stop-color="#353535"/>
<stop offset="0.5852" stop-color="#1E1E1E"/>
<stop offset="0.7042" stop-color="#0D0D0D"/>
<stop offset="0.835" stop-color="#030303"/>
<stop offset="1"/>
</radialGradient>
<radialGradient id="paint20_radial_1317:1277" cx="0" cy="0" r="1" gradientUnits="userSpaceOnUse" gradientTransform="translate(214.333 138.83) scale(15.5701 15.5849)">
<stop stop-color="white"/>
<stop offset="0.0656" stop-color="#D8D8D8"/>
<stop offset="0.1615" stop-color="#A6A6A6"/>
<stop offset="0.2622" stop-color="#797979"/>
<stop offset="0.3658" stop-color="#545454"/>
<stop offset="0.4731" stop-color="#353535"/>
<stop offset="0.5852" stop-color="#1E1E1E"/>
<stop offset="0.7042" stop-color="#0D0D0D"/>
<stop offset="0.835" stop-color="#030303"/>
<stop offset="1"/>
</radialGradient>
<linearGradient id="paint21_linear_1317:1277" x1="255.833" y1="-30.0906" x2="124.723" y2="219.625" gradientUnits="userSpaceOnUse">
<stop offset="0.0354" stop-color="#138BBD"/>
<stop offset="0.2257" stop-color="#169AC7"/>
<stop offset="0.5946" stop-color="#1FC3DF"/>
<stop offset="1" stop-color="#2AF6FF"/>
</linearGradient>
<linearGradient id="paint22_linear_1317:1277" x1="199.27" y1="182.876" x2="244.624" y2="169.304" gradientUnits="userSpaceOnUse">
<stop offset="0.0354" stop-color="#138BBD"/>
<stop offset="0.2257" stop-color="#169AC7"/>
<stop offset="0.5946" stop-color="#1FC3DF"/>
<stop offset="1" stop-color="#2AF6FF"/>
</linearGradient>
<linearGradient id="paint23_linear_1317:1277" x1="147.449" y1="223.557" x2="228.194" y2="223.557" gradientUnits="userSpaceOnUse">
<stop stop-color="#1BB0D4"/>
<stop offset="0.1067" stop-color="#1EBFDD"/>
<stop offset="0.2374" stop-color="#23D8EC"/>
<stop offset="0.3669" stop-color="#1EC0DD"/>
<stop offset="0.4394" stop-color="#1BB0D4"/>
<stop offset="0.4954" stop-color="#1BB0D4"/>
<stop offset="0.5051" stop-color="#1BB0D4"/>
<stop offset="0.5455" stop-color="#20C6E2"/>
<stop offset="0.563" stop-color="#1BAFD4"/>
<stop offset="0.5842" stop-color="#179BC7"/>
<stop offset="0.6053" stop-color="#148FC0"/>
<stop offset="0.6263" stop-color="#138BBD"/>
</linearGradient>
<linearGradient id="paint24_linear_1317:1277" x1="-39.5344" y1="269.316" x2="223.587" y2="210.369" gradientUnits="userSpaceOnUse">
<stop offset="0.0354" stop-color="#138BBD"/>
<stop offset="0.2257" stop-color="#169AC7"/>
<stop offset="0.5946" stop-color="#1FC3DF"/>
<stop offset="1" stop-color="#2AF6FF"/>
</linearGradient>
<linearGradient id="paint25_linear_1317:1277" x1="141.356" y1="241.96" x2="184.144" y2="306.271" gradientUnits="userSpaceOnUse">
<stop offset="0.0354" stop-color="#138BBD"/>
<stop offset="0.2257" stop-color="#169AC7"/>
<stop offset="0.5946" stop-color="#1FC3DF"/>
<stop offset="1" stop-color="#2AF6FF"/>
</linearGradient>
<linearGradient id="paint26_linear_1317:1277" x1="156.841" y1="265.263" x2="174.215" y2="291.377" gradientUnits="userSpaceOnUse">
<stop offset="0.0354" stop-color="#138BBD"/>
<stop offset="0.2257" stop-color="#169AC7"/>
<stop offset="0.5946" stop-color="#1FC3DF"/>
<stop offset="1" stop-color="#2AF6FF"/>
</linearGradient>
<radialGradient id="paint27_radial_1317:1277" cx="0" cy="0" r="1" gradientUnits="userSpaceOnUse" gradientTransform="translate(89.2188 222.154) scale(66.203 66.2436)">
<stop stop-color="white"/>
<stop offset="0.0656" stop-color="#D8D8D8"/>
<stop offset="0.1615" stop-color="#A6A6A6"/>
<stop offset="0.2622" stop-color="#797979"/>
<stop offset="0.3658" stop-color="#545454"/>
<stop offset="0.4731" stop-color="#353535"/>
<stop offset="0.5852" stop-color="#1E1E1E"/>
<stop offset="0.7042" stop-color="#0D0D0D"/>
<stop offset="0.835" stop-color="#030303"/>
<stop offset="1"/>
</radialGradient>
<radialGradient id="paint28_radial_1317:1277" cx="0" cy="0" r="1" gradientUnits="userSpaceOnUse" gradientTransform="translate(203.292 171.015) scale(9.1747 9.18034)">
<stop stop-color="white"/>
<stop offset="0.0656" stop-color="#D8D8D8"/>
<stop offset="0.1615" stop-color="#A6A6A6"/>
<stop offset="0.2622" stop-color="#797979"/>
<stop offset="0.3658" stop-color="#545454"/>
<stop offset="0.4731" stop-color="#353535"/>
<stop offset="0.5852" stop-color="#1E1E1E"/>
<stop offset="0.7042" stop-color="#0D0D0D"/>
<stop offset="0.835" stop-color="#030303"/>
<stop offset="1"/>
</radialGradient>
<radialGradient id="paint29_radial_1317:1277" cx="0" cy="0" r="1" gradientUnits="userSpaceOnUse" gradientTransform="translate(171.395 204.034) scale(29.4436 29.4617)">
<stop stop-color="white"/>
<stop offset="0.0656" stop-color="#D8D8D8"/>
<stop offset="0.1615" stop-color="#A6A6A6"/>
<stop offset="0.2622" stop-color="#797979"/>
<stop offset="0.3658" stop-color="#545454"/>
<stop offset="0.4731" stop-color="#353535"/>
<stop offset="0.5852" stop-color="#1E1E1E"/>
<stop offset="0.7042" stop-color="#0D0D0D"/>
<stop offset="0.835" stop-color="#030303"/>
<stop offset="1"/>
</radialGradient>
<linearGradient id="paint30_linear_1317:1277" x1="275.302" y1="195.993" x2="458.767" y2="195.993" gradientUnits="userSpaceOnUse">
<stop offset="0.0354" stop-color="#9F19AB"/>
<stop offset="0.2438" stop-color="#AE25B1"/>
<stop offset="0.6455" stop-color="#D744BF"/>
<stop offset="1" stop-color="#FF63CE"/>
</linearGradient>
<linearGradient id="paint31_linear_1317:1277" x1="476.573" y1="-12.4718" x2="345.463" y2="237.244" gradientUnits="userSpaceOnUse">
<stop offset="0.0354" stop-color="#9F19AB"/>
<stop offset="0.2438" stop-color="#AE25B1"/>
<stop offset="0.6455" stop-color="#D744BF"/>
<stop offset="1" stop-color="#FF63CE"/>
</linearGradient>
<linearGradient id="paint32_linear_1317:1277" x1="369.902" y1="175.384" x2="326.679" y2="175.384" gradientUnits="userSpaceOnUse">
<stop stop-color="#9F19AB"/>
<stop offset="0.1364" stop-color="#AE25B1"/>
<stop offset="0.3993" stop-color="#D744BF"/>
<stop offset="0.6313" stop-color="#FF63CE"/>
<stop offset="0.8737" stop-color="#DC48C1"/>
</linearGradient>
<linearGradient id="paint33_linear_1317:1277" x1="402.806" y1="214.065" x2="436.53" y2="284.031" gradientUnits="userSpaceOnUse">
<stop offset="0.0354" stop-color="#9F19AB"/>
<stop offset="0.2438" stop-color="#AE25B1"/>
<stop offset="0.6455" stop-color="#D744BF"/>
<stop offset="1" stop-color="#FF63CE"/>
</linearGradient>
<linearGradient id="paint34_linear_1317:1277" x1="384.316" y1="246.403" x2="585.633" y2="186.159" gradientUnits="userSpaceOnUse">
<stop offset="0.0354" stop-color="#9F19AB"/>
<stop offset="0.2438" stop-color="#AE25B1"/>
<stop offset="0.6455" stop-color="#D744BF"/>
<stop offset="1" stop-color="#FF63CE"/>
</linearGradient>
<linearGradient id="paint35_linear_1317:1277" x1="234.44" y1="224.748" x2="350.152" y2="198.825" gradientUnits="userSpaceOnUse">
<stop offset="0.0354" stop-color="#9F19AB"/>
<stop offset="0.2438" stop-color="#AE25B1"/>
<stop offset="0.6455" stop-color="#D744BF"/>
<stop offset="1" stop-color="#FF63CE"/>
</linearGradient>
<linearGradient id="paint36_linear_1317:1277" x1="318.951" y1="261.415" x2="388.771" y2="245.773" gradientUnits="userSpaceOnUse">
<stop offset="0.0354" stop-color="#9F19AB"/>
<stop offset="0.2438" stop-color="#AE25B1"/>
<stop offset="0.6455" stop-color="#D744BF"/>
<stop offset="1" stop-color="#FF63CE"/>
</linearGradient>
<linearGradient id="paint37_linear_1317:1277" x1="315.124" y1="256.327" x2="348.848" y2="326.294" gradientUnits="userSpaceOnUse">
<stop offset="0.0354" stop-color="#9F19AB"/>
<stop offset="0.2438" stop-color="#AE25B1"/>
<stop offset="0.6455" stop-color="#D744BF"/>
<stop offset="1" stop-color="#FF63CE"/>
</linearGradient>
<linearGradient id="paint38_linear_1317:1277" x1="336.477" y1="250.552" x2="287.374" y2="250.552" gradientUnits="userSpaceOnUse">
<stop stop-color="#9F19AB"/>
<stop offset="0.1659" stop-color="#AE25B1"/>
<stop offset="0.4855" stop-color="#D744BF"/>
<stop offset="0.7677" stop-color="#FF63CE"/>
<stop offset="0.9242" stop-color="#DC48C1"/>
</linearGradient>
<radialGradient id="paint39_radial_1317:1277" cx="0" cy="0" r="1" gradientUnits="userSpaceOnUse" gradientTransform="translate(299.823 206.063) scale(19.8516 19.8637)">
<stop stop-color="white"/>
<stop offset="0.0656" stop-color="#D8D8D8"/>
<stop offset="0.1615" stop-color="#A6A6A6"/>
<stop offset="0.2622" stop-color="#797979"/>
<stop offset="0.3658" stop-color="#545454"/>
<stop offset="0.4731" stop-color="#353535"/>
<stop offset="0.5852" stop-color="#1E1E1E"/>
<stop offset="0.7042" stop-color="#0D0D0D"/>
<stop offset="0.835" stop-color="#030303"/>
<stop offset="1"/>
</radialGradient>
<radialGradient id="paint40_radial_1317:1277" cx="0" cy="0" r="1" gradientUnits="userSpaceOnUse" gradientTransform="translate(351.184 164.928) scale(14.2833 14.292)">
<stop stop-color="white"/>
<stop offset="0.0656" stop-color="#D8D8D8"/>
<stop offset="0.1615" stop-color="#A6A6A6"/>
<stop offset="0.2622" stop-color="#797979"/>
<stop offset="0.3658" stop-color="#545454"/>
<stop offset="0.4731" stop-color="#353535"/>
<stop offset="0.5852" stop-color="#1E1E1E"/>
<stop offset="0.7042" stop-color="#0D0D0D"/>
<stop offset="0.835" stop-color="#030303"/>
<stop offset="1"/>
</radialGradient>
<radialGradient id="paint41_radial_1317:1277" cx="0" cy="0" r="1" gradientUnits="userSpaceOnUse" gradientTransform="translate(302.692 249.831) scale(46.1522 46.1805)">
<stop stop-color="white"/>
<stop offset="0.0656" stop-color="#D8D8D8"/>
<stop offset="0.1615" stop-color="#A6A6A6"/>
<stop offset="0.2622" stop-color="#797979"/>
<stop offset="0.3658" stop-color="#545454"/>
<stop offset="0.4731" stop-color="#353535"/>
<stop offset="0.5852" stop-color="#1E1E1E"/>
<stop offset="0.7042" stop-color="#0D0D0D"/>
<stop offset="0.835" stop-color="#030303"/>
<stop offset="1"/>
</radialGradient>
<radialGradient id="paint42_radial_1317:1277" cx="0" cy="0" r="1" gradientUnits="userSpaceOnUse" gradientTransform="translate(427.98 226.868) scale(49.2584 49.2886)">
<stop stop-color="white"/>
<stop offset="0.0656" stop-color="#D8D8D8"/>
<stop offset="0.1615" stop-color="#A6A6A6"/>
<stop offset="0.2622" stop-color="#797979"/>
<stop offset="0.3658" stop-color="#545454"/>
<stop offset="0.4731" stop-color="#353535"/>
<stop offset="0.5852" stop-color="#1E1E1E"/>
<stop offset="0.7042" stop-color="#0D0D0D"/>
<stop offset="0.835" stop-color="#030303"/>
<stop offset="1"/>
</radialGradient>
<linearGradient id="paint43_linear_1317:1277" x1="349.562" y1="80.76" x2="236.839" y2="295.455" gradientUnits="userSpaceOnUse">
<stop offset="0.0354" stop-color="#FFA98C"/>
<stop offset="0.3169" stop-color="#FFB892"/>
<stop offset="0.8601" stop-color="#FEE1A3"/>
<stop offset="1" stop-color="#FEECA8"/>
</linearGradient>
<linearGradient id="paint44_linear_1317:1277" x1="167.173" y1="307.786" x2="351.029" y2="307.786" gradientUnits="userSpaceOnUse">
<stop offset="0.0657" stop-color="#FCCE9E"/>
<stop offset="0.5202" stop-color="#FAC099"/>
<stop offset="0.5855" stop-color="#FFE1A6"/>
<stop offset="0.5909" stop-color="#FFE4A7"/>
<stop offset="0.609" stop-color="#FDD4A1"/>
<stop offset="0.643" stop-color="#FABD98"/>
<stop offset="0.6748" stop-color="#F8AF92"/>
<stop offset="0.702" stop-color="#F7AA90"/>
<stop offset="1" stop-color="#F9B695"/>
</linearGradient>
<linearGradient id="paint45_linear_1317:1277" x1="133.224" y1="271.228" x2="228.102" y2="249.972" gradientUnits="userSpaceOnUse">
<stop offset="0.0354" stop-color="#FFA98C"/>
<stop offset="0.3169" stop-color="#FFB892"/>
<stop offset="0.8601" stop-color="#FEE1A3"/>
<stop offset="1" stop-color="#FEECA8"/>
</linearGradient>
<linearGradient id="paint46_linear_1317:1277" x1="281.891" y1="249.467" x2="227.728" y2="249.467" gradientUnits="userSpaceOnUse">
<stop offset="0.0354" stop-color="#F7AA90"/>
<stop offset="0.2316" stop-color="#F9B996"/>
<stop offset="0.6103" stop-color="#FFE2A6"/>
<stop offset="0.6313" stop-color="#FFE4A7"/>
<stop offset="0.8737" stop-color="#F7AA90"/>
</linearGradient>
<radialGradient id="paint47_radial_1317:1277" cx="0" cy="0" r="1" gradientUnits="userSpaceOnUse" gradientTransform="translate(306.578 249.668) scale(0.135478)">
<stop stop-color="white"/>
<stop offset="0.0656" stop-color="#D8D8D8"/>
<stop offset="0.1615" stop-color="#A6A6A6"/>
<stop offset="0.2622" stop-color="#797979"/>
<stop offset="0.3658" stop-color="#545454"/>
<stop offset="0.4731" stop-color="#353535"/>
<stop offset="0.5852" stop-color="#1E1E1E"/>
<stop offset="0.7042" stop-color="#0D0D0D"/>
<stop offset="0.835" stop-color="#030303"/>
<stop offset="1"/>
</radialGradient>
<radialGradient id="paint48_radial_1317:1277" cx="0" cy="0" r="1" gradientUnits="userSpaceOnUse" gradientTransform="translate(273.199 243.188) scale(7.46903 7.47362)">
<stop stop-color="white"/>
<stop offset="0.0656" stop-color="#D8D8D8"/>
<stop offset="0.1615" stop-color="#A6A6A6"/>
<stop offset="0.2622" stop-color="#797979"/>
<stop offset="0.3658" stop-color="#545454"/>
<stop offset="0.4731" stop-color="#353535"/>
<stop offset="0.5852" stop-color="#1E1E1E"/>
<stop offset="0.7042" stop-color="#0D0D0D"/>
<stop offset="0.835" stop-color="#030303"/>
<stop offset="1"/>
</radialGradient>
<radialGradient id="paint49_radial_1317:1277" cx="0" cy="0" r="1" gradientUnits="userSpaceOnUse" gradientTransform="translate(179.049 253.388) scale(10.6726 10.6792)">
<stop stop-color="white"/>
<stop offset="0.0656" stop-color="#D8D8D8"/>
<stop offset="0.1615" stop-color="#A6A6A6"/>
<stop offset="0.2622" stop-color="#797979"/>
<stop offset="0.3658" stop-color="#545454"/>
<stop offset="0.4731" stop-color="#353535"/>
<stop offset="0.5852" stop-color="#1E1E1E"/>
<stop offset="0.7042" stop-color="#0D0D0D"/>
<stop offset="0.835" stop-color="#030303"/>
<stop offset="1"/>
</radialGradient>
<radialGradient id="paint50_radial_1317:1277" cx="0" cy="0" r="1" gradientUnits="userSpaceOnUse" gradientTransform="translate(230.513 296.827) scale(68.6032 68.6453)">
<stop stop-color="white"/>
<stop offset="0.0656" stop-color="#D8D8D8"/>
<stop offset="0.1615" stop-color="#A6A6A6"/>
<stop offset="0.2622" stop-color="#797979"/>
<stop offset="0.3658" stop-color="#545454"/>
<stop offset="0.4731" stop-color="#353535"/>
<stop offset="0.5852" stop-color="#1E1E1E"/>
<stop offset="0.7042" stop-color="#0D0D0D"/>
<stop offset="0.835" stop-color="#030303"/>
<stop offset="1"/>
</radialGradient>
<radialGradient id="paint51_radial_1317:1277" cx="0" cy="0" r="1" gradientUnits="userSpaceOnUse" gradientTransform="translate(275.784 333.795) rotate(90.648) scale(21.114 2.93781)">
<stop stop-color="#972A74"/>
<stop offset="0.0413" stop-color="#8A266A"/>
<stop offset="0.1941" stop-color="#601B4A"/>
<stop offset="0.35" stop-color="#3D112F" stop-opacity="0.8"/>
<stop offset="0.5074" stop-color="#220A1B" stop-opacity="0.6"/>
<stop offset="0.6667" stop-color="#0F040C" stop-opacity="0.4"/>
<stop offset="0.8293" stop-color="#040103" stop-opacity="0.2"/>
<stop offset="1" stop-opacity="0"/>
</radialGradient>
<radialGradient id="paint52_radial_1317:1277" cx="0" cy="0" r="1" gradientUnits="userSpaceOnUse" gradientTransform="translate(274.935 325.806) rotate(-22.3576) scale(14.4843 18.5543)">
<stop stop-color="#972A74"/>
<stop offset="0.0413" stop-color="#8A266A"/>
<stop offset="0.1941" stop-color="#601B4A"/>
<stop offset="0.35" stop-color="#3D112F"/>
<stop offset="0.5074" stop-color="#220A1B" stop-opacity="0.6"/>
<stop offset="0.6667" stop-color="#0F040C" stop-opacity="0.4"/>
<stop offset="0.807292" stop-color="#040103" stop-opacity="0.2"/>
<stop offset="1" stop-opacity="0"/>
</radialGradient>
<radialGradient id="paint53_radial_1317:1277" cx="0" cy="0" r="1" gradientUnits="userSpaceOnUse" gradientTransform="translate(274.741 356.819) scale(68.9521 68.9944)">
<stop stop-color="#FA45C1"/>
<stop offset="0.2052" stop-color="#CB389D"/>
<stop offset="0.6676" stop-color="#571843"/>
<stop offset="1"/>
</radialGradient>
<linearGradient id="paint54_linear_1317:1277" x1="11198.4" y1="2912.5" x2="10594.2" y2="2111.54" gradientUnits="userSpaceOnUse">
<stop stop-color="#C0D6FF"/>
<stop offset="0.3" stop-color="#C5DBFF"/>
<stop offset="0.65" stop-color="#D3E9FF"/>
<stop offset="1" stop-color="#E9FFFF"/>
</linearGradient>
<linearGradient id="paint55_linear_1317:1277" x1="3999.36" y1="981.177" x2="3809.05" y2="716.449" gradientUnits="userSpaceOnUse">
<stop stop-color="#C0D6FF"/>
<stop offset="0.3" stop-color="#C5DBFF"/>
<stop offset="0.65" stop-color="#D3E9FF"/>
<stop offset="1" stop-color="#E9FFFF"/>
</linearGradient>
<radialGradient id="paint56_radial_1317:1277" cx="0" cy="0" r="1" gradientUnits="userSpaceOnUse" gradientTransform="translate(86.3215 256.159) scale(56.5789 56.6136)">
<stop stop-color="#FA45C1"/>
<stop offset="0.2052" stop-color="#CB389D"/>
<stop offset="0.6676" stop-color="#571843"/>
<stop offset="1"/>
</radialGradient>
<radialGradient id="paint57_radial_1317:1277" cx="0" cy="0" r="1" gradientUnits="userSpaceOnUse" gradientTransform="translate(427.818 256.674) scale(57.4428 57.4781)">
<stop stop-color="#FA45C1"/>
<stop offset="0.2052" stop-color="#CB389D"/>
<stop offset="0.6676" stop-color="#571843"/>
<stop offset="1"/>
</radialGradient>
<linearGradient id="paint58_linear_1317:1277" x1="7245.14" y1="2270.26" x2="6749.85" y2="1738.5" gradientUnits="userSpaceOnUse">
<stop stop-color="#C0D6FF"/>
<stop offset="0.3" stop-color="#C5DBFF"/>
<stop offset="0.65" stop-color="#D3E9FF"/>
<stop offset="1" stop-color="#E9FFFF"/>
</linearGradient>
<linearGradient id="paint59_linear_1317:1277" x1="2415.83" y1="552.392" x2="2310.99" y2="401.057" gradientUnits="userSpaceOnUse">
<stop stop-color="#C0D6FF"/>
<stop offset="0.3" stop-color="#C5DBFF"/>
<stop offset="0.65" stop-color="#D3E9FF"/>
<stop offset="1" stop-color="#E9FFFF"/>
</linearGradient>
<linearGradient id="paint60_linear_1317:1277" x1="3380.5" y1="1158.82" x2="3131.36" y2="923.337" gradientUnits="userSpaceOnUse">
<stop stop-color="#C0D6FF"/>
<stop offset="0.3" stop-color="#C5DBFF"/>
<stop offset="0.65" stop-color="#D3E9FF"/>
<stop offset="1" stop-color="#E9FFFF"/>
</linearGradient>
<linearGradient id="paint61_linear_1317:1277" x1="8248.29" y1="2076.86" x2="7821.36" y2="1491.17" gradientUnits="userSpaceOnUse">
<stop stop-color="#C0D6FF"/>
<stop offset="0.3" stop-color="#C5DBFF"/>
<stop offset="0.65" stop-color="#D3E9FF"/>
<stop offset="1" stop-color="#E9FFFF"/>
</linearGradient>
<linearGradient id="paint62_linear_1317:1277" x1="3068.85" y1="931.522" x2="2874.3" y2="716.139" gradientUnits="userSpaceOnUse">
<stop stop-color="#C0D6FF"/>
<stop offset="0.3" stop-color="#C5DBFF"/>
<stop offset="0.65" stop-color="#D3E9FF"/>
<stop offset="1" stop-color="#E9FFFF"/>
</linearGradient>
<linearGradient id="paint63_linear_1317:1277" x1="11162.9" y1="2054.58" x2="10816.3" y2="1382.21" gradientUnits="userSpaceOnUse">
<stop stop-color="#C0D6FF"/>
<stop offset="0.3" stop-color="#C5DBFF"/>
<stop offset="0.65" stop-color="#D3E9FF"/>
<stop offset="1" stop-color="#E9FFFF"/>
</linearGradient>
<linearGradient id="paint64_linear_1317:1277" x1="18360.5" y1="8438.26" x2="16597.6" y2="7104.22" gradientUnits="userSpaceOnUse">
<stop stop-color="#C0D6FF"/>
<stop offset="0.3" stop-color="#C5DBFF"/>
<stop offset="0.65" stop-color="#D3E9FF"/>
<stop offset="1" stop-color="#E9FFFF"/>
</linearGradient>
<linearGradient id="paint65_linear_1317:1277" x1="694.615" y1="5683.12" x2="635.977" y2="5681.73" gradientUnits="userSpaceOnUse">
<stop stop-color="#C0D6FF"/>
<stop offset="0.3" stop-color="#C5DBFF"/>
<stop offset="0.65" stop-color="#D3E9FF"/>
<stop offset="1" stop-color="#E9FFFF"/>
</linearGradient>
<linearGradient id="paint66_linear_1317:1277" x1="575.22" y1="6714.77" x2="516.571" y2="6713.59" gradientUnits="userSpaceOnUse">
<stop stop-color="#C0D6FF"/>
<stop offset="0.3" stop-color="#C5DBFF"/>
<stop offset="0.65" stop-color="#D3E9FF"/>
<stop offset="1" stop-color="#E9FFFF"/>
</linearGradient>
<linearGradient id="paint67_linear_1317:1277" x1="22461.8" y1="8127.02" x2="20702.4" y2="6411.31" gradientUnits="userSpaceOnUse">
<stop stop-color="#C0D6FF"/>
<stop offset="0.3" stop-color="#C5DBFF"/>
<stop offset="0.65" stop-color="#D3E9FF"/>
<stop offset="1" stop-color="#E9FFFF"/>
</linearGradient>
<linearGradient id="paint68_linear_1317:1277" x1="17464.1" y1="2145.81" x2="17196.6" y2="1351.61" gradientUnits="userSpaceOnUse">
<stop stop-color="#C0D6FF"/>
<stop offset="0.3" stop-color="#C5DBFF"/>
<stop offset="0.65" stop-color="#D3E9FF"/>
<stop offset="1" stop-color="#E9FFFF"/>
</linearGradient>
<linearGradient id="paint69_linear_1317:1277" x1="13921.7" y1="1032.88" x2="13837.6" y2="621.386" gradientUnits="userSpaceOnUse">
<stop stop-color="#C0D6FF"/>
<stop offset="0.3" stop-color="#C5DBFF"/>
<stop offset="0.65" stop-color="#D3E9FF"/>
<stop offset="1" stop-color="#E9FFFF"/>
</linearGradient>
<linearGradient id="paint70_linear_1317:1277" x1="10855.5" y1="2914.83" x2="10234.8" y2="2119.31" gradientUnits="userSpaceOnUse">
<stop stop-color="#C0D6FF"/>
<stop offset="0.3" stop-color="#C5DBFF"/>
<stop offset="0.65" stop-color="#D3E9FF"/>
<stop offset="1" stop-color="#E9FFFF"/>
</linearGradient>
<linearGradient id="paint71_linear_1317:1277" x1="5839.25" y1="1542.18" x2="5514.14" y2="1121.83" gradientUnits="userSpaceOnUse">
<stop stop-color="#C0D6FF"/>
<stop offset="0.3" stop-color="#C5DBFF"/>
<stop offset="0.65" stop-color="#D3E9FF"/>
<stop offset="1" stop-color="#E9FFFF"/>
</linearGradient>
<linearGradient id="paint72_linear_1317:1277" x1="2465.98" y1="1313.26" x2="2217.03" y2="1144.19" gradientUnits="userSpaceOnUse">
<stop stop-color="#C0D6FF"/>
<stop offset="0.3" stop-color="#C5DBFF"/>
<stop offset="0.65" stop-color="#D3E9FF"/>
<stop offset="1" stop-color="#E9FFFF"/>
</linearGradient>
<linearGradient id="paint73_linear_1317:1277" x1="2476.5" y1="2055.78" x2="2166.87" y2="1926.31" gradientUnits="userSpaceOnUse">
<stop stop-color="#C0D6FF"/>
<stop offset="0.3" stop-color="#C5DBFF"/>
<stop offset="0.65" stop-color="#D3E9FF"/>
<stop offset="1" stop-color="#E9FFFF"/>
</linearGradient>
<linearGradient id="paint74_linear_1317:1277" x1="2487.01" y1="2797.56" x2="2153.68" y2="2696.84" gradientUnits="userSpaceOnUse">
<stop stop-color="#C0D6FF"/>
<stop offset="0.3" stop-color="#C5DBFF"/>
<stop offset="0.65" stop-color="#D3E9FF"/>
<stop offset="1" stop-color="#E9FFFF"/>
</linearGradient>
</defs>
</svg>
