<svg width="770" height="693" viewBox="0 0 770 693" fill="none" xmlns="http://www.w3.org/2000/svg">
<g clip-path="url(#clip0)">
<path d="M614.804 269L615 325.717L561.185 342L561 285.295L614.804 269Z" fill="#8DC63F"/>
<path d="M561 342L525.2 315.876L525 259L560.812 285.124L561 342Z" fill="#537133"/>
<path d="M560.587 285L525 258.848L577.721 243L615 268.639L560.587 285Z" fill="#B6D18A"/>
<path d="M614.802 268.649L577.605 243L525 258.854L525.198 315.814L560.73 342L615 325.621L614.802 268.649Z" fill="url(#paint0_linear)"/>
<path d="M555.815 286L556 342.705L502.196 359L502 302.283L555.815 286Z" fill="#83D0F4"/>
<path d="M502 359L466.2 332.88L466 276L501.8 302.12L502 359Z" fill="#3C69A2"/>
<path d="M501.575 302L466 275.848L518.721 260L556 285.65L501.575 302Z" fill="#5EA9D7"/>
<path d="M555.814 285.661L518.612 260L466 275.854L466.198 332.826L501.734 359L556 342.621L555.814 285.661Z" fill="url(#paint1_linear)"/>
<path d="M496.8 300L497 356.705L442.2 373L442 316.295L496.8 300Z" fill="#8DC63F"/>
<path d="M443 373L407.2 346.876L407 290L442.8 316.124L443 373Z" fill="#537133"/>
<path d="M442.575 316L407 289.848L459.721 274L497 299.639L442.575 316Z" fill="#B6D18A"/>
<path d="M496.802 299.652L459.605 274L407 289.856L407.198 346.823L442.73 373L497 356.619L496.802 299.652Z" fill="url(#paint2_linear)"/>
<path d="M596.815 316L597 372.708L543.196 389L543 332.292L596.815 316Z" fill="#8DC63F"/>
<path d="M543 389L507.2 362.88L507 306L542.8 332.12L543 389Z" fill="#537133"/>
<path d="M542.575 332L507 305.848L559.721 290L597 315.639L542.575 332Z" fill="#B6D18A"/>
<path d="M596.814 315.649L559.612 290L507 305.854L507.198 362.826L542.734 389L597 372.621L596.814 315.649Z" fill="url(#paint3_linear)"/>
<path d="M537.8 335L538 391.705L483.2 408L483 351.283L537.8 335Z" fill="#83D0F4"/>
<path d="M484 408L448.2 381.88L448 325L483.8 351.12L484 408Z" fill="#3C69A2"/>
<path d="M483.575 351L448 324.848L500.721 309L538 334.65L483.575 351Z" fill="#5EA9D7"/>
<path d="M537.802 334.661L500.605 309L448 324.854L448.198 381.826L483.73 408L538 391.621L537.802 334.661Z" fill="url(#paint4_linear)"/>
<path d="M768.815 518L769 574.717L715.185 591L715 534.295L768.815 518Z" fill="#8DC63F"/>
<path d="M715 591L679.188 564.876L679 508L714.812 534.124L715 591Z" fill="#537133"/>
<path d="M714.575 534L679 507.848L731.721 492L769 517.639L714.575 534Z" fill="#B6D18A"/>
<path d="M768.814 517.652L731.612 492L679 507.856L679.186 564.823L714.734 591L769 574.63L768.814 517.652Z" fill="url(#paint5_linear)"/>
<path d="M635.8 348L636 404.705L581.2 421L581 364.283L635.8 348Z" fill="#83D0F4"/>
<path d="M582 421L546.2 394.88L546 338L581.8 364.12L582 421Z" fill="#3C69A2"/>
<path d="M581.575 364L546 337.848L598.721 322L636 347.65L581.575 364Z" fill="#5EA9D7"/>
<path d="M635.802 347.661L598.605 322L546 337.854L546.198 394.826L581.73 421L636 404.621L635.802 347.661Z" fill="url(#paint6_linear)"/>
<path d="M532.943 27L533 43.3134L517.057 48L517 31.6866L532.943 27Z" fill="#83D0F4"/>
<path d="M517 48L506.06 40.4407L506 24L516.94 31.5593L517 48Z" fill="#3C69A2"/>
<path d="M516.675 31L506 23.5251L521.819 19L533 26.3296L516.675 31Z" fill="#5EA9D7"/>
<path d="M532.941 26.5223L521.785 19L506 23.6441L506.059 40.3286L516.723 48L533 43.2068L532.941 26.5223Z" fill="url(#paint7_linear)"/>
<path d="M614.804 205L615 261.717L561.185 278L561 221.295L614.804 205Z" fill="#83D0F4"/>
<path d="M561 278L525.2 251.876L525 195L560.812 221.124L561 278Z" fill="#3C69A2"/>
<path d="M560.587 221L525 194.848L577.721 179L615 204.639L560.587 221Z" fill="#5EA9D7"/>
<path d="M614.802 204.652L577.605 179L525 194.856L525.198 251.823L560.73 278L615 261.63L614.802 204.652Z" fill="url(#paint8_linear)"/>
<path d="M555.815 222L556 278.708L502.196 295L502 238.292L555.815 222Z" fill="#83D0F4"/>
<path d="M502 295L466.2 268.88L466 212L501.8 238.12L502 295Z" fill="#3C69A2"/>
<path d="M501.575 238L466 211.848L518.721 196L556 221.639L501.575 238Z" fill="#5EA9D7"/>
<path d="M555.814 221.649L518.612 196L466 211.854L466.198 268.826L501.734 295L556 278.621L555.814 221.649Z" fill="url(#paint9_linear)"/>
<path d="M656.804 234L657 290.705L603.185 307L603 250.295L656.804 234Z" fill="#83D0F4"/>
<path d="M603 307L567.188 280.88L567 224L602.812 250.132L603 307Z" fill="#3C69A2"/>
<path d="M602.58 250L567 223.843L619.716 208L657 233.643L602.58 250Z" fill="#5EA9D7"/>
<path d="M656.802 233.661L619.6 208L567 223.854L567.186 280.826L602.723 307L657 290.621L656.802 233.661Z" fill="url(#paint10_linear)"/>
<path d="M595.804 252L596 308.717L542.185 325L542 268.295L595.804 252Z" fill="#537133"/>
<path d="M542 325L506.188 298.876L506 242L541.812 268.124L542 325Z" fill="#0B886D"/>
<path d="M541.58 268L506 241.848L558.716 226L596 251.639L541.58 268Z" fill="#A6DAD0"/>
<path d="M595.802 251.649L558.6 226L506 241.854L506.186 298.814L541.723 325L596 308.621L595.802 251.649Z" fill="url(#paint11_linear)"/>
<path d="M759.815 306L760 362.705L706.185 379L706 322.283L759.815 306Z" fill="#8DC63F"/>
<path d="M706 379L670.188 352.88L670 296L705.812 322.12L706 379Z" fill="#537133"/>
<path d="M705.575 322L670 295.848L722.721 280L760 305.65L705.575 322Z" fill="#B6D18A"/>
<path d="M759.814 305.661L722.612 280L670 295.854L670.186 352.826L705.723 379L760 362.621L759.814 305.661Z" fill="url(#paint12_linear)"/>
<path d="M649.907 322L650 349.191L624.093 357L624 329.809L649.907 322Z" fill="#83D0F4"/>
<path d="M624 357L607.081 344.733L607 318L623.907 330.278L624 357Z" fill="#3C69A2"/>
<path d="M623.997 330L607 317.542L632.186 310L650 322.214L623.997 330Z" fill="#5EA9D7"/>
<path d="M649.907 322.182L632.132 310L607 317.522L607.081 344.575L624.065 357L650 349.223L649.907 322.182Z" fill="url(#paint13_linear)"/>
<path d="M609.919 320L610 347.194L584.093 355L584 327.818L609.919 320Z" fill="#83D0F4"/>
<path d="M584 355L567.093 342.722L567 316L583.907 328.278L584 355Z" fill="#3C69A2"/>
<path d="M583.992 328L567 315.542L592.191 308L610 320.202L583.992 328Z" fill="#5EA9D7"/>
<path d="M609.919 320.173L592.144 308L567 315.524L567.093 342.572L584.077 355L610 347.232L609.919 320.173Z" fill="url(#paint14_linear)"/>
<path d="M537.815 271L538 327.717L484.185 344L484 287.295L537.815 271Z" fill="#3C69A2"/>
<path d="M484 344L448.188 317.876L448 261L483.812 287.124L484 344Z" fill="#1A4683"/>
<path d="M483.575 287L448 260.848L500.721 245L538 270.639L483.575 287Z" fill="#4381C3"/>
<path d="M537.814 270.652L500.612 245L448 260.856L448.186 317.823L483.734 344L538 327.63L537.814 270.652Z" fill="url(#paint15_linear)"/>
<path d="M395.885 369L396 403.175L364.115 413L364 378.813L395.885 369Z" fill="#3C69A2"/>
<path d="M364 413L343.115 397.262L343 363L363.885 378.738L364 413Z" fill="#1A4683"/>
<path d="M363.953 379L343 363.428L374.042 354L396 369.269L363.953 379Z" fill="#4381C3"/>
<path d="M395.885 369.291L373.974 354L343 363.441L343.115 397.393L364.034 413L396 403.231L395.885 369.291Z" fill="url(#paint16_linear)"/>
<path d="M614.815 128L615 184.705L561.185 201L561 144.295L614.815 128Z" fill="#3C69A2"/>
<path d="M561 201L525.188 174.88L525 118L560.812 144.132L561 201Z" fill="#1A4683"/>
<path d="M560.575 144L525 117.843L577.709 102L615 127.643L560.575 144Z" fill="#4381C3"/>
<path d="M614.814 127.661L577.6 102L525 117.854L525.186 174.826L560.723 201L615 184.621L614.814 127.661Z" fill="url(#paint17_linear)"/>
<path d="M577.804 301L578 357.705L524.185 374L524 317.295L577.804 301Z" fill="#F99F1E"/>
<path d="M524 374L488.188 347.88L488 291L523.812 317.132L524 374Z" fill="#D77E28"/>
<path d="M523.58 317L488 290.843L540.716 275L578 300.643L523.58 317Z" fill="#FCB31E"/>
<path d="M577.802 300.661L540.6 275L488 290.854L488.186 347.826L523.723 374L578 357.621L577.802 300.661Z" fill="url(#paint18_linear)"/>
<path d="M555.804 159L556 215.708L502.185 232L502 175.292L555.804 159Z" fill="#F99F1E"/>
<path d="M502 232L466.2 205.88L466 149L501.812 175.12L502 232Z" fill="#D77E28"/>
<path d="M501.587 175L466 148.848L518.721 133L556 158.639L501.587 175Z" fill="#FCB31E"/>
<path d="M555.802 158.649L518.605 133L466 148.854L466.198 205.826L501.73 232L556 215.621L555.802 158.649Z" fill="url(#paint19_linear)"/>
<path d="M596.815 187L597 243.717L543.196 260L543 203.295L596.815 187Z" fill="#83D0F4"/>
<path d="M543 260L507.2 233.876L507 177L542.8 203.124L543 260Z" fill="#3C69A2"/>
<path d="M542.575 203L507 176.848L559.721 161L597 186.639L542.575 203Z" fill="#5EA9D7"/>
<path d="M596.814 186.652L559.612 161L507 176.856L507.198 233.823L542.734 260L597 243.63L596.814 186.652Z" fill="url(#paint20_linear)"/>
<path d="M638.8 218L639 274.708L584.2 291L584 234.292L638.8 218Z" fill="#3C69A2"/>
<path d="M585 291L549.2 264.868L549 208L584.8 234.12L585 291Z" fill="#1A4683"/>
<path d="M584.575 234L549 207.848L601.721 192L639 217.639L584.575 234Z" fill="#4381C3"/>
<path d="M638.802 217.649L601.605 192L549 207.854L549.198 264.814L584.73 291L639 274.621L638.802 217.649Z" fill="url(#paint21_linear)"/>
<path d="M511.907 240L512 269.519L484.105 278L484 248.481L511.907 240Z" fill="#83D0F4"/>
<path d="M484 278L466.103 264.464L466 235L483.897 248.536L484 278Z" fill="#3C69A2"/>
<path d="M484.179 249L466 235.304L492.948 227L512 240.434L484.179 249Z" fill="#5EA9D7"/>
<path d="M511.907 240.22L492.893 227L466 235.171L466.105 264.51L484.258 278L512 269.559L511.907 240.22Z" fill="url(#paint22_linear)"/>
<path d="M519.907 193L520 222.521L492.093 231L492 201.479L519.907 193Z" fill="#8DC63F"/>
<path d="M492 231L474.092 217.464L474 188L491.908 201.524L492 231Z" fill="#537133"/>
<path d="M492.183 202L474 188.308L500.943 180L520 193.429L492.183 202Z" fill="#B6D18A"/>
<path d="M519.907 193.211L500.889 180L474 188.173L474.093 217.519L492.263 231L520 222.568L519.907 193.211Z" fill="url(#paint23_linear)"/>
<path d="M579.8 237L580 293.708L525.2 310L525 253.292L579.8 237Z" fill="#83D0F4"/>
<path d="M526 310L490.188 283.868L490 227L525.8 253.12L526 310Z" fill="#3C69A2"/>
<path d="M525.568 253L490 226.848L542.716 211L580 236.639L525.568 253Z" fill="#5EA9D7"/>
<path d="M579.802 236.649L542.6 211L490 226.854L490.186 283.814L525.723 310L580 293.621L579.802 236.649Z" fill="url(#paint24_linear)"/>
<path d="M464.757 447L465 520.799L395.243 542L395 468.201L464.757 447Z" fill="#83D0F4"/>
<path d="M395 542L349.244 508L349 434L394.756 467.988L395 542Z" fill="#3C69A2"/>
<path d="M394.86 468L349 434.373L416.951 414L465 446.964L394.86 468Z" fill="#5EA9D7"/>
<path d="M464.756 447.163L416.808 414L349 434.496L349.244 508.148L395.054 542L465 520.826L464.756 447.163Z" fill="url(#paint25_linear)"/>
<path d="M701.901 133L751 165.472L637 204" stroke="url(#paint26_linear)" stroke-miterlimit="10"/>
<path d="M639.699 206.364C641.326 206.052 642.477 204.92 642.269 203.835C642.061 202.75 640.574 202.123 638.946 202.435C637.319 202.747 636.169 203.879 636.376 204.964C636.584 206.049 638.072 206.676 639.699 206.364Z" fill="#70ACDE"/>
<path d="M649.699 377.364C651.326 377.052 652.477 375.92 652.269 374.835C652.061 373.75 650.574 373.123 648.946 373.435C647.319 373.747 646.169 374.879 646.376 375.964C646.584 377.049 648.072 377.676 649.699 377.364Z" fill="#70ACDE"/>
<path opacity="0.46" d="M532.699 425.364C534.326 425.052 535.477 423.92 535.269 422.835C535.061 421.75 533.574 421.123 531.946 421.435C530.319 421.747 529.169 422.879 529.376 423.964C529.584 425.049 531.072 425.676 532.699 425.364Z" fill="#70ACDE"/>
<path opacity="0.46" d="M442.699 243.364C444.326 243.052 445.477 241.92 445.269 240.835C445.061 239.75 443.574 239.123 441.946 239.435C440.319 239.747 439.169 240.879 439.376 241.964C439.584 243.049 441.072 243.676 442.699 243.364Z" fill="#70ACDE"/>
<path d="M592.378 294.686C594.027 294.524 595.276 293.501 595.167 292.402C595.059 291.302 593.634 290.543 591.985 290.706C590.337 290.868 589.088 291.891 589.196 292.99C589.305 294.09 590.729 294.849 592.378 294.686Z" fill="#70ACDE"/>
<path opacity="0.37" d="M662.699 275.364C664.327 275.052 665.477 273.92 665.269 272.835C665.061 271.75 663.574 271.123 661.946 271.435C660.319 271.747 659.169 272.879 659.376 273.964C659.584 275.049 661.072 275.676 662.699 275.364Z" fill="#70ACDE"/>
<path d="M465 489L569 452.606L533.342 424" stroke="url(#paint27_linear)" stroke-miterlimit="10"/>
<path d="M746 448L701.13 414.793L614.876 443.035L615.643 311.254L592 293" stroke="url(#paint28_linear)" stroke-miterlimit="10"/>
<path d="M396 384L411.765 378.429V251.85L443 241" stroke="url(#paint29_linear)" stroke-miterlimit="10"/>
<path d="M523 47L523.641 104.666L591.267 84.3985L722 183.3V255.554L664.855 273" stroke="url(#paint30_linear)" stroke-miterlimit="10"/>
<path d="M307 172L384.029 226.546L428.721 211.203L452 227" stroke="url(#paint31_linear)" stroke-miterlimit="10"/>
<path d="M684 366L650 376" stroke="url(#paint32_linear)" stroke-miterlimit="10"/>
<path d="M628.767 482L506 523.454L755 704" stroke="url(#paint33_linear)" stroke-miterlimit="10"/>
<path d="M339 316L183.919 370.309L315.931 477.428L47 586" stroke="url(#paint34_linear)" stroke-miterlimit="10"/>
<path d="M732.815 66L733 122.708L679.185 139L679 82.2919L732.815 66Z" fill="#F99F1E"/>
<path d="M679 139L643.188 112.88L643 56L678.812 82.1204L679 139Z" fill="#D77E28"/>
<path d="M678.575 82L643 55.8477L695.721 40L733 65.6388L678.575 82Z" fill="#FCB31E"/>
<path d="M732.814 65.6489L695.612 40L643 55.854L643.186 112.826L678.734 139L733 122.621L732.814 65.6489Z" fill="url(#paint35_linear)"/>
<path d="M324.896 138L325 168.297L296.093 177L296 146.703L324.896 138Z" fill="#F99F1E"/>
<path d="M296 177L277.093 162.839L277 132L295.907 146.161L296 177Z" fill="#D77E28"/>
<path d="M295.979 146L277 132.304L305.113 124L325 137.433L295.979 146Z" fill="#FCB31E"/>
<path d="M324.896 137.735L305.052 124L277 132.491L277.093 162.985L296.054 177L325 168.229L324.896 137.735Z" fill="url(#paint36_linear)"/>
</g>
<defs>
<linearGradient id="paint0_linear" x1="575.159" y1="367.165" x2="567.985" y2="263.761" gradientUnits="userSpaceOnUse">
<stop stop-color="#8DC63F"/>
<stop offset="1" stop-color="#7CC5ED" stop-opacity="0"/>
</linearGradient>
<linearGradient id="paint1_linear" x1="516.165" y1="384.158" x2="508.978" y2="280.762" gradientUnits="userSpaceOnUse">
<stop stop-color="#76C693"/>
<stop offset="1" stop-color="#7CC5ED" stop-opacity="0"/>
</linearGradient>
<linearGradient id="paint2_linear" x1="51315.5" y1="1119.46" x2="47617.5" y2="-6699.8" gradientUnits="userSpaceOnUse">
<stop stop-color="#8DC63F"/>
<stop offset="1" stop-color="#7CC5ED" stop-opacity="0"/>
</linearGradient>
<linearGradient id="paint3_linear" x1="59144.7" y1="-404.979" x2="55447.7" y2="-8224.36" gradientUnits="userSpaceOnUse">
<stop stop-color="#8DC63F"/>
<stop offset="1" stop-color="#7CC5ED" stop-opacity="0"/>
</linearGradient>
<linearGradient id="paint4_linear" x1="498.16" y1="433.159" x2="490.976" y2="329.752" gradientUnits="userSpaceOnUse">
<stop stop-color="#70ACDE"/>
<stop offset="1" stop-color="#7CC5ED" stop-opacity="0"/>
</linearGradient>
<linearGradient id="paint5_linear" x1="729.148" y1="616.185" x2="721.962" y2="512.766" gradientUnits="userSpaceOnUse">
<stop stop-color="#8DC63F"/>
<stop offset="1" stop-color="#8ECEF1" stop-opacity="0"/>
</linearGradient>
<linearGradient id="paint6_linear" x1="596.151" y1="446.162" x2="588.978" y2="342.759" gradientUnits="userSpaceOnUse">
<stop stop-color="#70ACDE"/>
<stop offset="1" stop-color="#7CC5ED" stop-opacity="0"/>
</linearGradient>
<linearGradient id="paint7_linear" x1="14565.4" y1="-8300.81" x2="14247.3" y2="-8989.87" gradientUnits="userSpaceOnUse">
<stop stop-color="#70ACDE"/>
<stop offset="1" stop-color="#7CC5ED" stop-opacity="0"/>
</linearGradient>
<linearGradient id="paint8_linear" x1="57643.5" y1="-9915.04" x2="53946.5" y2="-17734.4" gradientUnits="userSpaceOnUse">
<stop stop-color="#76C693"/>
<stop offset="1" stop-color="#7CC5ED" stop-opacity="0"/>
</linearGradient>
<linearGradient id="paint9_linear" x1="53693.8" y1="-6835.97" x2="49996.8" y2="-14655.3" gradientUnits="userSpaceOnUse">
<stop stop-color="#76C693"/>
<stop offset="1" stop-color="#7CC5ED" stop-opacity="0"/>
</linearGradient>
<linearGradient id="paint10_linear" x1="617.166" y1="332.17" x2="609.983" y2="228.763" gradientUnits="userSpaceOnUse">
<stop stop-color="#5EA9D7"/>
<stop offset="1" stop-color="#7CC5ED" stop-opacity="0"/>
</linearGradient>
<linearGradient id="paint11_linear" x1="556.163" y1="350.159" x2="548.98" y2="246.752" gradientUnits="userSpaceOnUse">
<stop stop-color="#8DC63F"/>
<stop offset="1" stop-color="#8DC63F" stop-opacity="0"/>
</linearGradient>
<linearGradient id="paint12_linear" x1="70935.7" y1="-5748.11" x2="67237.7" y2="-13567.4" gradientUnits="userSpaceOnUse">
<stop stop-color="#8DC63F"/>
<stop offset="1" stop-color="#7CC5ED" stop-opacity="0"/>
</linearGradient>
<linearGradient id="paint13_linear" x1="30650.2" y1="-2709.75" x2="29814.1" y2="-4488.7" gradientUnits="userSpaceOnUse">
<stop stop-color="#70ACDE"/>
<stop offset="1" stop-color="#7CC5ED" stop-opacity="0"/>
</linearGradient>
<linearGradient id="paint14_linear" x1="29168.9" y1="-2226.24" x2="28333.2" y2="-4005.24" gradientUnits="userSpaceOnUse">
<stop stop-color="#70ACDE"/>
<stop offset="1" stop-color="#7CC5ED" stop-opacity="0"/>
</linearGradient>
<linearGradient id="paint15_linear" x1="498.166" y1="369.166" x2="490.977" y2="265.758" gradientUnits="userSpaceOnUse">
<stop stop-color="#2B3990" stop-opacity="0.4"/>
<stop offset="1" stop-color="#7CC5ED" stop-opacity="0"/>
</linearGradient>
<linearGradient id="paint16_linear" x1="27179" y1="3719.36" x2="25858.9" y2="960.799" gradientUnits="userSpaceOnUse">
<stop stop-color="#2B3990" stop-opacity="0.4"/>
<stop offset="1" stop-color="#7CC5ED" stop-opacity="0"/>
</linearGradient>
<linearGradient id="paint17_linear" x1="55648.2" y1="-16128.1" x2="51950.2" y2="-23947.3" gradientUnits="userSpaceOnUse">
<stop stop-color="#2B3990" stop-opacity="0.4"/>
<stop offset="1" stop-color="#7CC5ED" stop-opacity="0"/>
</linearGradient>
<linearGradient id="paint18_linear" x1="538.159" y1="399.162" x2="530.975" y2="295.754" gradientUnits="userSpaceOnUse">
<stop stop-color="#F15A29"/>
<stop offset="1" stop-color="#FBB040" stop-opacity="0"/>
</linearGradient>
<linearGradient id="paint19_linear" x1="52083.7" y1="-12018.3" x2="48386.7" y2="-19837.6" gradientUnits="userSpaceOnUse">
<stop stop-color="#F15A29"/>
<stop offset="1" stop-color="#FBB040" stop-opacity="0"/>
</linearGradient>
<linearGradient id="paint20_linear" x1="55869.6" y1="-10826" x2="52171.6" y2="-18645.3" gradientUnits="userSpaceOnUse">
<stop stop-color="#76C693"/>
<stop offset="1" stop-color="#7CC5ED" stop-opacity="0"/>
</linearGradient>
<linearGradient id="paint21_linear" x1="59710.5" y1="-9516.93" x2="56013.5" y2="-17336.3" gradientUnits="userSpaceOnUse">
<stop stop-color="#2B3990" stop-opacity="0.4"/>
<stop offset="1" stop-color="#7CC5ED" stop-opacity="0"/>
</linearGradient>
<linearGradient id="paint22_linear" x1="26386.1" y1="-4261" x2="25405.6" y2="-6318.24" gradientUnits="userSpaceOnUse">
<stop stop-color="#70ACDE"/>
<stop offset="1" stop-color="#7CC5ED" stop-opacity="0"/>
</linearGradient>
<linearGradient id="paint23_linear" x1="499.64" y1="243.989" x2="495.913" y2="190.718" gradientUnits="userSpaceOnUse">
<stop stop-color="#8DC63F"/>
<stop offset="1" stop-color="#D7DF23" stop-opacity="0"/>
</linearGradient>
<linearGradient id="paint24_linear" x1="55830.1" y1="-6340.82" x2="52132.1" y2="-14160.1" gradientUnits="userSpaceOnUse">
<stop stop-color="#70ACDE"/>
<stop offset="1" stop-color="#7CC5ED" stop-opacity="0"/>
</linearGradient>
<linearGradient id="paint25_linear" x1="67694" y1="21418.8" x2="61505.8" y2="8374.22" gradientUnits="userSpaceOnUse">
<stop stop-color="#5EA9D7"/>
<stop offset="1" stop-color="#7CC5ED" stop-opacity="0"/>
</linearGradient>
<linearGradient id="paint26_linear" x1="64896.5" y1="10423" x2="76178" y2="10423" gradientUnits="userSpaceOnUse">
<stop stop-color="#70ACDE"/>
<stop offset="1" stop-color="#7CC5ED" stop-opacity="0"/>
</linearGradient>
<linearGradient id="paint27_linear" x1="43679.1" y1="25919.6" x2="53072.4" y2="25919.6" gradientUnits="userSpaceOnUse">
<stop stop-color="#70ACDE"/>
<stop offset="1" stop-color="#7CC5ED" stop-opacity="0"/>
</linearGradient>
<linearGradient id="paint28_linear" x1="81338.8" y1="49674.4" x2="101844" y2="49674.4" gradientUnits="userSpaceOnUse">
<stop stop-color="#70ACDE"/>
<stop offset="1" stop-color="#7CC5ED" stop-opacity="0"/>
</linearGradient>
<linearGradient id="paint29_linear" x1="17152" y1="38649.4" x2="19045.6" y2="38649.4" gradientUnits="userSpaceOnUse">
<stop stop-color="#70ACDE"/>
<stop offset="1" stop-color="#7CC5ED" stop-opacity="0"/>
</linearGradient>
<linearGradient id="paint30_linear" x1="93099.8" y1="31180.8" x2="127304" y2="31180.8" gradientUnits="userSpaceOnUse">
<stop stop-color="#70ACDE"/>
<stop offset="1" stop-color="#7CC5ED" stop-opacity="0"/>
</linearGradient>
<linearGradient id="paint31_linear" x1="40899.8" y1="9612.75" x2="59019" y2="9612.75" gradientUnits="userSpaceOnUse">
<stop stop-color="#70ACDE"/>
<stop offset="1" stop-color="#7CC5ED" stop-opacity="0"/>
</linearGradient>
<linearGradient id="paint32_linear" x1="20196.3" y1="3550.3" x2="21195.5" y2="3550.3" gradientUnits="userSpaceOnUse">
<stop stop-color="#70ACDE"/>
<stop offset="1" stop-color="#7CC5ED" stop-opacity="0"/>
</linearGradient>
<linearGradient id="paint33_linear" x1="112521" y1="113440" x2="166183" y2="113440" gradientUnits="userSpaceOnUse">
<stop stop-color="#70ACDE"/>
<stop offset="1" stop-color="#7CC5ED" stop-opacity="0"/>
</linearGradient>
<linearGradient id="paint34_linear" x1="16518.7" y1="104987" x2="89769.8" y2="104987" gradientUnits="userSpaceOnUse">
<stop stop-color="#70ACDE"/>
<stop offset="1" stop-color="#7CC5ED" stop-opacity="0"/>
</linearGradient>
<linearGradient id="paint35_linear" x1="62811.4" y1="-24553.6" x2="59114.4" y2="-32373" gradientUnits="userSpaceOnUse">
<stop stop-color="#F15A29"/>
<stop offset="1" stop-color="#FBB040" stop-opacity="0"/>
</linearGradient>
<linearGradient id="paint36_linear" x1="18631.7" y1="-6025.59" x2="17570.1" y2="-8262.59" gradientUnits="userSpaceOnUse">
<stop stop-color="#F15A29"/>
<stop offset="1" stop-color="#FBB040" stop-opacity="0"/>
</linearGradient>
<clipPath id="clip0">
<rect width="770" height="693" fill="white"/>
</clipPath>
</defs>
</svg>
