<svg width="27" height="27" viewBox="0 0 27 27" fill="none" xmlns="http://www.w3.org/2000/svg">
<path d="M5.60481 8.09683C6.96426 8.09683 8.06631 6.99478 8.06631 5.63533C8.06631 4.27588 6.96426 3.17383 5.60481 3.17383C4.24536 3.17383 3.14331 4.27588 3.14331 5.63533C3.14331 6.99478 4.24536 8.09683 5.60481 8.09683Z" fill="#4346DE"/>
<path d="M10.391 9.96177V23.6181H14.6311V16.8648C14.6311 15.0828 14.9663 13.357 17.1758 13.357C19.355 13.357 19.382 15.3944 19.382 16.9773V23.6193H23.6243V16.1301C23.6243 12.4514 22.8323 9.62427 18.5326 9.62427C16.4682 9.62427 15.0845 10.7571 14.5186 11.8293H14.4612V9.96177H10.391ZM3.4812 9.96177H7.72808V23.6181H3.4812V9.96177Z" fill="#4346DE"/>
</svg>
