<svg width="130" height="39" viewBox="0 0 130 39" fill="none" xmlns="http://www.w3.org/2000/svg">
<path d="M10.0116 30.6667C9.39247 30.6667 8.96823 30.3778 8.73896 29.8L1.06879 8.36667L1 8C1 7.8222 1.06879 7.66667 1.20637 7.53333C1.34395 7.4 1.50446 7.33333 1.68791 7.33333H3.47647C3.91214 7.33333 4.2217 7.53333 4.40514 7.93333L11.1122 26.8333L17.8537 7.93333C17.8996 7.8 18.0028 7.66667 18.1633 7.53333C18.3238 7.4 18.5187 7.33333 18.748 7.33333H20.5366C20.72 7.33333 20.8805 7.4 21.0181 7.53333C21.1786 7.66667 21.2589 7.8222 21.2589 8L21.1901 8.36667L13.4855 29.8C13.2562 30.3778 12.8435 30.6667 12.2473 30.6667H10.0116ZM29.6263 30.6667C29.397 30.6667 29.2022 30.6 29.0416 30.4667C28.904 30.3111 28.8352 30.1222 28.8352 29.9V8.13333C28.8352 7.88886 28.904 7.7 29.0416 7.56667C29.2022 7.41114 29.397 7.33333 29.6263 7.33333H43.8316C44.061 7.33333 44.2444 7.41114 44.3819 7.56667C44.5425 7.7 44.6227 7.88886 44.6227 8.13333V9.4C44.6227 9.6222 44.5539 9.81114 44.4163 9.96667C44.2788 10.1 44.0839 10.1667 43.8316 10.1667H32.1372V17.4667H43.0749C43.3043 17.4667 43.4877 17.5445 43.6252 17.7C43.7858 17.8333 43.866 18.0222 43.866 18.2667V19.5C43.866 19.7222 43.7858 19.9111 43.6252 20.0667C43.4877 20.2 43.3043 20.2667 43.0749 20.2667H32.1372V27.8333H44.1068C44.359 27.8333 44.5539 27.9 44.6915 28.0333C44.8291 28.1667 44.8979 28.3555 44.8979 28.6V29.9C44.8979 30.1222 44.8177 30.3111 44.6571 30.4667C44.5195 30.6 44.3361 30.6667 44.1068 30.6667H29.6263ZM53.9248 30.6667C53.6955 30.6667 53.5006 30.6 53.3401 30.4667C53.2025 30.3111 53.1337 30.1222 53.1337 29.9V8.13333C53.1337 7.88886 53.2025 7.7 53.3401 7.56667C53.5006 7.41114 53.6955 7.33333 53.9248 7.33333H62.3172C64.9543 7.33333 67.018 7.93333 68.5084 9.13333C69.9989 10.3333 70.7441 12.0667 70.7441 14.3333C70.7441 16.0222 70.3085 17.4111 69.4371 18.5C68.5887 19.5889 67.3849 20.3445 65.8256 20.7667L71.1225 29.6333C71.1912 29.7667 71.2256 29.8889 71.2256 30C71.2256 30.1778 71.1454 30.3333 70.9849 30.4667C70.8473 30.6 70.6868 30.6667 70.5033 30.6667H68.8524C68.5084 30.6667 68.2332 30.5889 68.0269 30.4333C67.8435 30.2778 67.6715 30.0555 67.5109 29.7667L62.5236 21.3H56.5044V29.9C56.5044 30.1222 56.4242 30.3111 56.2637 30.4667C56.1032 30.6 55.9083 30.6667 55.6789 30.6667H53.9248ZM62.1797 18.4667C65.5963 18.4667 67.3046 17.0778 67.3046 14.3C67.3046 11.5222 65.5963 10.1333 62.1797 10.1333H56.5044V18.4667H62.1797ZM86.8508 31C84.9474 31 83.2964 30.7111 81.8979 30.1333C80.5221 29.5555 79.4668 28.8 78.7335 27.8667C77.9995 26.9111 77.6097 25.8889 77.5638 24.8C77.5638 24.6222 77.6326 24.4667 77.7702 24.3333C77.9307 24.1778 78.1144 24.1 78.3208 24.1H80.0749C80.5104 24.1 80.8082 24.3222 80.9692 24.7667C81.1756 25.7 81.7603 26.5 82.7234 27.1667C83.7091 27.8333 85.0849 28.1667 86.8508 28.1667C88.7535 28.1667 90.1872 27.8445 91.1503 27.2C92.1133 26.5333 92.5949 25.6111 92.5949 24.4333C92.5949 23.6778 92.3541 23.0667 91.8726 22.6C91.4137 22.1333 90.7258 21.7222 89.8088 21.3667C88.8911 21.0111 87.5153 20.5667 85.6814 20.0333C83.8928 19.5445 82.4709 19.0222 81.4164 18.4667C80.3611 17.9111 79.57 17.2222 79.0431 16.4C78.5154 15.5778 78.252 14.5445 78.252 13.3C78.252 12.1 78.5842 11.0222 79.2495 10.0667C79.9374 9.11114 80.9114 8.36667 82.1731 7.83333C83.434 7.2778 84.9356 7 86.6789 7C88.4674 7 90.0035 7.31114 91.2878 7.93333C92.5714 8.53333 93.5462 9.3 94.2114 10.2333C94.8759 11.1667 95.2316 12.1 95.2777 13.0333C95.2777 13.2111 95.2089 13.3667 95.0713 13.5C94.9564 13.6333 94.7844 13.7 94.5554 13.7H92.7324C92.2509 13.7 91.9523 13.4889 91.8382 13.0667C91.7006 12.1333 91.1612 11.3667 90.2216 10.7667C89.2812 10.1445 88.1 9.83333 86.6789 9.83333C85.1193 9.83333 83.8928 10.1222 82.9985 10.7C82.1043 11.2778 81.6571 12.1333 81.6571 13.2667C81.6571 14.0222 81.8635 14.6445 82.2762 15.1333C82.7117 15.6222 83.3652 16.0555 84.2368 16.4333C85.1076 16.7889 86.3802 17.2 88.0547 17.6667C90.0035 18.1778 91.5395 18.7111 92.6636 19.2667C93.787 19.8 94.6242 20.4778 95.1745 21.3C95.7248 22.1 96 23.1222 96 24.3667C96 26.4333 95.1745 28.0555 93.5235 29.2333C91.8725 30.4111 89.6478 31 86.8508 31Z" fill="white"/>
<path d="M125.162 16.7323L117.838 9.71767C116.27 8.21674 113.73 8.21674 112.162 9.71767L104.838 16.7323C103.271 18.2332 103.271 20.6667 104.838 22.1676L112.162 29.1823C113.73 30.6832 116.27 30.6832 117.838 29.1823L125.162 22.1676C126.729 20.6667 126.729 18.2332 125.162 16.7323Z" stroke="white" stroke-width="3"/>
</svg>
