<svg width="130" height="39" viewBox="0 0 130 39" fill="none" xmlns="http://www.w3.org/2000/svg">
<path d="M10.1652 30.7501C9.54492 30.7501 9.11991 30.4641 8.89022 29.8921L1.20612 8.67307L1.13721 8.31007C1.13721 8.13404 1.20612 7.98007 1.34395 7.84807C1.48179 7.71607 1.64259 7.65007 1.82636 7.65007H3.61817C4.05463 7.65007 4.36475 7.84807 4.54853 8.24407L11.2678 26.9551L18.0215 8.24407C18.0675 8.11207 18.1709 7.98007 18.3317 7.84807C18.4924 7.71607 18.6878 7.65007 18.9174 7.65007H20.7093C20.8931 7.65007 21.0538 7.71607 21.1917 7.84807C21.3524 7.98007 21.4329 8.13404 21.4329 8.31007L21.364 8.67307L13.6454 29.8921C13.4157 30.4641 13.0022 30.7501 12.4049 30.7501H10.1652ZM29.8155 30.7501C29.5858 30.7501 29.3906 30.6841 29.2297 30.5521C29.0919 30.3981 29.023 30.211 29.023 29.9911V8.44207C29.023 8.20004 29.0919 8.01307 29.2297 7.88107C29.3906 7.72709 29.5858 7.65007 29.8155 7.65007H44.0466C44.2764 7.65007 44.4601 7.72709 44.5979 7.88107C44.7588 8.01307 44.8391 8.20004 44.8391 8.44207V9.69607C44.8391 9.91604 44.7702 10.1031 44.6324 10.2571C44.4946 10.3891 44.2993 10.4551 44.0466 10.4551H32.3309V17.6821H43.2885C43.5183 17.6821 43.702 17.7591 43.8399 17.9131C44.0007 18.0451 44.0811 18.232 44.0811 18.4741V19.6951C44.0811 19.915 44.0007 20.1021 43.8399 20.2561C43.702 20.3881 43.5183 20.4541 43.2885 20.4541H32.3309V27.9451H44.3223C44.575 27.9451 44.7702 28.0111 44.9081 28.1431C45.0459 28.2751 45.1148 28.462 45.1148 28.7041V29.9911C45.1148 30.211 45.0345 30.3981 44.8736 30.5521C44.7358 30.6841 44.552 30.7501 44.3223 30.7501H29.8155ZM54.1581 30.7501C53.9284 30.7501 53.7332 30.6841 53.5723 30.5521C53.4345 30.3981 53.3656 30.211 53.3656 29.9911V8.44207C53.3656 8.20004 53.4345 8.01307 53.5723 7.88107C53.7332 7.72709 53.9284 7.65007 54.1581 7.65007H62.5658C65.2076 7.65007 67.2751 8.24407 68.7682 9.43207C70.2614 10.6201 71.008 12.3361 71.008 14.5801C71.008 16.252 70.5715 17.6271 69.6986 18.7051C68.8486 19.783 67.6426 20.5311 66.0805 20.9491L71.387 29.7271C71.4559 29.8591 71.4904 29.98 71.4904 30.0901C71.4904 30.2661 71.41 30.4201 71.2492 30.5521C71.1114 30.6841 70.9506 30.7501 70.7668 30.7501H69.1128C68.7682 30.7501 68.4926 30.673 68.2858 30.5191C68.1021 30.3651 67.9298 30.145 67.7689 29.8591L62.7726 21.4771H56.7424V29.9911C56.7424 30.211 56.6621 30.3981 56.5012 30.5521C56.3404 30.6841 56.1452 30.7501 55.9154 30.7501H54.1581ZM62.428 18.6721C65.8508 18.6721 67.5622 17.2971 67.5622 14.5471C67.5622 11.797 65.8508 10.4221 62.428 10.4221H56.7424V18.6721H62.428ZM87.144 31.0801C85.237 31.0801 83.5831 30.7941 82.182 30.2221C80.8037 29.65 79.7465 28.9021 79.0119 27.9781C78.2765 27.0321 77.886 26.02 77.8401 24.9421C77.8401 24.766 77.909 24.6121 78.0468 24.4801C78.2076 24.3261 78.3917 24.2491 78.5984 24.2491H80.3558C80.792 24.2491 81.0903 24.469 81.2517 24.9091C81.4584 25.8331 82.0442 26.6251 83.009 27.2851C83.9965 27.9451 85.3749 28.2751 87.144 28.2751C89.0501 28.2751 90.4864 27.9561 91.4512 27.3181C92.416 26.6581 92.8984 25.7451 92.8984 24.5791C92.8984 23.8311 92.6572 23.2261 92.1748 22.7641C91.7151 22.3021 91.0259 21.895 90.1073 21.5431C89.1879 21.1911 87.8096 20.7511 85.9724 20.2231C84.1806 19.7391 82.7561 19.222 81.6996 18.6721C80.6424 18.1221 79.8499 17.44 79.322 16.6261C78.7934 15.8121 78.5295 14.7891 78.5295 13.5571C78.5295 12.3691 78.8623 11.302 79.5288 10.3561C80.2179 9.41009 81.1937 8.67307 82.4577 8.14507C83.7209 7.59509 85.2253 7.32007 86.9717 7.32007C88.7635 7.32007 90.3023 7.62809 91.589 8.24407C92.8749 8.83807 93.8515 9.59707 94.5179 10.5211C95.1836 11.4451 95.5399 12.3691 95.5861 13.2931C95.5861 13.4691 95.5172 13.6231 95.3794 13.7551C95.2642 13.8871 95.092 13.9531 94.8625 13.9531H93.0362C92.5538 13.9531 92.2547 13.744 92.1403 13.3261C92.0025 12.4021 91.4621 11.6431 90.5208 11.0491C89.5787 10.4331 88.3954 10.1251 86.9717 10.1251C85.4093 10.1251 84.1806 10.411 83.2847 10.9831C82.3888 11.5551 81.9408 12.4021 81.9408 13.5241C81.9408 14.272 82.1476 14.8881 82.5611 15.3721C82.9973 15.856 83.652 16.285 84.5252 16.6591C85.3976 17.011 86.6725 17.4181 88.35 17.8801C90.3023 18.3861 91.8412 18.9141 92.9673 19.4641C94.0927 19.9921 94.9314 20.6631 95.4827 21.4771C96.0341 22.2691 96.3097 23.281 96.3097 24.5131C96.3097 26.5591 95.4827 28.165 93.8288 29.3311C92.1748 30.4971 89.946 31.0801 87.144 31.0801Z" fill="#2A2A2A"/>
<path d="M124.458 16.3745L117.312 9.53031C115.783 8.06585 113.303 8.06585 111.774 9.53031L104.628 16.3745C103.098 17.839 103.098 20.2134 104.628 21.6778L111.774 28.5221C113.303 29.9865 115.783 29.9865 117.312 28.5221L124.458 21.6778C125.987 20.2134 125.987 17.839 124.458 16.3745Z" stroke="#2A2A2A" stroke-width="3"/>
</svg>
