<svg width="92" height="92" viewBox="0 0 92 92" fill="none" xmlns="http://www.w3.org/2000/svg">
<path d="M7.41543 58.8328L7.5114 59.4724L7.6112 59.4496C8.29327 62.6134 9.86454 65.5209 12.1432 67.8359C14.4218 70.1508 17.3148 71.7785 20.4872 72.5306C23.6596 73.2827 26.9819 73.1285 30.0697 72.0858C33.1574 71.0431 35.8844 69.1546 37.9352 66.6387C39.9859 64.1228 41.2765 61.0824 41.6577 57.8693C42.039 54.6561 41.4952 51.4016 40.0893 48.4822C38.6834 45.5629 36.4729 43.098 33.7135 41.3728C30.9541 39.6476 27.7587 38.7327 24.4969 38.7338C23.6409 38.7338 22.8195 38.8632 22.0019 38.9812C22.2667 38.0979 22.5393 37.1994 22.9768 36.3922C23.4144 35.2196 24.0977 34.203 24.7771 33.1788C25.3452 32.0709 26.3471 31.3208 27.0841 30.3728C27.8556 29.4514 28.9074 28.8384 29.7403 28.0731C30.5579 27.2736 31.6289 26.8738 32.4811 26.3103C33.3716 25.804 34.147 25.2443 34.9761 24.9778L37.0451 24.1325L38.8645 23.3825L37.0067 16L34.7151 16.5483C33.9819 16.731 33.0875 16.9442 32.0703 17.1993C31.0301 17.3897 29.9208 17.9113 28.6847 18.3872C27.4679 18.9317 26.0515 19.2934 24.7387 20.1653C23.4183 20.9953 21.8944 21.6882 20.5509 22.8C19.2496 23.946 17.6797 24.9397 16.5204 26.3941C15.2537 27.7571 14.0024 29.1887 13.0312 30.8182C11.9065 32.3717 11.1427 34.0774 10.3366 35.764C9.60724 37.4507 9.01994 39.1754 8.54012 40.8506C7.63039 44.2087 7.2235 47.3993 7.06612 50.1292C6.93562 52.8629 7.01238 55.1359 7.17361 56.7806C7.22755 57.4675 7.30821 58.1521 7.41543 58.8328ZM49.6393 58.8328L49.7353 59.4724L49.8351 59.4496C50.5171 62.6134 52.0884 65.5209 54.3671 67.8359C56.6457 70.1508 59.5386 71.7785 62.7111 72.5306C65.8835 73.2827 69.2058 73.1285 72.2935 72.0858C75.3813 71.0431 78.1083 69.1546 80.159 66.6387C82.2098 64.1228 83.5004 61.0824 83.8816 57.8693C84.2628 54.6561 83.719 51.4016 82.3131 48.4822C80.9073 45.5629 78.6968 43.098 75.9374 41.3728C73.178 39.6476 69.9826 38.7327 66.7208 38.7338C65.8648 38.7338 65.0433 38.8632 64.2257 38.9812C64.4906 38.0979 64.7631 37.1994 65.2007 36.3922C65.6383 35.2196 66.3216 34.203 67.001 33.1788C67.5691 32.0709 68.571 31.3208 69.308 30.3728C70.0795 29.4514 71.1313 28.8384 71.9642 28.0731C72.7818 27.2736 73.8528 26.8738 74.7049 26.3103C75.5955 25.804 76.3709 25.2443 77.2 24.9778L79.2689 24.1325C80.4243 23.6642 81.0846 23.3901 81.0846 23.3901L79.2267 16.0076L76.9351 16.5559C76.202 16.7386 75.3076 16.9518 74.2904 17.2069C73.2501 17.3973 72.1408 17.9189 70.9048 18.3948C69.688 18.9393 68.2715 19.301 66.9588 20.1729C65.6383 21.0029 64.1144 21.6958 62.7709 22.8076C61.4697 23.9536 59.8997 24.9473 58.7405 26.4017C57.4738 27.7647 56.2224 29.1963 55.2512 30.8259C54.1266 32.3793 53.3627 34.085 52.5566 35.7716C51.8273 37.4583 51.24 39.183 50.7602 40.8583C49.8504 44.2164 49.4435 47.4069 49.2862 50.1368C49.1556 52.8705 49.2324 55.1435 49.3936 56.7883C49.451 57.4725 49.5329 58.1544 49.6393 58.8328Z" fill="#24126A"/>
</svg>
