<svg width="485" height="580" fill="none" xmlns="http://www.w3.org/2000/svg"><path opacity=".5" d="M122.331 411.035c59.65 0 108.005-23.208 108.005-51.836s-48.355-51.836-108.005-51.836-108.005 23.208-108.005 51.836 48.355 51.836 108.005 51.836z" fill="url(#a)" fill-opacity=".16"/><path d="M176.163 388.054c0 1.255.456 2.167 1.14 2.623l3.764 2.11c.741.399.285-.513 1.369-1.197 2.281-1.312 4.105-4.448 4.105-7.072 0-1.311 1.198-1.311.457-1.71l-3.935-2.167c-.741-.399-1.768-.342-2.851.342-2.167 1.311-4.049 4.448-4.049 7.071z" fill="url(#b)"/><path d="M180.04 390.163c0 2.624 1.825 3.65 4.106 2.338 2.281-1.311 4.106-4.447 4.106-7.071 0-2.623-1.825-3.649-4.106-2.338-2.281 1.312-4.106 4.505-4.106 7.071z" fill="url(#c)"/><path d="M175.136 388.224c0-3.022 2.167-6.729 4.79-8.269 1.312-.741 2.452-.855 3.365-.342l4.277 2.338c.171.114.228.171.285.228-.856-.684-2.167-.684-3.65.172-2.623 1.539-4.79 5.246-4.79 8.268l-4.277-2.395z" fill="url(#d)"/><path d="M183.975 383.036c1.083-.627 2.053-.684 2.794-.342-.684-.171-1.54-.057-2.452.456-2.281 1.311-4.106 4.448-4.106 7.071 0 1.369.513 2.281 1.312 2.68-1.027-.285-1.654-1.254-1.654-2.794 0-2.623 1.825-5.76 4.106-7.071z" fill="url(#e)"/><path d="M88.458 397.35c0 1.254.457 2.167 1.14 2.623l3.764 2.11c.742.399.286-.514 1.37-1.198 2.28-1.311 4.105-4.448 4.105-7.071 0-1.312 1.197-1.312.456-1.711l-3.878-2.11c-.741-.399-1.767-.342-2.908.285-2.224 1.312-4.049 4.505-4.049 7.072z" fill="url(#f)"/><path d="M92.336 399.516c0 2.623 1.825 3.65 4.106 2.338 2.281-1.311 4.106-4.448 4.106-7.071 0-2.623-1.825-3.649-4.106-2.338-2.28 1.312-4.106 4.505-4.106 7.071z" fill="url(#g)"/><path d="M87.375 397.52c0-3.022 2.167-6.729 4.79-8.268 1.312-.742 2.452-.856 3.365-.343l4.334 2.338c.171.115.228.172.228.172-.856-.628-2.167-.628-3.593.228-2.623 1.539-4.79 5.246-4.79 8.268l-4.334-2.395z" fill="url(#h)"/><path d="M96.214 392.332c1.083-.628 2.053-.685 2.794-.343-.684-.171-1.54-.057-2.452.456-2.281 1.312-4.106 4.448-4.106 7.072 0 1.368.513 2.281 1.312 2.68-1.027-.285-1.654-1.255-1.654-2.794 0-2.567 1.882-5.76 4.106-7.071z" fill="url(#i)"/><path d="M49.054 348.592c0 1.254.456 2.167 1.14 2.623l3.764 2.11c.741.399.285-.513 1.425-1.141 2.281-1.311 4.106-4.448 4.106-7.071 0-1.311 1.198-1.311.457-1.711l-3.935-2.167c-.742-.399-1.768-.342-2.851.343-2.224 1.254-4.106 4.391-4.106 7.014z" fill="url(#j)"/><path d="M52.931 350.703c0 2.623 1.825 3.649 4.106 2.337 2.281-1.311 4.106-4.447 4.106-7.071 0-2.623-1.825-3.649-4.106-2.338-2.224 1.312-4.105 4.505-4.105 7.072z" fill="url(#k)"/><path d="M48.028 348.763c0-3.022 2.166-6.729 4.79-8.268 1.311-.742 2.452-.856 3.364-.342l4.277 2.338c.171.114.228.171.285.228-.855-.685-2.167-.685-3.65.171-2.623 1.539-4.79 5.246-4.79 8.268l-4.276-2.395z" fill="url(#l)"/><path d="M56.866 343.574c1.084-.627 2.053-.684 2.795-.342-.685-.171-1.54-.057-2.453.456-2.28 1.312-4.105 4.448-4.105 7.071 0 1.369.513 2.281 1.311 2.681-1.026-.285-1.653-1.255-1.653-2.795 0-2.623 1.824-5.759 4.105-7.071z" fill="url(#m)"/><path d="M111.211 305.823c0 1.254.456 2.167 1.141 2.623l3.763 2.11c.742.399.286-.514 1.369-1.198 2.281-1.311 4.106-4.448 4.106-7.071 0-1.312 1.197-1.312.456-1.711l-3.935-2.167c-.741-.399-1.768-.342-2.851.342-2.224 1.312-4.049 4.448-4.049 7.072z" fill="url(#n)"/><path d="M115.089 307.934c0 2.623 1.825 3.649 4.106 2.338 2.281-1.312 4.106-4.448 4.106-7.071 0-2.623-1.825-3.65-4.106-2.338-2.281 1.311-4.106 4.505-4.106 7.071z" fill="url(#o)"/><path d="M110.128 305.938c0-3.023 2.167-6.729 4.79-8.269 1.312-.741 2.452-.855 3.365-.342l4.277 2.338c.171.114.228.171.228.171-.856-.627-2.167-.627-3.593.228-2.623 1.54-4.79 5.246-4.79 8.269l-4.277-2.395z" fill="url(#p)"/><path d="M118.967 300.806c1.083-.627 2.053-.684 2.794-.342-.684-.171-1.54-.057-2.452.456-2.281 1.311-4.106 4.448-4.106 7.071 0 1.369.513 2.281 1.312 2.68-1.027-.285-1.654-1.254-1.654-2.794.057-2.623 1.882-5.76 4.106-7.071z" fill="url(#q)"/><path d="M189.05 334.851c0 1.254.456 2.166 1.14 2.623l3.764 2.11c.741.399.285-.514 1.426-1.141 2.281-1.312 4.105-4.448 4.105-7.071 0-1.312 1.198-1.312.457-1.711l-3.935-2.167c-.741-.399-1.768-.342-2.851.342-2.281 1.255-4.106 4.391-4.106 7.015z" fill="url(#r)"/><path d="M192.928 337.017c0 2.623 1.825 3.65 4.106 2.338 2.281-1.311 4.105-4.448 4.105-7.071 0-2.623-1.824-3.649-4.105-2.338-2.281 1.312-4.106 4.448-4.106 7.071z" fill="url(#s)"/><path d="M187.967 335.021c0-3.022 2.167-6.729 4.79-8.269 1.311-.741 2.452-.855 3.364-.342l4.277 2.338c.171.114.228.171.228.171-.855-.627-2.167-.627-3.592.228-2.624 1.54-4.791 5.247-4.791 8.269l-4.276-2.395z" fill="url(#t)"/><path d="M196.805 329.832c1.084-.627 2.053-.684 2.794-.342-.684-.171-1.539-.057-2.452.456-2.281 1.312-4.105 4.448-4.105 7.071 0 1.369.513 2.281 1.311 2.68-1.026-.285-1.654-1.254-1.654-2.794 0-2.623 1.882-5.759 4.106-7.071z" fill="url(#u)"/><path d="M179.413 377.561h6.159v3.707c0 .969-1.369 1.767-3.08 1.767s-3.079-.798-3.079-1.767v-3.707z" fill="url(#v)"/><path d="M179.413 377.561c0 .969 1.368 1.767 3.079 1.767s3.08-.798 3.08-1.767c0-.97-1.369-1.768-3.08-1.768s-3.079.798-3.079 1.768z" fill="url(#w)"/><path d="M191.389 325.326h6.158v3.707c0 .969-1.368 1.768-3.079 1.768s-3.079-.799-3.079-1.768v-3.707z" fill="url(#x)"/><path d="M191.389 325.326c0 .97 1.368 1.768 3.079 1.768s3.079-.798 3.079-1.768c0-.969-1.368-1.767-3.079-1.767s-3.079.798-3.079 1.767z" fill="url(#y)"/><path d="M114.005 297.098h6.159v3.707c0 .969-1.368 1.768-3.079 1.768s-3.08-.799-3.08-1.768v-3.707z" fill="url(#z)"/><path d="M51.107 338.955h6.159v3.707c0 .969-1.369 1.767-3.08 1.767-1.71 0-3.079-.798-3.079-1.767v-3.707z" fill="url(#A)"/><path d="M54.186 340.723c1.701 0 3.08-.792 3.08-1.768s-1.379-1.768-3.08-1.768c-1.7 0-3.079.792-3.079 1.768s1.379 1.768 3.08 1.768z" fill="url(#B)"/><path d="M90.625 387.255h6.159v3.707c0 .969-1.369 1.768-3.08 1.768-1.71 0-3.079-.799-3.079-1.768v-3.707z" fill="url(#C)"/><path d="M90.625 387.255c0 .969 1.369 1.768 3.08 1.768 1.71 0 3.079-.799 3.079-1.768s-1.369-1.768-3.08-1.768c-1.71 0-3.079.799-3.079 1.768z" fill="url(#D)"/><path d="m120.506 336.56-55.884-2.737c-4.62 0-9.067 1.939-12.318 5.246-.969.856-1.881 2.281-.74 2.795l.284-.285c3.365-3.023 7.756-4.62 12.26-4.391L120.222 345l-21.612 25.775a50.738 50.738 0 0 0-6.444 12.774l-1.084 3.307c-.228 2.738 3.593 3.536 4.391 1.255 2.053-5.874 5.19-10.265 9.238-14.998l25.148-25.262 37.922 19.275c5.76 3.535 10.607 7.299 14.256 13.001 1.255 2.224 4.277.856 3.479-1.995l-.684-1.198c-3.137-5.246-7.3-9.865-12.318-13.458l-34.956-20.016 50.752-17.791c2.509-.628 5.075-.457 7.47.399 1.198.456 2.566.57 1.54-.457-2.965-2.737-7.071-3.877-11.063-3.136L132.71 335.42l-13.287-37.808c-.627-1.71-5.075-1.311-4.847.456l5.93 38.492z" fill="url(#E)"/><path d="m121.875 332.34-57.31.171c-4.62 0-9.067 1.939-12.318 5.246-.97.856-1.882 2.281-.741 2.795l.285-.286c3.365-3.022 7.756-4.619 12.26-4.39l56.113 2.566-21.612 31.021a50.734 50.734 0 0 0-6.444 12.774l-1.084 3.307c-.228 2.738 3.593 3.536 4.391 1.255a50.294 50.294 0 0 1 9.238-16.081l25.148-29.482 37.922 23.437c5.759 3.536 10.607 8.326 14.256 14.028 1.255 2.224 4.277.856 3.479-1.996l-.685-1.197c-3.136-5.246-7.299-9.865-12.317-13.458L137.5 336.788l50.752-12.546c2.623-.627 5.303-.456 7.755.514 1.084.456 2.281.456 1.255-.571-2.965-2.737-7.071-3.877-11.063-3.136l-53.546 10.208-11.976-31.649-1.311-3.479c-.628-1.711-5.076-1.311-4.847.456l.855 4.163 6.501 31.592z" fill="url(#F)"/><path d="M120.335 325.213h18.761v11.348c0 3.022-4.22 5.474-9.352 5.474-5.189 0-9.352-2.452-9.352-5.474v-11.348h-.057z" fill="url(#G)"/><path d="M120.335 325.213c0 3.022 4.22 5.474 9.352 5.474 5.189 0 9.352-2.452 9.352-5.474 0-3.023-4.22-5.475-9.352-5.475-5.132.057-9.352 2.509-9.352 5.475z" fill="url(#H)"/><path d="M121.704 285.181h15.967v37.978c0 2.566-3.593 4.676-7.984 4.676s-7.983-2.11-7.983-4.676v-37.978z" fill="url(#I)"/><path d="M121.704 267.331h15.967v37.978c0 2.567-3.593 4.677-7.984 4.677s-7.983-2.11-7.983-4.677v-37.978z" fill="url(#J)"/><path d="M132.196 304.739v8.554l-94.604-54.744v-8.782l94.604 54.972z" fill="url(#K)"/><path d="M132.197 304.74v8.554l92.722-53.889v-8.782l-92.722 54.117z" fill="url(#L)"/><path d="M132.196 299.55v8.497l-94.604-54.744v-8.725l94.604 54.972z" fill="url(#M)"/><path d="M132.197 299.55v8.497l92.722-53.832v-8.782l-92.722 54.117z" fill="url(#N)"/><path d="m224.919 245.434-92.723 54.116-94.604-54.972 92.78-54.059 94.547 54.915z" fill="url(#O)"/><path d="m132.824 297.098-11.919-2.68-83.313-49.84 95.232 52.52z" fill="url(#P)"/><path d="M37.478 244.693c.057-40.031-6.216-79.778-18.476-117.87l-2.281-7.072 6.9 4.049 20.757 64.553v60.104l-6.9-3.764z" fill="url(#Q)"/><path d="m23.564 123.743 92.894-54.402 2.566 7.983c12.089 37.694 18.191 76.984 18.191 116.559v.4l-92.894 54.116c0-39.86-6.216-79.436-18.419-117.414l-2.338-7.242z" fill="url(#R)"/><path d="m116.457 69.398-92.893 54.345-6.9-3.992 92.95-54.345 6.843 3.992z" fill="url(#S)"/><path d="m116.457 69.398-94.832 52.748 12.888 41.115-9.58-39.404 91.524-54.46z" fill="url(#T)" fill-opacity=".4"/><path d="M237.864 161.778c-1.312-3.65-9.524-14.826-15.055-20.757-5.531-5.931-21.898-20.643-22.297-20.586-.399.057-22.753-17.051-25.832-20.928-3.022-3.878-21.841-29.026-25.604-30.85-3.764-1.769-6.672.969-5.361 13.571 1.312 12.603 3.137 20.7 4.277 31.82 1.084 10.721 3.194 16.195 3.194 16.195s21.954 11.804 27.144 15.739c5.189 3.935 24.577 20.415 27.657 25.091 3.136 4.676 10.321 11.519 19.388 9.58 9.124-1.939 15.397-10.834 12.489-18.875z" fill="url(#U)"/><path d="M212.715 167.481c.514 5.759 5.646 9.979 11.405 9.466 5.76-.513 9.98-5.645 9.467-11.405-.514-5.759-5.646-9.979-11.405-9.466-5.76.513-10.037 5.645-9.467 11.405z" fill="#fff"/><path d="M211.062 155.335s-24.179-23.722-30.851-28.797c-4.106-3.137-21.726-18.02-34.443-28.855.798 5.36 1.597 10.436 2.224 16.366 1.083 10.721 3.193 16.195 3.193 16.195s21.955 11.805 27.144 15.739c5.189 3.935 24.578 20.415 27.657 25.091a27.763 27.763 0 0 0 3.308 3.992c-5.817-11.918 1.768-19.731 1.768-19.731z" fill="#000" fill-opacity=".16"/><path opacity=".24" d="M45.917 220.685c-6.443 22.125 26.86 51.322 74.475 65.236 47.616 13.914 91.411 7.299 97.912-14.826 6.444-22.126-26.859-51.323-74.475-65.237-47.616-13.914-91.468-7.242-97.912 14.827z" fill="url(#V)"/><path opacity=".3" d="M113.834 302.003c-11.462 1.996-15.91 61.188-11.633 85.937 4.277 24.749 16.993 43.168 28.512 41.229 11.463-1.996 17.336-23.608 13.116-48.357-4.277-24.749-18.476-80.748-29.995-78.809z" fill="#fff"/><path opacity=".3" d="M114.632 307.706c-10.72 1.824-14.883 57.196-10.891 80.348 3.991 23.095 15.91 40.374 26.63 38.549 10.721-1.825 16.195-22.069 12.261-45.221-3.992-23.152-17.279-75.501-28-73.676z" fill="url(#W)"/><path opacity=".3" d="M115.431 313.408c-9.98 1.711-13.857 53.205-10.151 74.76 3.707 21.499 14.827 37.58 24.806 35.869 9.98-1.711 15.112-20.529 11.405-42.085-3.706-21.555-16.081-70.311-26.06-68.544z" fill="url(#X)"/><path opacity=".3" d="M116.172 319.054c-9.238 1.597-12.831 49.27-9.409 69.172 3.421 19.901 13.686 34.785 22.924 33.188 9.238-1.597 13.971-18.989 10.55-38.948-3.365-19.902-14.77-65.008-24.065-63.412z" fill="url(#Y)"/><path opacity=".3" d="M116.97 324.756c-8.496 1.482-11.747 45.277-8.61 63.582 3.136 18.305 12.602 31.934 21.099 30.509 8.497-1.483 12.83-17.507 9.694-35.755-3.136-18.362-13.686-59.819-22.183-58.336z" fill="url(#Z)"/><path opacity=".3" d="M117.769 330.458c-7.756 1.311-10.721 41.286-7.87 57.994 2.851 16.709 11.462 29.14 19.218 27.828 7.755-1.311 11.69-15.967 8.838-32.618-2.851-16.765-12.431-54.573-20.186-53.204z" fill="url(#aa)"/><path opacity=".3" d="M118.567 336.104c-7.014 1.197-9.694 37.294-7.128 52.406 2.566 15.111 10.378 26.345 17.392 25.148 7.015-1.198 10.607-14.428 7.984-29.482-2.566-15.112-11.234-49.27-18.248-48.072z" fill="url(#ab)"/><path opacity=".3" d="M119.366 341.806c-6.273 1.084-8.668 33.36-6.33 46.818 2.338 13.458 9.295 23.551 15.511 22.468 6.273-1.084 9.466-12.888 7.128-26.346-2.338-13.515-10.094-44.023-16.309-42.94z" fill="url(#ac)"/><path opacity=".3" d="M178.843 274.574c-11.462 1.996-15.91 61.188-11.633 85.937 4.276 24.748 16.993 43.168 28.512 41.229 11.462-1.996 17.336-23.609 13.116-48.357-4.334-24.806-18.533-80.805-29.995-78.809z" fill="#fff"/><path opacity=".3" d="M179.641 280.276c-10.721 1.825-14.883 57.196-10.892 80.348 3.992 23.095 15.91 40.374 26.631 38.549 10.721-1.824 16.195-22.068 12.26-45.221-3.991-23.152-17.278-75.558-27.999-73.676z" fill="url(#ad)"/><path opacity=".3" d="M180.439 285.922c-9.979 1.711-13.857 53.205-10.15 74.76 3.707 21.498 14.827 37.579 24.806 35.869 9.979-1.711 15.112-20.529 11.405-42.085-3.764-21.498-16.081-70.254-26.061-68.544z" fill="url(#ae)"/><path opacity=".3" d="M181.181 291.625c-9.238 1.596-12.831 49.269-9.409 69.171 3.421 19.902 13.686 34.785 22.924 33.188 9.238-1.596 13.971-18.989 10.549-38.948-3.364-19.901-14.826-65.008-24.064-63.411z" fill="url(#af)"/><path opacity=".3" d="M181.979 297.327c-8.497 1.483-11.747 45.278-8.611 63.583 3.137 18.305 12.603 31.934 21.1 30.509 8.496-1.483 12.83-17.507 9.694-35.755-3.194-18.362-13.686-59.819-22.183-58.337z" fill="url(#ag)"/><path opacity=".3" d="M182.777 302.973c-7.755 1.311-10.72 41.286-7.869 57.994 2.851 16.709 11.462 29.14 19.217 27.828 7.756-1.311 11.69-15.967 8.839-32.618-2.851-16.708-12.431-54.516-20.187-53.204z" fill="url(#ah)"/><path opacity=".3" d="M183.576 308.674c-7.014 1.198-9.695 37.294-7.128 52.406 2.566 15.112 10.378 26.346 17.392 25.148 7.014-1.198 10.607-14.427 7.984-29.482-2.623-15.112-11.291-49.27-18.248-48.072z" fill="url(#ai)"/><path opacity=".3" d="M184.317 314.377c-6.272 1.083-8.667 33.359-6.329 46.817 2.338 13.458 9.295 23.552 15.51 22.468 6.273-1.083 9.467-12.888 7.129-26.345-2.281-13.515-10.037-44.024-16.31-42.94z" fill="url(#aj)"/><path d="M185.572 340.211c-3.023 4.334-12.546 19.788-3.023 24.806 7.3 3.821 15.568 4.049 22.126 7.299 6.558 3.25 15.112 11.804 21.955 13.572 6.843 1.711 10.663.741 13.971-.969 5.531-2.909 4.961-7.3 3.82-10.379-1.14-3.079-5.303-5.817-12.374-8.269-7.071-2.452-11.006-7.47-13.002-11.804-1.996-4.334-2.281-5.873-2.281-5.873s-13.914 1.539-18.875-.114c-4.904-1.768-12.317-8.269-12.317-8.269z" fill="url(#ak)"/><path d="M240.601 380.869c-3.308 1.767-6.9 1.767-13.8.057-6.9-1.768-15.739-9.409-22.354-12.66-6.615-3.25-12.545-5.759-19.845-9.694-3.079-1.654-4.505-5.703-4.961-7.87-3.535 8.839-1.254 12.489 2.509 14.428 7.357 3.82 15.682 4.105 22.297 7.356 6.615 3.25 15.226 11.918 22.126 13.629 6.9 1.768 10.72.741 14.028-1.027 4.733-2.452 5.018-6.044 4.277-8.953-.456 1.711-1.711 3.365-4.277 4.734z" fill="url(#al)"/><path d="M118.795 375.452s-6.386 11.405-4.733 17.164c1.711 5.76 11.006 10.835 15.112 16.823 4.106 5.93 10.607 14.541 22.069 15.682 11.861 1.197 19.103-.4 20.072-6.273 1.198-7.299-7.926-11.12-13.629-17.678-5.702-6.558-12.203-18.419-12.203-18.419s-10.721.114-16.309-1.369c-5.646-1.539-10.379-5.93-10.379-5.93z" fill="url(#am)"/><path d="M170.859 415.028c-1.825 4.904-8.155 6.9-19.332 5.759-11.69-1.197-18.476-8.953-22.696-15.054-4.162-6.102-11.747-17.279-13.914-21.385l-.912 3.251c-.399 1.881-1.084 3.535-.627 5.018 1.71 5.873 11.233 11.12 15.453 17.164 4.163 6.102 10.835 14.827 22.525 16.024 12.089 1.255 19.503-.399 20.472-6.444.285-1.311-.57-3.193-.969-4.333z" fill="url(#an)"/><path d="M70.324 198.047s-15.796 37.694 8.212 63.013c26.973 28.455 57.481 32.39 58.222 39.062.742 6.672-22.696 80.063-23.437 83.769-.741 3.707 13.173 8.041 22.81 6.558 9.637-1.482 14.085-.912 15.967-6.729 1.768-5.474 29.197-79.093 28.855-90.213-.628-17.963-41.458-53.547-41.458-53.547l4.106-.399s9.238 13.23 33.018 20.985c23.779 7.813 22.011 8.098 22.011 8.098s-13.458 67.86-14.598 70.882c-1.141 2.965 7.698 8.155 19.788 12.374 16.651 5.874 14.541 1.939 16.48-2.109 3.706-7.813 12.203-47.217 16.594-65.522 3.308-13.857 7.927-27.999 2.737-37.294-4.961-8.839-10.15-10.607-36.154-29.596-23.893-17.45-57.424-31.421-57.424-31.421s-12.83 6.786-26.174 9.751c-13.572 3.079-49.555 2.338-49.555 2.338z" fill="url(#ao)"/><path opacity=".5" d="M218.418 270.526c2.395-16.936-78.694-53.945-78.694-53.945l.912 23.266 2.794-.228s9.238 13.23 33.018 21.042c23.779 7.813 22.011 8.098 22.011 8.098s-13.458 67.859-14.598 70.882c-.114.285-.114.57-.057.912v.057c.57 2.224 5.588 5.303 12.602 8.098 4.619-5.589 20.872-69.97 22.012-78.182zM150.672 298.24c-1.482-9.637-57.082-38.606-63.012-49.782-5.931-11.12-3.25-46.02-3.25-46.02l-14.485-3.535c-1.654 4.562-11.348 30.109 2.509 54.402 16.024 28.056 63.526 40.088 64.267 46.817.741 6.672-22.696 80.063-23.437 83.77-.456 2.167 4.049 4.505 9.808 5.816 1.198-10.606 29.083-81.773 27.6-91.468z" fill="#9DA7B3"/><path d="M103.855 57.252c-9.923 2.737-22.297 1.939-11.577 27.543 10.721 25.604 49.555 112.91 49.555 112.91s13.23-31.649 11.291-59.192c-1.939-27.544-18.476-74.646-18.476-74.646l-30.793-6.615z" fill="url(#ap)"/><path d="m123.3 88.672 4.22-1.825 2.737 2.966-1.083 6.044s11.747 22.924 16.138 36.896c4.391 13.971 5.303 32.846 3.65 41.685-1.654 8.839-9.752 21.669-9.752 21.669s-5.873-42.198-7.698-52.349c-1.825-10.093-7.527-46.076-7.527-46.076l-4.22-2.566 3.535-6.444z" fill="url(#aq)"/><path d="M124.783 58.392s12.318-1.54 21.67 6.9c6.729 6.102 10.435 13.914 12.545 29.425 1.882 13.686 6.9 91.696 18.248 106.808 9.124 12.146 7.927 22.924-.57 31.478-8.554 8.553-14.77 11.348-16.937 6.387-2.224-4.962-27.429-21.613-23.893-34.786 3.593-13.23 13.515-40.202 12.945-56.454-.571-16.253-7.699-59.763-12.375-68.316-4.733-8.497-11.633-21.442-11.633-21.442z" fill="url(#ar)"/><path d="M158.998 94.718c-1.654-12.317-4.391-19.788-8.782-25.433l-16.993 4.733c1.083 1.996 2.167 3.992 3.136 5.76 4.676 8.553 11.861 52.063 12.374 68.315.571 16.253-9.352 43.225-12.944 56.455-3.593 13.23 21.669 29.881 23.893 34.785 2.224 4.962 8.44 2.11 16.937-6.386 8.553-8.554 9.694-19.275.57-31.478-11.348-15.055-16.309-93.008-18.191-106.751z" fill="#000" fill-opacity=".16"/><path d="M153.809 118.953c-1.084-15.054-1.483-26.802-1.483-26.802l-6.786-1.824 4.79-8.782s-13.743-19.104-19.73-23.38c-3.365-.228-5.817.17-5.817.17s6.9 12.945 11.576 21.5c4.676 8.553 11.861 52.063 12.375 68.315.342 10.036-3.308 24.179-7.014 36.61 1.767-3.935 4.961-12.146 5.645-14.427 3.878-12.717 7.527-36.325 6.444-51.38z" fill="url(#as)"/><path d="m128.489 62.555-24.634-5.303c-7.642 2.11-16.766 2.11-15.625 13.743 5.246 9.01 11.918 19.73 16.138 23.893 7.869 7.699 13.629 14.713 13.629 14.713l7.128-25.376 12.146 16.594s.684-14.541-.399-19.331c-.513-2.395-4.562-11.006-8.383-18.933z" fill="#D1D3D4"/><path d="m128.489 62.555-24.634-5.303c-7.642 2.11-16.766 2.11-15.625 13.743 5.246 9.01 11.918 19.73 16.138 23.893 7.869 7.699 13.23 11.006 13.23 11.006l7.527-21.67 11.747 12.831s1.083-10.834 0-15.624c-.513-2.338-4.562-10.95-8.383-18.876z" fill="#fff"/><path d="M95.244 57.992s-7.698 2.396-3.478 13.401c4.22 11.006 20.928 29.539 31.762 54.915 10.835 25.319 18.191 52.121 17.45 82.801-.741 30.679-36.04 79.207-57.652 62.67-20.415-15.625-24.806-26.06-25.148-32.675-.228-4.562 3.992-14.998 2.053-34.443-3.707-37.523-14.257-93.692-11.976-100.935 3.479-11.005 9.752-12.317 16.139-18.932 4.162-4.277 10.492-10.55 17.962-16.993 3.992-3.422 7.87-8.326 12.888-9.809z" fill="url(#at)"/><path d="M123.528 126.309c-8.496-19.788-20.472-35.413-27.315-46.59L65.533 110l-13.058 24.806s23.266 74.36 26.06 90.156c1.597 9.181 4.106 31.193 5.532 47.274 21.726 14.883 56.227-32.847 56.968-63.127.627-30.679-6.672-57.481-17.507-82.8z" fill="#000" fill-opacity=".16"/><path d="M95.586 54.343 92.45 61.13s9.352 15.397 16.366 19.845c6.957 4.39 15.226 9.352 17.621 5.873 2.395-3.478 4.961-13.058 4.961-13.058L95.586 54.343z" fill="url(#au)"/><path d="m95.244 57.993 3.878.17s11.747 13.573 18.932 16.538c7.185 2.965 14.142 3.307 17.279-1.654 3.136-4.961 7.698-35.241 5.132-47.16-2.566-11.918-19.445-34.5-44.08-18.19C71.807 24.063 89.2 52.86 90.169 53.773c.855.912 5.075 4.22 5.075 4.22z" fill="url(#av)"/><path d="M90.112 54.287s-3.593-8.155-.342-10.55c.456-.342.969-.57 1.425-.741 1.768-.57 3.707.17 4.961 1.54l3.422 3.706s.57-3.878 2.338-11.12c1.083-4.676 6.957-8.839 19.103-7.698 6.444.57 14.485 3.877 18.933.342 4.39-3.479.912-11.006-1.312-14.713-2.224-3.65-22.924-25.034-44.822-9.409-21.897 15.625-9.58 42.883-3.706 48.643z" fill="url(#aw)"/><path d="M123.528 126.309c-10.834-25.319-27.543-43.852-31.762-54.915-3.593-9.41 1.482-12.489 3.022-13.23-4.562 1.425-8.668 4.049-12.374 7.128-.856 7.356-1.483 9.124 1.596 22.297 3.308 13.971 4.22 17.05 4.22 17.05l9.352 1.996v9.181s36.04 49.555 42.655 73.562c-1.996-22.639-8.269-43.339-16.709-63.069z" fill="url(#ax)"/><g opacity=".5" fill="#000"><path opacity=".018" d="M302.017 309.701c4.106-2.395 9.295-3.763 14.37-3.991 3.878-.172 7.641.228 10.835 1.311 1.254.399 2.737 1.083 3.763 1.654l133.211 77.782c2.623 1.482 4.22 3.478 4.676 5.588.741 3.479-1.54 7.414-6.786 10.493L167.438 571.959c-4.106 2.395-9.295 3.764-14.37 3.992-3.878.171-7.642-.228-10.835-1.312-1.255-.399-2.737-1.083-3.764-1.653L5.259 495.203c-2.623-1.482-4.22-3.478-4.676-5.588-.742-3.478 1.54-7.47 6.786-10.493l294.648-169.421z"/><path opacity=".036" d="M302.188 310.1c4.105-2.338 9.295-3.706 14.37-3.935 3.878-.171 7.641.286 10.778 1.426 1.14.342 2.794 1.141 3.706 1.711l132.926 77.554c2.452 1.425 4.048 3.307 4.505 5.36.684 3.251-1.483 7.014-6.558 9.98L167.267 571.617c-4.106 2.338-9.296 3.706-14.371 3.934-3.877.172-7.641-.285-10.777-1.425-1.141-.342-2.795-1.141-3.707-1.711L5.487 494.861c-2.452-1.426-4.05-3.307-4.505-5.36-.685-3.251 1.482-7.014 6.558-9.98L302.188 310.1z"/><path opacity=".054" d="M302.416 310.443c4.049-2.338 9.238-3.707 14.37-3.878 3.935-.171 7.642.342 10.721 1.483 1.026.342 2.851 1.254 3.65 1.711l132.64 77.382c2.281 1.312 3.934 3.137 4.277 5.133.57 3.022-1.483 6.615-6.387 9.466L167.039 571.161c-4.049 2.338-9.238 3.707-14.314 3.878-3.934.171-7.641-.342-10.72-1.483-1.027-.342-2.852-1.254-3.65-1.711L5.658 494.462c-2.281-1.311-3.935-3.136-4.277-5.132-.57-3.022 1.483-6.615 6.387-9.466l294.648-169.421z"/><path opacity=".073" d="M302.644 310.786c4.049-2.338 9.238-3.65 14.313-3.878 3.935-.114 7.642.399 10.664 1.597.855.285 2.908 1.311 3.649 1.767l132.298 77.212c2.11 1.255 3.764 2.965 4.106 4.904.513 2.795-1.425 6.216-6.158 8.953L166.867 570.762c-4.048 2.338-9.181 3.65-14.313 3.821-3.935.114-7.641-.399-10.664-1.597-.855-.285-2.908-1.311-3.649-1.767L5.943 494.007c-2.11-1.255-3.764-2.966-4.106-4.904-.513-2.795 1.426-6.216 6.159-8.953l294.648-169.364z"/><path opacity=".091" d="M302.815 311.184c3.992-2.338 9.181-3.65 14.313-3.821 3.935-.114 7.699.457 10.607 1.711.741.228 2.965 1.426 3.593 1.768l132.012 77.041c1.996 1.14 3.593 2.794 3.878 4.676.399 2.623-1.426 5.816-5.988 8.496L166.582 570.477c-3.991 2.338-9.181 3.649-14.313 3.82-3.935.114-7.698-.456-10.607-1.71-.741-.229-2.965-1.426-3.592-1.768L6.114 493.721c-1.996-1.14-3.593-2.794-3.878-4.676-.399-2.623 1.426-5.817 5.988-8.497l294.591-169.364z"/><path opacity=".109" d="M303.043 311.527c3.992-2.281 9.124-3.593 14.256-3.764 3.992-.114 7.699.513 10.55 1.768.627.171 3.022 1.482 3.535 1.824l131.728 76.87c1.825 1.027 3.422 2.623 3.707 4.448.342 2.395-1.369 5.417-5.76 7.984L166.411 570.135c-3.992 2.281-9.124 3.592-14.256 3.763-3.992.115-7.699-.513-10.55-1.767-.627-.171-3.022-1.483-3.535-1.825L6.342 493.436c-1.825-1.026-3.422-2.623-3.707-4.448-.342-2.395 1.369-5.417 5.76-7.983l294.648-169.478z"/><path opacity=".127" d="M303.271 311.926c3.935-2.281 9.124-3.592 14.257-3.706 3.991-.057 7.698.57 10.492 1.882.513.171 3.08 1.596 3.479 1.824l131.385 76.699c1.654.969 3.308 2.452 3.536 4.22.285 2.167-1.369 5.018-5.589 7.47L166.183 569.736c-3.934 2.281-9.124 3.593-14.256 3.707-3.992.057-7.698-.57-10.492-1.882-.514-.171-3.08-1.597-3.479-1.825L6.513 493.038c-1.653-.97-3.307-2.452-3.478-4.22-.285-2.167 1.369-5.018 5.588-7.47l294.648-169.422z"/><path opacity=".145" d="M303.442 312.267c3.935-2.281 9.067-3.592 14.199-3.649 4.049-.057 7.699.627 10.436 1.995.399.115 3.136 1.654 3.478 1.882l131.101 76.528c1.483.855 3.136 2.281 3.307 3.992.171 1.938-1.311 4.619-5.36 6.957L165.955 569.393c-3.935 2.281-9.067 3.592-14.199 3.649-4.049.057-7.699-.627-10.436-1.995-.399-.114-3.136-1.654-3.478-1.882l-131.1-76.528c-1.483-.855-3.137-2.281-3.308-3.992-.171-1.938 1.311-4.619 5.36-6.957l294.648-169.421z"/><path opacity=".164" d="M303.671 312.666c3.877-2.224 9.066-3.535 14.199-3.592 4.049-.057 7.755.684 10.435 2.11.228.057 3.194 1.768 3.422 1.882l130.758 76.299c1.369.798 3.022 2.11 3.136 3.764.115 1.71-1.311 4.22-5.189 6.501L165.784 568.994c-3.878 2.224-9.067 3.535-14.199 3.592-4.049.057-7.756-.684-10.436-2.11-.228-.057-3.193-1.767-3.421-1.881L6.97 492.295c-1.37-.798-3.023-2.11-3.137-3.764-.114-1.71 1.312-4.219 5.19-6.5L303.67 312.666z"/><path opacity=".182" d="M303.899 313.009c3.877-2.224 9.01-3.536 14.142-3.536 4.049 0 7.755.742 10.378 2.167.115.057 3.251 1.825 3.365 1.939l130.473 76.186c1.198.684 2.851 1.938 2.908 3.535.057 1.483-1.311 3.821-5.018 5.988L165.499 568.709c-3.878 2.224-9.01 3.536-14.142 3.536-4.049 0-7.755-.742-10.379-2.167-.114-.057-3.25-1.825-3.364-1.939L7.198 491.896c-1.198-.684-2.851-1.938-2.909-3.535-.057-1.483 1.255-3.821 5.019-5.988l294.591-169.364z"/><path opacity=".2" d="M151.186 571.789c-4.106 0-7.756-.799-10.322-2.281L7.369 491.555c-1.027-.571-2.738-1.825-2.738-3.308 0-1.254 1.255-3.421 4.79-5.474L304.07 313.352c3.82-2.224 9.01-3.479 14.142-3.479 4.106 0 7.755.798 10.321 2.281l133.496 77.953c1.026.57 2.737 1.768 2.737 3.308 0 1.254-1.254 3.421-4.79 5.474L165.328 568.31c-3.821 2.167-8.953 3.479-14.142 3.479z"/></g><path opacity=".1" d="M245.049 502.389c42.769 16.309 62.043 3.878 91.354-13.059 29.311-16.936 42.085-31.478 10.094-44.194-31.25-12.432-62.5.684-91.811 17.564-29.311 16.993-32.903 30.85-9.637 39.689z" fill="#000"/><path d="M350.831 463.212s2.167 8.269.513 11.691c-1.654 3.478-9.238 6.272-15.34 3.307-6.101-2.965-8.725-9.238-11.063-10.892-2.281-1.653-15.339-3.136-25.034-11.348-9.751-8.268-8.382-17.335 1.312-17.449 9.751-.171 27.372 4.277 33.645 8.382 6.216 4.106 15.967 16.309 15.967 16.309z" fill="#10054D"/><path d="M346.211 472.109c-6.957 1.425-15.853-4.62-19.959-8.098-4.105-3.479-11.348-1.654-20.757-9.067s-12.716-12.546-8.382-14.998c4.277-2.452 19.901-1.767 32.105 4.848 12.203 6.614 20.358 11.347 20.358 11.347s2.965 9.067 1.482 11.063c-1.596 1.939-.912 4.106-4.847 4.905z" fill="url(#ay)"/><path d="M346.268 319.51s5.189 22.239 1.711 50.467c-3.479 28.17 11.405 94.148 1.255 99.223-5.874 2.908-16.31 1.255-24.464-8.154-8.155-9.41-8.668-18.305-8.896-20.301-1.084-9.752-10.379-82.858-9.865-95.916.513-13.116-3.08-13.857 5.246-20.928 8.269-7.129 35.013-4.391 35.013-4.391z" fill="url(#az)"/><path d="M347.979 369.919c1.369-11.12 1.369-21.327.913-29.596-8.155.057-18.02 1.027-22.525 4.847-8.326 7.071-4.733 7.813-5.247 20.929-.513 13.115 8.839 86.221 9.866 95.916.057.741.228 2.509.798 4.904 6.501 3.934 13.173 4.334 17.45 2.167 10.207-5.019-4.676-70.939-1.255-99.167z" fill="#4965D6"/><path d="M299.052 492.58s3.649 10.721-.799 13.002c-4.448 2.281-11.348 3.649-16.993 1.14-5.589-2.452-7.927-4.961-13.857-4.961-5.931 0-29.026-11.348-33.474-16.994-4.448-5.588 0-12.032 11.063-11.234 11.063.799 26.859 2.167 29.653 3.137 2.794 1.083 24.407 15.91 24.407 15.91z" fill="#10054D"/><path d="M294.091 500.45c-10.379 1.197-13.686-1.654-23.267-3.65-9.58-1.996-36.724-13.002-36.268-19.103.514-6.102 6.729-4.79 12.033-4.334 5.303.456 22.068 1.654 23.38 1.654 1.312 0 28.684 12.374 28.684 12.374s1.995 8.896.171 10.207c-1.768 1.369-1.939 2.567-4.733 2.852z" fill="url(#aA)"/><path d="M325.455 340.21s-23.951 17.963-24.179 47.103c-.228 29.197 3.194 104.584-1.254 108.804-4.448 4.22-20.13 5.645-26.46.969-10.322-7.584-14.598-18.191-14.827-22.012-.513-7.527-5.702-81.83-3.934-109.773 1.711-27.942 24.806-31.534 35.298-31.135 10.55.399 35.356 6.044 35.356 6.044z" fill="url(#aB)"/><path d="M280.176 499.538c7.243 1.255 16.595-.342 19.845-3.421 4.22-3.992 1.312-71.852 1.255-103.786-.228-2.281-.4-3.992-.4-5.018a53.345 53.345 0 0 1 2.567-15.853l-30.281 11.519s-4.676 69.97 7.014 116.559z" fill="#000" fill-opacity=".16"/><path opacity=".5" d="M370.105 580c59.619 0 107.949-23.207 107.949-51.835 0-28.629-48.33-51.836-107.949-51.836-59.618 0-107.948 23.207-107.948 51.836 0 28.628 48.33 51.835 107.948 51.835z" fill="url(#aC)" fill-opacity=".16"/><path d="M423.937 556.963c0 1.254.456 2.166 1.14 2.623l3.764 2.11c.741.399.285-.514 1.369-1.198 2.281-1.311 4.105-4.448 4.105-7.071 0-1.254 1.198-1.312.457-1.711l-3.935-2.11c-.741-.399-1.768-.342-2.851.343-2.224 1.254-4.049 4.39-4.049 7.014z" fill="url(#aD)"/><path d="M427.815 559.074c0 2.623 1.825 3.649 4.106 2.338 2.281-1.312 4.105-4.448 4.105-7.072 0-2.623-1.824-3.649-4.105-2.338-2.281 1.312-4.106 4.505-4.106 7.072z" fill="url(#aE)"/><path d="M422.854 557.134c0-3.022 2.167-6.729 4.79-8.268 1.311-.742 2.452-.856 3.364-.343l4.277 2.338c.171.114.228.172.285.229-.855-.685-2.167-.685-3.649.171-2.623 1.539-4.79 5.189-4.79 8.268l-4.277-2.395z" fill="url(#aF)"/><path d="M431.692 551.946c1.084-.628 2.053-.685 2.795-.342-.685-.172-1.54-.057-2.453.456-2.281 1.311-4.105 4.448-4.105 7.071 0 1.369.513 2.281 1.311 2.68-1.026-.285-1.653-1.254-1.653-2.794 0-2.623 1.881-5.76 4.105-7.071z" fill="url(#aG)"/><path d="M336.289 566.258c0 1.255.456 2.167 1.141 2.623l3.763 2.11c.742.399.285-.513 1.369-1.197 2.281-1.312 4.106-4.448 4.106-7.071 0-1.255 1.197-1.312.456-1.711l-3.878-2.11c-.741-.399-1.768-.342-2.851.285-2.281 1.312-4.106 4.505-4.106 7.071z" fill="url(#aH)"/><path d="M340.167 568.425c0 2.623 1.825 3.649 4.106 2.338 2.281-1.312 4.106-4.448 4.106-7.071 0-2.623-1.825-3.65-4.106-2.338-2.281 1.311-4.106 4.448-4.106 7.071z" fill="url(#aI)"/><path d="M335.206 566.429c0-3.023 2.167-6.729 4.79-8.269 1.311-.741 2.452-.855 3.364-.342l4.334 2.338c.171.114.228.171.228.228-.855-.684-2.167-.684-3.649.171-2.623 1.54-4.79 5.189-4.79 8.269l-4.277-2.395z" fill="url(#aJ)"/><path d="M344.045 561.24c1.083-.627 2.052-.684 2.794-.342-.685-.171-1.54-.057-2.452.456-2.281 1.312-4.106 4.448-4.106 7.071 0 1.369.513 2.281 1.311 2.68-1.026-.285-1.653-1.254-1.653-2.794 0-2.566 1.825-5.759 4.106-7.071z" fill="url(#aK)"/><path d="M296.942 517.501c0 1.254.456 2.167 1.141 2.623l3.763 2.11c.742.399.285-.514 1.426-1.141 2.281-1.311 4.106-4.448 4.106-7.071 0-1.254 1.197-1.311.456-1.711l-3.935-2.167c-.741-.399-1.768-.342-2.851.343-2.281 1.254-4.106 4.448-4.106 7.014z" fill="url(#aL)"/><path d="M300.82 519.668c0 2.623 1.825 3.65 4.106 2.338 2.281-1.311 4.106-4.448 4.106-7.071 0-2.623-1.825-3.649-4.106-2.338-2.281 1.312-4.106 4.448-4.106 7.071z" fill="url(#aM)"/><path d="M295.859 517.672c0-3.022 2.167-6.729 4.79-8.269 1.312-.741 2.452-.855 3.365-.342l4.276 2.338c.172.114.229.171.286.228-.856-.684-2.167-.684-3.65.172-2.623 1.539-4.79 5.189-4.79 8.268l-4.277-2.395z" fill="url(#aN)"/><path d="M304.697 512.483c1.084-.627 2.053-.684 2.795-.342-.685-.171-1.54-.057-2.452.456-2.281 1.312-4.106 4.448-4.106 7.071 0 1.369.513 2.281 1.311 2.681-1.026-.286-1.653-1.255-1.653-2.795 0-2.566 1.824-5.759 4.105-7.071z" fill="url(#aO)"/><path d="M359.043 474.789c0 1.254.456 2.167 1.14 2.623l3.764 2.11c.741.399.285-.513 1.368-1.198 2.281-1.311 4.106-4.447 4.106-7.071 0-1.311 1.198-1.311.456-1.71l-3.934-2.167c-.742-.4-1.768-.343-2.852.342-2.224 1.311-4.048 4.448-4.048 7.071z" fill="url(#aP)"/><path d="M362.863 476.9c0 2.623 1.825 3.649 4.106 2.338 2.281-1.312 4.106-4.448 4.106-7.071 0-2.623-1.825-3.65-4.106-2.338-2.281 1.311-4.106 4.505-4.106 7.071z" fill="url(#aQ)"/><path d="M357.959 474.961c0-3.023 2.167-6.729 4.79-8.269 1.312-.741 2.453-.855 3.365-.342l4.277 2.338c.171.114.228.171.228.171-.855-.627-2.167-.627-3.593.228-2.623 1.54-4.79 5.189-4.79 8.269l-4.277-2.395z" fill="url(#aR)"/><path d="M366.798 469.772c1.083-.628 2.053-.685 2.794-.342-.684-.172-1.54-.058-2.452.456-2.281 1.311-4.106 4.448-4.106 7.071 0 1.368.514 2.281 1.312 2.68-1.027-.285-1.654-1.255-1.654-2.794 0-2.623 1.825-5.76 4.106-7.071z" fill="url(#aS)"/><path d="M436.767 503.759c0 1.255.457 2.167 1.141 2.624l3.764 2.109c.741.4.285-.513 1.425-1.14 2.281-1.312 4.106-4.448 4.106-7.071 0-1.255 1.198-1.312.456-1.711l-3.934-2.167c-.742-.399-1.768-.342-2.852.342-2.224 1.255-4.106 4.448-4.106 7.014z" fill="url(#aT)"/><path d="M440.645 505.926c0 2.623 1.825 3.649 4.106 2.338 2.281-1.312 4.106-4.448 4.106-7.071 0-2.623-1.825-3.65-4.106-2.338-2.281 1.311-4.106 4.505-4.106 7.071z" fill="url(#aU)"/><path d="M435.741 503.93c0-3.023 2.167-6.729 4.791-8.269 1.311-.741 2.452-.855 3.364-.342l4.277 2.338c.171.114.228.171.228.171-.855-.627-2.167-.627-3.593.228-2.623 1.54-4.79 5.189-4.79 8.269l-4.277-2.395z" fill="url(#aV)"/><path d="M444.58 498.798c1.084-.627 2.053-.685 2.794-.342-.684-.171-1.539-.057-2.452.456-2.281 1.311-4.106 4.448-4.106 7.071 0 1.369.514 2.281 1.312 2.68-1.026-.285-1.654-1.254-1.654-2.794 0-2.623 1.825-5.817 4.106-7.071z" fill="url(#aW)"/><path d="M427.188 546.47h6.158v3.706c0 .97-1.368 1.768-3.079 1.768s-3.079-.798-3.079-1.768v-3.706z" fill="url(#aX)"/><path d="M427.188 546.47c0 .969 1.368 1.767 3.079 1.767s3.079-.798 3.079-1.767c0-.97-1.368-1.768-3.079-1.768s-3.079.798-3.079 1.768z" fill="url(#aY)"/><path d="M439.106 494.292h6.158v3.707c0 .969-1.368 1.768-3.079 1.768s-3.079-.799-3.079-1.768v-3.707z" fill="url(#aZ)"/><path d="M442.185 496.06c1.701 0 3.079-.792 3.079-1.768s-1.378-1.768-3.079-1.768c-1.701 0-3.079.792-3.079 1.768s1.378 1.768 3.079 1.768z" fill="url(#ba)"/><path d="M361.837 466.065h6.158v3.707c0 .969-1.368 1.768-3.079 1.768s-3.079-.799-3.079-1.768v-3.707z" fill="url(#bb)"/><path d="M298.995 507.864h6.159v3.707c0 .969-1.369 1.767-3.08 1.767-1.71 0-3.079-.798-3.079-1.767v-3.707z" fill="url(#bc)"/><path d="M298.995 507.865c0 .969 1.369 1.768 3.079 1.768 1.711 0 3.08-.799 3.08-1.768s-1.369-1.768-3.08-1.768c-1.71 0-3.079.799-3.079 1.768z" fill="url(#bd)"/><path d="M338.457 556.164h6.158v3.706c0 .97-1.368 1.768-3.079 1.768s-3.079-.798-3.079-1.768v-3.706z" fill="url(#be)"/><path d="M338.457 556.165c0 .969 1.368 1.767 3.079 1.767s3.079-.798 3.079-1.767c0-.97-1.368-1.768-3.079-1.768s-3.079.798-3.079 1.768z" fill="url(#bf)"/><path d="m368.28 505.526-55.884-2.737c-4.619 0-9.067 1.939-12.317 5.246-.97.855-1.882 2.281-.742 2.794l.285-.285c3.365-3.022 7.756-4.619 12.261-4.391l56.055 7.813-21.612 25.775a50.755 50.755 0 0 0-6.444 12.774l-1.083 3.307c-.229 2.737 3.592 3.536 4.39 1.255 2.053-5.874 5.19-10.265 9.239-14.998l25.091-25.262 37.864 19.217c5.76 3.536 10.607 7.299 14.199 13.002 1.255 2.224 4.277.855 3.479-1.996l-.684-1.197a45.114 45.114 0 0 0-12.261-13.401l-34.956-20.016 50.695-17.735c2.509-.627 5.075-.456 7.47.399 1.198.457 2.566.571 1.54-.456-2.965-2.737-7.071-3.878-11.063-3.136l-53.546 12.887-13.287-37.807c-.627-1.711-5.075-1.312-4.847.456l6.158 38.492z" fill="url(#bg)"/><path d="m369.706 501.306-57.253.171c-4.619 0-9.067 1.939-12.317 5.247-.97.855-1.882 2.281-.742 2.794l.285-.285c3.365-3.022 7.756-4.619 12.261-4.391l56.055 2.566-21.612 31.022a50.732 50.732 0 0 0-6.444 12.773l-1.083 3.308c-.229 2.737 3.592 3.535 4.39 1.254a50.045 50.045 0 0 1 9.239-16.024l25.091-29.425 37.864 23.438a43.889 43.889 0 0 1 14.199 14.028c1.255 2.224 4.277.855 3.479-1.996l-.741-1.312a45.138 45.138 0 0 0-12.261-13.401l-34.956-25.262 50.695-12.545c2.623-.627 5.303-.456 7.755.513 1.084.456 2.281.456 1.255-.57-2.965-2.737-7.071-3.878-11.063-3.137l-53.546 10.208-11.976-31.592-1.311-3.421c-.627-1.711-5.075-1.312-4.847.456l.855 4.163 6.729 31.42z" fill="url(#bh)"/><path d="M368.166 494.178h18.762v11.348c0 3.023-4.22 5.475-9.352 5.475-5.19 0-9.353-2.452-9.353-5.475v-11.348h-.057z" fill="url(#bi)"/><path d="M377.518 499.653c5.165 0 9.353-2.451 9.353-5.475 0-3.023-4.188-5.474-9.353-5.474s-9.352 2.451-9.352 5.474c0 3.024 4.187 5.475 9.352 5.475z" fill="url(#bj)"/><path d="M369.535 454.147h15.967v37.978c0 2.567-3.593 4.676-7.984 4.676s-7.983-2.109-7.983-4.676v-37.978z" fill="url(#bk)"/><path d="M369.535 436.297h15.967v37.979c0 2.566-3.593 4.676-7.984 4.676s-7.983-2.11-7.983-4.676v-37.979z" fill="url(#bl)"/><path d="M375.409 459.906v8.554l-94.605-54.744v-8.725l94.605 54.915z" fill="url(#bm)"/><path d="M375.352 459.906v8.554l92.665-53.832v-8.781l-92.665 54.059z" fill="url(#bn)"/><path d="M375.409 454.717v8.497l-94.605-54.687v-8.782l94.605 54.972z" fill="url(#bo)"/><path d="M375.352 454.716v8.497l92.665-53.831v-8.725l-92.665 54.059z" fill="url(#bp)"/><path d="m468.017 400.657-92.665 54.06-94.548-54.972 92.78-53.946 94.433 54.858z" fill="url(#bq)"/><path d="m375.979 452.322-11.861-2.737-83.314-49.84 95.175 52.577z" fill="url(#br)" fill-opacity=".4"/><path d="M9.65 317.399h20.985V490.983c0 3.365-4.676 6.102-10.493 6.102-5.816 0-10.493-2.737-10.493-6.102V317.399z" fill="url(#bs)"/><path d="M142.289 393.756h20.986V567.34c0 3.365-4.676 6.102-10.493 6.102-5.816 0-10.493-2.737-10.493-6.102V393.756z" fill="url(#bt)"/><path d="M9.65 312.381h20.985v36.268c0 3.365-4.676 6.102-10.493 6.102-5.816 0-10.493-2.737-10.493-6.102v-36.268z" fill="url(#bu)"/><path d="M142.289 251.364h20.986V424.948c0 3.364-4.676 6.102-10.493 6.102-5.816 0-10.493-2.738-10.493-6.102V251.364z" fill="url(#bv)"/><path d="M438.192 223.137h20.986V396.721c0 3.364-4.676 6.101-10.493 6.101s-10.493-2.737-10.493-6.101V223.137z" fill="url(#bw)"/><path d="M4.29 323.786V312.21l8.724-1.996 287.748-165.429c8.326-4.791 20.928-5.361 28.17-1.141l130.131 75.957 5.304-1.197v13.059h-.057c-.171 3.079-2.452 6.329-6.843 8.838l-289.63 166.513c-8.326 4.79-20.928 5.361-28.171 1.141L9.079 331.769c-3.65-2.109-5.189-5.018-4.79-7.983z" fill="url(#bx)"/><path d="M139.61 395.01 9.08 318.825c-7.243-4.163-6.33-11.462 1.995-16.252l289.63-166.513c8.326-4.79 20.928-5.361 28.17-1.141l130.531 76.186c7.242 4.162 6.329 11.462-1.996 16.252L167.78 393.87c-8.326 4.79-20.928 5.303-28.17 1.14z" fill="url(#by)"/><path d="m457.467 226.045-289.63 166.513c-8.326 4.79-20.928 5.36-28.171 1.141L9.079 317.57c-3.022-1.768-4.619-4.049-4.847-6.501-.285 2.909 1.255 5.703 4.847 7.756l130.53 76.185c7.243 4.163 19.845 3.65 28.171-1.14l289.63-166.513c4.847-2.795 7.128-6.444 6.843-9.809-.285 2.966-2.566 6.045-6.786 8.497z" fill="url(#bz)"/><path d="M330.301 289.23c-5.759.684-12.602-1.312-16.651-1.768-4.334-.513-8.611-1.483-8.155-3.421.913-3.821 19.047-1.198 19.047-1.198l5.759 6.387z" fill="url(#bA)"/><path d="M346.154 277.025s-11.975-8.097-19.503-11.519c-4.049-1.824-6.843-2.737-15.054-1.653-3.821.513-6.558 1.254-6.786 3.079-.114.855 2.167.228 2.167.228s-4.505.798-5.076 3.022c-.513 2.224 2.452.97 2.452.97s-4.961.912-5.36 3.136 2.794.913 2.794.913-4.219.855-4.904 2.68c-.627 1.825.627 2.053 3.536 1.996 3.421-.114 11.405-.114 16.936 2.452 5.874 2.737 8.269 7.299 13.686 6.843 5.475-.457 11.234 3.136 11.234 3.136l3.878-15.283z" fill="url(#bB)"/><path d="M342.562 270.24s-5.246 1.539-6.558 7.47c-1.312 5.93.912 16.537.912 16.537l57.653 17.336s39.461 15.225 37.408-3.707c-2.053-18.989-2.053-23.209-23.836-24.464-27.658-1.653-37.808-5.075-46.305-7.299-8.439-2.224-19.274-5.873-19.274-5.873z" fill="url(#bC)"/><path d="M335.776 286.435c.627 5.019 1.14 7.813 1.14 7.813l57.653 17.335s32.732 14.77 37.408-3.592c-11.348-1.198-30.166-.856-54.573-8.269-22.297-6.786-35.869-11.291-41.628-13.287z" fill="#4965D6"/><path d="M392.401 249.14h-24.749v42.655c0 3.992 5.532 7.242 12.375 7.242s12.374-3.25 12.374-7.185V249.14z" fill="url(#bD)"/><path d="m433.745 405.446-38.15 19.673 11.006-16.936 27.144-2.737z" fill="url(#bE)"/><path d="M418.462 232.261c13.002-2.395 20.643 4.847 24.92 20.358 6.044 21.897 19.16 63.412 9.124 72.422-10.892 9.751-86.393 1.026-86.393 1.026s-2.794-9.01-2.281-16.423c.513-7.413 4.904-9.695 4.904-9.695s37.808.856 53.033-.57c2.338-.228-7.413-14.313-12.317-35.412-3.878-16.538-3.536-29.368 9.01-31.706z" fill="url(#bF)"/><path d="M345.641 295.388c3.821 3.706 6.102 5.588 6.102 5.588l58.621-23.95s36.553-9.637 28.228-27.657c-10.094 6.501-25.262 19.217-50.125 29.368-22.696 9.238-36.838 14.484-42.826 16.651z" fill="#D1D3D4"/><path d="M419.602 341.464c-7.356-3.079-47.958-25.091-60.275-21.498-19.047 5.531-55.942 41.799-55.942 41.799s84.226 72.992 130.359 43.681c35.983-22.924-14.142-63.982-14.142-63.982z" fill="url(#bG)"/><path d="M381.452 361.137c-7.356-3.079-49.725-21.042-62.499-20.015-29.425 2.281-46.875 41.799-46.875 41.799s85.082 63.412 123.517 42.199c56.226-31.022-14.143-63.983-14.143-63.983z" fill="url(#bH)"/><path d="M360.581 169.819c-6.9 4.79-13.457 12.032-10.948 30.793 2.509 18.762 3.706 27.772 7.812 29.596 4.106 1.882 6.558-1.026 8.098 4.106 1.539 5.132 1.425 20.985 1.425 20.985l39.347-22.524s-3.82-6.102-2.224-13.23c1.597-7.128 11.348-22.069-.627-39.918-11.918-17.849-34.728-15.453-42.883-9.808z" fill="url(#bI)"/><path d="M347.351 188.124c.399 3.592 3.479 9.01 8.611 8.611 5.132-.4 8.44 5.189 7.755 8.154-.684 2.965.171 3.593.171 3.593s3.536-2.053 5.646.684c2.167 2.737.855 9.409.114 12.032-.741 2.623 8.839 8.782 15.853 8.269 7.014-.513 16.252-2.68 18.704-6.729 2.452-3.992 11.633-17.678 4.733-36.154-6.9-18.476-26.231-27.144-41.97-21.441-15.796 5.759-20.187 17.906-19.617 22.981z" fill="url(#bJ)"/><path opacity=".3" d="M374.08 382.571c-9.055 16.743-116.69-22.242-109.515-37.997 7.119-15.692 120.678 17.362 109.515 37.997z" fill="url(#bK)"/><path d="M312.167 408.183c8.041 3.65 46.875 19.731 71.281 4.676 10.436-6.443 11.462-38.491 11.462-38.491l43.511-12.147c9.181 13.572 14.484 30.965-4.734 43.225-6.557 4.163-30.337 15.397-38.149 19.674-20.985 11.576-55.999-2.167-83.371-16.937z" fill="#D1D3D4" fill-opacity=".64"/><path d="M409.452 188.181c-2.966 3.364-8.383 7.584-18.02 11.006-10.037 3.535-20.529 3.478-28.114 2.68.457 1.083.628 2.224.4 3.079-.685 2.966.171 3.593.171 3.593s3.535-2.053 5.645.684c2.167 2.737.856 9.409.114 12.032-.741 2.624 8.839 8.782 15.853 8.269 7.014-.513 16.252-2.68 18.704-6.729 2.395-3.878 11.063-16.936 5.247-34.614z" fill="#4A2110"/><path d="M405.061 231.805s6.33-1.939 13.971-1.996c7.642-.057 18.248 5.417 21.556 19.274 3.193 13.23 2.395 33.189 3.592 53.604 3.992 68.658 18.647 98.596-2.167 109.773-14.028 7.527-35.07 21.156-51.664 20.244-8.041-.4-25.433-25.548-31.877-38.378-5.361-10.664-3.536-13.002-7.528-44.936-3.991-31.934-14.769-61.245-5.987-75.786 11.177-18.419 60.104-41.799 60.104-41.799z" fill="url(#bL)"/><path d="M375.807 241.727c17.393-12.147 29.539-15.967 29.539-15.967l4.79 2.851s-8.668 4.904-20.244 11.918c-12.659 7.641-30.052 16.195-30.052 16.195s8.269-9.637 15.967-14.997z" fill="#fff"/><path d="M360.581 253.588c3.878-5.132 12.147-10.093 18.705-13.059 18.647-8.211 31.42-14.256 31.42-14.256l10.721 3.992s-37.066 19.046-50.353 24.635c-11.006 4.619-23.38 15.396-23.38 15.396l12.887-16.708z" fill="url(#bM)"/><path d="M440.587 249.027c-1.482-6.102-4.39-10.493-7.755-13.572-7.185 5.246-21.156 15.226-29.596 19.56-11.69 5.987-45.449 21.783-45.449 21.783l-9.409 56.284c.969 5.303 1.882 10.721 2.566 16.252 3.137 25.148 2.68 31.934 4.961 38.891 3.935-3.421 10.436-10.493 14.713-23.095 4.733-14.028 8.268 13.23 8.268 22.924 0 6.102-3.877 17.164-7.698 26.574 6.9 9.466 14.541 17.791 19.16 18.019 16.595.856 37.637-12.773 51.665-20.243 20.871-11.12 6.159-41.115 2.167-109.773-1.198-20.358-.399-40.374-3.593-53.604z" fill="#000" fill-opacity=".16"/><path d="M284.567 322.475c-1.483-3.137-4.79-10.379-6.957-12.66-2.167-2.281-8.269-5.703-9.694-3.65-1.426 2.053 3.136 3.764 4.106 6.045.969 2.281 2.794 5.132 2.566 7.242-.228 2.11 9.979 3.023 9.979 3.023z" fill="url(#bN)"/><path d="M282.4 342.605s-14.484-4.334-22.069-8.212c-4.048-2.053-6.558-3.764-10.435-11.12-1.825-3.421-2.737-6.159-1.198-7.527.742-.627 1.483 1.597 1.483 1.597s-2.509-6.159-.798-8.041c1.71-1.882 2.908 3.307 2.908 3.307s-2.281-6.386-.456-8.154c1.824-1.768 4.733 6.216 4.733 6.216s-1.711-3.992-.456-5.703c1.254-1.711 2.223-.855 3.877 1.597 1.939 2.851 4.562 6.501 10.208 9.238 5.987 2.965 11.576 1.882 14.37 6.615 2.794 4.733 9.523 7.071 9.523 7.071l-11.69 13.116z" fill="url(#bO)"/><path d="M250.181 317.115c0-.057-.057-.114-.057-.171l.114.342s1.882 5.759 6.216 9.352c3.763 3.079 24.92 9.067 30.679 10.664l-4.79 5.36s-14.484-4.334-22.069-8.212c-4.048-2.053-6.558-3.763-10.435-11.12-1.825-3.421-2.737-6.158-1.198-7.527.685-.627 1.369.798 1.54 1.312z" fill="url(#bP)"/><path d="M355.848 270.297c9.922 1.54 17.621 9.01 18.59 29.596 1.027 22.696-1.711 76.528-18.875 75.615-14.598-.741-80.12-30.565-80.12-30.565s.57-9.808 3.935-16.423c3.421-6.615 8.838-6.615 8.838-6.615s34.729 13.002 49.27 17.735c2.224.741-.798-18.476 1.084-40.089 1.596-18.077 4.676-31.249 17.278-29.254z" fill="url(#bQ)"/><path d="m375.18 363.534 9.238-37.58 6.9 4.049-9.238 37.351a230.689 230.689 0 0 0-6.786 55.543v31.877l-6.9-3.764.057-32.333c0-18.59 2.281-37.123 6.729-55.143z" fill="url(#bR)"/><path d="m391.318 330.003 92.779-54.345-9.295 37.693a231.64 231.64 0 0 0-6.729 55.314v31.991l-92.78 54.117v-31.934c0-18.704 2.281-37.351 6.786-55.542l9.239-37.294z" fill="url(#bS)"/><path d="m484.098 275.658-92.78 54.345-6.9-4.049 92.894-54.231 6.786 3.935z" fill="url(#bT)"/><path opacity=".4" d="m484.097 275.658-94.775 52.748-10.436 52.976 13.8-51.322 91.411-54.402z" fill="url(#bU)"/><path d="m155.919 229.639 69.228-39.975 99.566 57.481-69.229 39.975-99.565-57.481z" fill="#ADB3D8"/><path d="m155.919 226.901 69.228-40.032 99.566 57.482-69.229 40.031-99.565-57.481z" fill="#fff"/><path d="M262.327 245.491c2.281-.798 4.904-1.255 7.528-1.255 1.596 0 2.851.742 2.851 1.654 0 1.198.399 2.452 1.197 3.536-.627.627-.855 1.711.171 2.281 1.027.627 2.453.798 3.365.513 4.562 2.395 10.036 3.536 15.91.171 5.873-3.364 3.878-6.558-.285-9.181.456-.513.114-1.369-.913-1.939-1.026-.57-2.908-.456-3.991-.114-1.939-.456-4.106-.684-6.159-.684-1.597 0-2.908-.741-2.851-1.654.057-1.483.798-3.022 2.224-4.334 1.881-1.768 1.482-4.106-1.198-5.645l-4.619-2.68c-.912-.514-2.338-.514-3.25 0L247.9 240.245c-.912.513-.912 1.368 0 1.882l4.619 2.68c2.737 1.539 6.786 1.768 9.808.684z" fill="url(#bV)"/><path d="m248.527 209.623-52.976 30.622 3.079 1.768 52.976-30.565-3.079-1.825zM257.651 214.925l-52.976 30.566 3.137 1.824 52.976-30.565-3.137-1.825zM239.346 204.375 186.37 234.94l3.136 1.825 52.976-30.622-3.136-1.768zM230.222 199.072l-52.976 30.565 3.079 1.825 52.977-30.565-3.08-1.825zM266.832 220.228l-52.976 30.566 3.079 1.824 52.977-30.622-3.08-1.768zM273.96 261.971l-3.136-1.825-20.358 11.804 3.079 1.768 20.415-11.747zM261.7 254.843l-20.415 11.804 3.136 1.825 20.358-11.804-3.079-1.825zM252.519 249.597l-20.358 11.747 3.079 1.825 20.415-11.804-3.136-1.768zM243.395 244.292l-20.415 11.805 3.136 1.767 20.358-11.747-3.079-1.825z" fill="#45108A"/><path d="M173.539 207.171s.685 8.326-3.478 15.967-11.633 13.914-11.633 13.914-1.198-15.796 2.965-21.727c4.163-5.93 12.146-8.154 12.146-8.154z" fill="url(#bW)"/><path d="M173.539 207.171s.685 8.326-3.478 15.967-11.633 13.914-11.633 13.914-1.198-15.796 2.965-21.727c4.163-5.93 12.146-8.154 12.146-8.154z" fill="#D1D3D4"/><path d="M154.607 225.304s4.277 5.36 10.949 9.067 7.869 4.163 14.598 4.676c6.672.513 5.304-1.939 10.721.171s6.33 2.566 7.698 1.882c1.369-.684-1.026-4.79-6.101-6.33s-9.752-2.281-9.752-2.281 6.273-.57 11.12 1.54c4.847 2.167 7.128 6.216 9.866 4.79 2.737-1.426-3.878-7.756-6.33-9.238-2.452-1.483-8.668-4.049-8.668-4.049s15.511 4.676 17.507 7.87c2.68 4.39 6.044 2.509 5.246.399-.798-2.11-2.11-5.304-8.212-9.067-6.101-3.764-8.61-4.733-8.61-4.733s8.211 1.881 12.317 5.816c4.106 3.935 6.615 9.694 8.383 6.159.855-1.711-1.084-6.501-4.904-10.664-2.738-3.022-6.672-6.044-11.177-7.584-10.721-3.593-15.967-.114-22.297-.114s-15.853-5.703-15.853-5.703l-6.501 17.393z" fill="url(#bX)"/><path d="M53.901 97.682c-10.093 3.251-10.664 22.696-4.334 36.952 4.163 9.296 26.46 67.005 36.154 72.194 9.694 5.189 72.764 30.223 72.764 30.223s2.965-11.975 7.299-19.445c4.334-7.47 7.812-10.436 7.812-10.436s-34.386-16.138-46.19-22.753c-11.804-6.615-17.906-10.264-20.472-16.309-2.623-6.102-11.006-32.39-13.8-38.834-7.014-16.138-15.282-39.233-39.233-31.592z" fill="url(#bY)"/><path d="M221.041 159.156c4.334-1.54 6.387.342 11.063 3.25 4.676 2.908 15.112 5.304 21.328 11.462 6.215 6.159 8.895 9.352 9.466 13.629.57 4.277 2.338 15.34-.228 16.651-2.566 1.312-5.361-1.254-7.128-4.447-1.768-3.194-6.387-8.383-9.923-9.923-3.478-1.539-8.44-4.049-8.44-4.049s1.084 2.738-2.794 3.365c-3.82.627-7.698-6.672-10.093-9.238-2.395-2.623-6.672-5.418-7.47-9.923-.799-4.562-2.909-8.211 4.219-10.777z" fill="url(#bZ)"/><defs><linearGradient id="aF" x1="424.764" y1="558.593" x2="432.309" y2="548.482" gradientUnits="userSpaceOnUse"><stop stop-color="#25054D"/><stop offset=".5" stop-color="#45108A"/><stop offset="1" stop-color="#25054D"/></linearGradient><linearGradient id="aA" x1="256.436" y1="517.985" x2="269.289" y2="480.225" gradientUnits="userSpaceOnUse"><stop offset=".091" stop-color="#10054D"/><stop offset=".894" stop-color="#270656"/></linearGradient><linearGradient id="d" x1="177.008" y1="389.689" x2="184.561" y2="379.57" gradientUnits="userSpaceOnUse"><stop stop-color="#25054D"/><stop offset=".5" stop-color="#45108A"/><stop offset="1" stop-color="#25054D"/></linearGradient><linearGradient id="f" x1="90.076" y1="400.408" x2="97.419" y2="390.568" gradientUnits="userSpaceOnUse"><stop stop-color="#25054D"/><stop offset=".5" stop-color="#45108A"/><stop offset="1" stop-color="#25054D"/></linearGradient><linearGradient id="g" x1="100.523" y1="397.154" x2="92.327" y2="397.154" gradientUnits="userSpaceOnUse"><stop stop-color="#25054D"/><stop offset=".583" stop-color="#2F085F"/><stop offset="1" stop-color="#370B6F"/></linearGradient><linearGradient id="h" x1="89.252" y1="399.002" x2="96.806" y2="388.881" gradientUnits="userSpaceOnUse"><stop stop-color="#25054D"/><stop offset=".5" stop-color="#45108A"/><stop offset="1" stop-color="#25054D"/></linearGradient><linearGradient id="j" x1="50.701" y1="351.615" x2="58.045" y2="341.774" gradientUnits="userSpaceOnUse"><stop stop-color="#25054D"/><stop offset=".5" stop-color="#45108A"/><stop offset="1" stop-color="#25054D"/></linearGradient><linearGradient id="k" x1="61.148" y1="348.361" x2="52.953" y2="348.361" gradientUnits="userSpaceOnUse"><stop stop-color="#25054D"/><stop offset=".583" stop-color="#2F085F"/><stop offset="1" stop-color="#370B6F"/></linearGradient><linearGradient id="l" x1="49.904" y1="350.228" x2="57.455" y2="340.11" gradientUnits="userSpaceOnUse"><stop stop-color="#25054D"/><stop offset=".5" stop-color="#45108A"/><stop offset="1" stop-color="#25054D"/></linearGradient><linearGradient id="n" x1="112.837" y1="308.839" x2="120.18" y2="298.998" gradientUnits="userSpaceOnUse"><stop stop-color="#25054D"/><stop offset=".5" stop-color="#45108A"/><stop offset="1" stop-color="#25054D"/></linearGradient><linearGradient id="o" x1="123.285" y1="305.586" x2="115.089" y2="305.586" gradientUnits="userSpaceOnUse"><stop stop-color="#25054D"/><stop offset=".583" stop-color="#2F085F"/><stop offset="1" stop-color="#370B6F"/></linearGradient><linearGradient id="p" x1="112.013" y1="307.434" x2="119.566" y2="297.314" gradientUnits="userSpaceOnUse"><stop stop-color="#25054D"/><stop offset=".5" stop-color="#45108A"/><stop offset="1" stop-color="#25054D"/></linearGradient><linearGradient id="r" x1="190.67" y1="337.881" x2="198.012" y2="328.041" gradientUnits="userSpaceOnUse"><stop stop-color="#25054D"/><stop offset=".5" stop-color="#45108A"/><stop offset="1" stop-color="#25054D"/></linearGradient><linearGradient id="s" x1="201.117" y1="334.627" x2="192.921" y2="334.627" gradientUnits="userSpaceOnUse"><stop stop-color="#25054D"/><stop offset=".583" stop-color="#2F085F"/><stop offset="1" stop-color="#370B6F"/></linearGradient><linearGradient id="t" x1="189.846" y1="336.475" x2="197.399" y2="326.354" gradientUnits="userSpaceOnUse"><stop stop-color="#25054D"/><stop offset=".5" stop-color="#45108A"/><stop offset="1" stop-color="#25054D"/></linearGradient><linearGradient id="v" x1="185.537" y1="380.328" x2="179.481" y2="380.328" gradientUnits="userSpaceOnUse"><stop stop-color="#25054D"/><stop offset=".5" stop-color="#45108A"/><stop offset="1" stop-color="#25054D"/></linearGradient><linearGradient id="w" x1="184.924" y1="376.173" x2="180.054" y2="378.984" gradientUnits="userSpaceOnUse"><stop stop-color="#25054D"/><stop offset=".583" stop-color="#2F085F"/><stop offset="1" stop-color="#370B6F"/></linearGradient><linearGradient id="x" x1="197.485" y1="328.091" x2="191.429" y2="328.091" gradientUnits="userSpaceOnUse"><stop stop-color="#25054D"/><stop offset=".5" stop-color="#45108A"/><stop offset="1" stop-color="#25054D"/></linearGradient><linearGradient id="y" x1="196.873" y1="323.936" x2="192.003" y2="326.747" gradientUnits="userSpaceOnUse"><stop stop-color="#25054D"/><stop offset=".583" stop-color="#2F085F"/><stop offset="1" stop-color="#370B6F"/></linearGradient><linearGradient id="z" x1="120.131" y1="299.835" x2="114.075" y2="299.835" gradientUnits="userSpaceOnUse"><stop stop-color="#25054D"/><stop offset=".5" stop-color="#45108A"/><stop offset="1" stop-color="#25054D"/></linearGradient><linearGradient id="A" x1="57.255" y1="341.695" x2="51.198" y2="341.695" gradientUnits="userSpaceOnUse"><stop stop-color="#25054D"/><stop offset=".5" stop-color="#45108A"/><stop offset="1" stop-color="#25054D"/></linearGradient><linearGradient id="B" x1="56.642" y1="337.54" x2="51.772" y2="340.351" gradientUnits="userSpaceOnUse"><stop stop-color="#25054D"/><stop offset=".583" stop-color="#2F085F"/><stop offset="1" stop-color="#370B6F"/></linearGradient><linearGradient id="C" x1="96.76" y1="390.008" x2="90.704" y2="390.008" gradientUnits="userSpaceOnUse"><stop stop-color="#25054D"/><stop offset=".5" stop-color="#45108A"/><stop offset="1" stop-color="#25054D"/></linearGradient><linearGradient id="D" x1="96.148" y1="385.853" x2="91.278" y2="388.664" gradientUnits="userSpaceOnUse"><stop stop-color="#25054D"/><stop offset=".583" stop-color="#2F085F"/><stop offset="1" stop-color="#370B6F"/></linearGradient><linearGradient id="E" x1="130.38" y1="341.979" x2="71.149" y2="262.285" gradientUnits="userSpaceOnUse"><stop offset=".03" stop-color="#8688B3"/><stop offset=".49" stop-color="#AAABCB"/><stop offset="1" stop-color="#C7BAD8"/></linearGradient><linearGradient id="F" x1="184.766" y1="317.392" x2="131.713" y2="409.276" gradientUnits="userSpaceOnUse"><stop offset=".03" stop-color="#8688B3"/><stop offset=".49" stop-color="#AAABCB"/><stop offset="1" stop-color="#C7BAD8"/></linearGradient><linearGradient id="G" x1="139.014" y1="333.613" x2="120.563" y2="333.613" gradientUnits="userSpaceOnUse"><stop stop-color="#8A92B3"/><stop offset=".062" stop-color="#8E95B6"/><stop offset=".129" stop-color="#9C9EBE"/><stop offset=".199" stop-color="#B1ACCB"/><stop offset=".253" stop-color="#C7BAD8"/><stop offset=".333" stop-color="#B2AACC"/><stop offset=".449" stop-color="#9A97BE"/><stop offset=".557" stop-color="#8B8CB6"/><stop offset=".646" stop-color="#8688B3"/><stop offset=".849" stop-color="#AAABCB"/><stop offset="1" stop-color="#9396B3"/></linearGradient><linearGradient id="H" x1="137.148" y1="320.953" x2="122.31" y2="329.52" gradientUnits="userSpaceOnUse"><stop offset=".056" stop-color="#838FC7"/><stop offset=".26" stop-color="#8590C8"/><stop offset=".361" stop-color="#8D94CB"/><stop offset=".439" stop-color="#9A9ACF"/><stop offset=".495" stop-color="#A9A1D5"/><stop offset=".593" stop-color="#ADA5D7"/><stop offset=".7" stop-color="#B9B3DD"/><stop offset=".811" stop-color="#CDC8E7"/><stop offset=".925" stop-color="#E9E7F4"/><stop offset="1" stop-color="#fff"/></linearGradient><linearGradient id="I" x1="137.65" y1="306.489" x2="121.908" y2="306.489" gradientUnits="userSpaceOnUse"><stop stop-color="#8A92B3"/><stop offset=".062" stop-color="#8E95B6"/><stop offset=".129" stop-color="#9C9EBE"/><stop offset=".199" stop-color="#B1ACCB"/><stop offset=".253" stop-color="#C7BAD8"/><stop offset=".333" stop-color="#B2AACC"/><stop offset=".449" stop-color="#9A97BE"/><stop offset=".557" stop-color="#8B8CB6"/><stop offset=".646" stop-color="#8688B3"/><stop offset=".849" stop-color="#AAABCB"/><stop offset="1" stop-color="#9396B3"/></linearGradient><linearGradient id="J" x1="129.729" y1="288.299" x2="129.729" y2="307.52" gradientUnits="userSpaceOnUse"><stop stop-color="#4C4C4C"/><stop offset="1" stop-color="#fff"/></linearGradient><linearGradient id="K" x1="114.501" y1="290.381" x2="-85.681" y2="230.44" gradientUnits="userSpaceOnUse"><stop offset=".03" stop-color="#8688B3"/><stop offset=".49" stop-color="#AAABCB"/><stop offset="1" stop-color="#C7BAD8"/></linearGradient><linearGradient id="L" x1="304.56" y1="310.203" x2="47.032" y2="252.473" gradientUnits="userSpaceOnUse"><stop offset=".03" stop-color="#8688B3"/><stop offset=".49" stop-color="#AAABCB"/><stop offset="1" stop-color="#C7BAD8"/></linearGradient><linearGradient id="M" x1="114.501" y1="285.17" x2="-85.681" y2="225.229" gradientUnits="userSpaceOnUse"><stop offset=".035" stop-color="#9F19AB"/><stop offset=".244" stop-color="#AE25B1"/><stop offset=".645" stop-color="#D744BF"/><stop offset="1" stop-color="#FF63CE"/></linearGradient><linearGradient id="N" x1="304.56" y1="304.991" x2="47.032" y2="247.261" gradientUnits="userSpaceOnUse"><stop offset=".035" stop-color="#9F19AB"/><stop offset=".244" stop-color="#AE25B1"/><stop offset=".645" stop-color="#D744BF"/><stop offset="1" stop-color="#FF63CE"/></linearGradient><linearGradient id="O" x1="38.602" y1="68.415" x2="144.417" y2="270.075" gradientUnits="userSpaceOnUse"><stop offset=".035" stop-color="#9F19AB"/><stop offset=".244" stop-color="#AE25B1"/><stop offset=".645" stop-color="#D744BF"/><stop offset="1" stop-color="#FF63CE"/></linearGradient><linearGradient id="Q" x1="47.783" y1="189.258" x2="-68.863" y2="154.329" gradientUnits="userSpaceOnUse"><stop offset=".035" stop-color="#9F19AB"/><stop offset=".244" stop-color="#AE25B1"/><stop offset=".645" stop-color="#D744BF"/><stop offset="1" stop-color="#FF63CE"/></linearGradient><linearGradient id="R" x1="277.884" y1="203.185" x2="-125.792" y2="112.694" gradientUnits="userSpaceOnUse"><stop offset=".035" stop-color="#9F19AB"/><stop offset=".244" stop-color="#AE25B1"/><stop offset=".645" stop-color="#D744BF"/><stop offset="1" stop-color="#FF63CE"/></linearGradient><linearGradient id="S" x1="55.483" y1="73.417" x2="68.175" y2="97.605" gradientUnits="userSpaceOnUse"><stop offset=".035" stop-color="#9F19AB"/><stop offset=".244" stop-color="#AE25B1"/><stop offset=".645" stop-color="#D744BF"/><stop offset="1" stop-color="#FF63CE"/></linearGradient><linearGradient id="U" x1="196.242" y1="148.061" x2="69.132" y2="-37.328" gradientUnits="userSpaceOnUse"><stop offset=".035" stop-color="#138BBD"/><stop offset=".226" stop-color="#169AC7"/><stop offset=".595" stop-color="#1FC3DF"/><stop offset="1" stop-color="#2AF6FF"/></linearGradient><linearGradient id="ak" x1="216.264" y1="412.711" x2="208.124" y2="330.641" gradientUnits="userSpaceOnUse"><stop offset=".515" stop-color="#45108A"/><stop offset="1" stop-color="#3A3B9E"/></linearGradient><linearGradient id="al" x1="178.808" y1="370.879" x2="244.323" y2="366.018" gradientUnits="userSpaceOnUse"><stop offset=".091" stop-color="#10054D"/><stop offset=".894" stop-color="#270656"/></linearGradient><linearGradient id="am" x1="145.932" y1="448.248" x2="139.827" y2="367.536" gradientUnits="userSpaceOnUse"><stop offset=".515" stop-color="#45108A"/><stop offset="1" stop-color="#3A3B9E"/></linearGradient><linearGradient id="an" x1="111.523" y1="401.533" x2="173.145" y2="411.733" gradientUnits="userSpaceOnUse"><stop offset=".091" stop-color="#10054D"/><stop offset=".894" stop-color="#270656"/></linearGradient><linearGradient id="ao" x1="95.732" y1="298.202" x2="577.802" y2="118.374" gradientUnits="userSpaceOnUse"><stop offset=".035" stop-color="#138BBD"/><stop offset=".226" stop-color="#169AC7"/><stop offset=".595" stop-color="#1FC3DF"/><stop offset="1" stop-color="#2AF6FF"/></linearGradient><linearGradient id="ap" x1="168.138" y1="155.693" x2="92.193" y2="92.367" gradientUnits="userSpaceOnUse"><stop offset=".035" stop-color="#9D9EB3"/><stop offset=".581" stop-color="#D4D1D8"/><stop offset="1" stop-color="#EEEBF2"/></linearGradient><linearGradient id="aq" x1="148.797" y1="153.254" x2="39.124" y2="69.049" gradientUnits="userSpaceOnUse"><stop offset=".035" stop-color="#9F19AB"/><stop offset=".244" stop-color="#AE25B1"/><stop offset=".645" stop-color="#D744BF"/><stop offset="1" stop-color="#FF63CE"/></linearGradient><linearGradient id="ar" x1="191.949" y1="149.472" x2="18.35" y2="151.651" gradientUnits="userSpaceOnUse"><stop offset=".035" stop-color="#138BBD"/><stop offset=".226" stop-color="#169AC7"/><stop offset=".595" stop-color="#1FC3DF"/><stop offset="1" stop-color="#2AF6FF"/></linearGradient><linearGradient id="as" x1="169.882" y1="121.442" x2="81.775" y2="121.442" gradientUnits="userSpaceOnUse"><stop offset=".035" stop-color="#138BBD"/><stop offset=".226" stop-color="#169AC7"/><stop offset=".595" stop-color="#1FC3DF"/><stop offset="1" stop-color="#2AF6FF"/></linearGradient><linearGradient id="at" x1="166.725" y1="167.813" x2="8.374" y2="165.075" gradientUnits="userSpaceOnUse"><stop offset=".035" stop-color="#138BBD"/><stop offset=".226" stop-color="#169AC7"/><stop offset=".595" stop-color="#1FC3DF"/><stop offset="1" stop-color="#2AF6FF"/></linearGradient><linearGradient id="aw" x1="81.298" y1="27.138" x2="141.962" y2="27.138" gradientUnits="userSpaceOnUse"><stop offset=".035" stop-color="#602213"/><stop offset=".571" stop-color="#6D310E"/><stop offset="1" stop-color="#7A4108"/></linearGradient><linearGradient id="ax" x1="137.212" y1="115.527" x2="87.652" y2="136.177" gradientUnits="userSpaceOnUse"><stop offset=".035" stop-color="#138BBD"/><stop offset=".226" stop-color="#169AC7"/><stop offset=".595" stop-color="#1FC3DF"/><stop offset="1" stop-color="#2AF6FF"/></linearGradient><linearGradient id="ay" x1="323.301" y1="477.773" x2="323.301" y2="445.365" gradientUnits="userSpaceOnUse"><stop offset=".091" stop-color="#10054D"/><stop offset=".894" stop-color="#270656"/></linearGradient><linearGradient id="az" x1="329.252" y1="400.32" x2="329.252" y2="248.862" gradientUnits="userSpaceOnUse"><stop stop-color="#5778FF"/><stop offset=".18" stop-color="#5C7DFF"/><stop offset=".39" stop-color="#6A8AFF"/><stop offset=".61" stop-color="#82A0FF"/><stop offset=".85" stop-color="#A3BEFF"/><stop offset="1" stop-color="#BCD5FF"/></linearGradient><linearGradient id="b" x1="177.806" y1="391.077" x2="185.15" y2="381.237" gradientUnits="userSpaceOnUse"><stop stop-color="#25054D"/><stop offset=".5" stop-color="#45108A"/><stop offset="1" stop-color="#25054D"/></linearGradient><linearGradient id="aB" x1="289.945" y1="423.168" x2="289.945" y2="257.364" gradientUnits="userSpaceOnUse"><stop stop-color="#5778FF"/><stop offset=".18" stop-color="#5C7DFF"/><stop offset=".39" stop-color="#6A8AFF"/><stop offset=".61" stop-color="#82A0FF"/><stop offset=".85" stop-color="#A3BEFF"/><stop offset="1" stop-color="#BCD5FF"/></linearGradient><linearGradient id="aD" x1="425.562" y1="559.978" x2="432.899" y2="550.145" gradientUnits="userSpaceOnUse"><stop stop-color="#25054D"/><stop offset=".5" stop-color="#45108A"/><stop offset="1" stop-color="#25054D"/></linearGradient><linearGradient id="aE" x1="436.001" y1="556.728" x2="427.81" y2="556.728" gradientUnits="userSpaceOnUse"><stop stop-color="#25054D"/><stop offset=".583" stop-color="#2F085F"/><stop offset="1" stop-color="#370B6F"/></linearGradient><linearGradient id="c" x1="188.253" y1="387.823" x2="180.057" y2="387.823" gradientUnits="userSpaceOnUse"><stop stop-color="#25054D"/><stop offset=".583" stop-color="#2F085F"/><stop offset="1" stop-color="#370B6F"/></linearGradient><linearGradient id="aH" x1="337.897" y1="569.303" x2="345.234" y2="559.47" gradientUnits="userSpaceOnUse"><stop stop-color="#25054D"/><stop offset=".5" stop-color="#45108A"/><stop offset="1" stop-color="#25054D"/></linearGradient><linearGradient id="aI" x1="348.336" y1="566.051" x2="340.147" y2="566.051" gradientUnits="userSpaceOnUse"><stop stop-color="#25054D"/><stop offset=".583" stop-color="#2F085F"/><stop offset="1" stop-color="#370B6F"/></linearGradient><linearGradient id="aJ" x1="337.101" y1="567.916" x2="344.647" y2="557.804" gradientUnits="userSpaceOnUse"><stop stop-color="#25054D"/><stop offset=".5" stop-color="#45108A"/><stop offset="1" stop-color="#25054D"/></linearGradient><linearGradient id="aL" x1="298.554" y1="520.546" x2="305.891" y2="510.714" gradientUnits="userSpaceOnUse"><stop stop-color="#25054D"/><stop offset=".5" stop-color="#45108A"/><stop offset="1" stop-color="#25054D"/></linearGradient><linearGradient id="aM" x1="308.992" y1="517.295" x2="300.803" y2="517.295" gradientUnits="userSpaceOnUse"><stop stop-color="#25054D"/><stop offset=".583" stop-color="#2F085F"/><stop offset="1" stop-color="#370B6F"/></linearGradient><linearGradient id="aN" x1="297.757" y1="519.161" x2="305.303" y2="509.05" gradientUnits="userSpaceOnUse"><stop stop-color="#25054D"/><stop offset=".5" stop-color="#45108A"/><stop offset="1" stop-color="#25054D"/></linearGradient><linearGradient id="aP" x1="360.641" y1="477.804" x2="367.978" y2="467.971" gradientUnits="userSpaceOnUse"><stop stop-color="#25054D"/><stop offset=".5" stop-color="#45108A"/><stop offset="1" stop-color="#25054D"/></linearGradient><linearGradient id="aQ" x1="371.08" y1="474.553" x2="362.891" y2="474.553" gradientUnits="userSpaceOnUse"><stop stop-color="#25054D"/><stop offset=".583" stop-color="#2F085F"/><stop offset="1" stop-color="#370B6F"/></linearGradient><linearGradient id="aR" x1="359.82" y1="476.399" x2="367.366" y2="466.287" gradientUnits="userSpaceOnUse"><stop stop-color="#25054D"/><stop offset=".5" stop-color="#45108A"/><stop offset="1" stop-color="#25054D"/></linearGradient><linearGradient id="aT" x1="438.415" y1="506.823" x2="445.752" y2="496.991" gradientUnits="userSpaceOnUse"><stop stop-color="#25054D"/><stop offset=".5" stop-color="#45108A"/><stop offset="1" stop-color="#25054D"/></linearGradient><linearGradient id="aU" x1="448.854" y1="503.571" x2="440.665" y2="503.571" gradientUnits="userSpaceOnUse"><stop stop-color="#25054D"/><stop offset=".583" stop-color="#2F085F"/><stop offset="1" stop-color="#370B6F"/></linearGradient><linearGradient id="aV" x1="437.591" y1="505.417" x2="445.14" y2="495.305" gradientUnits="userSpaceOnUse"><stop stop-color="#25054D"/><stop offset=".5" stop-color="#45108A"/><stop offset="1" stop-color="#25054D"/></linearGradient><linearGradient id="aX" x1="433.287" y1="549.238" x2="427.236" y2="549.238" gradientUnits="userSpaceOnUse"><stop stop-color="#25054D"/><stop offset=".5" stop-color="#45108A"/><stop offset="1" stop-color="#25054D"/></linearGradient><linearGradient id="aY" x1="432.674" y1="545.085" x2="427.807" y2="547.895" gradientUnits="userSpaceOnUse"><stop stop-color="#25054D"/><stop offset=".583" stop-color="#2F085F"/><stop offset="1" stop-color="#370B6F"/></linearGradient><linearGradient id="aZ" x1="445.223" y1="497.04" x2="439.172" y2="497.04" gradientUnits="userSpaceOnUse"><stop stop-color="#25054D"/><stop offset=".5" stop-color="#45108A"/><stop offset="1" stop-color="#25054D"/></linearGradient><linearGradient id="ba" x1="444.613" y1="492.888" x2="439.746" y2="495.698" gradientUnits="userSpaceOnUse"><stop stop-color="#25054D"/><stop offset=".583" stop-color="#2F085F"/><stop offset="1" stop-color="#370B6F"/></linearGradient><linearGradient id="bb" x1="367.93" y1="468.807" x2="361.879" y2="468.807" gradientUnits="userSpaceOnUse"><stop stop-color="#25054D"/><stop offset=".5" stop-color="#45108A"/><stop offset="1" stop-color="#25054D"/></linearGradient><linearGradient id="bc" x1="305.102" y1="510.634" x2="299.049" y2="510.634" gradientUnits="userSpaceOnUse"><stop stop-color="#25054D"/><stop offset=".5" stop-color="#45108A"/><stop offset="1" stop-color="#25054D"/></linearGradient><linearGradient id="bd" x1="304.49" y1="506.483" x2="299.623" y2="509.293" gradientUnits="userSpaceOnUse"><stop stop-color="#25054D"/><stop offset=".583" stop-color="#2F085F"/><stop offset="1" stop-color="#370B6F"/></linearGradient><linearGradient id="be" x1="344.578" y1="558.91" x2="338.524" y2="558.91" gradientUnits="userSpaceOnUse"><stop stop-color="#25054D"/><stop offset=".5" stop-color="#45108A"/><stop offset="1" stop-color="#25054D"/></linearGradient><linearGradient id="bf" x1="343.965" y1="554.759" x2="339.098" y2="557.569" gradientUnits="userSpaceOnUse"><stop stop-color="#25054D"/><stop offset=".583" stop-color="#2F085F"/><stop offset="1" stop-color="#370B6F"/></linearGradient><linearGradient id="bg" x1="378.171" y1="510.918" x2="318.986" y2="431.285" gradientUnits="userSpaceOnUse"><stop offset=".03" stop-color="#8688B3"/><stop offset=".49" stop-color="#AAABCB"/><stop offset="1" stop-color="#C7BAD8"/></linearGradient><linearGradient id="bh" x1="432.514" y1="486.35" x2="379.501" y2="578.164" gradientUnits="userSpaceOnUse"><stop offset=".03" stop-color="#8688B3"/><stop offset=".49" stop-color="#AAABCB"/><stop offset="1" stop-color="#C7BAD8"/></linearGradient><linearGradient id="bi" x1="386.798" y1="502.558" x2="368.362" y2="502.558" gradientUnits="userSpaceOnUse"><stop stop-color="#8A92B3"/><stop offset=".062" stop-color="#8E95B6"/><stop offset=".129" stop-color="#9C9EBE"/><stop offset=".199" stop-color="#B1ACCB"/><stop offset=".253" stop-color="#C7BAD8"/><stop offset=".333" stop-color="#B2AACC"/><stop offset=".449" stop-color="#9A97BE"/><stop offset=".557" stop-color="#8B8CB6"/><stop offset=".646" stop-color="#8688B3"/><stop offset=".849" stop-color="#AAABCB"/><stop offset="1" stop-color="#9396B3"/></linearGradient><linearGradient id="bj" x1="384.935" y1="489.908" x2="370.108" y2="498.468" gradientUnits="userSpaceOnUse"><stop offset=".056" stop-color="#838FC7"/><stop offset=".26" stop-color="#8590C8"/><stop offset=".361" stop-color="#8D94CB"/><stop offset=".439" stop-color="#9A9ACF"/><stop offset=".495" stop-color="#A9A1D5"/><stop offset=".593" stop-color="#ADA5D7"/><stop offset=".7" stop-color="#B9B3DD"/><stop offset=".811" stop-color="#CDC8E7"/><stop offset=".925" stop-color="#E9E7F4"/><stop offset="1" stop-color="#fff"/></linearGradient><linearGradient id="bk" x1="385.436" y1="475.455" x2="369.707" y2="475.455" gradientUnits="userSpaceOnUse"><stop stop-color="#8A92B3"/><stop offset=".062" stop-color="#8E95B6"/><stop offset=".129" stop-color="#9C9EBE"/><stop offset=".199" stop-color="#B1ACCB"/><stop offset=".253" stop-color="#C7BAD8"/><stop offset=".333" stop-color="#B2AACC"/><stop offset=".449" stop-color="#9A97BE"/><stop offset=".557" stop-color="#8B8CB6"/><stop offset=".646" stop-color="#8688B3"/><stop offset=".849" stop-color="#AAABCB"/><stop offset="1" stop-color="#9396B3"/></linearGradient><linearGradient id="bl" x1="377.52" y1="457.279" x2="377.52" y2="476.485" gradientUnits="userSpaceOnUse"><stop stop-color="#4C4C4C"/><stop offset="1" stop-color="#fff"/></linearGradient><linearGradient id="bm" x1="357.687" y1="445.562" x2="157.659" y2="385.667" gradientUnits="userSpaceOnUse"><stop offset=".03" stop-color="#8688B3"/><stop offset=".49" stop-color="#AAABCB"/><stop offset="1" stop-color="#C7BAD8"/></linearGradient><linearGradient id="bn" x1="547.601" y1="465.368" x2="290.27" y2="407.683" gradientUnits="userSpaceOnUse"><stop offset=".03" stop-color="#8688B3"/><stop offset=".49" stop-color="#AAABCB"/><stop offset="1" stop-color="#C7BAD8"/></linearGradient><linearGradient id="bo" x1="357.687" y1="440.355" x2="157.659" y2="380.46" gradientUnits="userSpaceOnUse"><stop offset=".035" stop-color="#9F19AB"/><stop offset=".244" stop-color="#AE25B1"/><stop offset=".645" stop-color="#D744BF"/><stop offset="1" stop-color="#FF63CE"/></linearGradient><linearGradient id="bp" x1="547.601" y1="460.161" x2="290.27" y2="402.475" gradientUnits="userSpaceOnUse"><stop offset=".035" stop-color="#9F19AB"/><stop offset=".244" stop-color="#AE25B1"/><stop offset=".645" stop-color="#D744BF"/><stop offset="1" stop-color="#FF63CE"/></linearGradient><linearGradient id="bq" x1="281.844" y1="223.764" x2="387.58" y2="425.271" gradientUnits="userSpaceOnUse"><stop offset=".035" stop-color="#9F19AB"/><stop offset=".244" stop-color="#AE25B1"/><stop offset=".645" stop-color="#D744BF"/><stop offset="1" stop-color="#FF63CE"/></linearGradient><linearGradient id="bs" x1="30.551" y1="407.29" x2="9.882" y2="407.29" gradientUnits="userSpaceOnUse"><stop stop-color="#8A92B3"/><stop offset=".062" stop-color="#8E95B6"/><stop offset=".129" stop-color="#9C9EBE"/><stop offset=".199" stop-color="#B1ACCB"/><stop offset=".253" stop-color="#C7BAD8"/><stop offset=".333" stop-color="#B2AACC"/><stop offset=".449" stop-color="#9A97BE"/><stop offset=".557" stop-color="#8B8CB6"/><stop offset=".646" stop-color="#8688B3"/><stop offset=".849" stop-color="#AAABCB"/><stop offset="1" stop-color="#9396B3"/></linearGradient><linearGradient id="bt" x1="163.219" y1="483.632" x2="142.55" y2="483.632" gradientUnits="userSpaceOnUse"><stop stop-color="#8A92B3"/><stop offset=".062" stop-color="#8E95B6"/><stop offset=".129" stop-color="#9C9EBE"/><stop offset=".199" stop-color="#B1ACCB"/><stop offset=".253" stop-color="#C7BAD8"/><stop offset=".333" stop-color="#B2AACC"/><stop offset=".449" stop-color="#9A97BE"/><stop offset=".557" stop-color="#8B8CB6"/><stop offset=".646" stop-color="#8688B3"/><stop offset=".849" stop-color="#AAABCB"/><stop offset="1" stop-color="#9396B3"/></linearGradient><linearGradient id="bu" x1="22.786" y1="319.98" x2="15.358" y2="350.313" gradientUnits="userSpaceOnUse"><stop stop-color="#4C4C4C"/><stop offset="1" stop-color="#fff"/></linearGradient><linearGradient id="bv" x1="152.817" y1="391.008" x2="152.817" y2="427.719" gradientUnits="userSpaceOnUse"><stop stop-color="#4C4C4C"/><stop offset="1" stop-color="#fff"/></linearGradient><linearGradient id="bw" x1="459.082" y1="313.016" x2="438.413" y2="313.016" gradientUnits="userSpaceOnUse"><stop stop-color="#8A92B3"/><stop offset=".062" stop-color="#8E95B6"/><stop offset=".129" stop-color="#9C9EBE"/><stop offset=".199" stop-color="#B1ACCB"/><stop offset=".253" stop-color="#C7BAD8"/><stop offset=".333" stop-color="#B2AACC"/><stop offset=".449" stop-color="#9A97BE"/><stop offset=".557" stop-color="#8B8CB6"/><stop offset=".646" stop-color="#8688B3"/><stop offset=".849" stop-color="#AAABCB"/><stop offset="1" stop-color="#9396B3"/></linearGradient><linearGradient id="bx" x1="247.729" y1="423.183" x2="223.794" y2="153.231" gradientUnits="userSpaceOnUse"><stop offset=".056" stop-color="#838FC7"/><stop offset=".26" stop-color="#8590C8"/><stop offset=".361" stop-color="#8D94CB"/><stop offset=".439" stop-color="#9A9ACF"/><stop offset=".495" stop-color="#A9A1D5"/><stop offset=".593" stop-color="#ADA5D7"/><stop offset=".7" stop-color="#B9B3DD"/><stop offset=".811" stop-color="#CDC8E7"/><stop offset=".925" stop-color="#E9E7F4"/><stop offset="1" stop-color="#fff"/></linearGradient><linearGradient id="by" x1="131.556" y1="-53.832" x2="271.346" y2="379.926" gradientUnits="userSpaceOnUse"><stop offset=".056" stop-color="#838FC7"/><stop offset=".26" stop-color="#8590C8"/><stop offset=".361" stop-color="#8D94CB"/><stop offset=".439" stop-color="#9A9ACF"/><stop offset=".495" stop-color="#A9A1D5"/><stop offset=".593" stop-color="#ADA5D7"/><stop offset=".7" stop-color="#B9B3DD"/><stop offset=".811" stop-color="#CDC8E7"/><stop offset=".925" stop-color="#E9E7F4"/><stop offset="1" stop-color="#fff"/></linearGradient><linearGradient id="bC" x1="383.822" y1="295.539" x2="383.822" y2="248.422" gradientUnits="userSpaceOnUse"><stop stop-color="#5778FF"/><stop offset=".18" stop-color="#5C7DFF"/><stop offset=".39" stop-color="#6A8AFF"/><stop offset=".61" stop-color="#82A0FF"/><stop offset=".85" stop-color="#A3BEFF"/><stop offset="1" stop-color="#BCD5FF"/></linearGradient><linearGradient id="bD" x1="376.957" y1="258.097" x2="385.705" y2="293.827" gradientUnits="userSpaceOnUse"><stop stop-color="#4C4C4C"/><stop offset="1" stop-color="#fff"/></linearGradient><linearGradient id="bE" x1="414.19" y1="414.282" x2="383.671" y2="349.114" gradientUnits="userSpaceOnUse"><stop offset=".035" stop-color="#6B24D6"/><stop offset=".294" stop-color="#7733DC"/><stop offset=".794" stop-color="#975CED"/><stop offset="1" stop-color="#A56EF4"/></linearGradient><linearGradient id="bF" x1="409.97" y1="284.333" x2="409.97" y2="186.52" gradientUnits="userSpaceOnUse"><stop stop-color="#5778FF"/><stop offset=".18" stop-color="#5C7DFF"/><stop offset=".39" stop-color="#6A8AFF"/><stop offset=".61" stop-color="#82A0FF"/><stop offset=".85" stop-color="#A3BEFF"/><stop offset="1" stop-color="#BCD5FF"/></linearGradient><linearGradient id="bG" x1="375.065" y1="369.393" x2="375.065" y2="276.607" gradientUnits="userSpaceOnUse"><stop stop-color="#5778FF"/><stop offset=".18" stop-color="#5C7DFF"/><stop offset=".39" stop-color="#6A8AFF"/><stop offset=".61" stop-color="#82A0FF"/><stop offset=".85" stop-color="#A3BEFF"/><stop offset="1" stop-color="#BCD5FF"/></linearGradient><linearGradient id="bH" x1="344.729" y1="388.521" x2="321.685" y2="295.907" gradientUnits="userSpaceOnUse"><stop stop-color="#4E6DEB"/><stop offset=".18" stop-color="#5C7DFF"/><stop offset=".39" stop-color="#6A8AFF"/><stop offset=".61" stop-color="#82A0FF"/><stop offset=".85" stop-color="#A3BEFF"/><stop offset="1" stop-color="#BCD5FF"/></linearGradient><linearGradient id="bJ" x1="405.442" y1="223.448" x2="363.148" y2="169.833" gradientUnits="userSpaceOnUse"><stop offset=".035" stop-color="#602213"/><stop offset=".571" stop-color="#6D310E"/><stop offset="1" stop-color="#7A4108"/></linearGradient><linearGradient id="bK" x1="257.901" y1="362.445" x2="360.246" y2="390.262" gradientUnits="userSpaceOnUse"><stop stop-color="#437FEC"/><stop offset=".21" stop-color="#336DD5"/><stop offset=".46" stop-color="#245CBF"/><stop offset=".7" stop-color="#1B51B2"/><stop offset=".93" stop-color="#184EAE"/></linearGradient><linearGradient id="bL" x1="397.26" y1="338.742" x2="397.26" y2="135.87" gradientUnits="userSpaceOnUse"><stop stop-color="#5778FF"/><stop offset=".18" stop-color="#5C7DFF"/><stop offset=".39" stop-color="#6A8AFF"/><stop offset=".61" stop-color="#82A0FF"/><stop offset=".85" stop-color="#A3BEFF"/><stop offset="1" stop-color="#BCD5FF"/></linearGradient><linearGradient id="bM" x1="384.56" y1="249.904" x2="384.56" y2="205.895" gradientUnits="userSpaceOnUse"><stop stop-color="#5778FF"/><stop offset=".18" stop-color="#5C7DFF"/><stop offset=".39" stop-color="#6A8AFF"/><stop offset=".61" stop-color="#82A0FF"/><stop offset=".85" stop-color="#A3BEFF"/><stop offset="1" stop-color="#BCD5FF"/></linearGradient><linearGradient id="bQ" x1="325.035" y1="326.686" x2="325.035" y2="221.298" gradientUnits="userSpaceOnUse"><stop stop-color="#5778FF"/><stop offset=".18" stop-color="#5C7DFF"/><stop offset=".39" stop-color="#6A8AFF"/><stop offset=".61" stop-color="#82A0FF"/><stop offset=".85" stop-color="#A3BEFF"/><stop offset="1" stop-color="#BCD5FF"/></linearGradient><linearGradient id="bR" x1="387.56" y1="392.663" x2="335.655" y2="377.121" gradientUnits="userSpaceOnUse"><stop offset=".035" stop-color="#9F19AB"/><stop offset=".244" stop-color="#AE25B1"/><stop offset=".645" stop-color="#D744BF"/><stop offset="1" stop-color="#FF63CE"/></linearGradient><linearGradient id="bS" x1="572.008" y1="397.106" x2="280.239" y2="331.701" gradientUnits="userSpaceOnUse"><stop offset=".035" stop-color="#9F19AB"/><stop offset=".244" stop-color="#AE25B1"/><stop offset=".645" stop-color="#D744BF"/><stop offset="1" stop-color="#FF63CE"/></linearGradient><linearGradient id="bT" x1="423.195" y1="279.684" x2="435.878" y2="303.854" gradientUnits="userSpaceOnUse"><stop offset=".035" stop-color="#9F19AB"/><stop offset=".244" stop-color="#AE25B1"/><stop offset=".645" stop-color="#D744BF"/><stop offset="1" stop-color="#FF63CE"/></linearGradient><linearGradient id="bV" x1="247.216" y1="245.245" x2="296.363" y2="243.802" gradientUnits="userSpaceOnUse"><stop stop-color="#2C66B8"/><stop offset="1" stop-color="#8859EC"/></linearGradient><linearGradient id="bW" x1="165.897" y1="222.022" x2="132.048" y2="200.866" gradientUnits="userSpaceOnUse"><stop offset=".035" stop-color="#138BBD"/><stop offset=".226" stop-color="#169AC7"/><stop offset=".595" stop-color="#1FC3DF"/><stop offset="1" stop-color="#2AF6FF"/></linearGradient><linearGradient id="bY" x1="177.085" y1="180.601" x2="-4.969" y2="141.543" gradientUnits="userSpaceOnUse"><stop offset=".035" stop-color="#138BBD"/><stop offset=".226" stop-color="#169AC7"/><stop offset=".595" stop-color="#1FC3DF"/><stop offset="1" stop-color="#2AF6FF"/></linearGradient><radialGradient id="af" cx="0" cy="0" r="1" gradientUnits="userSpaceOnUse" gradientTransform="rotate(-50.375 458.015 -31.063) scale(276.843 70.57)"><stop offset=".056" stop-color="#ABA19B"/><stop offset=".727" stop-color="#fff"/></radialGradient><radialGradient id="aG" cx="0" cy="0" r="1" gradientUnits="userSpaceOnUse" gradientTransform="rotate(180 215.531 278.295) scale(4.42399)"><stop stop-color="#fff"/><stop offset="1"/></radialGradient><radialGradient id="ag" cx="0" cy="0" r="1" gradientUnits="userSpaceOnUse" gradientTransform="rotate(-68.667 346.148 32.475) scale(291.27 53.9818)"><stop offset=".056" stop-color="#908279"/><stop offset=".727" stop-color="#fff"/></radialGradient><radialGradient id="ah" cx="0" cy="0" r="1" gradientUnits="userSpaceOnUse" gradientTransform="matrix(12.93706 -100.99377 41.30965 5.29167 189.756 345.193)"><stop offset=".056" stop-color="#746358"/><stop offset=".727" stop-color="#fff"/></radialGradient><radialGradient id="ai" cx="0" cy="0" r="1" gradientUnits="userSpaceOnUse" gradientTransform="rotate(-92.685 260.118 83.79) scale(72.6404 34.3588)"><stop offset=".056" stop-color="#584336"/><stop offset=".727" stop-color="#fff"/></radialGradient><radialGradient id="aK" cx="0" cy="0" r="1" gradientUnits="userSpaceOnUse" gradientTransform="rotate(180 171.7 282.957) scale(4.42399)"><stop stop-color="#fff"/><stop offset="1"/></radialGradient><radialGradient id="aj" cx="0" cy="0" r="1" gradientUnits="userSpaceOnUse" gradientTransform="matrix(-10.73002 -62.39612 28.98002 -4.98358 187.603 349.228)"><stop offset=".056" stop-color="#3C2415"/><stop offset=".727" stop-color="#fff"/></radialGradient><radialGradient id="br" cx="0" cy="0" r="1" gradientUnits="userSpaceOnUse" gradientTransform="rotate(180 159.212 221.644) scale(63.2316)"><stop stop-color="#fff"/><stop offset="1"/></radialGradient><radialGradient id="i" cx="0" cy="0" r="1" gradientUnits="userSpaceOnUse" gradientTransform="rotate(180 47.79 198.508) scale(4.42799)"><stop stop-color="#fff"/><stop offset="1"/></radialGradient><radialGradient id="q" cx="0" cy="0" r="1" gradientUnits="userSpaceOnUse" gradientTransform="rotate(180 59.171 152.724) scale(4.42799)"><stop stop-color="#fff"/><stop offset="1"/></radialGradient><radialGradient id="aO" cx="0" cy="0" r="1" gradientUnits="userSpaceOnUse" gradientTransform="rotate(180 152.027 258.579) scale(4.42456)"><stop stop-color="#fff"/><stop offset="1"/></radialGradient><radialGradient id="P" cx="0" cy="0" r="1" gradientUnits="userSpaceOnUse" gradientTransform="rotate(180 37.603 144.053) scale(63.2795)"><stop stop-color="#fff"/><stop offset="1"/></radialGradient><radialGradient id="m" cx="0" cy="0" r="1" gradientUnits="userSpaceOnUse" gradientTransform="rotate(180 28.103 174.112) scale(4.42742)"><stop stop-color="#fff"/><stop offset="1"/></radialGradient><radialGradient id="e" cx="0" cy="0" r="1" gradientUnits="userSpaceOnUse" gradientTransform="rotate(180 91.656 193.842) scale(4.42742)"><stop stop-color="#fff"/><stop offset="1"/></radialGradient><radialGradient id="aS" cx="0" cy="0" r="1" gradientUnits="userSpaceOnUse" gradientTransform="rotate(180 183.071 237.208) scale(4.42399)"><stop stop-color="#fff"/><stop offset="1"/></radialGradient><radialGradient id="bz" cx="0" cy="0" r="1" gradientUnits="userSpaceOnUse" gradientTransform="translate(234.279 307.677) scale(174.71)"><stop stop-color="#fff"/><stop offset="1"/></radialGradient><radialGradient id="bA" cx="0" cy="0" r="1" gradientUnits="userSpaceOnUse" gradientTransform="matrix(2.66451 24.443 -27.34402 2.98075 313.526 300.939)"><stop offset=".03" stop-color="#FEDFCB"/><stop offset=".778" stop-color="#F9B69E"/><stop offset=".995" stop-color="#F2A78C"/></radialGradient><radialGradient id="bB" cx="0" cy="0" r="1" gradientUnits="userSpaceOnUse" gradientTransform="rotate(95.617 45.254 284.494) scale(27.9059 31.166)"><stop offset=".03" stop-color="#FEDFCB"/><stop offset="1" stop-color="#F9B69E"/></radialGradient><radialGradient id="a" cx="0" cy="0" r="1" gradientUnits="userSpaceOnUse" gradientTransform="matrix(-108.029 0 0 -51.8586 122.319 359.227)"><stop offset=".192" stop-color="#878384"/><stop offset=".307" stop-color="#8E8A8B"/><stop offset=".481" stop-color="#A29FA0"/><stop offset=".691" stop-color="#C3C1C1"/><stop offset=".927" stop-color="#F0EFEF"/><stop offset="1" stop-color="#fff"/></radialGradient><radialGradient id="T" cx="0" cy="0" r="1" gradientUnits="userSpaceOnUse" gradientTransform="rotate(180 30 62.782) scale(47.1819)"><stop stop-color="#fff"/><stop offset="1"/></radialGradient><radialGradient id="u" cx="0" cy="0" r="1" gradientUnits="userSpaceOnUse" gradientTransform="rotate(180 98.087 167.244) scale(4.42742)"><stop stop-color="#fff"/><stop offset="1"/></radialGradient><radialGradient id="aW" cx="0" cy="0" r="1" gradientUnits="userSpaceOnUse" gradientTransform="rotate(180 221.957 251.716) scale(4.42456)"><stop stop-color="#fff"/><stop offset="1"/></radialGradient><radialGradient id="V" cx="0" cy="0" r="1" gradientUnits="userSpaceOnUse" gradientTransform="rotate(-163.688 83.667 113.498) scale(89.7994 41.7082)"><stop offset=".056" stop-color="#3C2415"/><stop offset="1" stop-color="#fff"/></radialGradient><radialGradient id="W" cx="0" cy="0" r="1" gradientUnits="userSpaceOnUse" gradientTransform="matrix(94.44866 -21.82499 21.41106 92.65736 124.1 366.764)"><stop offset=".056" stop-color="#E3E0DE"/><stop offset=".727" stop-color="#fff"/></radialGradient><radialGradient id="bI" cx="0" cy="0" r="1" gradientUnits="userSpaceOnUse" gradientTransform="rotate(-8.778 1517.38 -2250.969) scale(51.9333)"><stop offset=".03" stop-color="#FEDFCB"/><stop offset="1" stop-color="#F9B69E"/></radialGradient><radialGradient id="au" cx="0" cy="0" r="1" gradientUnits="userSpaceOnUse" gradientTransform="translate(145.12 39.801) scale(54.0831)"><stop offset=".03" stop-color="#FEDFCB"/><stop offset="1" stop-color="#F9B69E"/></radialGradient><radialGradient id="av" cx="0" cy="0" r="1" gradientUnits="userSpaceOnUse" gradientTransform="translate(135.572 40.248) scale(57.6899)"><stop offset=".03" stop-color="#FEDFCB"/><stop offset="1" stop-color="#F9B69E"/></radialGradient><radialGradient id="X" cx="0" cy="0" r="1" gradientUnits="userSpaceOnUse" gradientTransform="rotate(-30.423 738.595 -45.305) scale(116.823 85.7983)"><stop offset=".056" stop-color="#C7C0BC"/><stop offset=".727" stop-color="#fff"/></radialGradient><radialGradient id="Y" cx="0" cy="0" r="1" gradientUnits="userSpaceOnUse" gradientTransform="rotate(-50.375 454.694 51.76) scale(276.843 70.57)"><stop offset=".056" stop-color="#ABA19B"/><stop offset=".727" stop-color="#fff"/></radialGradient><radialGradient id="bN" cx="0" cy="0" r="1" gradientUnits="userSpaceOnUse" gradientTransform="rotate(-165.611 158.948 135.818) scale(14.4765)"><stop offset=".03" stop-color="#FEDFCB"/><stop offset="1" stop-color="#F9B69E"/></radialGradient><radialGradient id="bO" cx="0" cy="0" r="1" gradientUnits="userSpaceOnUse" gradientTransform="rotate(-40.844 587.14 -187.71) scale(31.1934)"><stop offset=".03" stop-color="#FEDFCB"/><stop offset="1" stop-color="#F9B69E"/></radialGradient><radialGradient id="bP" cx="0" cy="0" r="1" gradientUnits="userSpaceOnUse" gradientTransform="rotate(-165.611 155.903 138.488) scale(28.588)"><stop offset=".03" stop-color="#FEDFCB"/><stop offset="1" stop-color="#F9B69E"/></radialGradient><radialGradient id="Z" cx="0" cy="0" r="1" gradientUnits="userSpaceOnUse" gradientTransform="rotate(-68.667 333.74 93.78) scale(291.27 53.9818)"><stop offset=".056" stop-color="#908279"/><stop offset=".727" stop-color="#fff"/></radialGradient><radialGradient id="aa" cx="0" cy="0" r="1" gradientUnits="userSpaceOnUse" gradientTransform="matrix(12.93706 -100.99377 41.30965 5.29167 124.758 372.635)"><stop offset=".056" stop-color="#746358"/><stop offset=".727" stop-color="#fff"/></radialGradient><radialGradient id="ab" cx="0" cy="0" r="1" gradientUnits="userSpaceOnUse" gradientTransform="rotate(-92.685 240.712 128.523) scale(72.6397 34.3585)"><stop offset=".056" stop-color="#584336"/><stop offset=".727" stop-color="#fff"/></radialGradient><radialGradient id="ac" cx="0" cy="0" r="1" gradientUnits="userSpaceOnUse" gradientTransform="matrix(-10.73 -62.39602 28.98002 -4.98358 122.604 376.671)"><stop offset=".056" stop-color="#3C2415"/><stop offset=".727" stop-color="#fff"/></radialGradient><radialGradient id="bU" cx="0" cy="0" r="1" gradientUnits="userSpaceOnUse" gradientTransform="rotate(180 210.75 169.47) scale(52.7356)"><stop stop-color="#fff"/><stop offset="1"/></radialGradient><radialGradient id="aC" cx="0" cy="0" r="1" gradientUnits="userSpaceOnUse" gradientTransform="matrix(-107.947 0 0 -51.819 370.118 528.153)"><stop offset=".192" stop-color="#878384"/><stop offset=".307" stop-color="#8E8A8B"/><stop offset=".481" stop-color="#A29FA0"/><stop offset=".691" stop-color="#C3C1C1"/><stop offset=".927" stop-color="#F0EFEF"/><stop offset="1" stop-color="#fff"/></radialGradient><radialGradient id="ad" cx="0" cy="0" r="1" gradientUnits="userSpaceOnUse" gradientTransform="rotate(-13.011 1582.32 -659.453) scale(96.9371 95.0986)"><stop offset=".056" stop-color="#E3E0DE"/><stop offset=".727" stop-color="#fff"/></radialGradient><radialGradient id="bX" cx="0" cy="0" r="1" gradientUnits="userSpaceOnUse" gradientTransform="rotate(-5.365 2315.312 -2159.388) scale(50.4855)"><stop offset=".03" stop-color="#FEDFCB"/><stop offset="1" stop-color="#F9B69E"/></radialGradient><radialGradient id="ae" cx="0" cy="0" r="1" gradientUnits="userSpaceOnUse" gradientTransform="rotate(-30.423 720.63 -178.548) scale(116.823 85.7983)"><stop offset=".056" stop-color="#C7C0BC"/><stop offset=".727" stop-color="#fff"/></radialGradient><radialGradient id="bZ" cx="0" cy="0" r="1" gradientUnits="userSpaceOnUse" gradientTransform="rotate(174.722 119.237 91.506) scale(23.5329)"><stop offset=".03" stop-color="#FEDFCB"/><stop offset="1" stop-color="#F9B69E"/></radialGradient></defs></svg>