<svg width="600" height="483" fill="none" xmlns="http://www.w3.org/2000/svg"><g clip-path="url(#a)"><path opacity=".073" d="M0 328.924 329.11 483 582 302.421 302.166 144 0 328.924z" fill="#231F20"/><path opacity=".093" d="M7 325.869 328.305 478 577 300.612 301.807 145 7 325.869z" fill="#231F20"/><path opacity=".114" d="M15 323.808 327.93 474 572 299.794 301.924 147 15 323.808z" fill="#231F20"/><path opacity=".135" d="M22 320.762 327.124 469 567 298.007 301.565 148 22 320.762z" fill="#231F20"/><path opacity=".155" d="M29 318.23 326.317 465 562 296.665 301.203 149 29 318.23z" fill="#231F20"/><path opacity=".176" d="M37 315.175 325.968 460 557 294.856 301.332 150 37 315.175z" fill="#231F20"/><path opacity=".197" d="M44 313.114 325.153 456 552 294.054 300.962 152 44 313.114z" fill="#231F20"/><path opacity=".217" d="M51 310.054 323.792 451 546 292.251 300.095 153 51 310.054z" fill="#231F20"/><path opacity=".238" d="M59 307.003 323.982 446 542 290.458 300.747 154 59 307.003z" fill="#231F20"/><path opacity=".259" d="M66 304.473 323.164 442 537 289.115 300.374 155 66 304.473z" fill="#231F20"/><path opacity=".279" d="M73 302.398 321.808 438 531 288.298 299.511 157 73 302.398z" fill="#231F20"/><path opacity=".3" d="M81 299.355 321.996 433 527 286.511 300.145 158 81 299.355z" fill="#231F20"/><path d="M236.194 168.111c7.4-7.249 24.022-9.408 36.304-4.504 9.871 3.949 13.672 12.493 8.28 18.631-3.059 3.486-8.141 5.923-13.95 7.126-2.75.571-3.059 2.745-.54 3.609L316.093 210l29.553-28.934c1.916-1.866 6.813-1.588 8.002.478 1.916 3.347 6.025 6.308 11.957 8.098 11.123 3.346 25.042 1.187 31.685-4.905 7.292-6.694 3.476-15.516-8.296-19.541-5.283-1.805-11.262-2.329-16.839-1.743-3.723.401-6.534-1.943-4.619-3.825l29.553-28.933-127.943-43.74c-5.593-1.913-12.792-.864-16.067 2.36L178 162.79l49.867 17.042c2.488.849 5.624-.339 5.16-1.974-.927-3.254.047-6.709 3.167-9.747z" fill="url(#b)"/><path d="M372.199 163.634c5.544-.599 11.487-.076 16.739 1.737 2.134.738 3.993 1.63 5.59 2.629l2.472-2.413V131l-29.377 28.838c-1.919 1.86.875 4.196 4.576 3.796z" fill="url(#c)"/><path d="M400.833 179.03c-.402 2.012-1.53 3.993-3.523 5.819-6.644 6.113-20.549 8.279-31.69 4.921-5.948-1.795-10.043-4.766-11.959-8.124-1.189-2.074-6.103-2.368-8.003-.48L316.1 210.197l-49.813-17.084c-2.534-.867-2.21-3.049.54-3.622 5.825-1.207 10.909-3.652 13.952-7.149 5.393-6.159 1.592-14.732-8.281-18.694-12.284-4.921-28.893-2.739-36.31 4.519-3.121 3.064-4.079 6.515-3.152 9.78.464 1.656-2.657 2.832-5.16 1.981L178 162.828v34.819l49.876 17.099c2.487.852 5.624-.34 5.16-1.98-.927-3.266.031-6.716 3.152-9.78 5.918-5.804 17.722-8.357 28.492-6.639v29.371c-.325.805.17 1.718 1.607 2.198L316.1 245l29.558-29.031c1.916-1.872 6.814-1.594 8.003.48 1.916 3.358 6.026 6.329 11.959 8.124 11.125 3.358 25.046 1.192 31.69-4.921 3.06-2.816 4.141-6.004 3.523-9.068V179.03z" fill="url(#d)"/><path d="M350 214.793v-34.766c-1.668-.139-3.46.248-4.449 1.221L316 210.235V245l29.551-28.987c.989-.988 2.781-1.359 4.449-1.22z" fill="url(#e)"/><path d="M347.2 215c-.061.031-.138.046-.2.077.062-.031.123-.062.2-.077z" fill="url(#f)"/><path d="M347.716 214.947c-.031.016-.061.016-.108.016.047 0 .077 0 .108-.016z" fill="url(#g)"/><path d="M266.28 193.113c-2.533-.867-2.209-3.049.541-3.622 5.825-1.207 10.908-3.652 13.951-7.149 5.392-6.159 1.592-14.732-8.281-18.694-12.282-4.921-28.891-2.739-36.307 4.519-3.121 3.064-4.079 6.515-3.152 9.78.464 1.656-2.657 2.832-5.16 1.981L178 162.828v34.819l49.872 17.1c2.488.851 5.624-.341 5.16-1.981-.927-3.266.031-6.716 3.152-9.78 5.917-5.804 17.721-8.357 28.49-6.639v29.371c-.325.805.17 1.718 1.606 2.198L316.091 245v-34.819l-49.811-17.068z" fill="url(#h)"/><path d="M400.833 210.599v-31.585c-.401 2.012-1.529 3.993-3.522 5.819-6.644 6.113-20.548 8.279-31.688 4.921-5.948-1.795-10.042-4.766-11.958-8.124-.865-1.517-3.723-2.074-5.948-1.517a7.217 7.217 0 0 1 2.379-.17v34.819c1.545.123 2.982.696 3.554 1.702 1.915 3.358 6.025 6.329 11.958 8.124 11.124 3.358 25.044 1.192 31.687-4.921 3.075-2.816 4.156-6.004 3.538-9.068z" fill="url(#i)"/><path d="M346.527 180.562c-.325.17-.618.371-.865.618a3.01 3.01 0 0 1 .865-.618z" fill="url(#j)"/><path d="M347.623 180.144a5.067 5.067 0 0 0-.896.325c.278-.124.572-.232.896-.325z" fill="url(#k)"/><path d="M228.856 180.24c.062 0 .108 0 .17.016-.062-.016-.124-.016-.17-.016z" fill="url(#l)"/><path d="m224.252 178.772-46.237-15.838 46.237 15.838z" fill="url(#m)"/><path d="m227.882 214.775-3.614-1.235 3.614 1.235z" fill="url(#n)"/><path d="M229.026 215.008c.278.03.556.046.834.046-.278.015-.556-.016-.834-.046z" fill="url(#o)"/><path d="M231.652 214.684c-.077.031-.108.031 0 0z" fill="url(#p)"/><path d="M264.604 225.963a1.085 1.085 0 0 0 0 .447v-.447z" fill="url(#q)"/><path d="M264.604 191.768c-.263-.896.494-1.87 2.209-2.21 5.824-1.205 10.906-3.647 13.95-7.139 5.391-6.15 1.591-14.71-8.281-18.666-12.281-4.914-28.888-2.735-36.303 4.512-3.121 3.06-4.079 6.505-3.152 9.766.232.803-.401 1.483-1.375 1.885v34.752c.294-.155 1.653-.912 1.375-1.87-.927-3.26.031-6.706 3.152-9.766 5.901-5.794 17.673-8.328 28.425-6.629v-4.635z" fill="url(#r)"/><path opacity=".24" d="M367.413 160.678c.046-.046.077-.093.123-.139l29.553-28.988-1.746-.603-27.807 27.258c-.834.834-.772 1.73-.123 2.472z" fill="url(#s)"/><path opacity=".24" d="M397.29 183.362c-6.643 6.103-20.546 8.267-31.685 4.913-5.947-1.792-10.041-4.759-11.957-8.112-1.189-2.07-6.102-2.364-8.002-.479l-29.553 28.988-49.805-17.059a3.235 3.235 0 0 1-1.082-.603c-1.112.897-.819 2.272 1.082 2.921l49.805 17.059 29.553-28.988c1.916-1.87 6.813-1.592 8.002.479 1.916 3.353 6.025 6.32 11.957 8.112 11.123 3.353 25.042 1.19 31.685-4.913 2.904-2.674 4.017-5.671 3.599-8.576-.309 2.147-1.467 4.295-3.599 6.258z" fill="url(#t)"/><path opacity=".24" d="M232.78 177.599c-.788.988-3.028 1.514-4.897.865l-48.122-16.472-1.746 1.715 49.868 17.075c2.487.85 5.623-.34 5.159-1.978a8.545 8.545 0 0 1-.262-1.205z" fill="url(#u)"/><path opacity=".24" d="M283.142 175.852c.71-5.176-3.275-10.708-10.644-13.66-12.282-4.913-28.889-2.735-36.304 4.512-2.75 2.689-3.816 5.687-3.399 8.576.294-2.148 1.391-4.295 3.399-6.258 7.4-7.262 24.022-9.426 36.304-4.512 6.272 2.519 10.088 6.907 10.644 11.342z" fill="url(#v)"/><path d="M184.709 273.819c-10.358-5.983-9.957-15.805 1.233-21.402 9.002-4.502 24.247-4.441 33.234.123 5.102 2.591 7.953 6.045 8.57 9.607.293 1.68 3.853 2.405 5.919 1.218l40.617-23.453-41.342-23.87c-2.666-1.542-1.017-4.209 2.744-4.348 6.089-.216 12.039-1.758 16.478-4.61 8.308-5.366 8.062-13.677-.555-18.935-9.449-5.767-25.171-5.906-34.774-.355-4.316 2.482-6.644 5.69-6.998 8.959-.232 2.174-4.841 3.145-7.523 1.603l-41.341-23.869-104.339 60.259c-4.562 2.637-4.532 6.924.047 9.576l104.986 60.645 40.663-23.484c2.034-1.172.801-3.223-2.066-3.377-5.657-.355-11.206-1.773-15.553-4.287z" fill="url(#w)"/><path d="M252.162 207.068c-4.439 2.853-10.389 4.395-16.478 4.611-3.761.138-5.426 2.806-2.744 4.348l25.156 14.525v-31.348c-.493 2.838-2.451 5.613-5.934 7.864z" fill="url(#x)"/><path d="M233.665 263.365c-2.066 1.187-5.627.462-5.919-1.218-.617-3.562-3.469-7.016-8.571-9.607-9.002-4.579-24.246-4.625-33.233-.123-11.191 5.597-11.591 15.435-1.233 21.402 4.362 2.514 9.896 3.932 15.584 4.241 1.757.092 2.898.909 3.052 1.788h.015v3.932c5.796.108 11.53 1.265 15.846 3.454 5.102 2.591 7.954 6.045 8.57 9.607.293 1.68 3.854 2.405 5.919 1.218l38.906-22.466 1.711-.355v-35.326l-40.647 23.453z" fill="url(#y)"/><path d="M56.694 244.291c-2.25-1.295-3.407-2.991-3.453-4.703v33.969l.046-.015c-.324 1.943.817 3.963 3.407 5.459l104.986 60.644v-34.693L56.694 244.291z" fill="url(#z)"/><path d="m202.358 281.437-40.663 23.483v34.694l40.663-23.484c.632-.37.925-.817.971-1.264h.016v-34.894c.03.524-.262 1.048-.987 1.465z" fill="url(#A)"/><path d="m202.358 281.437-40.663 23.483v34.694l40.663-23.484c.632-.37.925-.817.971-1.264h.016v-34.894c.03.524-.262 1.048-.987 1.465z" fill="url(#B)"/><path opacity=".24" d="m202.112 280.034-40.432 23.345-104.986-60.645c-1.619-.941-2.651-2.066-3.145-3.269-.894 2.205.154 4.626 3.145 6.353l104.986 60.645 40.663-23.484c1.526-.864 1.218-2.236-.231-2.945z" fill="url(#C)"/><path opacity=".24" d="M252.162 205.526c-4.439 2.853-10.389 4.395-16.463 4.611-3.545.123-5.225 2.498-3.159 4.071.709-.54 1.788-.941 3.159-.987 6.089-.216 12.039-1.758 16.463-4.611 4.701-3.037 6.659-7.016 5.904-10.855-.509 2.822-2.467 5.551-5.904 7.771z" fill="url(#D)"/><path opacity=".24" d="M233.665 261.823c-2.066 1.187-5.626.462-5.919-1.218-.617-3.562-3.468-7.016-8.571-9.607-9.001-4.579-24.246-4.625-33.233-.123-6.535 3.269-9.372 7.987-8.539 12.536.647-3.516 3.483-6.923 8.539-9.452 9.002-4.503 24.247-4.441 33.233.123 5.103 2.591 7.954 6.045 8.571 9.607.293 1.68 3.853 2.405 5.919 1.218l40.616-23.453-2.666-1.542-37.95 21.911z" fill="url(#E)"/><path d="M421.272 201.949c10.358 5.983 9.958 15.805-1.233 21.402-9.002 4.503-24.247 4.441-33.233-.123-5.102-2.591-7.954-6.045-8.571-9.606-.293-1.681-3.853-2.406-5.919-1.219L331.7 235.856l41.325 23.885c2.667 1.542 1.018 4.21-2.743 4.349-6.089.215-12.039 1.757-16.478 4.61-8.309 5.366-8.062 13.677.555 18.935 9.449 5.767 25.171 5.906 34.774.355 4.316-2.483 6.644-5.69 6.998-8.959.231-2.174 4.84-3.146 7.522-1.604l41.341 23.87 104.34-60.26c4.562-2.636 4.531-6.923-.047-9.575l-104.986-60.645-40.663 23.484c-2.035 1.172-.802 3.223 2.066 3.377 5.657.339 11.206 1.758 15.568 4.271z" fill="url(#F)"/><path d="M421.272 201.949c10.358 5.983 9.958 15.805-1.233 21.402-9.002 4.503-24.247 4.441-33.233-.123-5.102-2.591-7.954-6.045-8.571-9.606-.293-1.681-3.853-2.406-5.919-1.219L331.7 235.856l41.325 23.885c2.667 1.542 1.018 4.21-2.743 4.349-6.089.215-12.039 1.757-16.478 4.61-8.309 5.366-8.062 13.677.555 18.935 9.449 5.767 25.171 5.906 34.774.355 4.316-2.483 6.644-5.69 6.998-8.959.231-2.174 4.84-3.146 7.522-1.604l41.341 23.87 104.34-60.26c4.562-2.636 4.531-6.923-.047-9.575l-104.986-60.645-40.663 23.484c-2.035 1.172-.802 3.223 2.066 3.377 5.657.339 11.206 1.758 15.568 4.271z" fill="url(#G)"/><path d="M420.023 223.367c11.191-5.598 11.592-15.435 1.234-21.403-4.363-2.513-9.896-3.932-15.584-4.24-1.835-.108-2.991-.971-3.052-1.896l-.062.015v30.87c6.351.108 12.763-.987 17.464-3.346z" fill="url(#H)"/><path d="m552.724 270.797.078-.015v-34.694l-.078.015c.078 1.773-1.048 3.562-3.391 4.919l-104.339 60.259v34.694l104.339-60.259c2.343-1.342 3.469-3.13 3.391-4.919z" fill="url(#I)"/><path d="m552.724 270.797.078-.015v-34.694l-.078.015c.078 1.773-1.048 3.562-3.391 4.919l-104.339 60.259v34.694l104.339-60.259c2.343-1.342 3.469-3.13 3.391-4.919z" fill="url(#J)"/><path d="M353.804 268.7c4.439-2.852 10.389-4.394 16.477-4.61 3.761-.139 5.426-2.806 2.744-4.348l-41.341-23.87v34.694l16.093 9.298.185-.046c-.879-3.932 1.032-8.018 5.842-11.118z" fill="url(#K)"/><path d="M403.653 277.427c-1.326-.771-3.114-.909-4.624-.601v34.694c1.51-.308 3.298-.154 4.624.601l41.341 23.87v-34.694l-41.341-23.87z" fill="url(#L)"/><path d="M396.13 279.032c-.354 3.268-2.682 6.46-6.998 8.958-9.603 5.551-25.326 5.428-34.775-.354-3.622-2.221-5.749-4.981-6.396-7.834l-.185.047v32.119c-.309 3.716 1.88 7.478 6.581 10.346 9.449 5.782 25.172 5.906 34.775.355 4.316-2.483 6.644-5.69 6.998-8.959.123-1.11 1.357-1.897 2.913-2.205v-34.694c-1.556.324-2.79 1.11-2.913 2.221z" fill="url(#M)"/><path d="M396.13 279.032c-.354 3.268-2.682 6.46-6.998 8.958-9.603 5.551-25.326 5.428-34.775-.354-3.622-2.221-5.749-4.981-6.396-7.834l-.185.047v32.119c-.309 3.716 1.88 7.478 6.581 10.346 9.449 5.782 25.172 5.906 34.775.355 4.316-2.483 6.644-5.69 6.998-8.959.123-1.11 1.357-1.897 2.913-2.205v-34.694c-1.556.324-2.79 1.11-2.913 2.221z" fill="url(#N)"/><path opacity=".24" d="M373.442 261.561c1.233-.956 1.279-2.39-.417-3.361l-38.659-22.328-2.666 1.542 41.325 23.869c.154.093.293.186.417.278z" fill="url(#O)"/><path opacity=".24" d="M405.688 199.251c5.673.308 11.222 1.727 15.584 4.24 4.301 2.483 6.721 5.644 7.306 8.882.786-4.256-1.634-8.682-7.306-11.966-4.362-2.513-9.896-3.932-15.584-4.24-.724-.047-1.341-.201-1.834-.432l-.247.139c-2.019 1.172-.801 3.222 2.081 3.377z" fill="url(#P)"/><path opacity=".24" d="M403.652 275.886c-2.682-1.542-7.291-.586-7.522 1.604-.355 3.268-2.682 6.46-6.998 8.958-9.603 5.551-25.326 5.428-34.775-.354-3.73-2.282-5.888-5.135-6.458-8.08-.725 3.963 1.433 8.095 6.458 11.164 9.449 5.782 25.172 5.905 34.775.354 4.316-2.482 6.643-5.69 6.998-8.959.231-2.174 4.84-3.145 7.522-1.603l41.048 23.7v-3.084l-41.048-23.7z" fill="url(#Q)"/><path opacity=".24" d="M549.333 242.579c2.96-1.711 3.977-4.101 3.083-6.306-.478 1.187-1.495 2.297-3.083 3.223l-104.339 60.259-.293-.17v3.084l.293.17 104.339-60.26z" fill="url(#R)"/><path d="M365.21 309.238c-8.092 6.985-24.879 8.588-36.624 3.3-9.449-4.256-12.378-12.906-6.397-18.858 3.391-3.377 8.693-5.644 14.613-6.646 2.805-.478 3.329-2.637.894-3.578l-47.939-18.626-32.339 27.878c-2.096 1.804-6.952 1.357-7.938-.74-1.572-3.408-5.38-6.492-11.114-8.465-10.759-3.701-24.832-2.005-32.062 3.855-7.923 6.43-5.009 15.373 6.32 19.767 5.087 1.974 10.991 2.699 16.617 2.298 3.745-.278 6.32 2.159 4.223 3.963l-32.323 27.878 123.144 47.878c5.38 2.097 12.655 1.279 16.247-1.82l82.112-70.822-48-18.657c-2.405-.925-5.642.154-5.334 1.804.601 3.253-.693 6.661-4.1 9.591z" fill="url(#S)"/><path d="M340.532 387.307c-3.592 3.099-10.867 3.916-16.247 1.819l-123.144-47.877v34.694l123.144 47.877c5.38 2.097 12.655 1.28 16.247-1.819l82.112-70.822v-34.694l-82.112 70.822z" fill="url(#T)"/><path d="M229.256 309.392c-5.626.416-11.53-.308-16.616-2.297-6.428-2.498-10.143-6.461-10.713-10.594v32.644c-.339 2.914.894 5.828 3.56 8.341l27.977-24.131c2.097-1.804-.462-4.225-4.208-3.963z" fill="url(#U)"/><path d="M336.801 287.034c-5.919 1.017-11.221 3.269-14.612 6.646-5.981 5.952-3.052 14.602 6.397 18.858 3.221 1.449 6.828 2.374 10.528 2.821V285.6c-.262.647-1.049 1.218-2.313 1.434z" fill="url(#V)"/><path d="M369.402 300.495a1.134 1.134 0 0 0-.077.462c.031-.154.062-.308.077-.462z" fill="url(#W)"/><path opacity=".24" d="M322.189 292.138c-2.559 2.544-3.468 5.581-2.96 8.573.324-1.928 1.28-3.824 2.96-5.489 3.391-3.377 8.693-5.644 14.613-6.646 2.682-.463 3.252-2.452 1.156-3.439a4.273 4.273 0 0 1-1.156.355c-5.92 1.002-11.237 3.269-14.613 6.646z" fill="url(#X)"/><path opacity=".24" d="M212.64 308.652c5.086 1.974 10.99 2.699 16.616 2.298 1.711-.124 3.175.323 4.069 1.017l.155-.123c2.096-1.804-.463-4.24-4.224-3.963-5.626.416-11.53-.308-16.616-2.297-6.228-2.421-9.896-6.214-10.636-10.193-1.002 5.027 2.82 10.223 10.636 13.261z" fill="url(#Y)"/><path opacity=".24" d="M340.532 385.765c-3.592 3.099-10.867 3.917-16.247 1.82l-120.694-46.907-2.466 2.128 123.145 47.862c5.379 2.097 12.655 1.28 16.246-1.819l82.112-70.822-2.466-.956-79.63 68.694z" fill="url(#Z)"/><path opacity=".08" d="M331.976 427.49c-1.957-.015-3.406-11.426-3.252-25.473.154-14.047 1.881-25.411 3.823-25.396 1.957.015 3.406 11.426 3.252 25.473-.154 14.047-1.865 25.412-3.823 25.396z" fill="url(#aa)"/><path opacity=".08" d="M347.391 385.796c4.686 11.41 1.264 23.638-7.646 27.307-8.909 3.67-19.946-2.621-24.632-14.031-4.685-11.411-1.264-23.638 7.646-27.308 8.909-3.67 19.931 2.606 24.632 14.032z" fill="url(#ab)"/><path opacity=".4" d="M331.144 455.538c-1.233 0-2.481-.231-3.684-.694l-126.612-49.389.555-1.434 126.612 49.389a8.582 8.582 0 0 0 8.679-1.449l85.441-72.58 1.002 1.172-85.442 72.579a10.105 10.105 0 0 1-6.551 2.406z" fill="url(#ac)"/><path d="M453.827 118.314c-1.418 0-2.914-.216-4.44-.632a.776.776 0 0 1-.508-.448l-2.944-7.185a19.794 19.794 0 0 1-2.297-1.126 23.012 23.012 0 0 1-1.973-1.28l-2.59 3.362a.735.735 0 0 1-.539.293.813.813 0 0 1-.586-.185c-1.942-1.696-3.792-3.67-5.534-5.829-.154-.185-.2-.431-.154-.663l1.28-5.397a39.178 39.178 0 0 1-3.253-5.628l-5.349-1.619a.752.752 0 0 1-.493-.447c-1.017-2.59-1.788-5.165-2.297-7.679a.748.748 0 0 1 .124-.601.747.747 0 0 1 .524-.309l4.223-.54a21.599 21.599 0 0 1-.123-2.328c0-.817.062-1.634.17-2.528l-4.779-6.137a.758.758 0 0 1-.139-.679c.525-1.989 1.326-3.731 2.374-5.196a.752.752 0 0 1 .54-.309c.2-.03.431.047.586.185l5.163 4.41a8.824 8.824 0 0 1 2.667-1.526l-1.233-6.63a.754.754 0 0 1 .139-.602.837.837 0 0 1 .539-.308c1.788-.17 3.73.03 5.719.57a.774.774 0 0 1 .508.447l2.929 7.186c.832.34 1.588.71 2.297 1.126.616.354 1.264.77 1.957 1.28L448.94 68a.735.735 0 0 1 .54-.293.812.812 0 0 1 .586.185c1.926 1.696 3.792 3.67 5.533 5.829.155.185.201.431.155.663l-1.28 5.396a39.283 39.283 0 0 1 3.253 5.629l5.348 1.619a.752.752 0 0 1 .494.447c1.017 2.59 1.788 5.165 2.296 7.679a.749.749 0 0 1-.647.91l-4.224.54c.093.847.124 1.618.124 2.327 0 .818-.062 1.65-.17 2.529l4.779 6.137c.154.185.2.432.138.663-.524 1.989-1.325 3.732-2.374 5.197a.748.748 0 0 1-.539.308.73.73 0 0 1-.586-.185l-5.164-4.41a8.627 8.627 0 0 1-2.666 1.526l1.233 6.631a.753.753 0 0 1-.139.601.805.805 0 0 1-.539.309c-.401.046-.817.077-1.264.077zm-3.653-2.036c1.356.355 2.712.509 3.946.478l-1.203-6.445a.777.777 0 0 1 .555-.894 7.12 7.12 0 0 0 3.191-1.82.798.798 0 0 1 1.048-.046l5.025 4.287c.663-1.064 1.187-2.283 1.572-3.624l-4.747-6.091a.808.808 0 0 1-.154-.586 18 18 0 0 0 .2-2.636c0-.849-.062-1.79-.2-2.9a.786.786 0 0 1 .662-.863l4.147-.524a43.85 43.85 0 0 0-1.911-6.26l-5.318-1.604a.755.755 0 0 1-.478-.416 38.535 38.535 0 0 0-3.468-5.983.796.796 0 0 1-.124-.617l1.28-5.366a46.365 46.365 0 0 0-4.501-4.795l-2.559 3.3c-.262.339-.74.4-1.079.138a23.067 23.067 0 0 0-2.42-1.634 18.438 18.438 0 0 0-2.405-1.157.764.764 0 0 1-.431-.416l-2.914-7.14c-1.371-.338-2.697-.508-3.961-.477l1.202 6.445a.777.777 0 0 1-.555.894 7.12 7.12 0 0 0-3.19 1.82.8.8 0 0 1-1.049.046l-5.025-4.286c-.662 1.064-1.187 2.282-1.572 3.623l4.748 6.09c.123.17.185.37.154.587a17.881 17.881 0 0 0-.201 2.637c0 .848.062 1.773.201 2.898a.788.788 0 0 1-.663.864l-4.146.524a43.854 43.854 0 0 0 1.911 6.26l5.318 1.604a.757.757 0 0 1 .478.416 39.176 39.176 0 0 0 3.468 5.983c.123.185.17.401.123.617l-1.279 5.366a46.23 46.23 0 0 0 4.501 4.795l2.543-3.299a.764.764 0 0 1 1.079-.139c.894.678 1.68 1.203 2.42 1.634.74.417 1.495.787 2.405 1.157a.812.812 0 0 1 .431.416l2.945 7.139z" fill="url(#ad)"/><path d="M446.997 98.7c-1.049 0-2.174-.339-3.33-1.002-3.838-2.205-6.951-7.586-6.951-11.996 0-3.285 1.726-5.413 4.393-5.413 1.048 0 2.173.34 3.329 1.003 3.838 2.205 6.951 7.586 6.951 11.996-.015 3.284-1.726 5.412-4.392 5.412zm-5.904-16.884c-1.788 0-2.851 1.45-2.851 3.87 0 3.917 2.774 8.681 6.181 10.655.909.524 1.787.802 2.558.802 1.788 0 2.852-1.45 2.852-3.87 0-3.901-2.775-8.682-6.181-10.655-.894-.524-1.788-.802-2.559-.802z" fill="url(#ae)"/><path opacity=".4" d="M161.295 368.819 27.36 291.459l.771-1.326 133.935 77.344-.771 1.342z" fill="url(#af)"/><path opacity=".4" d="m445.38 367.246-.786-1.326 154.62-90.605.786 1.326-154.62 90.605z" fill="url(#ag)"/><path d="M383.245 55.757c-.509 0-1.048-.154-1.588-.478l-6.474-3.747c-1.711-.987-3.052-3.3-3.052-5.273v-3.331c0-2.467-.971-5.428-2.682-8.126-3.453-5.459-5.133-11.657-4.516-16.592.632-4.918 3.684-7.987 7.984-7.987 1.48 0 3.037.355 4.64 1.08 8.123 3.623 15.26 15.003 15.26 24.347 0 4.641-1.788 8.095-4.902 9.483-1.557.694-2.42 2.344-2.42 4.641v3.33c0 .756-.2 1.404-.586 1.882a2.136 2.136 0 0 1-1.664.77zM372.917 11.78c-3.514 0-5.919 2.482-6.458 6.63-.586 4.595 1.017 10.408 4.285 15.574 1.849 2.93 2.913 6.198 2.913 8.943v3.33c0 1.42 1.048 3.223 2.281 3.948l6.474 3.747c.293.17.586.262.817.262.201 0 .355-.062.463-.2.154-.185.246-.51.246-.91v-3.33c0-2.915 1.218-5.12 3.345-6.045 2.528-1.126 3.977-4.056 3.977-8.065 0-8.804-6.705-19.52-14.351-22.928-1.387-.648-2.743-.957-3.992-.957z" fill="url(#ah)"/><path d="M381.039 61.2c-.385 0-.801-.123-1.202-.339l-2.851-1.65c-1.357-.786-2.436-2.79-2.436-4.564V50.93l8.493 4.903v2.822c0 1.758-1.002 2.544-2.004 2.544zm-4.947-7.602v1.034c0 1.218.77 2.729 1.664 3.238l2.852 1.65c.2.123.339.138.431.138.324 0 .463-.524.463-1.017v-1.928l-5.41-3.115z" fill="url(#ai)"/><path d="M379.745 49.605h-1.542V36.699l-.077.046-5.811-10.023 12.393 7.155-4.963 2.822v12.906zm-3.191-18.658 2.528 4.364 2.528-1.45-5.056-2.914z" fill="url(#aj)"/><path d="M308.285 82.248c-2.297 0-4.747-.74-7.291-2.22-8.693-5.028-15.784-17.24-15.784-27.232 0-7.093 3.638-11.672 9.249-11.672 2.296 0 4.747.74 7.29 2.22 8.71 5.027 15.785 17.24 15.785 27.231 0 7.093-3.623 11.672-9.249 11.672zm-13.811-39.582c-4.763 0-7.707 3.885-7.707 10.13 0 9.499 6.736 21.11 15.013 25.905 2.282 1.31 4.532 2.005 6.521 2.005 4.763 0 7.707-3.886 7.707-10.131 0-9.498-6.736-21.11-15.014-25.89-2.281-1.325-4.532-2.02-6.52-2.02z" fill="url(#ak)"/><path d="m311.366 67.013-10.296-4.41a.78.78 0 0 1-.462-.71V49.08h1.541v12.305l9.834 4.21-.617 1.418z" fill="url(#al)"/><path d="M510.474 179.359c-2.559 0-5.549-1.526-8.185-4.194a.632.632 0 0 1-.185-.539.664.664 0 0 1 .324-.478l4.948-2.822-4.948-8.527-4.963 2.822a.675.675 0 0 1-.571.031.675.675 0 0 1-.385-.432c-1.403-5.119-.432-9.499 2.497-11.164 2.805-1.604 6.998-.339 10.62 3.13l9.619-5.489c-1.218-4.903-.201-9.067 2.62-10.67 2.898-1.65 7.276-.247 10.975 3.469a.634.634 0 0 1 .185.54.67.67 0 0 1-.323.478l-4.948 2.821 4.948 8.527 4.963-2.821a.669.669 0 0 1 .57-.031.674.674 0 0 1 .386.432c1.402 5.119.431 9.498-2.498 11.163-2.789 1.604-6.998.34-10.605-3.114l-9.618 5.489c1.218 4.903.2 9.051-2.62 10.67-.848.478-1.788.709-2.806.709zm-6.643-4.502c2.219 2.051 4.608 3.207 6.628 3.207.801 0 1.526-.185 2.142-.539 2.39-1.357 3.129-5.166 1.881-9.684a.653.653 0 0 1 .308-.74l10.482-5.983a.63.63 0 0 1 .786.108c3.252 3.285 7.029 4.611 9.403 3.254 2.25-1.28 3.036-4.703 2.096-8.867l-4.778 2.73a.66.66 0 0 1-.894-.247l-5.596-9.653a.614.614 0 0 1-.061-.493.668.668 0 0 1 .308-.401l4.763-2.714c-3.098-2.852-6.551-3.932-8.786-2.667-2.39 1.357-3.129 5.165-1.881 9.683a.653.653 0 0 1-.308.74l-10.482 5.983c-.262.139-.586.108-.786-.108-3.252-3.284-7.013-4.626-9.403-3.253-2.25 1.279-3.036 4.703-2.096 8.866l4.778-2.729a.658.658 0 0 1 .894.246l5.596 9.653a.615.615 0 0 1 .061.493.665.665 0 0 1-.308.401l-4.747 2.714z" fill="url(#am)"/><path d="M372.64 281.529a.763.763 0 0 1-.771-.771v-3.084c0-.432.339-.771.771-.771.431 0 .771.339.771.771v3.084c0 .416-.34.771-.771.771zm0-6.168a.763.763 0 0 1-.771-.771v-3.084c0-.431.339-.771.771-.771.431 0 .771.34.771.771v3.084c0 .417-.34.771-.771.771zm0-6.168a.763.763 0 0 1-.771-.771v-3.083c0-.432.339-.771.771-.771.431 0 .771.339.771.771v3.083c0 .417-.34.771-.771.771zm0-6.167a.764.764 0 0 1-.771-.771v-3.084c0-.432.339-.771.771-.771.431 0 .771.339.771.771v3.084c0 .416-.34.771-.771.771zm0-6.168a.763.763 0 0 1-.771-.771v-3.084c0-.432.339-.771.771-.771.431 0 .771.339.771.771v3.084c0 .416-.34.771-.771.771zm0-6.168a.763.763 0 0 1-.771-.771v-3.084c0-.432.339-.771.771-.771.431 0 .771.339.771.771v3.084c0 .416-.34.771-.771.771zm0-6.168a.763.763 0 0 1-.771-.771v-3.084c0-.431.339-.771.771-.771.431 0 .771.34.771.771v3.084c0 .417-.34.771-.771.771zm0-6.168a.763.763 0 0 1-.771-.771V234.5c0-.432.339-.771.771-.771.431 0 .771.339.771.771v3.083c0 .417-.34.771-.771.771zm0-6.167a.764.764 0 0 1-.771-.771v-3.084c0-.432.339-.771.771-.771.431 0 .771.339.771.771v3.084c0 .416-.34.771-.771.771zm0-6.168a.763.763 0 0 1-.771-.771v-3.084c0-.432.339-.771.771-.771.431 0 .771.339.771.771v3.084c0 .416-.34.771-.771.771zm0-6.168a.763.763 0 0 1-.771-.771v-3.084c0-.432.339-.771.771-.771.431 0 .771.339.771.771v3.084c0 .416-.34.771-.771.771zm0-6.168a.763.763 0 0 1-.771-.771v-3.084c0-.431.339-.771.771-.771.431 0 .771.34.771.771v3.084c0 .417-.34.771-.771.771zm0-6.168a.763.763 0 0 1-.771-.771v-3.083c0-.432.339-.771.771-.771.431 0 .771.339.771.771v3.083c0 .417-.34.771-.771.771zm1.865-5.119a.803.803 0 0 1-.663-.37.778.778 0 0 1 .262-1.064l2.636-1.603a.778.778 0 0 1 1.064.262.779.779 0 0 1-.262 1.064l-2.636 1.603a.75.75 0 0 1-.401.108zm5.272-3.192a.8.8 0 0 1-.663-.37.778.778 0 0 1 .262-1.064l2.636-1.603a.776.776 0 0 1 1.063.262.778.778 0 0 1-.262 1.064l-2.636 1.603a.91.91 0 0 1-.4.108zm5.271-3.192a.799.799 0 0 1-.662-.37.778.778 0 0 1 .262-1.064l2.635-1.603a.778.778 0 0 1 1.064.262.778.778 0 0 1-.262 1.064l-2.636 1.604a.922.922 0 0 1-.401.107zm5.287-3.207a.801.801 0 0 1-.662-.37.778.778 0 0 1 .262-1.064l2.635-1.603a.778.778 0 0 1 1.064.262.778.778 0 0 1-.262 1.064l-2.636 1.603a.786.786 0 0 1-.401.108zm5.272-3.192a.8.8 0 0 1-.663-.37.778.778 0 0 1 .262-1.064l2.636-1.603a.778.778 0 0 1 1.064.262.778.778 0 0 1-.262 1.064l-2.636 1.603a.738.738 0 0 1-.401.108zm5.272-3.191a.803.803 0 0 1-.663-.37.777.777 0 0 1 .262-1.064l2.636-1.604a.776.776 0 0 1 1.063.262.778.778 0 0 1-.262 1.064l-2.635 1.604a.75.75 0 0 1-.401.108zm5.271-3.192a.801.801 0 0 1-.662-.37.778.778 0 0 1 .262-1.064l2.636-1.604a.777.777 0 0 1 1.063.262.778.778 0 0 1-.262 1.064l-2.636 1.604a.747.747 0 0 1-.401.108zm5.272-3.192a.803.803 0 0 1-.663-.37.778.778 0 0 1 .262-1.064l2.636-1.604a.778.778 0 0 1 1.064.262.778.778 0 0 1-.262 1.064l-2.636 1.604a.91.91 0 0 1-.401.108zm5.287-3.192a.804.804 0 0 1-.663-.37.778.778 0 0 1 .262-1.064l2.636-1.604a.778.778 0 0 1 1.064.263.778.778 0 0 1-.262 1.064l-2.636 1.603a1.035 1.035 0 0 1-.401.108zm5.272-3.192a.803.803 0 0 1-.663-.37.778.778 0 0 1 .262-1.064l2.636-1.603a.778.778 0 0 1 1.064.262.78.78 0 0 1-.262 1.064l-2.636 1.603a.913.913 0 0 1-.401.108zm5.272-3.207a.803.803 0 0 1-.663-.37.778.778 0 0 1 .262-1.064l2.636-1.604a.776.776 0 0 1 1.063.262.777.777 0 0 1-.262 1.064l-2.636 1.604a.746.746 0 0 1-.4.108zm5.271-3.192a.804.804 0 0 1-.663-.37.78.78 0 0 1 .262-1.064l2.636-1.603a.778.778 0 0 1 1.064.262.778.778 0 0 1-.262 1.064l-2.636 1.603a.747.747 0 0 1-.401.108zm5.272-3.192a.8.8 0 0 1-.663-.37.778.778 0 0 1 .262-1.064l2.636-1.603a.778.778 0 0 1 1.064.262.78.78 0 0 1-.262 1.064l-2.636 1.603a.75.75 0 0 1-.401.108zm5.272-3.192a.8.8 0 0 1-.663-.37.778.778 0 0 1 .262-1.064l.478-.293v-1.649c0-.432.339-.771.77-.771.432 0 .771.339.771.771v2.081a.782.782 0 0 1-.37.663l-.863.525a.809.809 0 0 1-.385.107zm.863-5.689a.764.764 0 0 1-.771-.771v-3.084c0-.432.339-.771.771-.771.431 0 .771.339.771.771v3.084c0 .431-.34.771-.771.771zm0-6.168a.763.763 0 0 1-.771-.771v-3.084c0-.432.339-.771.771-.771.431 0 .771.339.771.771v3.084c0 .432-.34.771-.771.771zm0-6.168a.763.763 0 0 1-.771-.771v-3.084c0-.432.339-.771.771-.771.431 0 .771.339.771.771v3.084c0 .432-.34.771-.771.771zm0-6.168a.763.763 0 0 1-.771-.771v-3.084c0-.431.339-.771.771-.771.431 0 .771.34.771.771v3.084c0 .432-.34.771-.771.771zm0-6.167a.764.764 0 0 1-.771-.771v-3.084c0-.432.339-.771.771-.771.431 0 .771.339.771.771v3.084c0 .431-.34.771-.771.771zm0-6.168a.764.764 0 0 1-.771-.771v-3.084c0-.432.339-.771.771-.771.431 0 .771.339.771.771v3.084c0 .431-.34.771-.771.771zm0-6.168a.763.763 0 0 1-.771-.771v-3.084c0-.432.339-.771.771-.771.431 0 .771.339.771.771v3.084c0 .432-.34.771-.771.771z" fill="url(#an)"/><path d="M377.387 177.833a.763.763 0 0 1-.77-.77v-.771c0-.432.339-.771.77-.771.432 0 .771.339.771.771v.771c0 .416-.339.77-.771.77zm0-3.854a.764.764 0 0 1-.77-.771v-3.084c0-.432.339-.771.77-.771.432 0 .771.339.771.771v3.084a.773.773 0 0 1-.771.771zm0-6.168a.763.763 0 0 1-.77-.771v-3.084c0-.432.339-.771.77-.771.432 0 .771.339.771.771v3.084a.773.773 0 0 1-.771.771zm0-6.168a.763.763 0 0 1-.77-.771v-3.084c0-.432.339-.771.77-.771.432 0 .771.339.771.771v3.084a.773.773 0 0 1-.771.771zm0-6.168a.763.763 0 0 1-.77-.771v-3.084c0-.432.339-.771.77-.771.432 0 .771.339.771.771v3.084a.773.773 0 0 1-.771.771zm0-6.168a.763.763 0 0 1-.77-.771v-3.084c0-.431.339-.771.77-.771.432 0 .771.34.771.771v3.084a.773.773 0 0 1-.771.771zm0-6.168a.763.763 0 0 1-.77-.771v-3.083c0-.432.339-.771.77-.771.432 0 .771.339.771.771v3.083a.773.773 0 0 1-.771.771zm0-6.167a.764.764 0 0 1-.77-.771v-3.084c0-.432.339-.771.77-.771.432 0 .771.339.771.771v3.084a.773.773 0 0 1-.771.771zm0-6.168a.763.763 0 0 1-.77-.771v-3.084c0-.432.339-.771.77-.771.432 0 .771.339.771.771v3.084a.773.773 0 0 1-.771.771zm0-6.168a.763.763 0 0 1-.77-.771v-3.084c0-.432.339-.771.77-.771.432 0 .771.339.771.771v3.084a.773.773 0 0 1-.771.771zm0-6.168a.763.763 0 0 1-.77-.771v-3.084c0-.431.339-.771.77-.771.432 0 .771.34.771.771v3.084a.773.773 0 0 1-.771.771zm0-6.168a.763.763 0 0 1-.77-.771v-3.084c0-.431.339-.771.77-.771.432 0 .771.34.771.771v3.084a.773.773 0 0 1-.771.771zm0-6.167a.764.764 0 0 1-.77-.771v-3.084c0-.432.339-.771.77-.771.432 0 .771.339.771.771v3.084a.773.773 0 0 1-.771.771zm0-6.168a.763.763 0 0 1-.77-.771V96.11c0-.432.339-.771.77-.771.432 0 .771.34.771.77v3.085a.773.773 0 0 1-.771.77zm0-6.168a.763.763 0 0 1-.77-.771v-3.084c0-.432.339-.771.77-.771.432 0 .771.34.771.771v3.084a.773.773 0 0 1-.771.77zm0-6.168a.763.763 0 0 1-.77-.77v-3.085c0-.432.339-.77.77-.77.432 0 .771.338.771.77v3.084c0 .416-.339.771-.771.771zm0-6.168a.763.763 0 0 1-.77-.77v-3.085c0-.431.339-.77.77-.77.432 0 .771.339.771.77v3.084a.773.773 0 0 1-.771.771zm0-6.168a.763.763 0 0 1-.77-.77v-3.084c0-.432.339-.771.77-.771.432 0 .771.339.771.77v3.084a.773.773 0 0 1-.771.771zm0-6.167a.763.763 0 0 1-.77-.771V65.27c0-.432.339-.771.77-.771.432 0 .771.339.771.77v3.085a.773.773 0 0 1-.771.77z" fill="url(#ao)"/><path d="M233.526 195.813a.764.764 0 0 1-.771-.771v-3.084c0-.432.339-.771.771-.771s.771.339.771.771v3.084a.764.764 0 0 1-.771.771zm0-6.168a.763.763 0 0 1-.771-.771v-3.084c0-.432.339-.771.771-.771s.771.339.771.771v3.084a.763.763 0 0 1-.771.771zm0-6.168a.763.763 0 0 1-.771-.771v-3.084c0-.432.339-.771.771-.771s.771.339.771.771v3.084a.763.763 0 0 1-.771.771zm0-6.168a.763.763 0 0 1-.771-.771v-3.084c0-.431.339-.771.771-.771s.771.34.771.771v3.084a.763.763 0 0 1-.771.771zm0-6.168a.763.763 0 0 1-.771-.771v-3.084c0-.431.339-.77.771-.77s.771.339.771.77v3.084a.763.763 0 0 1-.771.771zm0-6.167a.764.764 0 0 1-.771-.771v-3.084c0-.432.339-.771.771-.771s.771.339.771.771v3.084a.764.764 0 0 1-.771.771zm0-6.168a.763.763 0 0 1-.771-.771v-3.084c0-.432.339-.771.771-.771s.771.339.771.771v3.084a.763.763 0 0 1-.771.771zm0-6.168a.763.763 0 0 1-.771-.771v-3.084c0-.432.339-.771.771-.771s.771.339.771.771v3.084a.763.763 0 0 1-.771.771zm0-6.168a.763.763 0 0 1-.771-.771v-3.084c0-.432.339-.771.771-.771s.771.339.771.771v3.084a.763.763 0 0 1-.771.771zm0-6.168a.763.763 0 0 1-.771-.771v-3.084c0-.431.339-.771.771-.771s.771.34.771.771v3.084a.763.763 0 0 1-.771.771zm0-6.168a.763.763 0 0 1-.771-.771v-3.083c0-.432.339-.771.771-.771s.771.339.771.771v3.083a.763.763 0 0 1-.771.771zm0-6.167a.764.764 0 0 1-.771-.771v-3.084c0-.432.339-.771.771-.771s.771.339.771.771v3.084a.764.764 0 0 1-.771.771zm0-6.168a.763.763 0 0 1-.771-.771v-3.084c0-.432.339-.771.771-.771s.771.339.771.771v3.084a.763.763 0 0 1-.771.771zm0-6.168a.763.763 0 0 1-.771-.771v-3.084c0-.432.339-.771.771-.771s.771.339.771.771v3.084a.763.763 0 0 1-.771.771zm0-6.168a.763.763 0 0 1-.771-.771v-3.084c0-.431.339-.771.771-.771s.771.34.771.771v3.084a.763.763 0 0 1-.771.771zm0-6.168a.763.763 0 0 1-.771-.771V99.44c0-.431.339-.77.771-.77s.771.339.771.77v3.084a.763.763 0 0 1-.771.771zm0-6.168a.763.763 0 0 1-.771-.77v-3.084c0-.432.339-.771.771-.771s.771.339.771.77v3.084a.763.763 0 0 1-.771.772zm0-6.167a.763.763 0 0 1-.771-.771v-3.084c0-.432.339-.771.771-.771s.771.34.771.77v3.085a.763.763 0 0 1-.771.77zm0-6.168a.763.763 0 0 1-.771-.771v-3.084c0-.432.339-.771.771-.771s.771.34.771.771v3.084a.763.763 0 0 1-.771.77zm0-6.168a.763.763 0 0 1-.771-.77v-3.085c0-.432.339-.77.771-.77s.771.338.771.77v3.084a.763.763 0 0 1-.771.771zm0-6.168a.763.763 0 0 1-.771-.77V68.6c0-.431.339-.77.771-.77s.771.339.771.77v3.084a.763.763 0 0 1-.771.771zm0-6.168a.763.763 0 0 1-.771-.77v-3.084c0-.432.339-.771.771-.771s.771.339.771.77v3.084a.763.763 0 0 1-.771.771z" fill="url(#ap)"/><path d="M224.278 293.988a.763.763 0 0 1-.771-.771v-3.084c0-.431.339-.771.771-.771.431 0 .77.34.77.771v3.084a.763.763 0 0 1-.77.771zm0-6.168a.763.763 0 0 1-.771-.77v-3.084c0-.432.339-.771.771-.771.431 0 .77.339.77.771v3.084c0 .431-.339.77-.77.77zm0-6.167a.764.764 0 0 1-.771-.771v-3.084c0-.432.339-.771.771-.771.431 0 .77.339.77.771v3.084a.764.764 0 0 1-.77.771zm0-6.168a.763.763 0 0 1-.771-.771v-3.084c0-.432.339-.771.771-.771.431 0 .77.339.77.771v3.084a.763.763 0 0 1-.77.771zm0-6.168a.763.763 0 0 1-.771-.771v-3.084c0-.432.339-.771.771-.771.431 0 .77.339.77.771v3.084a.763.763 0 0 1-.77.771zm0-6.168a.763.763 0 0 1-.771-.771v-3.084c0-.431.339-.771.771-.771.431 0 .77.34.77.771v3.084a.763.763 0 0 1-.77.771zm0-6.167a.764.764 0 0 1-.771-.771v-3.084c0-.432.339-.771.771-.771.431 0 .77.339.77.771v3.084a.764.764 0 0 1-.77.771zm0-6.168a.764.764 0 0 1-.771-.771v-3.084c0-.432.339-.771.771-.771.431 0 .77.339.77.771v3.084a.764.764 0 0 1-.77.771zm0-6.168a.763.763 0 0 1-.771-.771v-3.084c0-.432.339-.771.771-.771.431 0 .77.339.77.771v3.084a.763.763 0 0 1-.77.771zm0-6.168a.763.763 0 0 1-.771-.771v-3.084c0-.432.339-.771.771-.771.431 0 .77.339.77.771v3.084a.763.763 0 0 1-.77.771zm0-6.168a.763.763 0 0 1-.771-.771v-3.084c0-.431.339-.771.771-.771.431 0 .77.34.77.771v3.084a.763.763 0 0 1-.77.771zm0-6.167a.764.764 0 0 1-.771-.771v-3.084c0-.432.339-.771.771-.771.431 0 .77.339.77.771v3.084a.764.764 0 0 1-.77.771zm-2.127-4.919a.88.88 0 0 1-.386-.093l-2.682-1.511a.765.765 0 0 1-.293-1.048.76.76 0 0 1 1.048-.293l2.682 1.511c.37.216.509.678.293 1.048a.794.794 0 0 1-.662.386zm-5.365-3.038a.89.89 0 0 1-.385-.092l-2.682-1.512a.765.765 0 0 1-.293-1.048.761.761 0 0 1 1.048-.293l2.682 1.511a.766.766 0 0 1-.37 1.434zm-5.379-3.022a.882.882 0 0 1-.386-.093l-2.682-1.511a.766.766 0 0 1-.293-1.048.766.766 0 0 1 1.049-.293l2.682 1.511a.766.766 0 0 1-.37 1.434zm-5.364-3.038a.895.895 0 0 1-.386-.092l-2.682-1.511a.767.767 0 0 1-.293-1.049.765.765 0 0 1 1.048-.293l2.683 1.511a.766.766 0 0 1-.37 1.434zm-5.38-3.022a.878.878 0 0 1-.385-.093l-2.682-1.511a.765.765 0 0 1-.293-1.048.765.765 0 0 1 1.048-.293l2.682 1.511c.37.216.509.678.293 1.048a.729.729 0 0 1-.663.386zm-5.364-3.038a.877.877 0 0 1-.385-.092l-2.683-1.511a.767.767 0 0 1-.292-1.049.765.765 0 0 1 1.048-.293l2.682 1.511c.37.216.508.679.293 1.049a.763.763 0 0 1-.663.385zm-5.38-3.022a.89.89 0 0 1-.385-.092l-2.682-1.512a.765.765 0 0 1-.293-1.048.765.765 0 0 1 1.048-.293l2.682 1.511c.37.216.509.679.293 1.049a.729.729 0 0 1-.663.385zm-5.364-3.038a.877.877 0 0 1-.385-.092l-2.682-1.511a.766.766 0 0 1-.293-1.049.761.761 0 0 1 1.048-.293l2.682 1.511a.766.766 0 0 1-.37 1.434zm-5.364-3.022a.89.89 0 0 1-.385-.092l-2.682-1.511a.766.766 0 0 1-.293-1.049.765.765 0 0 1 1.048-.293l2.682 1.511a.766.766 0 0 1-.37 1.434zm-5.38-3.022a.89.89 0 0 1-.385-.092l-2.682-1.512a.765.765 0 0 1-.293-1.048.761.761 0 0 1 1.048-.293l2.682 1.511c.37.216.509.678.293 1.049a.797.797 0 0 1-.663.385zm-5.364-3.038a.877.877 0 0 1-.385-.092l-2.682-1.511a.766.766 0 0 1-.293-1.049.765.765 0 0 1 1.048-.293l2.682 1.511a.766.766 0 0 1-.37 1.434zm-5.379-3.022a.895.895 0 0 1-.386-.092L160 186.299a.767.767 0 0 1-.293-1.049.766.766 0 0 1 1.049-.293l2.682 1.511a.766.766 0 0 1-.37 1.434zm-5.364-3.037a.88.88 0 0 1-.386-.093l-2.682-1.511a.766.766 0 0 1-.293-1.049.762.762 0 0 1 1.048-.293l2.682 1.512a.765.765 0 0 1-.369 1.434zm-5.38-3.023a.89.89 0 0 1-.385-.092l-2.682-1.511a.766.766 0 0 1-.293-1.049.765.765 0 0 1 1.048-.293l2.682 1.511c.37.216.509.679.293 1.049a.729.729 0 0 1-.663.385zm-5.364-3.037a.882.882 0 0 1-.386-.093l-2.682-1.511a.766.766 0 0 1-.293-1.048.765.765 0 0 1 1.049-.293l2.682 1.511a.766.766 0 0 1-.37 1.434zm-5.38-3.023a.877.877 0 0 1-.385-.092l-2.682-1.511a.766.766 0 0 1-.293-1.049.765.765 0 0 1 1.048-.293l2.682 1.511c.37.216.509.679.293 1.049a.727.727 0 0 1-.663.385zm-5.364-3.022a.89.89 0 0 1-.385-.092l-.571-.324a.755.755 0 0 1-.385-.679v-2.436c0-.432.339-.771.771-.771.431 0 .77.339.77.771v1.974l.185.108c.37.216.509.678.293 1.048a.822.822 0 0 1-.678.401zm-.57-5.844a.763.763 0 0 1-.771-.771v-3.084c0-.431.339-.771.771-.771.431 0 .77.34.77.771v3.084a.763.763 0 0 1-.77.771zm0-6.168a.763.763 0 0 1-.771-.771v-3.083c0-.432.339-.771.771-.771.431 0 .77.339.77.771v3.083a.763.763 0 0 1-.77.771zm0-6.167a.764.764 0 0 1-.771-.771v-3.084c0-.432.339-.771.771-.771.431 0 .77.339.77.771v3.084a.764.764 0 0 1-.77.771zm0-6.168a.763.763 0 0 1-.771-.771v-3.084c0-.432.339-.771.771-.771.431 0 .77.339.77.771v3.084a.763.763 0 0 1-.77.771zm0-6.168a.763.763 0 0 1-.771-.771v-3.084c0-.432.339-.771.771-.771.431 0 .77.339.77.771v3.084a.763.763 0 0 1-.77.771zm0-6.168a.763.763 0 0 1-.771-.771v-1.943c0-.431.339-.771.771-.771.431 0 .77.34.77.771v1.943a.763.763 0 0 1-.77.771z" fill="url(#aq)"/><path d="M510.413 199.359a.7.7 0 0 1-.386-.108l-2.651-1.558a.764.764 0 0 1-.277-1.048.778.778 0 0 1 1.048-.278l2.651 1.558c.37.215.493.693.278 1.048a.752.752 0 0 1-.663.386zm.956-1.404a.763.763 0 0 1-.771-.771v-3.083c0-.432.339-.771.771-.771.431 0 .77.339.77.771v3.083a.763.763 0 0 1-.77.771zm-6.274-1.711a.694.694 0 0 1-.385-.108l-2.652-1.557a.765.765 0 0 1-.277-1.049.765.765 0 0 1 1.048-.278l2.651 1.558c.37.216.493.694.278 1.048a.782.782 0 0 1-.663.386zm-5.318-3.115a.694.694 0 0 1-.385-.108l-2.652-1.557a.765.765 0 0 1-.277-1.049.777.777 0 0 1 1.048-.277l2.651 1.557c.37.216.494.694.278 1.049a.783.783 0 0 1-.663.385zm11.592-1.341a.764.764 0 0 1-.771-.771v-3.084c0-.432.339-.771.771-.771.431 0 .77.339.77.771v3.084a.764.764 0 0 1-.77.771zm-16.91-1.789a.694.694 0 0 1-.385-.108l-2.652-1.557a.765.765 0 0 1-.277-1.049.777.777 0 0 1 1.048-.277l2.651 1.557c.37.216.494.694.278 1.048a.782.782 0 0 1-.663.386zm-5.318-3.115a.694.694 0 0 1-.385-.108l-2.667-1.557a.765.765 0 0 1-.277-1.049.777.777 0 0 1 1.048-.277l2.666 1.557c.37.216.494.694.278 1.049a.783.783 0 0 1-.663.385zm22.228-1.264a.763.763 0 0 1-.771-.771v-1.881c0-.432.339-.771.771-.771.431 0 .77.339.77.771v1.881a.763.763 0 0 1-.77.771zm-27.546-1.866a.694.694 0 0 1-.385-.108l-2.667-1.557a.765.765 0 0 1-.277-1.049.763.763 0 0 1 1.048-.277l2.667 1.557c.37.216.493.694.277 1.049a.75.75 0 0 1-.663.385zm-5.318-3.115a.696.696 0 0 1-.385-.108l-2.667-1.557a.765.765 0 0 1-.277-1.049.763.763 0 0 1 1.048-.277l2.667 1.557c.37.216.493.694.277 1.049a.781.781 0 0 1-.663.385zm-5.318-3.114a.696.696 0 0 1-.385-.108l-2.667-1.558a.764.764 0 0 1-.277-1.048.778.778 0 0 1 1.048-.278l2.667 1.558c.37.215.493.693.277 1.048a.782.782 0 0 1-.663.386zm-5.318-3.131a.688.688 0 0 1-.385-.108l-2.651-1.557a.765.765 0 0 1-.278-1.048.764.764 0 0 1 1.049-.278l2.651 1.557c.37.216.493.694.277 1.049a.781.781 0 0 1-.663.385zm-5.317-3.114a.697.697 0 0 1-.386-.108l-2.666-1.558a.764.764 0 0 1-.278-1.048.764.764 0 0 1 1.048-.278l2.651 1.558c.37.216.494.694.278 1.048a.739.739 0 0 1-.647.386zm-5.334-3.13a.694.694 0 0 1-.385-.108l-2.651-1.558a.764.764 0 0 1-.278-1.048.764.764 0 0 1 1.048-.278l2.652 1.557a.765.765 0 0 1 .277 1.049.717.717 0 0 1-.663.386zm-5.318-3.115a.696.696 0 0 1-.385-.108l-2.651-1.558a.763.763 0 0 1-.278-1.048.778.778 0 0 1 1.048-.278l2.652 1.558c.37.216.493.694.277 1.048a.745.745 0 0 1-.663.386zm-5.318-3.13a.696.696 0 0 1-.385-.108l-2.651-1.558a.764.764 0 0 1-.278-1.048.778.778 0 0 1 1.048-.278l2.652 1.558c.37.215.493.693.277 1.048a.717.717 0 0 1-.663.386z" fill="url(#ar)"/><path d="M374.181 87.752a.693.693 0 0 1-.246-.046l-1.002-.34a.763.763 0 0 1-.478-.97.77.77 0 0 1 .971-.479l1.002.34c.401.138.616.57.478.971a.759.759 0 0 1-.725.524zm-3.915-1.326a.7.7 0 0 1-.247-.046l-2.928-.987a.763.763 0 0 1-.478-.971.77.77 0 0 1 .971-.478l2.929.986c.4.14.616.571.477.972a.757.757 0 0 1-.724.524zm-5.842-1.974a.7.7 0 0 1-.247-.046l-2.913-.987a.763.763 0 0 1-.478-.971.764.764 0 0 1 .971-.478l2.914.987c.4.139.616.57.477.971a.757.757 0 0 1-.724.525zm-5.842-1.973a.7.7 0 0 1-.247-.046l-2.913-.987a.763.763 0 0 1-.478-.972.764.764 0 0 1 .971-.478l2.914.987c.4.139.616.57.477.972a.757.757 0 0 1-.724.524zm-5.842-1.974a.7.7 0 0 1-.247-.046l-2.913-.987a.763.763 0 0 1-.478-.971.764.764 0 0 1 .971-.478l2.914.987c.4.138.616.57.477.97a.777.777 0 0 1-.724.525zm-5.842-1.974a.7.7 0 0 1-.247-.046l-2.913-.987a.763.763 0 0 1-.478-.971.77.77 0 0 1 .971-.478l2.914.987c.4.138.616.57.477.971a.763.763 0 0 1-.724.524zm-5.842-1.989a.7.7 0 0 1-.247-.046l-2.913-.987a.763.763 0 0 1-.478-.971.77.77 0 0 1 .971-.478l2.914.987c.4.138.616.57.477.971a.743.743 0 0 1-.724.524zm-5.842-1.973a.7.7 0 0 1-.247-.047l-2.913-.987a.763.763 0 0 1-.478-.97.77.77 0 0 1 .971-.479l2.914.987c.4.139.616.57.477.971a.743.743 0 0 1-.724.525zm-5.842-1.974a.7.7 0 0 1-.247-.046l-2.913-.987a.763.763 0 0 1-.478-.972.764.764 0 0 1 .971-.478l2.914.987c.4.139.616.57.477.972a.743.743 0 0 1-.724.524zm-5.842-1.974a.7.7 0 0 1-.247-.046l-2.913-.987a.763.763 0 0 1-.478-.971.764.764 0 0 1 .971-.478l2.914.987c.4.138.616.57.477.971a.743.743 0 0 1-.724.524z" fill="url(#as)"/><path d="M232.539 58.687a.87.87 0 0 1-.277-.047c-11.376-4.471-19.253-11.102-20.732-28.988l-.401-4.811a.777.777 0 0 1 .385-.74l.278-.155c7.26-4.117 14.242-10.639 20.208-18.873a.56.56 0 0 1 .246-.216c.17-.092.447-.17.632-.139 5.75 1.296 12.825-.277 19.9-4.44l.278-.17a.785.785 0 0 1 .801.015.747.747 0 0 1 .355.71l-.401 5.273c-1.449 19.305-9.187 34.771-20.362 52.072a.675.675 0 0 1-.262.246l-.278.17a.732.732 0 0 1-.37.093zm-19.822-33.492.354 4.318c1.387 16.853 8.709 23.252 19.314 27.508 10.944-16.977 18.497-32.18 19.915-51.038l.293-3.824c-6.905 3.84-13.78 5.304-19.576 4.148-5.996 8.203-13.009 14.725-20.3 18.888z" fill="url(#at)"/><path d="M232.616 45.426a.877.877 0 0 1-.278-.046c-7.06-2.776-10.204-7.17-10.851-15.173l-.201-2.467a.777.777 0 0 1 .385-.74l.139-.078c3.669-2.081 7.214-5.396 10.235-9.56a.66.66 0 0 1 .247-.215c.169-.093.416-.155.586-.108 2.851.647 6.381-.155 9.911-2.236l.139-.077a.785.785 0 0 1 1.171.724l-.2 2.699c-.74 9.96-4.732 17.933-10.482 26.845a.675.675 0 0 1-.262.247l-.139.077a.821.821 0 0 1-.4.108zm-9.773-17.316.154 1.974c.678 8.28 4.224 11.518 9.372 13.646 5.487-8.543 9.264-16.222 9.973-25.705l.092-1.28c-3.314 1.712-6.612 2.375-9.433 1.882-3.006 4.086-6.505 7.355-10.158 9.483z" fill="url(#au)"/><path d="M118.135 136.972a.694.694 0 0 1-.385-.108.777.777 0 0 1-.386-.663v-18.396c0-.277.154-.524.386-.663l8.015-4.626a.763.763 0 0 1 .77 0 .78.78 0 0 1 .386.663v18.396a.78.78 0 0 1-.386.663l-8.015 4.626a.918.918 0 0 1-.385.108zm.771-18.72v16.607l6.473-3.731v-16.607l-6.473 3.731z" fill="url(#av)"/><path d="M130.805 129.647a.686.686 0 0 1-.385-.108.775.775 0 0 1-.386-.663V95.154c0-.278.154-.525.386-.663l8.014-4.626a.766.766 0 0 1 .771 0 .778.778 0 0 1 .385.663v33.707a.777.777 0 0 1-.385.663l-8.015 4.626a.673.673 0 0 1-.385.123zm.771-34.046v31.934l6.473-3.732V91.869l-6.473 3.732z" fill="url(#aw)"/><path d="M143.491 122.323a.696.696 0 0 1-.385-.108.777.777 0 0 1-.385-.663V72.518c0-.278.154-.524.385-.663l8.015-4.626a.766.766 0 0 1 .771 0 .778.778 0 0 1 .385.663v49.034a.777.777 0 0 1-.385.663l-8.015 4.626a.852.852 0 0 1-.386.108zm.771-49.373v47.261l6.474-3.732v-47.26l-6.474 3.73z" fill="url(#ax)"/></g><defs><linearGradient id="N" x1="405.394" y1="301.787" x2="346.234" y2="301.787" gradientUnits="userSpaceOnUse"><stop stop-color="#9F19AB"/><stop offset=".166" stop-color="#AE25B1"/><stop offset=".485" stop-color="#D744BF"/><stop offset=".768" stop-color="#FF63CE"/><stop offset=".924" stop-color="#DC48C1"/></linearGradient><linearGradient id="b" x1="423.105" y1="-83.119" x2="281.908" y2="186.416" gradientUnits="userSpaceOnUse"><stop offset=".035" stop-color="#6B24D6"/><stop offset=".294" stop-color="#7733DC"/><stop offset=".794" stop-color="#975CED"/><stop offset="1" stop-color="#A56EF4"/></linearGradient><linearGradient id="d" x1="310.195" y1="213.973" x2="410.163" y2="336.82" gradientUnits="userSpaceOnUse"><stop offset=".035" stop-color="#6B24D6"/><stop offset=".294" stop-color="#7733DC"/><stop offset=".794" stop-color="#975CED"/><stop offset="1" stop-color="#A56EF4"/></linearGradient><linearGradient id="e" x1="337.345" y1="209.477" x2="576.293" y2="80.249" gradientUnits="userSpaceOnUse"><stop offset=".035" stop-color="#6B24D6"/><stop offset=".294" stop-color="#7733DC"/><stop offset=".794" stop-color="#975CED"/><stop offset="1" stop-color="#A56EF4"/></linearGradient><linearGradient id="f" x1="347.102" y1="215.042" x2="347.138" y2="215.086" gradientUnits="userSpaceOnUse"><stop offset=".035" stop-color="#6B24D6"/><stop offset=".294" stop-color="#7733DC"/><stop offset=".794" stop-color="#975CED"/><stop offset="1" stop-color="#A56EF4"/></linearGradient><linearGradient id="g" x1="347.673" y1="214.963" x2="347.701" y2="214.997" gradientUnits="userSpaceOnUse"><stop offset=".035" stop-color="#6B24D6"/><stop offset=".294" stop-color="#7733DC"/><stop offset=".794" stop-color="#975CED"/><stop offset="1" stop-color="#A56EF4"/></linearGradient><linearGradient id="h" x1="40.704" y1="250.258" x2="462.62" y2="155.831" gradientUnits="userSpaceOnUse"><stop offset=".035" stop-color="#6B24D6"/><stop offset=".294" stop-color="#7733DC"/><stop offset=".794" stop-color="#975CED"/><stop offset="1" stop-color="#A56EF4"/></linearGradient><linearGradient id="i" x1="349.72" y1="202.595" x2="401.222" y2="202.595" gradientUnits="userSpaceOnUse"><stop stop-color="#6B24D6"/><stop offset=".067" stop-color="#712DD9"/><stop offset=".162" stop-color="#7734DC"/><stop offset=".323" stop-color="#8C4FE7"/><stop offset=".485" stop-color="#A56EF4"/><stop offset=".874" stop-color="#6B24D6"/></linearGradient><linearGradient id="j" x1="346.093" y1="180.869" x2="346.141" y2="180.927" gradientUnits="userSpaceOnUse"><stop offset=".035" stop-color="#6B24D6"/><stop offset=".294" stop-color="#7733DC"/><stop offset=".794" stop-color="#975CED"/><stop offset="1" stop-color="#A56EF4"/></linearGradient><linearGradient id="k" x1="347.202" y1="180.354" x2="347.37" y2="180.561" gradientUnits="userSpaceOnUse"><stop offset=".035" stop-color="#6B24D6"/><stop offset=".294" stop-color="#7733DC"/><stop offset=".794" stop-color="#975CED"/><stop offset="1" stop-color="#A56EF4"/></linearGradient><linearGradient id="l" x1="228.685" y1="180.299" x2="229.202" y2="180.183" gradientUnits="userSpaceOnUse"><stop offset=".035" stop-color="#6B24D6"/><stop offset=".294" stop-color="#7733DC"/><stop offset=".794" stop-color="#975CED"/><stop offset="1" stop-color="#A56EF4"/></linearGradient><linearGradient id="m" x1="136.002" y1="185.453" x2="269.156" y2="155.611" gradientUnits="userSpaceOnUse"><stop offset=".035" stop-color="#6B24D6"/><stop offset=".294" stop-color="#7733DC"/><stop offset=".794" stop-color="#975CED"/><stop offset="1" stop-color="#A56EF4"/></linearGradient><linearGradient id="n" x1="220.045" y1="215.73" x2="233.354" y2="212.746" gradientUnits="userSpaceOnUse"><stop offset=".035" stop-color="#6B24D6"/><stop offset=".294" stop-color="#7733DC"/><stop offset=".794" stop-color="#975CED"/><stop offset="1" stop-color="#A56EF4"/></linearGradient><linearGradient id="o" x1="228.187" y1="215.314" x2="230.74" y2="214.742" gradientUnits="userSpaceOnUse"><stop offset=".035" stop-color="#6B24D6"/><stop offset=".294" stop-color="#7733DC"/><stop offset=".794" stop-color="#975CED"/><stop offset="1" stop-color="#A56EF4"/></linearGradient><linearGradient id="p" x1="231.507" y1="214.713" x2="231.737" y2="214.662" gradientUnits="userSpaceOnUse"><stop offset=".035" stop-color="#6B24D6"/><stop offset=".294" stop-color="#7733DC"/><stop offset=".794" stop-color="#975CED"/><stop offset="1" stop-color="#A56EF4"/></linearGradient><linearGradient id="q" x1="264.454" y1="226.23" x2="264.771" y2="226.159" gradientUnits="userSpaceOnUse"><stop offset=".035" stop-color="#6B24D6"/><stop offset=".294" stop-color="#7733DC"/><stop offset=".794" stop-color="#975CED"/><stop offset="1" stop-color="#A56EF4"/></linearGradient><linearGradient id="r" x1="234.742" y1="187.883" x2="281.531" y2="187.883" gradientUnits="userSpaceOnUse"><stop stop-color="#7C3ADF"/><stop offset=".042" stop-color="#7733DC"/><stop offset=".144" stop-color="#6E28D8"/><stop offset=".253" stop-color="#6B24D6"/><stop offset=".556" stop-color="#9A60EE"/><stop offset=".975" stop-color="#7734DC"/></linearGradient><linearGradient id="ax" x1="2996.42" y1="3369.63" x2="2594.83" y2="3248.25" gradientUnits="userSpaceOnUse"><stop stop-color="#C0D6FF"/><stop offset=".3" stop-color="#C5DBFF"/><stop offset=".65" stop-color="#D3E9FF"/><stop offset="1" stop-color="#E9FFFF"/></linearGradient><linearGradient id="aw" x1="2983.73" y1="2476.17" x2="2610.72" y2="2320.15" gradientUnits="userSpaceOnUse"><stop stop-color="#C0D6FF"/><stop offset=".3" stop-color="#C5DBFF"/><stop offset=".65" stop-color="#D3E9FF"/><stop offset="1" stop-color="#E9FFFF"/></linearGradient><linearGradient id="av" x1="2971.06" y1="1581.81" x2="2671.17" y2="1378.09" gradientUnits="userSpaceOnUse"><stop stop-color="#C0D6FF"/><stop offset=".3" stop-color="#C5DBFF"/><stop offset=".65" stop-color="#D3E9FF"/><stop offset="1" stop-color="#E9FFFF"/></linearGradient><linearGradient id="au" x1="7035.24" y1="1857.53" x2="6643.68" y2="1351.13" gradientUnits="userSpaceOnUse"><stop stop-color="#C0D6FF"/><stop offset=".3" stop-color="#C5DBFF"/><stop offset=".65" stop-color="#D3E9FF"/><stop offset="1" stop-color="#E9FFFF"/></linearGradient><linearGradient id="w" x1="308.233" y1="-36.244" x2="150.337" y2="264.572" gradientUnits="userSpaceOnUse"><stop offset=".035" stop-color="#138BBD"/><stop offset=".226" stop-color="#169AC7"/><stop offset=".595" stop-color="#1FC3DF"/><stop offset="1" stop-color="#2AF6FF"/></linearGradient><linearGradient id="x" x1="240.085" y1="220.272" x2="294.725" y2="203.916" gradientUnits="userSpaceOnUse"><stop offset=".035" stop-color="#138BBD"/><stop offset=".226" stop-color="#169AC7"/><stop offset=".595" stop-color="#1FC3DF"/><stop offset="1" stop-color="#2AF6FF"/></linearGradient><linearGradient id="y" x1="177.649" y1="269.272" x2="274.932" y2="269.272" gradientUnits="userSpaceOnUse"><stop stop-color="#1BB0D4"/><stop offset=".107" stop-color="#1EBFDD"/><stop offset=".237" stop-color="#23D8EC"/><stop offset=".367" stop-color="#1EC0DD"/><stop offset=".439" stop-color="#1BB0D4"/><stop offset=".495" stop-color="#1BB0D4"/><stop offset=".505" stop-color="#1BB0D4"/><stop offset=".545" stop-color="#20C6E2"/><stop offset=".563" stop-color="#1BAFD4"/><stop offset=".584" stop-color="#179BC7"/><stop offset=".605" stop-color="#148FC0"/><stop offset=".626" stop-color="#138BBD"/></linearGradient><linearGradient id="z" x1="-47.632" y1="324.389" x2="269.374" y2="253.35" gradientUnits="userSpaceOnUse"><stop offset=".035" stop-color="#138BBD"/><stop offset=".226" stop-color="#169AC7"/><stop offset=".595" stop-color="#1FC3DF"/><stop offset="1" stop-color="#2AF6FF"/></linearGradient><linearGradient id="A" x1="170.308" y1="291.438" x2="221.84" y2="368.913" gradientUnits="userSpaceOnUse"><stop offset=".035" stop-color="#138BBD"/><stop offset=".226" stop-color="#169AC7"/><stop offset=".595" stop-color="#1FC3DF"/><stop offset="1" stop-color="#2AF6FF"/></linearGradient><linearGradient id="B" x1="188.965" y1="319.506" x2="209.89" y2="350.965" gradientUnits="userSpaceOnUse"><stop offset=".035" stop-color="#138BBD"/><stop offset=".226" stop-color="#169AC7"/><stop offset=".595" stop-color="#1FC3DF"/><stop offset="1" stop-color="#2AF6FF"/></linearGradient><linearGradient id="at" x1="13079" y1="3510.88" x2="12331.4" y2="2552.48" gradientUnits="userSpaceOnUse"><stop stop-color="#C0D6FF"/><stop offset=".3" stop-color="#C5DBFF"/><stop offset=".65" stop-color="#D3E9FF"/><stop offset="1" stop-color="#E9FFFF"/></linearGradient><linearGradient id="as" x1="16773.1" y1="1244.1" x2="16671.8" y2="748.441" gradientUnits="userSpaceOnUse"><stop stop-color="#C0D6FF"/><stop offset=".3" stop-color="#C5DBFF"/><stop offset=".65" stop-color="#D3E9FF"/><stop offset="1" stop-color="#E9FFFF"/></linearGradient><linearGradient id="ar" x1="21041.1" y1="2584.6" x2="20719" y2="1627.95" gradientUnits="userSpaceOnUse"><stop stop-color="#C0D6FF"/><stop offset=".3" stop-color="#C5DBFF"/><stop offset=".65" stop-color="#D3E9FF"/><stop offset="1" stop-color="#E9FFFF"/></linearGradient><linearGradient id="F" x1="331.689" y1="236.071" x2="552.732" y2="236.071" gradientUnits="userSpaceOnUse"><stop offset=".035" stop-color="#9F19AB"/><stop offset=".244" stop-color="#AE25B1"/><stop offset=".645" stop-color="#D744BF"/><stop offset="1" stop-color="#FF63CE"/></linearGradient><linearGradient id="G" x1="574.185" y1="-15.022" x2="416.289" y2="285.793" gradientUnits="userSpaceOnUse"><stop offset=".035" stop-color="#9F19AB"/><stop offset=".244" stop-color="#AE25B1"/><stop offset=".645" stop-color="#D744BF"/><stop offset="1" stop-color="#FF63CE"/></linearGradient><linearGradient id="H" x1="445.665" y1="211.249" x2="393.589" y2="211.249" gradientUnits="userSpaceOnUse"><stop stop-color="#9F19AB"/><stop offset=".136" stop-color="#AE25B1"/><stop offset=".399" stop-color="#D744BF"/><stop offset=".631" stop-color="#FF63CE"/><stop offset=".874" stop-color="#DC48C1"/></linearGradient><linearGradient id="I" x1="485.308" y1="257.839" x2="525.921" y2="342.121" gradientUnits="userSpaceOnUse"><stop offset=".035" stop-color="#9F19AB"/><stop offset=".244" stop-color="#AE25B1"/><stop offset=".645" stop-color="#D744BF"/><stop offset="1" stop-color="#FF63CE"/></linearGradient><linearGradient id="J" x1="463.031" y1="296.79" x2="705.571" y2="224.19" gradientUnits="userSpaceOnUse"><stop offset=".035" stop-color="#9F19AB"/><stop offset=".244" stop-color="#AE25B1"/><stop offset=".645" stop-color="#D744BF"/><stop offset="1" stop-color="#FF63CE"/></linearGradient><linearGradient id="K" x1="282.458" y1="270.706" x2="421.866" y2="239.466" gradientUnits="userSpaceOnUse"><stop offset=".035" stop-color="#9F19AB"/><stop offset=".244" stop-color="#AE25B1"/><stop offset=".645" stop-color="#D744BF"/><stop offset="1" stop-color="#FF63CE"/></linearGradient><linearGradient id="L" x1="384.278" y1="314.871" x2="468.396" y2="296.021" gradientUnits="userSpaceOnUse"><stop offset=".035" stop-color="#9F19AB"/><stop offset=".244" stop-color="#AE25B1"/><stop offset=".645" stop-color="#D744BF"/><stop offset="1" stop-color="#FF63CE"/></linearGradient><linearGradient id="M" x1="379.668" y1="308.744" x2="420.281" y2="393.026" gradientUnits="userSpaceOnUse"><stop offset=".035" stop-color="#9F19AB"/><stop offset=".244" stop-color="#AE25B1"/><stop offset=".645" stop-color="#D744BF"/><stop offset="1" stop-color="#FF63CE"/></linearGradient><linearGradient id="c" x1="325.84" y1="187.36" x2="563.461" y2="58.948" gradientUnits="userSpaceOnUse"><stop offset=".035" stop-color="#6B24D6"/><stop offset=".294" stop-color="#7733DC"/><stop offset=".794" stop-color="#975CED"/><stop offset="1" stop-color="#A56EF4"/></linearGradient><linearGradient id="aq" x1="27062.5" y1="9788.91" x2="24943.2" y2="7721.78" gradientUnits="userSpaceOnUse"><stop stop-color="#C0D6FF"/><stop offset=".3" stop-color="#C5DBFF"/><stop offset=".65" stop-color="#D3E9FF"/><stop offset="1" stop-color="#E9FFFF"/></linearGradient><linearGradient id="ap" x1="693.038" y1="8087.87" x2="622.376" y2="8086.45" gradientUnits="userSpaceOnUse"><stop stop-color="#C0D6FF"/><stop offset=".3" stop-color="#C5DBFF"/><stop offset=".65" stop-color="#D3E9FF"/><stop offset="1" stop-color="#E9FFFF"/></linearGradient><linearGradient id="ao" x1="836.904" y1="6845.26" x2="766.253" y2="6843.58" gradientUnits="userSpaceOnUse"><stop stop-color="#C0D6FF"/><stop offset=".3" stop-color="#C5DBFF"/><stop offset=".65" stop-color="#D3E9FF"/><stop offset="1" stop-color="#E9FFFF"/></linearGradient><linearGradient id="an" x1="22121.1" y1="10163.8" x2="19997.5" y2="8556.39" gradientUnits="userSpaceOnUse"><stop stop-color="#C0D6FF"/><stop offset=".3" stop-color="#C5DBFF"/><stop offset=".65" stop-color="#D3E9FF"/><stop offset="1" stop-color="#E9FFFF"/></linearGradient><linearGradient id="S" x1="421.159" y1="97.275" x2="285.406" y2="355.903" gradientUnits="userSpaceOnUse"><stop offset=".035" stop-color="#FFA98C"/><stop offset=".317" stop-color="#FFB892"/><stop offset=".86" stop-color="#FEE1A3"/><stop offset="1" stop-color="#FEECA8"/></linearGradient><linearGradient id="T" x1="201.413" y1="370.725" x2="422.926" y2="370.725" gradientUnits="userSpaceOnUse"><stop offset=".066" stop-color="#FCCE9E"/><stop offset=".52" stop-color="#FAC099"/><stop offset=".586" stop-color="#FFE1A6"/><stop offset=".591" stop-color="#FFE4A7"/><stop offset=".609" stop-color="#FDD4A1"/><stop offset=".643" stop-color="#FABD98"/><stop offset=".675" stop-color="#F8AF92"/><stop offset=".702" stop-color="#F7AA90"/><stop offset="1" stop-color="#F9B695"/></linearGradient><linearGradient id="U" x1="160.51" y1="326.691" x2="274.818" y2="301.075" gradientUnits="userSpaceOnUse"><stop offset=".035" stop-color="#FFA98C"/><stop offset=".317" stop-color="#FFB892"/><stop offset=".86" stop-color="#FEE1A3"/><stop offset="1" stop-color="#FEECA8"/></linearGradient><linearGradient id="V" x1="339.627" y1="300.48" x2="274.371" y2="300.48" gradientUnits="userSpaceOnUse"><stop offset=".035" stop-color="#F7AA90"/><stop offset=".232" stop-color="#F9B996"/><stop offset=".61" stop-color="#FFE2A6"/><stop offset=".631" stop-color="#FFE4A7"/><stop offset=".874" stop-color="#F7AA90"/></linearGradient><linearGradient id="am" x1="13449.2" y1="2474.72" x2="13031.9" y2="1664.76" gradientUnits="userSpaceOnUse"><stop stop-color="#C0D6FF"/><stop offset=".3" stop-color="#C5DBFF"/><stop offset=".65" stop-color="#D3E9FF"/><stop offset="1" stop-color="#E9FFFF"/></linearGradient><linearGradient id="al" x1="3697.42" y1="1122.01" x2="3463.09" y2="862.518" gradientUnits="userSpaceOnUse"><stop stop-color="#C0D6FF"/><stop offset=".3" stop-color="#C5DBFF"/><stop offset=".65" stop-color="#D3E9FF"/><stop offset="1" stop-color="#E9FFFF"/></linearGradient><linearGradient id="ak" x1="9937.72" y1="2501.56" x2="9423.52" y2="1795.96" gradientUnits="userSpaceOnUse"><stop stop-color="#C0D6FF"/><stop offset=".3" stop-color="#C5DBFF"/><stop offset=".65" stop-color="#D3E9FF"/><stop offset="1" stop-color="#E9FFFF"/></linearGradient><linearGradient id="aj" x1="4072.91" y1="1395.79" x2="3772.82" y2="1112.07" gradientUnits="userSpaceOnUse"><stop stop-color="#C0D6FF"/><stop offset=".3" stop-color="#C5DBFF"/><stop offset=".65" stop-color="#D3E9FF"/><stop offset="1" stop-color="#E9FFFF"/></linearGradient><linearGradient id="ai" x1="2910.65" y1="665.351" x2="2784.38" y2="483.038" gradientUnits="userSpaceOnUse"><stop stop-color="#C0D6FF"/><stop offset=".3" stop-color="#C5DBFF"/><stop offset=".65" stop-color="#D3E9FF"/><stop offset="1" stop-color="#E9FFFF"/></linearGradient><linearGradient id="ah" x1="8729.09" y1="2734.51" x2="8132.53" y2="2093.84" gradientUnits="userSpaceOnUse"><stop stop-color="#C0D6FF"/><stop offset=".3" stop-color="#C5DBFF"/><stop offset=".65" stop-color="#D3E9FF"/><stop offset="1" stop-color="#E9FFFF"/></linearGradient><linearGradient id="ae" x1="4818.53" y1="1181.82" x2="4589.32" y2="862.895" gradientUnits="userSpaceOnUse"><stop stop-color="#C0D6FF"/><stop offset=".3" stop-color="#C5DBFF"/><stop offset=".65" stop-color="#D3E9FF"/><stop offset="1" stop-color="#E9FFFF"/></linearGradient><linearGradient id="ad" x1="13492" y1="3508.08" x2="12764.4" y2="2543.13" gradientUnits="userSpaceOnUse"><stop stop-color="#C0D6FF"/><stop offset=".3" stop-color="#C5DBFF"/><stop offset=".65" stop-color="#D3E9FF"/><stop offset="1" stop-color="#E9FFFF"/></linearGradient><radialGradient id="Q" cx="0" cy="0" r="1" gradientUnits="userSpaceOnUse" gradientTransform="matrix(55.6051 0 0 55.6239 364.69 300.919)"><stop stop-color="#fff"/><stop offset=".066" stop-color="#D8D8D8"/><stop offset=".162" stop-color="#A6A6A6"/><stop offset=".262" stop-color="#797979"/><stop offset=".366" stop-color="#545454"/><stop offset=".473" stop-color="#353535"/><stop offset=".585" stop-color="#1E1E1E"/><stop offset=".704" stop-color="#0D0D0D"/><stop offset=".835" stop-color="#030303"/><stop offset="1"/></radialGradient><radialGradient id="ac" cx="0" cy="0" r="1" gradientUnits="userSpaceOnUse" gradientTransform="matrix(83.0748 0 0 83.103 331.013 429.784)"><stop stop-color="#FA45C1"/><stop offset=".205" stop-color="#CB389D"/><stop offset=".668" stop-color="#571843"/><stop offset="1"/></radialGradient><radialGradient id="ag" cx="0" cy="0" r="1" gradientUnits="userSpaceOnUse" gradientTransform="matrix(69.2082 0 0 69.2317 515.444 309.161)"><stop stop-color="#FA45C1"/><stop offset=".205" stop-color="#CB389D"/><stop offset=".668" stop-color="#571843"/><stop offset="1"/></radialGradient><radialGradient id="ab" cx="0" cy="0" r="1" gradientUnits="userSpaceOnUse" gradientTransform="matrix(16.13916 -6.6363 8.49942 20.67016 331.247 392.429)"><stop stop-color="#972A74"/><stop offset=".041" stop-color="#8A266A"/><stop offset=".194" stop-color="#601B4A"/><stop offset=".35" stop-color="#3D112F"/><stop offset=".507" stop-color="#220A1B" stop-opacity=".6"/><stop offset=".667" stop-color="#0F040C" stop-opacity=".4"/><stop offset=".807" stop-color="#040103" stop-opacity=".2"/><stop offset="1" stop-opacity="0"/></radialGradient><radialGradient id="aa" cx="0" cy="0" r="1" gradientUnits="userSpaceOnUse" gradientTransform="matrix(-.2877 25.42997 -3.53932 -.04004 332.269 402.053)"><stop stop-color="#972A74"/><stop offset=".041" stop-color="#8A266A"/><stop offset=".194" stop-color="#601B4A"/><stop offset=".35" stop-color="#3D112F" stop-opacity=".8"/><stop offset=".507" stop-color="#220A1B" stop-opacity=".6"/><stop offset=".667" stop-color="#0F040C" stop-opacity=".4"/><stop offset=".829" stop-color="#040103" stop-opacity=".2"/><stop offset="1" stop-opacity="0"/></radialGradient><radialGradient id="Z" cx="0" cy="0" r="1" gradientUnits="userSpaceOnUse" gradientTransform="matrix(82.6545 0 0 82.6825 277.726 357.525)"><stop stop-color="#fff"/><stop offset=".066" stop-color="#D8D8D8"/><stop offset=".162" stop-color="#A6A6A6"/><stop offset=".262" stop-color="#797979"/><stop offset=".366" stop-color="#545454"/><stop offset=".473" stop-color="#353535"/><stop offset=".585" stop-color="#1E1E1E"/><stop offset=".704" stop-color="#0D0D0D"/><stop offset=".835" stop-color="#030303"/><stop offset="1"/></radialGradient><radialGradient id="Y" cx="0" cy="0" r="1" gradientUnits="userSpaceOnUse" gradientTransform="matrix(12.8586 0 0 12.8629 215.722 305.204)"><stop stop-color="#fff"/><stop offset=".066" stop-color="#D8D8D8"/><stop offset=".162" stop-color="#A6A6A6"/><stop offset=".262" stop-color="#797979"/><stop offset=".366" stop-color="#545454"/><stop offset=".473" stop-color="#353535"/><stop offset=".585" stop-color="#1E1E1E"/><stop offset=".704" stop-color="#0D0D0D"/><stop offset=".835" stop-color="#030303"/><stop offset="1"/></radialGradient><radialGradient id="X" cx="0" cy="0" r="1" gradientUnits="userSpaceOnUse" gradientTransform="matrix(8.99884 0 0 9.00187 329.155 292.918)"><stop stop-color="#fff"/><stop offset=".066" stop-color="#D8D8D8"/><stop offset=".162" stop-color="#A6A6A6"/><stop offset=".262" stop-color="#797979"/><stop offset=".366" stop-color="#545454"/><stop offset=".473" stop-color="#353535"/><stop offset=".585" stop-color="#1E1E1E"/><stop offset=".704" stop-color="#0D0D0D"/><stop offset=".835" stop-color="#030303"/><stop offset="1"/></radialGradient><radialGradient id="W" cx="0" cy="0" r="1" gradientUnits="userSpaceOnUse" gradientTransform="matrix(.1632 0 0 .1632 369.371 300.723)"><stop stop-color="#fff"/><stop offset=".066" stop-color="#D8D8D8"/><stop offset=".162" stop-color="#A6A6A6"/><stop offset=".262" stop-color="#797979"/><stop offset=".366" stop-color="#545454"/><stop offset=".473" stop-color="#353535"/><stop offset=".585" stop-color="#1E1E1E"/><stop offset=".704" stop-color="#0D0D0D"/><stop offset=".835" stop-color="#030303"/><stop offset="1"/></radialGradient><radialGradient id="R" cx="0" cy="0" r="1" gradientUnits="userSpaceOnUse" gradientTransform="matrix(59.3475 0 0 59.3676 515.638 273.26)"><stop stop-color="#fff"/><stop offset=".066" stop-color="#D8D8D8"/><stop offset=".162" stop-color="#A6A6A6"/><stop offset=".262" stop-color="#797979"/><stop offset=".366" stop-color="#545454"/><stop offset=".473" stop-color="#353535"/><stop offset=".585" stop-color="#1E1E1E"/><stop offset=".704" stop-color="#0D0D0D"/><stop offset=".835" stop-color="#030303"/><stop offset="1"/></radialGradient><radialGradient id="af" cx="0" cy="0" r="1" gradientUnits="userSpaceOnUse" gradientTransform="matrix(68.1674 0 0 68.1905 104.002 308.541)"><stop stop-color="#FA45C1"/><stop offset=".205" stop-color="#CB389D"/><stop offset=".668" stop-color="#571843"/><stop offset="1"/></radialGradient><radialGradient id="P" cx="0" cy="0" r="1" gradientUnits="userSpaceOnUse" gradientTransform="matrix(17.2088 0 0 17.2146 423.114 198.654)"><stop stop-color="#fff"/><stop offset=".066" stop-color="#D8D8D8"/><stop offset=".162" stop-color="#A6A6A6"/><stop offset=".262" stop-color="#797979"/><stop offset=".366" stop-color="#545454"/><stop offset=".473" stop-color="#353535"/><stop offset=".585" stop-color="#1E1E1E"/><stop offset=".704" stop-color="#0D0D0D"/><stop offset=".835" stop-color="#030303"/><stop offset="1"/></radialGradient><radialGradient id="O" cx="0" cy="0" r="1" gradientUnits="userSpaceOnUse" gradientTransform="matrix(23.9175 0 0 23.9256 361.233 248.201)"><stop stop-color="#fff"/><stop offset=".066" stop-color="#D8D8D8"/><stop offset=".162" stop-color="#A6A6A6"/><stop offset=".262" stop-color="#797979"/><stop offset=".366" stop-color="#545454"/><stop offset=".473" stop-color="#353535"/><stop offset=".585" stop-color="#1E1E1E"/><stop offset=".704" stop-color="#0D0D0D"/><stop offset=".835" stop-color="#030303"/><stop offset="1"/></radialGradient><radialGradient id="E" cx="0" cy="0" r="1" gradientUnits="userSpaceOnUse" gradientTransform="matrix(35.4742 0 0 35.4863 206.5 245.757)"><stop stop-color="#fff"/><stop offset=".066" stop-color="#D8D8D8"/><stop offset=".162" stop-color="#A6A6A6"/><stop offset=".262" stop-color="#797979"/><stop offset=".366" stop-color="#545454"/><stop offset=".473" stop-color="#353535"/><stop offset=".585" stop-color="#1E1E1E"/><stop offset=".704" stop-color="#0D0D0D"/><stop offset=".835" stop-color="#030303"/><stop offset="1"/></radialGradient><radialGradient id="D" cx="0" cy="0" r="1" gradientUnits="userSpaceOnUse" gradientTransform="matrix(11.0538 0 0 11.0576 244.93 205.985)"><stop stop-color="#fff"/><stop offset=".066" stop-color="#D8D8D8"/><stop offset=".162" stop-color="#A6A6A6"/><stop offset=".262" stop-color="#797979"/><stop offset=".366" stop-color="#545454"/><stop offset=".473" stop-color="#353535"/><stop offset=".585" stop-color="#1E1E1E"/><stop offset=".704" stop-color="#0D0D0D"/><stop offset=".835" stop-color="#030303"/><stop offset="1"/></radialGradient><radialGradient id="C" cx="0" cy="0" r="1" gradientUnits="userSpaceOnUse" gradientTransform="matrix(79.7626 0 0 79.7896 107.492 267.582)"><stop stop-color="#fff"/><stop offset=".066" stop-color="#D8D8D8"/><stop offset=".162" stop-color="#A6A6A6"/><stop offset=".262" stop-color="#797979"/><stop offset=".366" stop-color="#545454"/><stop offset=".473" stop-color="#353535"/><stop offset=".585" stop-color="#1E1E1E"/><stop offset=".704" stop-color="#0D0D0D"/><stop offset=".835" stop-color="#030303"/><stop offset="1"/></radialGradient><radialGradient id="v" cx="0" cy="0" r="1" gradientUnits="userSpaceOnUse" gradientTransform="matrix(18.7682 0 0 18.7727 257.958 167.704)"><stop stop-color="#fff"/><stop offset=".066" stop-color="#D8D8D8"/><stop offset=".162" stop-color="#A6A6A6"/><stop offset=".262" stop-color="#797979"/><stop offset=".366" stop-color="#545454"/><stop offset=".473" stop-color="#353535"/><stop offset=".585" stop-color="#1E1E1E"/><stop offset=".704" stop-color="#0D0D0D"/><stop offset=".835" stop-color="#030303"/><stop offset="1"/></radialGradient><radialGradient id="u" cx="0" cy="0" r="1" gradientUnits="userSpaceOnUse" gradientTransform="matrix(20.6054 0 0 20.6103 205.543 171.526)"><stop stop-color="#fff"/><stop offset=".066" stop-color="#D8D8D8"/><stop offset=".162" stop-color="#A6A6A6"/><stop offset=".262" stop-color="#797979"/><stop offset=".366" stop-color="#545454"/><stop offset=".473" stop-color="#353535"/><stop offset=".585" stop-color="#1E1E1E"/><stop offset=".704" stop-color="#0D0D0D"/><stop offset=".835" stop-color="#030303"/><stop offset="1"/></radialGradient><radialGradient id="t" cx="0" cy="0" r="1" gradientUnits="userSpaceOnUse" gradientTransform="matrix(36.7778 0 0 36.7865 376.149 202.929)"><stop stop-color="#fff"/><stop offset=".066" stop-color="#D8D8D8"/><stop offset=".162" stop-color="#A6A6A6"/><stop offset=".262" stop-color="#797979"/><stop offset=".366" stop-color="#545454"/><stop offset=".473" stop-color="#353535"/><stop offset=".585" stop-color="#1E1E1E"/><stop offset=".704" stop-color="#0D0D0D"/><stop offset=".835" stop-color="#030303"/><stop offset="1"/></radialGradient><radialGradient id="s" cx="0" cy="0" r="1" gradientUnits="userSpaceOnUse" gradientTransform="matrix(14.9752 0 0 14.9787 389.475 146.842)"><stop stop-color="#fff"/><stop offset=".066" stop-color="#D8D8D8"/><stop offset=".162" stop-color="#A6A6A6"/><stop offset=".262" stop-color="#797979"/><stop offset=".366" stop-color="#545454"/><stop offset=".473" stop-color="#353535"/><stop offset=".585" stop-color="#1E1E1E"/><stop offset=".704" stop-color="#0D0D0D"/><stop offset=".835" stop-color="#030303"/><stop offset="1"/></radialGradient><clipPath id="a"><path fill="#fff" d="M0 0h600v483H0z"/></clipPath></defs></svg>