<svg width="287" height="169" fill="none" xmlns="http://www.w3.org/2000/svg"><path opacity=".3" d="M145.919 168.755h-2.653c-41.136-.378-80.796-9.758-108.831-25.688C13.576 131.199.684 116.294.782 104.17c.207-25.28 55.2-61.994 140.88-61.988h2.641c41.129.379 80.795 9.758 108.825 25.694 20.858 11.868 33.756 26.774 33.653 38.898-.202 25.267-55.181 61.981-140.862 61.981z" fill="#DADAFF"/><path d="M106.955 46.356c0-.358 0-.715.111-1.084v-.296l.074-.505c.006-.11.006-.221 0-.332 0-.173.061-.333.098-.505a2.231 2.231 0 0 1 0-.259c.087-.419.185-.837.308-1.231v-.21c.099-.361.21-.718.333-1.071v-.087c.123-.357.246-.702.382-1.047a1.45 1.45 0 0 1 .098-.246 18.3 18.3 0 0 1 .345-.862l.074-.16c.135-.32.283-.64.431-.96 0-.087.086-.16.123-.235.037-.074.247-.505.37-.751l.135-.259.505-.899.123-.21c.148-.258.308-.517.468-.763l.148-.234c.209-.32.419-.64.641-.948l.086-.136c.234-.32.468-.64.714-.948a.394.394 0 0 1 .086-.11c.296-.383.604-.764.912-1.122l.135-.16.567-.628.628-.653.148-.135c.283-.271.554-.53.849-.788l.087-.074c.295-.271.591-.518.899-.752l.185-.147c.295-.234.603-.456.911-.665l.172-.111c.321-.222.653-.431.986-.616l.788-.431.234-.111.591-.27.209-.087.542-.21.148-.061.678-.197.381-.099h.185l.567-.098c.277-.047.556-.075.837-.086h.16c.242-.013.485-.013.727 0h1.108c.212.037.422.086.629.147.193.053.382.119.566.197l.16.062.456.222.148.086-6.91-4.015H121.131l-.456-.222H120.515c-.184-.062-.369-.135-.554-.185a4.723 4.723 0 0 0-.628-.147h-.16c-.185 0-.382 0-.567-.074h-1.022a6.48 6.48 0 0 0-.825.086l-.567.098h-.209l-.333.074-.689.21-.136.061c-.172.062-.357.123-.542.21h-.086l-.135.061-.592.271-.221.111c-.271.135-.53.271-.801.431-.271.16-.653.394-.985.616l-.16.11-.924.666-.172.135c-.308.247-.616.493-.912.752l-.074.074c-.295.258-.579.53-.862.8l-.086.074c-.209.222-.431.431-.64.665-.21.21-.407.431-.592.653h-.061v.086c-.32.357-.616.739-.924 1.12l-.074.1-.702.948-.061.086-.641.96a.62.62 0 0 0 0 .087l-.086.135-.48.789-.087.135c-.184.296-.345.604-.517.924v.074l-.086.16c-.123.246-.259.492-.37.739-.11.246-.061.11-.086.16v.11c-.148.309-.295.629-.431.937a.411.411 0 0 0 0 .11c-.123.296-.246.58-.357.863-.003.045-.003.09 0 .135a.363.363 0 0 0 0 .123c-.123.345-.259.69-.37 1.035v.074c-.11.357-.221.714-.32 1.071a.614.614 0 0 0 0 .136v.061c-.111.42-.221.838-.308 1.232v.11a.714.714 0 0 0 0 .16c0 .173-.074.334-.098.494a3.36 3.36 0 0 0-.062.344l-.074.518V41.035c0 .357-.074.714-.098 1.072a1.368 1.368 0 0 0 0 .221v1.084c0 3.954 1.404 6.725 3.695 8.03l6.921 4.015c-2.254-1.305-3.695-4.076-3.695-8.017v-1.097a1.231 1.231 0 0 0-.714.013z" fill="url(#a)"/><path d="M119.358 26.083c6.897-3.99 12.525-.788 12.538 7.144.012 7.931-5.555 17.6-12.464 21.59-6.91 3.99-12.514.776-12.538-7.156-.025-7.931 5.567-17.6 12.464-21.578z" fill="url(#b)"/><path d="M119.358 66.69c13.092-7.562 23.758 2.463 23.807 22.379l-47.417 27.366c-.05-19.915 10.518-42.183 23.61-49.745z" fill="url(#c)"/><path d="M95.87 112.58v-.8c0-.271.062-.764.1-1.146.036-.382.061-.566.086-.85.024-.283.073-.726.123-1.108l.221-1.638a1.394 1.394 0 0 0 0-.222c.087-.492.16-.997.247-1.49 0-.16.061-.333.098-.493l.259-1.355.074-.369c0-.246.11-.48.16-.727.11-.455.21-.899.32-1.354l.185-.764.332-1.232c.087-.295.173-.59.247-.899l.258-.862.296-.948c.086-.296.172-.591.271-.875.099-.283.234-.677.345-1.022.11-.345.148-.431.234-.653.086-.221.283-.788.419-1.17.073-.172.135-.345.197-.517.061-.172.098-.234.135-.357.308-.764.616-1.528.936-2.266.074-.173.136-.333.21-.493.32-.751.665-1.503 1.022-2.23.074-.172.16-.332.234-.492.283-.579.566-1.145.862-1.712l.283-.53c.357-.665.727-1.33 1.096-1.97l.124-.21a47.15 47.15 0 0 1 1.034-1.687l.333-.517c.32-.505.652-.985.985-1.466l.296-.443.234-.32c.234-.333.468-.653.714-.961l.258-.345c.259-.345.518-.677.789-1.01l.184-.221c.321-.395.641-.776.973-1.158l.493-.542.591-.64.518-.53.615-.628.21-.197c.295-.284.591-.567.887-.826l.172-.16c.333-.295.677-.59 1.022-.862l.234-.197.961-.739.111-.086c.357-.259.714-.493 1.059-.727l.259-.172c.357-.222.714-.456 1.083-.665.37-.21.764-.431 1.146-.616l.357-.172.801-.37.406-.172.628-.234.419-.148.628-.197.419-.123.369-.087.542-.123.37-.074.554-.074h.295l.604-.061h2.094l.591.074h.197l.764.16h.147l.592.172.246.074.517.185.222.086.665.296c.246.123.505.258.751.406l-6.922-4.015-.123-.074a9.352 9.352 0 0 0-.628-.332c-.185-.099-.394-.185-.591-.271h-.086l-.222-.087-.529-.184a.87.87 0 0 0-.234-.074l-.173-.062-.431-.11h-.148a6.64 6.64 0 0 0-.677-.148h-.271l-.604-.074H118.533l-.382.074-.53.11-.369.099a.43.43 0 0 0-.136 0l-.295.086-.616.185-.431.148-.616.246-.222.086-.197.087-.8.369-.345.16c-.382.197-.764.394-1.145.628-.382.234-.739.431-1.097.665l-.246.16c-.357.247-.714.48-1.059.74l-.111.073-.973.752-.222.184c-.345.284-.689.567-1.022.875l-.172.147-.899.838-.197.185-.136.135c-.172.16-.333.345-.505.517l-.493.506c-.209.209-.406.43-.603.652l-.493.542-.074.086c-.308.345-.603.702-.899 1.06l-.172.221-.628.788-.173.222-.258.345c-.234.32-.481.64-.702.973-.087.099-.16.21-.234.308l-.111.16-.197.296c-.333.48-.653.96-.973 1.453l-.197.283c0 .074-.087.16-.136.247-.357.554-.702 1.12-1.047 1.7l-.098.16a42.52 42.52 0 0 0-1.096 1.958l-.123.209c0 .11-.111.234-.173.345-.296.566-.579 1.12-.85 1.687l-.172.345-.074.148c-.357.739-.69 1.49-1.022 2.241l-.087.173c-.035.1-.076.2-.123.295-.32.764-.628 1.515-.924 2.291-.037.072-.07.146-.098.222v.135a8.789 8.789 0 0 0-.197.518c-.148.382-.296.776-.431 1.17l-.222.628c-.074.222-.16.456-.234.69-.074.234-.074.246-.123.37-.05.122-.172.566-.27.849-.1.283-.198.628-.284.948-.086.32-.185.591-.271.887l-.148.53c0 .11 0 .234-.086.344-.123.42-.234.838-.333 1.232-.098.394-.135.517-.197.776-.11.456-.21.924-.32 1.38 0 .172-.074.357-.123.529a.727.727 0 0 1 0 .16c0 .136 0 .271-.086.407l-.259 1.305c0 .185 0 .357-.086.53-.087.48-.173.948-.247 1.428v.284c-.073.468-.135.948-.209 1.428v.185c0 .382-.098.764-.135 1.158-.037.394 0 .529-.087.8-.086.271-.061.789-.098 1.232-.037.443 0 .517-.062.764v3.867l6.91 4.015v-2.599c-.148-.295-.136-.714-.111-1.133z" fill="url(#d)"/><path d="M172.275 34.266c0-.469.074-.937.136-1.43v-.369c0-.123.061-.455.098-.677l.074-.456c0-.21.087-.43.136-.653.049-.221 0-.221.074-.344.111-.555.246-1.109.394-1.663a2.13 2.13 0 0 0 .086-.259c.136-.48.271-.948.431-1.416v-.123c.148-.468.32-.924.493-1.38 0-.11.086-.221.123-.32.16-.394.308-.776.468-1.145a1.45 1.45 0 0 0 .086-.21c.185-.419.382-.85.579-1.231.062-.099.111-.21.16-.308.16-.333.32-.653.493-.986l.185-.332c.209-.407.431-.813.665-1.232l.16-.258c.197-.345.406-.69.616-1.023l.197-.308c.271-.418.542-.837.837-1.231l.123-.173c.296-.43.604-.85.924-1.231l.123-.148c.394-.505.801-.998 1.232-1.478l.172-.197c.247-.283.493-.567.751-.838h.062l.838-.862.197-.184c.361-.354.73-.698 1.108-1.035l.111-.098c.394-.358.8-.678 1.232-.998.087-.059.169-.125.246-.197.394-.296.8-.591 1.232-.862l.221-.148c.431-.296.862-.567 1.306-.825l1.034-.555.308-.147.764-.493.283-.123.714-.271.197-.074c.296-.099.592-.197.887-.271l.518-.123h.246l.739-.148c.369 0 .739-.086 1.096-.098h1.404c.259 0 .505 0 .751.073h.222l.825.197c.251.074.498.16.739.26l.222.098.591.283.209.11-9.126-5.308H191.058a5.32 5.32 0 0 0-.591-.295l-.124-.062h-.098a7.211 7.211 0 0 0-.727-.406 8.941 8.941 0 0 0-.825-.185h-.222l-.751-.086h-.16a8.307 8.307 0 0 0-.961 0h-.221c-.358 0-.727 0-1.097.11l-.739.136-.283.074-.431.099c-.283.086-.591.172-.887.283l-.184.062-.727.27h-.099l-.184.087c-.259.123-.518.234-.776.37l-.296.135c-.357.172-.702.357-1.047.566-.345.21-.874.53-1.305.813l-.222.148c-.406.27-.813.579-1.232.887l-.221.172c-.407.32-.813.653-1.232.998l-.098.086c-.382.345-.764.702-1.134 1.071l-.11.087v.074l-.85.862c-.259.283-.53.566-.788.862v.074l-.087.11c-.418.485-.829.978-1.231 1.479l-.099.123c-.308.418-.616.825-.911 1.231a.32.32 0 0 0-.086.099c-.284.406-.567.837-.838 1.232l-.074.11-.111.185c-.221.333-.431.69-.64 1.035l-.111.172a.456.456 0 0 1 0 .074l-.677 1.232c.002.036.002.073 0 .11a1.842 1.842 0 0 0-.111.222c-.173.32-.333.64-.493.96 0 .087-.086.149-.111.223-.002.045-.002.09 0 .135-.197.406-.394.825-.579 1.232l-.073.16-.468 1.145c0 .062 0 .11-.062.172v.148c-.172.468-.345.924-.493 1.38v.086c-.16.48-.295.948-.431 1.416a.957.957 0 0 1-.061.173v.098c-.16.542-.296 1.096-.407 1.65v.358c0 .221-.098.43-.135.653l-.074.443-.111.677v.382c-.074.48-.111.948-.148 1.416a2.431 2.431 0 0 0 0 .296v1.429c0 5.21 1.848 8.868 4.816 10.592l9.126 5.296c-2.968-1.712-4.803-5.382-4.816-10.58v-1.44c-.665.196-.665.11-.665.012z" fill="url(#e)"/><path d="M188.643 7.515c9.102-5.247 16.517-1.035 16.541 9.434.025 10.469-7.39 23.216-16.442 28.475-9.052 5.26-16.516 1.035-16.541-9.434-.024-10.47 7.328-23.216 16.442-28.475z" fill="url(#f)"/><path d="M188.619 61.103c17.243-9.976 31.345 3.251 31.419 29.559l-62.542 36.086c-.099-26.282 13.855-55.669 31.123-65.645z" fill="url(#g)"/><path d="M157.631 121.65c0-.345 0-.69.086-1.047.087-.358.074-1.01.124-1.515.049-.505.086-.752.123-1.121a67.107 67.107 0 0 1 .455-3.621v-.296c.099-.652.21-1.305.321-1.97 0-.21.086-.431.123-.641.111-.603.222-1.231.345-1.798 0-.16.061-.32.098-.48.037-.16.148-.641.21-.961.147-.591.27-1.231.418-1.786.074-.345.173-.677.247-1.01.147-.554.283-1.12.443-1.662l.333-1.232c.098-.382.221-.764.332-1.145.111-.382.246-.838.382-1.232l.369-1.145c.148-.456.308-.9.456-1.343l.296-.862a74.47 74.47 0 0 1 .566-1.552c.086-.221.16-.456.247-.677.086-.222.123-.32.197-.468.394-1.01.8-2.02 1.231-3.005.099-.21.185-.42.271-.64.431-.999.887-1.984 1.355-2.944.099-.222.209-.431.308-.653.382-.751.751-1.503 1.145-2.242l.37-.714c.468-.875.96-1.749 1.453-2.599.049-.093.102-.183.16-.27.444-.752.899-1.503 1.367-2.23.148-.234.284-.468.431-.69.431-.653.863-1.293 1.306-1.933.123-.185.259-.394.394-.58l.308-.43c.308-.42.616-.85.936-1.232l.345-.456 1.034-1.318.247-.295c.419-.517.85-1.022 1.231-1.527l.653-.715.776-.85.69-.702.813-.825.283-.258c.382-.382.776-.74 1.158-1.096.083-.064.162-.134.234-.21.443-.382.886-.763 1.342-1.133l.32-.259c.419-.332.838-.665 1.232-.973l.148-.11c.468-.345.936-.653 1.404-.973l.332-.21c.481-.308.949-.603 1.429-.887.48-.283 1.022-.566 1.515-.812l.468-.234 1.059-.48.542-.222c.271-.111.554-.222.825-.308l.555-.21.825-.246.554-.16.493-.123.702-.16.492-.087.727-.11.394-.062H201.218l.789.098h.246l1.01.21h.197l.788.222.32.098.69.246.296.111.862.394h.086l.998.53-9.127-5.296-.184-.099a7.512 7.512 0 0 0-.826-.43 8.96 8.96 0 0 0-.788-.358h-.123l-.271-.11-.714-.247-.308-.098a.795.795 0 0 0-.222-.074 4.835 4.835 0 0 0-.566-.148h-.197l-.9-.173h-.357l-.788-.098h-2.759l-.8.074h-.739l-.37.074-.505.086-.702.16-.492.123h-.173l-.382.11-.825.26-.566.197c-.271.098-.542.197-.813.32l-.284.098-.258.124-1.059.48-.456.222c-.505.258-1.01.517-1.515.825-.505.308-.961.566-1.441.874l-.333.222-1.404.96c-.042.041-.087.078-.135.111l-1.232.986-.308.246c-.443.37-.899.751-1.342 1.145l-.21.198c-.406.357-.8.726-1.231 1.108l-.271.246-.173.173-.665.677-.665.69c-.262.27-.521.554-.776.85-.221.234-.443.468-.652.714l-.099.11c-.394.457-.8.925-1.232 1.405l-.234.283-.825 1.035c-.074.11-.147.197-.221.295l-.345.468c-.32.42-.628.838-.936 1.232l-.308.419c-.05.067-.095.137-.136.21-.098.122-.184.258-.271.38-.431.63-.862 1.233-1.231 1.922l-.259.37-.185.32c-.468.739-.923 1.49-1.379 2.254l-.123.21a47.284 47.284 0 0 0-1.441 2.586l-.16.283c-.074.16-.148.308-.234.468a62.082 62.082 0 0 0-1.121 2.23l-.234.443-.086.197c-.468.973-.912 1.958-1.355 2.956 0 .086-.074.147-.099.233-.024.087-.111.26-.16.382a91.092 91.092 0 0 0-1.231 3.018c0 .11-.099.21-.136.308v.16l-.259.69a79.626 79.626 0 0 0-.566 1.54c-.099.282-.185.553-.283.824-.099.271-.222.616-.321.924-.098.308-.098.32-.16.48-.111.382-.234.752-.357 1.121-.123.37-.259.838-.382 1.232a19.34 19.34 0 0 0-.345 1.231c-.11.456-.135.456-.197.69-.061.234-.086.308-.123.468l-.443 1.663c-.074.345-.173.689-.246 1.034-.148.604-.284 1.232-.419 1.811 0 .234-.111.468-.16.702-.05.234 0 .148 0 .209 0 .062-.074.357-.099.53-.123.579-.234 1.158-.345 1.736 0 .234-.086.468-.123.69-.111.628-.222 1.232-.308 1.897a3.542 3.542 0 0 0 0 .357c-.086.628-.185 1.232-.271 1.897v.246c-.061.505-.111 1.01-.172 1.515l-.111 1.071c0 .518-.086 1.035-.123 1.552-.037.518 0 .678-.086 1.01 0 .579-.062 1.158-.087 1.737V121.452l9.114 5.296v-3.436c-.098-.554-.086-1.096-.049-1.662z" fill="url(#h)"/><defs><linearGradient id="a" x1="4062.31" y1="9783.74" x2="4692.46" y2="9783.74" gradientUnits="userSpaceOnUse"><stop stop-color="#13E2BC"/><stop offset="1" stop-color="#F5F5FF"/></linearGradient><linearGradient id="b" x1="3537.68" y1="10937.5" x2="4698.93" y2="10180.1" gradientUnits="userSpaceOnUse"><stop stop-color="#8EFFFF"/><stop offset=".03" stop-color="#B1FFFF"/><stop offset=".48" stop-color="#89FFEA"/><stop offset=".81" stop-color="#89FFEA"/><stop offset="1" stop-color="#5FEFD5"/></linearGradient><linearGradient id="c" x1="6602.41" y1="17797.1" x2="8589.89" y2="16284.1" gradientUnits="userSpaceOnUse"><stop stop-color="#8EFFFF"/><stop offset=".03" stop-color="#B1FFFF"/><stop offset=".48" stop-color="#89FFEA"/><stop offset=".81" stop-color="#89FFEA"/><stop offset="1" stop-color="#5FEFD5"/></linearGradient><linearGradient id="d" x1="6107.84" y1="18025.8" x2="7730.71" y2="18025.8" gradientUnits="userSpaceOnUse"><stop stop-color="#13E2BC"/><stop offset="1" stop-color="#F5F5FF"/></linearGradient><linearGradient id="e" x1="161.719" y1="22.006" x2="197.774" y2="25.24" gradientUnits="userSpaceOnUse"><stop stop-color="#437FEC"/><stop offset=".21" stop-color="#336DD5"/><stop offset=".46" stop-color="#245CBF"/><stop offset=".7" stop-color="#1B51B2"/><stop offset=".93" stop-color="#184EAE"/></linearGradient><linearGradient id="f" x1="170.316" y1="25.435" x2="202.831" y2="28.303" gradientUnits="userSpaceOnUse"><stop stop-color="#437FEC"/><stop offset=".21" stop-color="#336DD5"/><stop offset=".46" stop-color="#245CBF"/><stop offset=".7" stop-color="#1B51B2"/><stop offset=".93" stop-color="#184EAE"/></linearGradient><linearGradient id="g" x1="153.921" y1="90.577" x2="215.404" y2="96.903" gradientUnits="userSpaceOnUse"><stop stop-color="#437FEC"/><stop offset=".21" stop-color="#336DD5"/><stop offset=".46" stop-color="#245CBF"/><stop offset=".7" stop-color="#1B51B2"/><stop offset=".93" stop-color="#184EAE"/></linearGradient><linearGradient id="h" x1="145.199" y1="87.909" x2="203.273" y2="93.153" gradientUnits="userSpaceOnUse"><stop stop-color="#437FEC"/><stop offset=".21" stop-color="#336DD5"/><stop offset=".46" stop-color="#245CBF"/><stop offset=".7" stop-color="#1B51B2"/><stop offset=".93" stop-color="#184EAE"/></linearGradient></defs></svg>