<svg width="287" height="161" fill="none" xmlns="http://www.w3.org/2000/svg"><path opacity=".3" d="M145.836 161h-2.652c-41.112-.375-80.75-9.688-108.769-25.504C13.57 123.712.685 108.913.782 96.876.989 71.776 55.95 35.325 141.58 35.33h2.639c41.107.375 80.75 9.688 108.764 25.51 20.845 11.783 33.737 26.582 33.633 38.62-.201 25.087-55.15 61.539-140.781 61.539z" fill="#DADAFF"/><path opacity=".3" d="m179.126 147.73-40.847-23.597c-.7-.404-.612-1.108.196-1.554l40.48-23.369a3.028 3.028 0 0 1 2.725-.114l40.874 23.597c.699.404.611 1.109-.197 1.554l-40.506 23.369a3.02 3.02 0 0 1-2.725.114z" fill="#242993"/><path d="M222.994 110.695v-7.884h-12.842l-28.493-16.454a3.024 3.024 0 0 0-2.725.115l-28.373 16.385h-12.78v7.905a.798.798 0 0 0 .461.653l40.874 23.597c.431.196.903.287 1.376.267.473-.019.935-.15 1.349-.381l40.479-23.369a1.157 1.157 0 0 0 .674-.834z" fill="url(#a)"/><path d="m179.126 127.138-40.847-23.597c-.7-.404-.612-1.109.196-1.554l40.48-23.369a3.029 3.029 0 0 1 2.725-.114l40.874 23.597c.699.404.611 1.108-.197 1.554l-40.48 23.369a3.033 3.033 0 0 1-2.751.114z" fill="url(#b)"/><path d="m179.271 124.377-36.232-20.919c-.616-.357-.518-.984.176-1.398l35.88-20.722a2.688 2.688 0 0 1 2.419-.104l36.227 20.919c.621.357.544.984-.171 1.393l-35.885 20.722a2.682 2.682 0 0 1-2.414.109z" fill="#242993"/><path d="m179.36 122.62-33.285-19.214c-.569-.331-.518-.906.161-1.285l32.968-19.032a2.481 2.481 0 0 1 2.223-.094l33.284 19.22c.57.326.518.901-.161 1.284l-32.963 19.033a2.455 2.455 0 0 1-2.227.088z" fill="#4553C7"/><path opacity=".5" d="m179.629 117.425-24.545-14.174c-.419-.244-.368-.668.114-.948l24.317-14.039a1.811 1.811 0 0 1 1.637-.067l24.55 14.173c.42.244.368.669-.119.948l-24.307 14.034a1.85 1.85 0 0 1-1.647.073z" fill="#242993"/><path d="m179.623 101.557-3.89-2.248 2.124-1.223 3.896 2.243-2.13 1.228zM186.861 101.241l-3.891 2.248-2.129-1.228 3.891-2.248 2.129 1.228zM178.743 102.07l-2.124 1.223-2.129-1.223 2.129-1.228 2.124 1.228zM186.089 106.307l-2.129 1.228-6.128-3.538 2.129-1.228 6.128 3.538z" fill="#42FFFF"/><path d="m180.391 38.418-33.274-19.209L180.386 0l33.274 19.209-33.269 19.209z" fill="#BCD5FF"/><path d="m180.391 112.156-33.274-19.214 33.269-19.204 33.274 19.204-33.269 19.214z" fill="#fff"/><path d="M213.659 19.209v73.733l-33.268 19.214V38.418l33.268-19.209z" fill="url(#c)"/><path d="M147.117 19.209v73.733l33.274 19.214V38.418l-33.274-19.209z" fill="#242993"/><path opacity=".51" d="M149.371 24.1v66.278l28.761 16.603V40.708l-28.761-16.609z" fill="#4553C7"/><path d="M208.67 37.025v1.948L185.379 52.42v-1.948l23.291-13.448zM208.67 45.267v1.947l-23.291 13.444V58.71l23.291-13.443zM208.67 53.504v1.953L185.379 68.9v-1.948l23.291-13.448zM208.67 61.745v1.948l-23.291 13.449v-1.948l23.291-13.449zM208.67 69.987v1.948l-23.291 13.449V83.43l23.291-13.444zM208.67 78.224v1.953l-23.291 13.444v-1.948l23.291-13.449z" fill="#4553C7"/><path d="m180.391 37.76-32.704-18.877-.57.326 33.274 19.209 33.269-19.21-.57-.325-32.699 18.877z" fill="#fff"/><path opacity=".78" d="M180.391 33.372h-8.745L147.117 19.21l26.69-15.412h6.579l.005 29.575z" fill="url(#d)"/><path d="M180.391 31.673 156.25 17.738l24.136-13.94 24.14 13.94-24.135 13.935z" fill="url(#e)"/><path d="M204.526 17.738v1.694l-24.135 13.94v-1.7l24.135-13.934z" fill="url(#f)"/><path d="M156.25 17.738v1.694l24.141 13.94v-1.7L156.25 17.739z" fill="url(#g)"/><path opacity=".51" d="m147.117 81.291 33.274-20.09V38.418l-33.274-19.209v62.082z" fill="#4553C7"/><path opacity=".3" d="M91.835 113.81 63.13 97.229c-.492-.284-.43-.78.138-1.092l28.446-16.422a2.126 2.126 0 0 1 1.914-.08l28.722 16.582c.492.284.43.779-.138 1.092L93.749 113.73a2.131 2.131 0 0 1-1.914.08z" fill="#242993"/><path d="M122.66 87.786v-5.54h-9.024L93.615 70.683a2.126 2.126 0 0 0-1.915.08L71.762 82.278h-8.98v5.555a.565.565 0 0 0 .323.459l28.722 16.581a2.118 2.118 0 0 0 1.915-.08l28.445-16.421a.812.812 0 0 0 .473-.586z" fill="#C0FFFF"/><path d="M91.835 99.34 63.13 82.758c-.492-.283-.43-.778.138-1.092l28.446-16.42a2.125 2.125 0 0 1 1.914-.081l28.722 16.581c.492.285.43.78-.138 1.093l-28.445 16.42a2.126 2.126 0 0 1-1.933.081z" fill="#A4EEF1"/><path d="m91.936 97.4-25.46-14.7c-.433-.25-.364-.691.124-.983l25.213-14.56a1.889 1.889 0 0 1 1.7-.073l25.456 14.7c.437.25.382.69-.12.978L93.633 97.323a1.883 1.883 0 0 1-1.697.077z" fill="#48AE9B"/><path d="m91.999 96.166-23.39-13.502c-.4-.233-.363-.637.114-.903L91.89 68.387a1.742 1.742 0 0 1 1.561-.066l23.389 13.506c.401.229.364.633-.113.902L93.564 96.104a1.732 1.732 0 0 1-1.565.062z" fill="#58C7D1"/><path opacity=".5" d="m92.188 92.515-17.248-9.96c-.295-.171-.258-.47.08-.666l17.088-9.866a1.274 1.274 0 0 1 1.15-.047l17.251 9.96c.295.171.259.47-.083.666l-17.08 9.862a1.294 1.294 0 0 1-1.158.05z" fill="#379281"/><path d="m92.184 81.364-2.734-1.58 1.493-.859 2.737 1.577-1.496.862zM97.27 81.142l-2.734 1.58-1.496-.863 2.733-1.58 1.497.863zM91.565 81.725l-1.492.859-1.496-.86 1.496-.862 1.492.863zM96.727 84.702l-1.496.863-4.306-2.486 1.496-.863 4.306 2.486z" fill="#42FFFF"/><path d="M92.723 36.996 69.34 23.498 92.72 10l23.382 13.498-23.378 13.498z" fill="#8EE6FF"/><path d="M92.723 88.812 69.34 75.311 92.72 61.816l23.382 13.495-23.378 13.501z" fill="#fff"/><path d="M116.101 23.498V75.31L92.723 88.812V36.996L116.1 23.498z" fill="url(#h)"/><path d="M69.341 23.498V75.31l23.382 13.502V36.996L69.34 23.498zM112.595 36.017v1.37l-16.367 9.45v-1.37l16.367-9.45zM112.595 41.809v1.369l-16.367 9.446v-1.369l16.367-9.446zM112.595 47.597v1.372l-16.367 9.447v-1.369l16.367-9.45zM112.595 53.389v1.368l-16.367 9.45V62.84l16.367-9.45zM112.595 59.18v1.37L96.228 70v-1.373l16.367-9.447zM112.595 64.969v1.372l-16.367 9.447v-1.37l16.367-9.45z" fill="#5FF0D5"/><path d="M92.723 36.534 69.742 23.27l-.4.23 23.38 13.497 23.379-13.498-.401-.23-22.977 13.266z" fill="#fff"/><path opacity=".78" d="M92.723 33.45h-6.145l-17.237-9.952 18.755-10.83h4.623l.004 20.783z" fill="url(#i)"/><path d="m92.723 32.257-16.964-9.793 16.96-9.796 16.964 9.796-16.96 9.793z" fill="url(#j)"/><path d="M109.683 22.464v1.19l-16.96 9.797v-1.194l16.96-9.793z" fill="url(#k)"/><path d="M75.76 22.464v1.19l16.963 9.797v-1.194l-16.964-9.793z" fill="url(#l)"/><g opacity=".24"><path opacity=".51" d="m69.341 67.123 23.382-14.117v-16.01L69.34 23.498v43.625z" fill="#4553C7"/></g><defs><linearGradient id="g" x1="168.32" y1="26.13" x2="168.32" y2="10.501" gradientUnits="userSpaceOnUse"><stop stop-color="#5778FF"/><stop offset=".18" stop-color="#5C7DFF"/><stop offset=".39" stop-color="#6A8AFF"/><stop offset=".61" stop-color="#82A0FF"/><stop offset=".85" stop-color="#A3BEFF"/><stop offset="1" stop-color="#BCD5FF"/></linearGradient><linearGradient id="a" x1="29228.5" y1="13503" x2="23102.3" y2="22012.6" gradientUnits="userSpaceOnUse"><stop stop-color="#BCD5FF"/><stop offset=".15" stop-color="#A3BEFF"/><stop offset=".39" stop-color="#82A0FF"/><stop offset=".61" stop-color="#6A8AFF"/><stop offset=".82" stop-color="#5C7DFF"/><stop offset="1" stop-color="#5778FF"/></linearGradient><linearGradient id="c" x1="10208.2" y1="16416.9" x2="10208.2" y2="3819.81" gradientUnits="userSpaceOnUse"><stop stop-color="#C0D6FF"/><stop offset=".3" stop-color="#C5DBFF"/><stop offset=".65" stop-color="#D3E9FF"/><stop offset="1" stop-color="#E9FFFF"/></linearGradient><linearGradient id="d" x1="147.117" y1="18.587" x2="180.391" y2="18.587" gradientUnits="userSpaceOnUse"><stop stop-color="#E9FFFF"/><stop offset=".04" stop-color="#D3EBFF"/><stop offset=".11" stop-color="#B2CCFF"/><stop offset=".18" stop-color="#96B2FF"/><stop offset=".27" stop-color="#7F9DFF"/><stop offset=".36" stop-color="#6D8CFF"/><stop offset=".48" stop-color="#6081FF"/><stop offset=".64" stop-color="#597AFF"/><stop offset="1" stop-color="#5778FF"/></linearGradient><linearGradient id="e" x1="10907.4" y1="958.265" x2="15407.2" y2="958.265" gradientUnits="userSpaceOnUse"><stop stop-color="#C0D6FF"/><stop offset=".3" stop-color="#C5DBFF"/><stop offset=".65" stop-color="#D3E9FF"/><stop offset="1" stop-color="#E9FFFF"/></linearGradient><linearGradient id="f" x1="7387.75" y1="953.149" x2="7253.8" y2="592.137" gradientUnits="userSpaceOnUse"><stop stop-color="#C0D6FF"/><stop offset=".3" stop-color="#C5DBFF"/><stop offset=".65" stop-color="#D3E9FF"/><stop offset="1" stop-color="#E9FFFF"/></linearGradient><linearGradient id="b" x1="40823" y1="45795.5" x2="35255.9" y2="53530.3" gradientUnits="userSpaceOnUse"><stop stop-color="#C0D6FF"/><stop offset=".3" stop-color="#C5DBFF"/><stop offset=".65" stop-color="#D3E9FF"/><stop offset="1" stop-color="#E9FFFF"/></linearGradient><linearGradient id="h" x1="7139.3" y1="11546.2" x2="7139.3" y2="2694.19" gradientUnits="userSpaceOnUse"><stop stop-color="#C0D6FF"/><stop offset=".3" stop-color="#C5DBFF"/><stop offset=".65" stop-color="#D3E9FF"/><stop offset="1" stop-color="#E9FFFF"/></linearGradient><linearGradient id="i" x1="69.341" y1="23.061" x2="92.723" y2="23.061" gradientUnits="userSpaceOnUse"><stop stop-color="#E9FFFF"/><stop offset=".401" stop-color="#E0F1FF"/><stop offset="1" stop-color="#5FF0D5"/></linearGradient><linearGradient id="j" x1="7630.61" y1="683.375" x2="10792.6" y2="683.375" gradientUnits="userSpaceOnUse"><stop stop-color="#B1F9F9"/><stop offset=".354" stop-color="#C5DBFF"/><stop offset=".646" stop-color="#D3E9FF"/><stop offset="1" stop-color="#E9FFFF"/></linearGradient><linearGradient id="k" x1="5157.35" y1="679.78" x2="5063.22" y2="426.096" gradientUnits="userSpaceOnUse"><stop stop-color="#C0D6FF"/><stop offset=".3" stop-color="#C5DBFF"/><stop offset=".65" stop-color="#D3E9FF"/><stop offset="1" stop-color="#E9FFFF"/></linearGradient><linearGradient id="l" x1="84.241" y1="28.361" x2="84.241" y2="17.379" gradientUnits="userSpaceOnUse"><stop stop-color="#58C7D1"/><stop offset=".521" stop-color="#8EE6FF"/><stop offset="1" stop-color="#8EE6FF"/></linearGradient></defs></svg>