<svg width="998" height="823" fill="none" xmlns="http://www.w3.org/2000/svg"><g opacity=".05" stroke="#4346DE" stroke-width="1.4"><circle r="144.226" transform="matrix(.86603 -.5 .86603 .5 704.949 415.975)"/><circle r="223.913" transform="matrix(.86603 -.5 .86603 .5 704.949 415.975)"/><circle r="307.979" transform="matrix(.86603 -.5 .86603 .5 704.95 415.975)"/><circle r="406.302" transform="matrix(.86603 -.5 .86603 .5 704.949 415.975)"/></g><path opacity=".2" transform="matrix(.86603 -.5 .86603 .5 716.955 631.249)" fill="url(#a)" d="M0 0h433.073v2.44H0z"/><path opacity=".2" transform="matrix(.86603 -.5 .86603 .5 387 303.509)" fill="url(#b)" d="M0 0h433.073v2.44H0z"/><path opacity=".45" d="M1122.62 441.309 778.048 242.368l-1.556.898 344.338 199.099 1.79-1.056z" fill="url(#c)"/><path opacity=".2" d="m1128.65 306.229-166.135-95.917-2.069 1.194 165.804 96.118 2.4-1.395z" fill="url(#d)"/><path opacity=".4" fill-rule="evenodd" clip-rule="evenodd" d="M779.145 6.1 328 266.57l1.428.852L780.392 6.82l-1.247-.72zM389.959 242.972l375.052 216.537-.959.553L389 243.526l.959-.554z" fill="url(#e)"/><path opacity=".4" transform="matrix(-.86603 -.5 -.86603 .5 1003.5 677.831)" fill="url(#f)" d="M0 0h345.396v1.107H0z"/><path opacity=".4" d="M812.083 229.838 1063.8 84.511l.8.462-251.597 145.411-.92-.546z" fill="url(#g)"/><path opacity=".4" transform="matrix(-.86603 .5 -.86603 -.5 516.989 310.349)" fill="url(#h)" d="M0 0h187.824v1.107H0z"/><path opacity=".4" fill-rule="evenodd" clip-rule="evenodd" d="m1016.82 572.681 134.32-77.548-1.1-.656-134.28 77.593-373.884-215.863-.959.554L1014.8 572.623 777.41 709.798l.959.554 237.491-137.117.11.062.96-.553-.11-.063z" fill="url(#i)"/><path opacity=".4" d="m339.28 149.132 210.634 121.61.678-.392-210.534-121.68-.778.462z" fill="url(#j)"/><path opacity=".2" d="m504.502 36.652 210.632 121.611 2.049-1.183L506.876 35.269l-2.374 1.383z" fill="url(#k)"/><path opacity=".4" transform="matrix(-.86603 -.5 -.86603 .5 898.183 140.689)" fill="url(#l)" d="M0 0h281.379v.719H0z"/><path opacity=".05" transform="matrix(-.86603 -.5 -.86603 .5 505.307 423.001)" fill="url(#m)" d="M0 0h126.79v49.801H0z"/><path opacity=".05" transform="matrix(-.86603 -.5 -.86603 .5 788.416 713.627)" fill="url(#n)" d="M0 0h179.31v49.801H0z"/><path opacity=".05" transform="matrix(-.86603 -.5 -.86603 .5 1159.05 525.009)" fill="url(#o)" d="M0 0h223.369v41.845H0z"/><path opacity=".05" transform="matrix(.86603 -.5 .86603 .5 414 291.84)" fill="url(#p)" d="M0 0h172.216v46.554H0z"/><path opacity=".05" transform="matrix(.86603 -.5 .86603 .5 748.853 126.923)" fill="url(#q)" d="M0 0h233.56v65.678H0z"/><path opacity=".15" transform="matrix(.86603 -.5 .86603 .5 251.983 589.734)" fill="url(#r)" d="M0 0h211.523v40.802H0z"/><path opacity=".05" transform="matrix(.86603 -.5 .86603 .5 900 222.694)" fill="url(#s)" d="M0 0h295.924v87.214H0z"/><path opacity=".1" d="M612.762 392.741c26.445 11.036 39.494 2.256 59.345-9.197 19.851-11.452 22.107-22.801 6.837-29.95-28.805-13.5-45.221.139-65.107 11.591-19.851 11.488-16.658 21.066-1.075 27.556z" fill="#000"/><path d="m645.731 346.792-1.908 10.828s3.331 1.978 5.795 2.742c2.464.798 6.49-.798 8.503 1.804 2.013 2.569 10.273 9.128 17.109 10.516 7.358 1.458 12.529-.902 12.633-3.019.104-2.117-1.805-5.588-8.503-9.961-6.698-4.372-12.389-14.957-12.389-14.957l-21.24 2.047z" fill="#10054D"/><path d="M645.176 353.698c1.006 1.215 11.279 2.985 13.327 5.518 2.29 2.916 13.812 10.03 19.608 11.002 5.275.902 9.335-1.735 8.85-3.748-.729-2.916-5.553-5.588-9.822-8.815-4.234-3.228-8.815-10.724-8.815-10.724l-23.217-.625.069 7.392z" fill="url(#t)"/><path d="M668.914 221.612s2.291 48.136 1.943 59.692c-.347 11.557-.624 68.889-.624 68.889s-4.477 4.339-14.09 4.2c-8.26-.104-10.689-1.041-11.453-3.089-.763-2.013-2.256-122.647-2.256-122.647l26.48-7.045z" fill="url(#u)"/><path d="M670.233 350.228s.277-57.332.624-68.889c.347-11.557-1.943-59.692-1.943-59.692l-26.48 7.045s-1.18-1.18-1.006 11.661c2.464 7.982 9.613 38.071 10.272 51.12.694 13.708 2.95 50.634 3.714 62.954.243 0 .486.035.729.035 9.613.07 14.09-4.234 14.09-4.234z" fill="#000" fill-opacity=".16"/><path d="m607.521 365.394-.208 10.064 4.581 4.581 1.458-.555s2.984 7.357 11.764 13.049c7.566 4.893 16.728 3.713 18.949 1.909 2.221-1.805 2.221-3.471-3.366-10.932-5.588-7.496-13.639-18.324-13.639-18.324l-19.539.208z" fill="#10054D"/><path d="M608.076 371.259s8.156 7.531 10.967 11.938c4.234 6.664 15.409 11.765 22.801 9.301 7.358-2.464-2.568-10.168-4.581-13.535-2.013-3.366-7.704-11.73-7.704-11.73l-21.795-.208.312 4.234z" fill="url(#v)"/><path d="M646.148 224.77s-7.809 81.418-8.746 92.628c-.729 9.127-3.401 50.599-5.449 53.202-2.811 3.609-17.421 4.546-20.441 3.054-3.019-1.492-5.518-1.18-5.518-7.218 0-6.039 1.666-39.286 3.193-53.619 1.458-13.709-1.423-61.116-1.492-67.189-.174-14.229 5.379-22.107 5.379-22.107l33.074 1.249z" fill="url(#w)"/><path d="M625.706 223.972c-1.77 24.675-5.205 73.019-5.657 79.994-.555 8.295-4.511 58.235-5.448 70.278 5.379.416 15.131-.799 17.387-3.644 2.048-2.603 4.72-44.076 5.449-53.203.902-11.21 8.745-92.627 8.745-92.627l-20.476-.798z" fill="#000" fill-opacity=".16"/><path opacity=".1" d="M724.58 466.836c28.979 11.036 42.028 2.638 61.914-8.85 19.851-11.487 28.527-21.343 6.837-29.95-21.17-8.399-42.34.451-62.226 11.904-19.851 11.487-22.281 20.857-6.525 26.896z" fill="#000"/><path d="M796.246 440.287s1.458 5.588.347 7.948c-1.11 2.359-6.247 4.234-10.377 2.221-4.13-2.013-5.934-6.247-7.496-7.358-1.562-1.11-10.377-2.117-16.971-7.704-6.594-5.588-5.691-11.731.903-11.835 6.594-.104 18.532 2.916 22.801 5.692 4.199 2.742 10.793 11.036 10.793 11.036z" fill="#10054D"/><path d="M793.122 446.291c-4.719.972-10.723-3.123-13.534-5.483-2.777-2.36-7.705-1.111-14.091-6.143-6.351-5.032-8.606-8.502-5.691-10.168 2.915-1.666 13.465-1.215 21.76 3.262 8.26 4.477 13.778 7.67 13.778 7.67s2.012 6.143 1.006 7.496c-1.006 1.354-.555 2.811-3.228 3.366z" fill="url(#x)"/><path d="M793.192 305.355s3.505 15.096 1.18 34.184c-2.36 19.088 2.533 70.798 3.366 84.402.833 13.57 2.499 17.318-2.533 20.337-3.783 2.291-11.071.833-16.589-5.518-5.518-6.386-6.698-12.563-6.039-13.743.66-1.18-7.045-56.153-6.698-65.037.347-8.884 3.505-50.6 3.505-50.6l23.808-4.025z" fill="url(#y)"/><path d="M795.205 444.278c5.032-3.054 3.366-6.767 2.533-20.337-.833-13.57-5.726-65.28-3.366-84.402s-1.18-34.184-1.18-34.184l-23.808 4.025s-1.908-.798-2.95 13.744c3.61 9.092 9.371 42.374 10.62 60.872 1.562 23.634 5.345 49.801 6.733 59.067 4.303 2.534 8.711 2.846 11.418 1.215z" fill="#0E0E0E" fill-opacity=".16"/><path d="M761.16 460.173s2.464 7.253-.556 8.815c-3.019 1.562-7.704 2.464-11.522.798-3.783-1.666-5.379-3.366-9.37-3.366-4.026 0-19.678-7.705-22.697-11.522-3.019-3.783 0-8.156 7.496-7.601 7.496.556 18.22 1.458 20.094 2.117 1.944.694 16.555 10.759 16.555 10.759z" fill="#10054D"/><path d="M757.828 465.517c-7.011.833-9.267-1.11-15.756-2.464-6.49-1.353-24.918-8.815-24.571-12.945.347-4.13 4.581-3.262 8.155-2.915 3.575.347 14.958 1.111 15.86 1.111.903 0 19.435 8.363 19.435 8.363s1.354 6.039.104 6.941c-1.215.903-1.353 1.701-3.227 1.909z" fill="url(#z)"/><path d="M771.397 310.387s4.199 9.058.174 24.64c-4.026 15.583-11.661 33.664-11.835 53.446-.173 19.782 5.102 71.249 2.117 74.095-3.019 2.845-13.639 3.817-17.942.659-6.976-5.136-10.724-12.39-10.064-14.923.659-2.499-3.853-55.458-2.673-74.407 1.18-18.949 4.373-68.369 4.373-68.369l35.85 4.859z" fill="url(#A)"/><path d="M753.004 307.888c-3.506 19.469-12.321 68.681-13.639 76.94-1.389 8.607 1.665 59.901 2.707 76.906.59.521 1.18 1.007 1.839 1.493 4.303 3.158 14.923 2.186 17.942-.66 3.02-2.846-2.255-54.313-2.117-74.095.174-19.781 7.809-37.863 11.835-53.445 4.025-15.582-.174-24.64-.174-24.64l-18.393-2.499z" fill="#0E0E0E" fill-opacity=".16"/><path d="M726.142 206.758s-14.368-1.492-20.094 1.319c-5.726 2.776-14.992 11.73-15.027 14.611 0 2.568 7.774 5.934 12.424 4.616 4.651-1.319 5.171-2.013 8.954-2.812 3.783-.798 11.279-3.227 14.056-4.685 2.741-1.457-.313-13.049-.313-13.049z" fill="url(#B)"/><path d="M638.026 106.843c-6.038 1.666-13.569 1.18-7.045 16.762 6.525 15.583 30.159 68.716 30.159 68.716s8.051-19.261 6.871-36.024c-1.179-16.762-11.244-45.428-11.244-45.428l-18.741-4.026z" fill="url(#C)"/><path d="m649.861 125.965 2.568-1.111 1.666 1.805-.659 3.679s7.149 13.951 9.821 22.454c2.672 8.503 3.228 19.99 2.221 25.369-1.006 5.379-5.934 13.188-5.934 13.188s-3.575-25.682-4.685-31.824c-1.111-6.143-4.581-28.042-4.581-28.042l-2.569-1.562 2.152-3.956z" fill="url(#D)"/><path d="M650.763 107.537s7.497-.937 13.188 4.199c4.095 3.714 6.351 8.468 7.635 17.908 1.146 8.329.07 66.807.903 76.038.833 9.232 3.678 19.782-1.493 24.988-5.205 5.205-8.988 6.906-10.307 3.887-1.353-3.02-5.379-29.985-3.193-38.037 2.187-8.051 8.225-24.467 7.878-34.358-.347-9.891-4.685-36.37-7.531-41.576-2.915-5.171-7.08-13.049-7.08-13.049z" fill="url(#E)"/><path d="M671.552 129.644c-1.007-7.496-2.673-12.042-5.345-15.443l-10.342 2.88c.659 1.215 1.319 2.43 1.909 3.505 2.846 5.206 7.218 31.686 7.531 41.577.347 9.891-5.692 26.306-7.878 34.358-2.187 8.051 1.839 35.017 3.193 38.036 1.353 3.019 5.136 1.284 10.307-3.887 5.206-5.206 2.36-15.756 1.492-24.953-.798-9.231.278-67.709-.867-76.073z" fill="#000" fill-opacity=".16"/><path d="M668.394 144.394a479.468 479.468 0 0 1-.903-16.312l-4.13-1.11 2.916-5.345s-8.364-11.626-12.008-14.229c-2.048-.139-3.54.104-3.54.104s4.199 7.878 7.045 13.084c2.846 5.206 7.218 31.686 7.531 41.577.208 6.108-2.013 14.714-4.269 22.28 1.076-2.395 3.019-7.392 3.436-8.78 2.36-7.739 4.616-22.107 3.922-31.269z" fill="url(#F)"/><path d="m653.019 110.071-14.992-3.228c-4.651 1.284-10.204 1.284-9.51 8.364 3.193 5.483 7.254 12.008 9.822 14.541 4.789 4.685 8.294 8.954 8.294 8.954l4.338-15.444 7.393 10.1s.416-8.85-.243-11.765c-.347-1.458-2.777-6.733-5.102-11.522z" fill="#D1D3D4"/><path d="m653.019 110.071-14.992-3.228c-4.651 1.284-10.204 1.284-9.51 8.364 3.193 5.483 7.254 12.008 9.822 14.541 4.789 4.685 8.051 6.698 8.051 6.698l4.581-13.188 7.15 7.809s.659-6.594 0-9.509c-.347-1.423-2.777-6.698-5.102-11.487z" fill="#fff"/><path d="M632.751 107.294s-4.685 1.457-2.117 8.155c2.569 6.698 12.737 17.977 19.331 33.421 6.594 15.409 11.071 31.72 10.62 50.392-.451 18.671-1.805 35.433-6.039 39.875-4.754 4.998-19.33 10.62-34.739 7.948-15.409-2.672-15.201-3.991-14.646-8.017.902-6.594 3.991-30.714 1.666-63.406-.451-6.247-4.789-33.837-2.672-40.535 2.117-6.698 5.934-7.496 9.821-11.522 2.534-2.603 6.386-6.42 10.932-10.342 2.43-2.082 4.789-5.067 7.843-5.969z" fill="url(#G)"/><path d="M614.913 209.431s4.928 1.145 10.03 1.804c5.067.66 11.175 1.284 11.175 1.284s1.076 7.15-1.77 7.74c-2.846.555-18.151-.937-19.296-2.569-1.18-1.665-.139-8.259-.139-8.259z" fill="#000" fill-opacity=".32"/><path d="M614.913 209.431s4.928 1.145 10.03 1.804c5.067.66 11.175 1.284 11.175 1.284s.486 5.935-2.36 6.49c-2.846.555-18.151-.937-19.296-2.568-1.18-1.666.451-7.01.451-7.01z" fill="url(#H)"/><path d="M685.052 199.817s.451 5.38-2.221 10.273c-2.673 4.928-7.497 8.954-7.497 8.954s-.798-10.169 1.909-13.951c2.672-3.818 7.809-5.276 7.809-5.276z" fill="url(#I)"/><path d="M685.052 199.817s.451 5.38-2.221 10.273c-2.673 4.928-7.497 8.954-7.497 8.954s-.798-10.169 1.909-13.951c2.672-3.818 7.809-5.276 7.809-5.276z" fill="#10759F"/><path d="M681.859 200.269s3.332 2.602 5.9 2.845c2.568.243 11.14-.104 13.951.903 2.672.937 11.036 3.436 11.244 5.691.243 2.256-2.845.764-5.275.417-2.429-.347-6.455-.66-6.455-.66s4.928 5.137 7.982 6.837c3.054 1.701 7.948 2.568 8.781 4.304.798 1.7-.243 3.366-2.707 5.067-3.748 2.602-6.837 1.769-10.03 1.874-5.588.208-12.043-2.048-14.611-4.2-2.568-2.151-9.891-7.912-11.522-8.884-1.631-.972-7.6-3.193-7.6-3.193l9.925-11.279.417.278z" fill="url(#J)"/><path d="M715.245 225.672c2.499-1.735 3.54-3.366 2.707-5.067-.139-.277-.417-.555-.729-.798-2.047 2.603-8.641 3.957-12.737 3.054-4.372-.971-15.617-8.502-18.879-11.661-1.666-1.596-7.149-3.678-12.077-5.275l-2.013 5.38s5.969 2.221 7.6 3.192c1.631.972 8.954 6.733 11.522 8.885 2.568 2.152 9.023 4.407 14.611 4.199 3.158-.139 6.247.694 9.995-1.909z" fill="url(#K)"/><path d="m633.341 120.516-18.671 18.429-7.947 15.096s16.346 50.392 18.012 60.04c1.422 8.121 1.839 27.694 1.943 33.663 12.702.347 23.842-4.338 27.903-8.572 4.234-4.442 5.587-21.239 6.038-39.876.452-18.671-4.025-34.982-10.619-50.391-5.171-12.112-12.494-21.586-16.659-28.389z" fill="#000" fill-opacity=".16"/><path d="M608.042 129.332c-6.525 2.082-6.872 14.61-2.777 23.773 2.673 5.969 17.006 43.103 23.287 46.469 6.247 3.367 46.817 19.435 46.817 19.435s1.909-7.704 4.685-12.528c2.777-4.79 5.032-6.698 5.032-6.698s-22.107-10.377-29.707-14.646c-7.6-4.234-11.522-6.594-13.188-10.515-1.666-3.922-7.114-20.823-8.884-24.988-4.512-10.342-9.856-25.196-25.265-20.302z" fill="url(#L)"/><path d="M754.253 154.042c-4.442 2.186-8.954 5.795-9.162 16.97-.208 11.175-.347 16.52 1.909 17.977 2.221 1.458 3.922 0 4.373 3.124.451 3.123-.451 8.26-.451 8.26l24.362-5.484s-1.665-3.921-.104-7.947c1.562-4.026 8.607-11.835 3.228-23.357-5.379-11.452-18.914-12.112-24.155-9.543z" fill="url(#M)"/><path d="M744.848 163.516c-.07 2.117 1.215 5.588 4.234 5.796 3.019.208 4.477 3.783 3.783 5.483-.66 1.666-.209 2.117-.209 2.117s2.222-.902 3.228.903c1.006 1.804-.347 5.587-1.006 7.045-.66 1.457 4.372 5.934 8.502 6.247 4.13.347 9.718-.104 11.522-2.221 1.805-2.117 8.364-9.267 6.039-20.685-2.36-11.383-12.841-18.22-22.558-16.311-9.718 1.909-13.431 8.607-13.535 11.626z" fill="url(#N)"/><path d="M722.984 205.682s-1.561 2.95-1.006 7.115c.555 4.164 3.019 9.752 3.019 9.752l41.403-2.291s31.928-1.353 30.506-14.367c-1.354-12.425-9.857-11.835-28.32-7.045-18.463 4.824-25.681 5.587-31.685 6.108-6.004.52-13.917.728-13.917.728z" fill="url(#O)"/><path d="M746.896 206.689s3.088-7.843 8.121-10.307c6.941-3.401 19.643-6.941 19.643-6.941s4.233 1.18 1.075 4.962c-3.088 3.783-28.839 12.286-28.839 12.286z" fill="url(#P)"/><path d="M796.905 205.855c-.034-.451-.138-.867-.208-1.318-8.329 2.255-27.208 9.752-44.491 10.654-14.993.798-24.641 1.076-29.465 1.145.937 3.193 2.221 6.178 2.221 6.178l41.438-2.291s8.156-.347 16.034-2.36c5.899-1.943 11.695-4.789 14.09-8.815.381-.971.52-2.013.381-3.193z" fill="#0E0E0E" fill-opacity=".16"/><path d="M767.198 198.047c5.032-1.666 10.273-4.789 10.273-4.789s5.032-.521 9.474.139c4.477.659 11.279 4.789 10.828 13.188-.451 8.363-1.527 48.1-1.492 64.03.069 22.072 3.227 44.457 1.943 54.73-.347 2.811-64.447 10.376-66.807 2.082-1.11-3.922 4.894-54.626 5.449-73.644.555-18.983-6.351-26.931 1.701-36.787 8.051-9.856 17.109-15.756 22.245-17.11 5.171-1.284 6.386-1.839 6.386-1.839z" fill="url(#Q)"/><path d="M746.202 207.313c2.36-3.123 7.392-6.143 11.383-7.947 11.348-4.998 19.122-8.677 19.122-8.677l6.525 2.43s-22.558 11.591-30.645 14.992c-6.698 2.811-14.229 9.371-14.229 9.371l7.844-10.169z" fill="url(#R)"/><path d="m632.994 105.073-1.908 4.13s5.691 9.37 9.96 12.077c4.234 2.672 9.266 5.692 10.724 3.575 1.457-2.117 3.019-7.948 3.019-7.948l-21.795-11.834z" fill="url(#S)"/><path d="m632.752 107.294 2.36.104s7.149 8.26 11.522 10.064c4.372 1.805 8.606 2.013 10.515-1.006 1.909-3.019 4.685-21.448 3.124-28.701-1.562-7.253-11.835-20.996-26.827-11.07-14.958 9.96-4.373 27.485-3.783 28.041.521.555 3.089 2.568 3.089 2.568z" fill="url(#T)"/><path d="M629.628 105.038s-2.186-4.962-.208-6.42c.278-.208.59-.347.867-.451 1.076-.347 2.256.104 3.02.937l2.082 2.256s.347-2.36 1.423-6.768c.659-2.846 4.234-5.38 11.626-4.685 3.922.347 8.815 2.36 11.522.208 2.672-2.117.555-6.698-.798-8.954-1.354-2.22-13.951-15.235-27.278-5.726-13.327 9.51-5.83 26.063-2.256 29.603z" fill="url(#U)"/><path d="M781.08 169.138c-2.048 1.7-5.553 3.679-11.487 4.789-6.178 1.145-12.286.174-16.659-.972.139.695.174 1.354-.034 1.84-.66 1.666-.209 2.117-.209 2.117s2.222-.903 3.228.902c1.006 1.805-.347 5.588-1.007 7.045-.659 1.458 4.373 5.935 8.503 6.247 4.13.347 9.718-.104 11.522-2.221 1.701-2.048 7.982-8.884 6.143-19.747z" fill="#4A2110"/><path d="M693.589 211.998c-.833.972-.347 3.158 2.43 3.401 2.776.243 8.849-.416 11.14-.416 2.29 0 13.5-4.373 13.5-4.373l-27.07 1.388z" fill="#CF937E"/><path d="M707.297 207.001c-2.707 1.527-6.837 2.395-9.023 3.505-2.186 1.111-4.13.486-4.685 1.493-.555 1.006-.174 3.713 5.31 2.499 5.483-1.215 8.572-2.013 11.834-1.875 3.262.139 9.579.035 10.759-1.735 1.18-1.77-1.076-4.164-1.076-4.164l-13.119.277z" fill="url(#V)"/><path d="M688.904 222.548c-.555-1.041 4.928-.833 6.559-.208 1.631.625 7.358 2.915 8.711 3.818.937.624 2.256 1.596-1.284 1.804-6.733.417-11.973-1.631-13.986-5.414z" fill="url(#W)"/><path d="M798.293 325.345c1.25-10.273-1.874-32.692-1.943-54.73-.035-15.929 1.041-55.666 1.492-64.03.278-5.275-2.325-8.885-5.414-10.967-2.776 1.284-6.351 3.228-10.654 6.178-11.314 7.739-33.733 16.762-33.733 16.762l-11.418 41.854c-1.354 22.107-6.143 63.545-5.136 67.05.208.798 1.006 1.423 2.221 1.943l2.984.764 19.053-48.795s2.013 43.867.556 49.732c18.948-.694 41.784-4.061 41.992-5.761z" fill="#0E0E0E" fill-opacity=".16"/><path d="M732.458 325.31c.243 4.407-.867 8.711-1.7 11.313-.972 2.916-.972 6.143-2.534 5.831-1.527-.312-1.353-13.361-1.353-13.361l5.587-3.783z" fill="url(#X)"/><path d="M721.561 313.996s-5.206 8.433-7.323 13.986c-1.145 2.985-1.006 3.47.417 9.127.659 2.638 1.457 4.512 2.915 4.512.659 0 .035-1.527.035-1.527s.59 2.603 2.394 2.811c1.805.174.59-1.805.59-1.805s.868 2.742 2.638 2.846c1.805.07.521-2.013.521-2.013s.971 2.881 2.429 3.193c1.457.313 1.562-.624 1.284-2.637-.312-2.395.451-4.651 2.082-8.746 1.735-4.338 3.436-6.42 2.672-10.203-.763-3.783 1.979-7.427 1.979-7.427l-12.633-2.117z" fill="url(#Y)"/><path d="M740.753 218.245c7.704-3.019 15.548 1.562 17.734 9.613 2.186 8.087-.694 39.148-3.505 47.858-2.811 8.711-20.858 47.928-20.858 47.928s-6.837-.66-11.14-2.395c-4.303-1.735-6.455-5.587-6.455-5.587s12.181-33.664 14.472-41.438c2.29-7.808.659-27.313 1.145-36.024.59-10.584 1.18-17.074 8.607-19.955z" fill="url(#Z)"/><path d="M649.965 148.87c-6.594-15.409-16.762-26.688-19.33-33.421-2.187-5.726.902-7.6 1.839-8.051-2.776.868-5.275 2.464-7.531 4.338-.52 4.477-.902 5.553 1.007 13.57 2.012 8.502 2.568 10.376 2.568 10.376l5.691 1.215v5.588s21.934 30.158 25.96 44.769c-1.215-13.778-5.067-26.376-10.204-38.384z" fill="url(#aa)"/><defs><linearGradient id="A" x1="786.83" y1="385.359" x2="706.12" y2="385.359" gradientUnits="userSpaceOnUse"><stop offset=".035" stop-color="#6B24D6"/><stop offset=".294" stop-color="#7733DC"/><stop offset=".794" stop-color="#975CED"/><stop offset="1" stop-color="#A56EF4"/></linearGradient><linearGradient id="a" x1="433.073" y1="1.236" x2="432.669" y2="14.458" gradientUnits="userSpaceOnUse"><stop stop-color="#4346DE" stop-opacity="0"/><stop offset=".474" stop-color="#4346DE"/><stop offset="1" stop-color="#4346DE" stop-opacity="0"/></linearGradient><linearGradient id="c" x1="1186.14" y1="479.105" x2="1181.16" y2="487.41" gradientUnits="userSpaceOnUse"><stop offset=".126" stop-color="#5FEFD5" stop-opacity="0"/><stop offset=".554" stop-color="#30ECC9"/><stop offset="1" stop-color="#30ECC9" stop-opacity="0"/></linearGradient><linearGradient id="d" x1="974.534" y1="218.506" x2="970.327" y2="226.851" gradientUnits="userSpaceOnUse"><stop stop-color="#4346DE" stop-opacity="0"/><stop offset=".474" stop-color="#4346DE"/><stop offset="1" stop-color="#4346DE" stop-opacity="0"/></linearGradient><linearGradient id="e" x1="283.089" y1="273.486" x2="709.237" y2="186.611" gradientUnits="userSpaceOnUse"><stop stop-color="#5FEFD5" stop-opacity="0"/><stop offset=".554" stop-color="#30ECC9"/><stop offset="1" stop-color="#30ECC9" stop-opacity="0"/></linearGradient><linearGradient id="f" x1="345.396" y1=".561" x2="345.292" y2="6.564" gradientUnits="userSpaceOnUse"><stop stop-color="#4346DE" stop-opacity="0"/><stop offset=".474" stop-color="#4346DE"/><stop offset="1" stop-color="#4346DE" stop-opacity="0"/></linearGradient><linearGradient id="g" x1="765.469" y1="257.328" x2="767.297" y2="260.415" gradientUnits="userSpaceOnUse"><stop stop-color="#5FEFD5" stop-opacity="0"/><stop offset=".554" stop-color="#30ECC9"/><stop offset="1" stop-color="#30ECC9" stop-opacity="0"/></linearGradient><linearGradient id="h" x1="187.824" y1=".561" x2="187.632" y2="6.559" gradientUnits="userSpaceOnUse"><stop stop-color="#4346DE" stop-opacity="0"/><stop offset=".474" stop-color="#4346DE"/><stop offset="1" stop-color="#4346DE" stop-opacity="0"/></linearGradient><linearGradient id="i" x1="1121.12" y1="549.503" x2="573.927" y2="404.207" gradientUnits="userSpaceOnUse"><stop stop-color="#5FEFD5" stop-opacity="0"/><stop offset=".554" stop-color="#30ECC9"/><stop offset="1" stop-color="#30ECC9" stop-opacity="0"/></linearGradient><linearGradient id="j" x1="550.257" y1="270.544" x2="552.031" y2="267.361" gradientUnits="userSpaceOnUse"><stop stop-color="#4346DE" stop-opacity="0"/><stop offset=".474" stop-color="#4346DE"/><stop offset="1" stop-color="#4346DE" stop-opacity="0"/></linearGradient><linearGradient id="k" x1="716.172" y1="157.664" x2="721.159" y2="148.063" gradientUnits="userSpaceOnUse"><stop stop-color="#4346DE" stop-opacity="0"/><stop offset=".474" stop-color="#4346DE"/><stop offset="1" stop-color="#4346DE" stop-opacity="0"/></linearGradient><linearGradient id="l" x1="281.379" y1=".364" x2="281.326" y2="3.965" gradientUnits="userSpaceOnUse"><stop stop-color="#4346DE" stop-opacity="0"/><stop offset=".474" stop-color="#4346DE"/><stop offset=".949" stop-color="#4346DE" stop-opacity="0"/></linearGradient><linearGradient id="m" x1="126.79" y1="25.224" x2="22.892" y2="73.993" gradientUnits="userSpaceOnUse"><stop stop-color="#4346DE" stop-opacity="0"/><stop offset=".474" stop-color="#4346DE"/><stop offset="1" stop-color="#4346DE" stop-opacity="0"/></linearGradient><linearGradient id="n" x1="179.31" y1="25.224" x2="54.848" y2="107.847" gradientUnits="userSpaceOnUse"><stop stop-color="#4346DE" stop-opacity="0"/><stop offset=".474" stop-color="#4346DE"/><stop offset="1" stop-color="#4346DE" stop-opacity="0"/></linearGradient><linearGradient id="o" x1="223.369" y1="21.194" x2="109.904" y2="132.865" gradientUnits="userSpaceOnUse"><stop stop-color="#4346DE" stop-opacity="0"/><stop offset=".474" stop-color="#4346DE"/><stop offset="1" stop-color="#4346DE" stop-opacity="0"/></linearGradient><linearGradient id="p" x1="172.216" y1="23.579" x2="54.677" y2="103.746" gradientUnits="userSpaceOnUse"><stop stop-color="#4346DE" stop-opacity="0"/><stop offset=".474" stop-color="#4346DE"/><stop offset="1" stop-color="#4346DE" stop-opacity="0"/></linearGradient><linearGradient id="q" x1="222.331" y1="35.897" x2="66.129" y2="136.224" gradientUnits="userSpaceOnUse"><stop stop-color="#4346DE" stop-opacity="0"/><stop offset=".474" stop-color="#4346DE"/><stop offset="1" stop-color="#4346DE" stop-opacity="0"/></linearGradient><linearGradient id="r" x1="16.672" y1="27.329" x2="84.023" y2="123.117" gradientUnits="userSpaceOnUse"><stop stop-color="#5FEFD5" stop-opacity="0"/><stop offset=".554" stop-color="#30ECC9"/><stop offset="1" stop-color="#30ECC9" stop-opacity="0"/></linearGradient><linearGradient id="s" x1="285.585" y1="49.812" x2="73.935" y2="160.571" gradientUnits="userSpaceOnUse"><stop stop-color="#4346DE" stop-opacity="0"/><stop offset=".474" stop-color="#4346DE"/><stop offset="1" stop-color="#4346DE" stop-opacity="0"/></linearGradient><linearGradient id="t" x1="645.071" y1="358.378" x2="686.976" y2="358.378" gradientUnits="userSpaceOnUse"><stop offset=".091" stop-color="#25054D"/><stop offset=".471" stop-color="#330A68"/><stop offset=".894" stop-color="#45108A"/></linearGradient><linearGradient id="u" x1="653.929" y1="227.441" x2="695.823" y2="241.697" gradientUnits="userSpaceOnUse"><stop stop-color="#5FEDE6"/><stop offset="1" stop-color="#437FEC"/></linearGradient><linearGradient id="v" x1="607.755" y1="380.075" x2="644.516" y2="380.075" gradientUnits="userSpaceOnUse"><stop offset=".091" stop-color="#25054D"/><stop offset=".471" stop-color="#330A68"/><stop offset=".894" stop-color="#45108A"/></linearGradient><linearGradient id="w" x1="622.212" y1="230.142" x2="678.168" y2="253.795" gradientUnits="userSpaceOnUse"><stop stop-color="#5FEDE6"/><stop offset="1" stop-color="#437FEC"/></linearGradient><linearGradient id="x" x1="777.609" y1="438.5" x2="777.609" y2="416.534" gradientUnits="userSpaceOnUse"><stop offset=".091" stop-color="#25054D"/><stop offset=".471" stop-color="#330A68"/><stop offset=".894" stop-color="#45108A"/></linearGradient><linearGradient id="y" x1="788.93" y1="375.38" x2="704.869" y2="376.497" gradientUnits="userSpaceOnUse"><stop offset=".035" stop-color="#6B24D6"/><stop offset=".294" stop-color="#7733DC"/><stop offset=".794" stop-color="#975CED"/><stop offset="1" stop-color="#A56EF4"/></linearGradient><linearGradient id="z" x1="737.229" y1="462.879" x2="745.94" y2="437.286" gradientUnits="userSpaceOnUse"><stop offset=".091" stop-color="#25054D"/><stop offset=".471" stop-color="#330A68"/><stop offset=".894" stop-color="#45108A"/></linearGradient><linearGradient id="b" x1="433.073" y1="1.236" x2="432.669" y2="14.458" gradientUnits="userSpaceOnUse"><stop stop-color="#4346DE" stop-opacity="0"/><stop offset=".474" stop-color="#4346DE"/><stop offset="1" stop-color="#4346DE" stop-opacity="0"/></linearGradient><linearGradient id="Z" x1="769.657" y1="275.098" x2="701.367" y2="264.439" gradientUnits="userSpaceOnUse"><stop offset=".035" stop-color="#6B24D6"/><stop offset=".294" stop-color="#7733DC"/><stop offset=".794" stop-color="#975CED"/><stop offset="1" stop-color="#A56EF4"/></linearGradient><linearGradient id="C" x1="677.132" y1="166.748" x2="630.913" y2="128.208" gradientUnits="userSpaceOnUse"><stop offset=".035" stop-color="#9D9EB3"/><stop offset=".581" stop-color="#D4D1D8"/><stop offset="1" stop-color="#EEEBF2"/></linearGradient><linearGradient id="D" x1="665.361" y1="165.263" x2="598.615" y2="114.017" gradientUnits="userSpaceOnUse"><stop offset=".035" stop-color="#9F19AB"/><stop offset=".244" stop-color="#AE25B1"/><stop offset=".645" stop-color="#D744BF"/><stop offset="1" stop-color="#FF63CE"/></linearGradient><linearGradient id="E" x1="676.936" y1="171.503" x2="610.19" y2="172.341" gradientUnits="userSpaceOnUse"><stop offset=".035" stop-color="#138BBD"/><stop offset=".226" stop-color="#169AC7"/><stop offset=".595" stop-color="#1FC3DF"/><stop offset="1" stop-color="#2AF6FF"/></linearGradient><linearGradient id="F" x1="678.193" y1="145.903" x2="624.573" y2="145.903" gradientUnits="userSpaceOnUse"><stop offset=".035" stop-color="#138BBD"/><stop offset=".226" stop-color="#169AC7"/><stop offset=".595" stop-color="#1FC3DF"/><stop offset="1" stop-color="#2AF6FF"/></linearGradient><linearGradient id="G" x1="626.615" y1="113.461" x2="692.8" y2="156.128" gradientUnits="userSpaceOnUse"><stop stop-color="#5FEDE6"/><stop offset="1" stop-color="#437FEC"/></linearGradient><linearGradient id="H" x1="646.197" y1="212.608" x2="599.139" y2="216.099" gradientUnits="userSpaceOnUse"><stop offset=".035" stop-color="#138BBD"/><stop offset=".226" stop-color="#169AC7"/><stop offset=".595" stop-color="#1FC3DF"/><stop offset="1" stop-color="#2AF6FF"/></linearGradient><linearGradient id="I" x1="680.117" y1="209.37" x2="658.333" y2="195.755" gradientUnits="userSpaceOnUse"><stop offset=".035" stop-color="#138BBD"/><stop offset=".226" stop-color="#169AC7"/><stop offset=".595" stop-color="#1FC3DF"/><stop offset="1" stop-color="#2AF6FF"/></linearGradient><linearGradient id="U" x1="624.28" y1="88.51" x2="661.202" y2="88.51" gradientUnits="userSpaceOnUse"><stop offset=".035" stop-color="#602213"/><stop offset=".571" stop-color="#6D310E"/><stop offset="1" stop-color="#7A4108"/></linearGradient><linearGradient id="R" x1="769.957" y1="209.591" x2="706.842" y2="179.989" gradientUnits="userSpaceOnUse"><stop offset=".035" stop-color="#6B24D6"/><stop offset=".294" stop-color="#7733DC"/><stop offset=".794" stop-color="#975CED"/><stop offset="1" stop-color="#A56EF4"/></linearGradient><linearGradient id="L" x1="635.907" y1="132.349" x2="679.784" y2="195.758" gradientUnits="userSpaceOnUse"><stop stop-color="#5FEDE6"/><stop offset="1" stop-color="#437FEC"/></linearGradient><linearGradient id="Q" x1="816.119" y1="265.392" x2="672.486" y2="256.329" gradientUnits="userSpaceOnUse"><stop offset=".035" stop-color="#6B24D6"/><stop offset=".294" stop-color="#7733DC"/><stop offset=".794" stop-color="#975CED"/><stop offset="1" stop-color="#A56EF4"/></linearGradient><linearGradient id="N" x1="775.57" y1="189.36" x2="755.721" y2="154.263" gradientUnits="userSpaceOnUse"><stop offset=".035" stop-color="#602213"/><stop offset=".571" stop-color="#6D310E"/><stop offset="1" stop-color="#7A4108"/></linearGradient><linearGradient id="O" x1="768.823" y1="212.867" x2="716.101" y2="196.203" gradientUnits="userSpaceOnUse"><stop offset=".035" stop-color="#6B24D6"/><stop offset=".294" stop-color="#7733DC"/><stop offset=".794" stop-color="#975CED"/><stop offset="1" stop-color="#A56EF4"/></linearGradient><linearGradient id="P" x1="765.998" y1="206.257" x2="760.005" y2="195.624" gradientUnits="userSpaceOnUse"><stop offset=".035" stop-color="#9D9EB3"/><stop offset=".581" stop-color="#D4D1D8"/><stop offset="1" stop-color="#EEEBF2"/></linearGradient><linearGradient id="aa" x1="658.31" y1="142.303" x2="628.149" y2="154.87" gradientUnits="userSpaceOnUse"><stop offset=".035" stop-color="#138BBD"/><stop offset=".226" stop-color="#169AC7"/><stop offset=".595" stop-color="#1FC3DF"/><stop offset="1" stop-color="#2AF6FF"/></linearGradient><radialGradient id="M" cx="0" cy="0" r="1" gradientUnits="userSpaceOnUse" gradientTransform="translate(751.439 172.976) scale(29.4311)"><stop offset=".03" stop-color="#FEDFCB"/><stop offset="1" stop-color="#F9B69E"/></radialGradient><radialGradient id="S" cx="0" cy="0" r="1" gradientUnits="userSpaceOnUse" gradientTransform="translate(663.122 96.217) scale(32.9148)"><stop offset=".03" stop-color="#FEDFCB"/><stop offset="1" stop-color="#F9B69E"/></radialGradient><radialGradient id="T" cx="0" cy="0" r="1" gradientUnits="userSpaceOnUse" gradientTransform="translate(657.313 96.49) scale(35.1095)"><stop offset=".03" stop-color="#FEDFCB"/><stop offset="1" stop-color="#F9B69E"/></radialGradient><radialGradient id="J" cx="0" cy="0" r="1" gradientUnits="userSpaceOnUse" gradientTransform="translate(707.084 206.016) scale(30.0238)"><stop offset=".03" stop-color="#FEDFCB"/><stop offset="1" stop-color="#F9B69E"/></radialGradient><radialGradient id="K" cx="0" cy="0" r="1" gradientUnits="userSpaceOnUse" gradientTransform="translate(715.131 192.557) scale(46.6371)"><stop offset=".03" stop-color="#FEDFCB"/><stop offset=".778" stop-color="#F9B69E"/><stop offset=".995" stop-color="#F2A78C"/></radialGradient><radialGradient id="W" cx="0" cy="0" r="1" gradientUnits="userSpaceOnUse" gradientTransform="translate(699.746 220.339) scale(13.4901)"><stop offset=".03" stop-color="#FEDFCB"/><stop offset="1" stop-color="#F9B69E"/></radialGradient><radialGradient id="X" cx="0" cy="0" r="1" gradientUnits="userSpaceOnUse" gradientTransform="rotate(-7.545 2885.092 -5496.606) scale(19.3218)"><stop offset=".03" stop-color="#FEDFCB"/><stop offset=".778" stop-color="#F9B69E"/><stop offset=".995" stop-color="#F2A78C"/></radialGradient><radialGradient id="Y" cx="0" cy="0" r="1" gradientUnits="userSpaceOnUse" gradientTransform="rotate(-1.1 17189.236 -37101.542) scale(20.546)"><stop offset=".03" stop-color="#FEDFCB"/><stop offset="1" stop-color="#F9B69E"/></radialGradient><radialGradient id="B" cx="0" cy="0" r="1" gradientUnits="userSpaceOnUse" gradientTransform="rotate(4.445 -2591.42 9426.205) scale(24.8666)"><stop offset=".03" stop-color="#FEDFCB"/><stop offset=".778" stop-color="#F9B69E"/><stop offset=".995" stop-color="#F2A78C"/></radialGradient><radialGradient id="V" cx="0" cy="0" r="1" gradientUnits="userSpaceOnUse" gradientTransform="rotate(4.445 -2168.834 9027.1) scale(27.8748)"><stop offset=".03" stop-color="#FEDFCB"/><stop offset="1" stop-color="#F9B69E"/></radialGradient></defs></svg>