<svg width="131" height="68" viewBox="0 0 131 68" fill="none" xmlns="http://www.w3.org/2000/svg">
<g opacity="0.8">
<path opacity="0.8" d="M5.2938 55.3145H7.16736L12.4094 67.6855H9.93432L8.79983 64.8548H3.52328L2.42331 67.6855H0L5.2938 55.3145ZM8.0435 62.9677L6.17043 57.9355L4.26235 62.9677H8.0435ZM14.7321 55.3145H17.224L20.5411 64.6626L23.9614 55.3145H26.2989L21.3833 67.6855H19.5102L14.7321 55.3145ZM34.0382 55.3145H35.9118L41.1538 67.6855H38.6787L37.5442 64.8548H32.2682L31.1682 67.6855H28.7449L34.0382 55.3145ZM36.7884 62.9677L34.9148 57.9355L33.0072 62.9677H36.7884ZM45.9432 55.3145H48.1087V65.6936H53.2822V67.6855H45.9432V55.3145ZM62.2289 55.3145H64.102L69.344 67.6855H66.8694L65.7349 64.8548H60.4584L59.3584 67.6855H56.9351L62.2289 55.3145ZM64.9786 62.9677L63.1055 57.9355L61.1975 62.9677H64.9786ZM74.1339 55.3145H77.0039L82.8992 64.5054H82.9337V55.3145H85.0992V67.6855H82.349L76.3339 58.1976H76.2994V67.6855H74.1339V55.3145ZM99.603 58.2151C99.1563 57.7258 98.721 57.3998 98.297 57.2366C97.8843 57.0733 97.4662 56.9919 97.0422 56.9919C96.4121 56.9919 95.8391 57.1083 95.3234 57.3414C94.8195 57.5626 94.3842 57.8771 94.0174 58.2849C93.651 58.6808 93.3646 59.1471 93.158 59.6828C92.9632 60.2185 92.8661 60.7951 92.8661 61.4126C92.8661 62.0766 92.9632 62.6882 93.158 63.2473C93.3646 63.8065 93.651 64.2897 94.0174 64.6976C94.3842 65.1055 94.8195 65.4255 95.3234 65.6586C95.8391 65.8917 96.4121 66.0081 97.0422 66.0081C97.5352 66.0081 98.0105 65.8917 98.469 65.6586C98.9389 65.414 99.3743 65.0296 99.7751 64.5054L101.562 65.7984C101.013 66.5672 100.342 67.1264 99.5518 67.4758C98.7609 67.8253 97.9188 68 97.0249 68C96.0857 68 95.2204 67.8487 94.43 67.5457C93.651 67.2312 92.9751 66.7944 92.4016 66.2352C91.8406 65.6646 91.3993 64.9831 91.0783 64.1909C90.7579 63.3986 90.5971 62.5194 90.5971 61.5524C90.5971 60.5624 90.7579 59.6653 91.0783 58.8616C91.3993 58.0463 91.8406 57.3529 92.4016 56.7823C92.9751 56.2116 93.651 55.7748 94.43 55.4718C95.2204 55.1573 96.0857 55 97.0249 55C97.8503 55 98.612 55.1513 99.3112 55.4543C100.022 55.7454 100.68 56.2466 101.287 56.957L99.603 58.2151ZM106.453 55.3145H108.619V60.2419H114.308V55.3145H116.473V67.6855H114.308V62.2339H108.619V67.6855H106.453V55.3145ZM122.63 55.3145H130.69V57.3064H124.796V60.3468H130.381V62.3387H124.796V65.6936H131V67.6855H122.63V55.3145Z" fill="black"/>
<path opacity="0.8" d="M15.9261 45H6.98282C4.86255 45 3.80242 45 3.16732 44.5861C2.4813 44.1387 2.04843 43.3884 2.0024 42.5669C1.9598 41.8063 2.48521 40.8793 3.53555 39.0246L23.1164 4.4567C24.1819 2.57517 24.7147 1.63445 25.3929 1.28425C26.1254 0.905858 26.9941 0.905219 27.7266 1.28253C28.4053 1.6317 28.9395 2.57168 30.008 4.4516L34.5242 12.3972C35.3008 13.7643 35.6896 14.4478 35.8605 15.169C36.0461 15.954 36.0466 16.7718 35.8615 17.5569C35.6911 18.2782 35.3033 18.9622 34.5276 20.3299L22.8182 40.9716C22.0313 42.3592 21.6376 43.0531 21.0985 43.5721C20.5114 44.1363 19.7999 44.5527 19.0218 44.7859C18.3069 45 17.5131 45 15.9261 45Z" fill="black"/>
<path opacity="0.8" d="M47.837 45H37.1586C34.9547 45 33.8528 45 33.1971 44.5903C32.4881 44.1473 32.0438 43.4054 32.0019 42.5946C31.9631 41.8446 32.5173 40.9306 33.6263 39.1032L38.9569 30.3191C40.0523 28.5146 40.5995 27.6123 41.2929 27.2743C42.0424 26.9091 42.9279 26.9086 43.6779 27.2727C44.3718 27.6096 44.9205 28.5112 46.0184 30.3143L51.3662 39.0984C52.4797 40.9273 53.0365 41.8417 52.9981 42.5922C52.9573 43.4035 52.513 44.1463 51.8039 44.5898C51.1478 45 50.0444 45 47.837 45Z" fill="black"/>
<path opacity="0.8" d="M92.926 45H83.9827C81.8625 45 80.8024 45 80.1673 44.5861C79.4812 44.1387 79.0484 43.3884 79.0023 42.5669C78.9602 41.8063 79.4852 40.8793 80.5355 39.0246L100.116 4.4567C101.182 2.57517 101.715 1.63445 102.393 1.28425C103.125 0.905858 103.994 0.905219 104.727 1.28253C105.405 1.6317 105.939 2.57168 107.008 4.4516L111.524 12.3972C112.301 13.7643 112.689 14.4478 112.86 15.169C113.046 15.954 113.046 16.7718 112.861 17.5569C112.691 18.2782 112.303 18.9622 111.527 20.3299L99.8186 40.9716C99.0312 42.3592 98.638 43.0531 98.0984 43.5721C97.5117 44.1363 96.7998 44.5527 96.0217 44.7859C95.3068 45 94.5135 45 92.926 45Z" fill="black"/>
<path opacity="0.8" d="M125.837 45H115.158C112.955 45 111.853 45 111.197 44.5903C110.488 44.1473 110.044 43.4054 110.002 42.5946C109.963 41.8446 110.517 40.9306 111.626 39.1032L116.957 30.3191C118.052 28.5146 118.599 27.6123 119.293 27.2743C120.042 26.9091 120.928 26.9086 121.678 27.2727C122.372 27.6096 122.92 28.5112 124.018 30.3143L129.366 39.0984C130.479 40.9273 131.036 41.8417 130.998 42.5922C130.957 43.4035 130.513 44.1463 129.803 44.5898C129.147 45 128.044 45 125.837 45Z" fill="black"/>
<path opacity="0.8" d="M54.1435 0H44.9764C42.8593 0 41.801 9.95122e-07 41.1669 0.413506C40.4815 0.860402 40.0489 1.61012 40.0025 2.43144C39.9594 3.19147 40.4829 4.11836 41.53 5.97223L61.0212 40.4849C62.1079 42.4088 62.6514 43.3712 63.3379 43.7218C64.0796 44.1004 64.9574 44.0921 65.6923 43.6997C66.3724 43.3369 66.8979 42.3646 67.9493 40.4206L72.6184 31.7886C73.3553 30.4264 73.7237 29.7454 73.8798 29.0307C74.0501 28.253 74.0393 27.4461 73.8485 26.6734C73.6728 25.9634 73.2858 25.2925 72.5128 23.9507L61.0016 3.97816C60.2114 2.60718 59.8166 1.92174 59.2789 1.40938C58.6932 0.851759 57.9857 0.441299 57.2132 0.211295C56.5037 8.19512e-07 55.717 0 54.1435 0Z" fill="black"/>
<path opacity="0.8" d="M86.8423 0H76.1532C73.9529 0 72.8525 -1.33178e-06 72.1971 0.431228C71.4889 0.897192 71.0443 1.6784 71.002 2.53188C70.9626 3.32172 71.5151 4.28396 72.6211 6.2085L77.9568 15.4955C79.0517 17.4011 79.5991 18.3539 80.2928 18.7105C81.0418 19.0959 81.9285 19.0965 82.6781 18.7122C83.3722 18.3566 83.9212 17.4046 85.0185 15.5006L90.3719 6.21363C91.4819 4.28792 92.0369 3.32507 91.9981 2.53467C91.9568 1.68049 91.5122 0.898412 90.8039 0.431788C90.1481 -9.0803e-08 89.0462 0 86.8423 0Z" fill="black"/>
</g>
</svg>
