<svg width="191" height="87" viewBox="0 0 191 87" fill="none" xmlns="http://www.w3.org/2000/svg">
<g opacity="0.8">
<path opacity="0.8" d="M120.493 49.7591C119.799 49.7591 119.201 50.0024 118.702 50.492C118.207 50.9828 117.956 51.5631 117.956 52.2346C117.956 53.2592 118.48 54.0539 119.533 54.6252C120.679 54.9303 121.604 54.7304 122.3 54.0292C122.541 53.7993 122.732 53.5228 122.861 53.217C122.989 52.9115 123.053 52.583 123.047 52.2522C123.047 51.5604 122.8 50.971 122.305 50.4971C122.072 50.2609 121.792 50.0743 121.483 49.9488C121.174 49.8232 120.842 49.7615 120.507 49.7669L120.493 49.7591ZM79.6779 30.7711H77.7851C76.9682 30.7711 76.3051 31.4207 76.3051 32.2253V33.2631C74.2987 31.2042 72.0059 30.1753 69.4659 30.1753C66.5215 30.1753 64.0725 31.249 62.105 33.3964C60.151 35.545 59.1741 38.2292 59.1741 41.4504C59.1741 44.7303 60.151 47.4682 62.1181 49.6578C64.0983 51.8079 66.5997 52.8814 69.622 52.8814C72.0166 52.8814 74.2534 51.9256 76.3313 50.0113V52.0664C76.3313 53.0621 77.1569 53.8732 78.1681 53.8732H81.4042V32.438C81.4042 31.5181 80.6445 30.7699 79.7081 30.7699L79.6779 30.7711ZM74.8931 46.5457C73.7413 47.8116 72.2315 48.442 70.3594 48.442C68.6097 48.442 67.1587 47.7885 66.0081 46.4815C64.8853 45.1875 64.3251 43.509 64.3251 41.4488C64.3251 39.5142 64.8985 37.8999 66.0526 36.5931C67.2251 35.299 68.6709 34.6456 70.4166 34.6456C72.2534 34.6456 73.7516 35.2862 74.911 36.5674C76.0679 37.8743 76.6436 39.54 76.6436 41.5513C76.6436 43.563 76.0707 45.2285 74.9177 46.5355L74.8931 46.5457ZM59.1649 34.3996V32.2727C59.1653 32.0756 59.126 31.8805 59.0497 31.6983C58.973 31.5161 58.861 31.3506 58.7196 31.2111C58.5777 31.0716 58.4097 30.961 58.2245 30.8855C58.0394 30.81 57.8411 30.7711 57.6409 30.7711H55.6424C55.238 30.7711 54.8502 30.9291 54.5645 31.2102C54.2785 31.4913 54.1179 31.8726 54.1179 32.2702V33.1991C52.2943 31.1824 50.0038 30.1753 47.2525 30.1753C44.113 30.1753 41.5829 31.3374 39.6706 33.6603C37.8885 35.8512 37 38.5162 37 41.6502C37 44.8711 37.9575 47.5566 39.8726 49.704C41.772 51.8244 44.2107 52.8814 47.1861 52.8814C49.7917 52.8814 52.1104 51.8744 54.1168 49.8604V52.8611C54.1168 57.3197 52.2669 59.5488 48.5672 59.5488C46.5608 59.5488 45.0367 58.8777 43.9815 57.5375C43.6879 57.1551 43.463 56.7261 43.3172 56.2689C43.1948 55.9236 42.966 55.624 42.6624 55.4128C42.3585 55.2013 41.9953 55.0886 41.6235 55.0902H39.7358C38.7678 55.0902 38.0513 55.9873 38.2962 56.906C38.8173 58.866 39.827 60.4573 41.3314 61.6849C43.2143 63.2288 45.6136 64 48.5294 64C51.984 64 54.6992 62.8815 56.6714 60.6469C57.7203 59.4835 58.4224 58.0948 58.7819 56.4754C58.9019 55.886 58.9957 55.2067 59.062 54.4332C59.1296 53.6616 59.1621 52.7672 59.1621 51.7528V48.6391C57.7473 46.6407 57.0389 44.2446 57.0389 41.4645C57.0389 38.7353 57.7473 36.3778 59.1621 34.4175L59.1649 34.3996ZM52.7723 46.3716C51.6519 47.7553 50.125 48.4471 48.1945 48.4471C46.2664 48.4471 44.7554 47.7682 43.6608 46.3971C42.6604 45.1542 42.159 43.5528 42.159 41.5924C42.159 39.6065 42.6604 37.9922 43.6624 36.7366C44.7697 35.34 46.2807 34.6482 48.1957 34.6482C49.9895 34.6482 51.462 35.2888 52.6145 36.57C53.7508 37.8256 54.3214 39.4911 54.3214 41.5798C54.3214 43.5399 53.8029 45.1413 52.7711 46.3971L52.7723 46.3716ZM101.128 30.7903V30.7699H90.6602V24.4687C90.6602 23.6577 89.9931 23.0004 89.1683 23.0004H87.123C86.2894 23.0004 85.612 23.6667 85.612 24.4867V30.7699H83.4586V35.4028H85.612V53.8705H88.4937C89.6896 53.8705 90.6602 52.9174 90.6602 51.7387V35.4028H95.8383C96.2431 34.6387 96.7438 33.9275 97.329 33.2862C98.3969 32.1331 99.6608 31.3003 101.12 30.7878L101.128 30.7903ZM126.889 23.0004C125.991 23.0004 125.222 23.3169 124.579 23.9485C123.936 24.5815 123.613 25.3323 123.613 26.1997C123.613 27.1119 123.936 27.8832 124.579 28.5161C125.221 29.1491 125.999 29.4643 126.912 29.4643C127.823 29.4643 128.595 29.1478 129.223 28.5161C129.874 27.8832 130.187 27.1196 130.187 26.2227C130.187 25.3259 129.873 24.5635 129.221 23.9485C128.919 23.6422 128.556 23.4 128.155 23.2369C127.754 23.0739 127.323 22.9934 126.889 23.0004ZM127.909 33.2029H126.082C125.138 33.2029 124.375 33.9524 124.375 34.8788V50.6508C124.759 51.0993 124.948 51.6245 124.948 52.2268C124.948 52.829 124.758 53.3671 124.375 53.8153V54.6995H127.622C128.617 54.6995 129.423 53.9178 129.423 52.9315V34.6981C129.423 33.8743 128.746 33.208 127.909 33.208V33.2029ZM151.632 36.2484C149.359 34.0575 146.591 32.9621 143.334 32.9621C140.087 32.9621 137.335 34.0511 135.075 36.2292C132.818 38.4047 131.687 41.0468 131.687 44.1472C131.687 47.4451 132.795 50.1819 135.01 52.3601C137.224 54.5638 139.968 55.6682 143.243 55.6682C146.547 55.6682 149.336 54.5869 151.61 52.4266C153.869 50.2483 155 47.5476 155 44.3291C155 41.1336 153.88 38.4419 151.634 36.2497L151.632 36.2484ZM148.067 49.3594C146.884 50.6085 145.309 51.2299 143.334 51.2299C141.372 51.2299 139.794 50.6023 138.598 49.3336C137.431 48.0857 136.847 46.3869 136.847 44.2395C136.847 42.238 137.447 40.6061 138.645 39.3413C139.844 38.0767 141.402 37.4451 143.335 37.4451C145.289 37.4451 146.871 38.0767 148.067 39.3413C149.247 40.592 149.839 42.2626 149.839 44.3482C149.839 46.437 149.247 48.1049 148.067 49.3579V49.3594Z" fill="black"/>
<path opacity="0.8" d="M103.037 48.7804C102.002 47.734 101.418 46.3252 101.282 44.5515H115.786C116.104 44.5515 116.409 44.4287 116.636 44.2097C116.863 43.9904 116.994 43.6923 117 43.3792C117 39.8227 116.073 37.0425 114.212 35.0334C112.338 33.0116 109.79 32 106.568 32C103.375 32 100.813 33.0411 98.8774 35.1234C96.9581 37.2314 96 39.9922 96 43.4012C96 46.8384 96.9895 49.6004 98.9677 51.6789C100.338 53.1223 102.036 54.0592 104.047 54.4939C104.896 54.6987 105.77 54.7956 106.645 54.7819C110.249 54.8548 113.382 54.927 116.973 55V54.4809C116.529 54.0094 116.307 53.4397 116.307 52.7767C116.307 52.134 116.533 51.5761 116.986 51.0991V50.4694C114.143 50.405 107.259 50.3407 106.988 50.3407C105.369 50.3407 104.043 49.8267 103.01 48.7984L103.037 48.7804ZM102.339 38.8188C102.665 38.333 103.044 37.9165 103.475 37.5694C104.388 36.8579 105.522 36.4788 106.687 36.4962C109.389 36.4962 111.087 37.8239 111.792 40.4806H101.621C101.791 39.86 102.025 39.3073 102.339 38.8201V38.8188Z" fill="black"/>
</g>
</svg>
