<svg width="196" height="90" viewBox="0 0 196 90" fill="none" xmlns="http://www.w3.org/2000/svg">
<g opacity="0.8">
<path opacity="0.8" d="M96 49C96 49 95.9917 49.1628 95.961 49.3743C95.7385 50.5924 95.4108 51.7782 94.9384 52.9297C94.4425 54.1411 93.7936 55.2571 93.0171 56.3024C92.1018 57.532 91.0299 58.6161 89.7662 59.4867C88.9101 60.0763 88.035 60.6555 87.1077 61.1146C85.9612 61.6802 84.7633 62.1529 83.5083 62.4508C82.5536 62.678 81.5853 62.8082 80.6054 62.8863C78.5361 63.0524 76.4656 62.9962 74.3931 62.966C74.0773 62.9606 73.7612 62.9371 73.4471 62.9049C72.9528 62.8557 72.9188 62.7863 73.1024 62.3545C73.7749 62.3545 74.3931 62.3578 75.0134 62.3545C76.1325 62.3475 77.257 62.3934 78.3716 62.3103C79.5231 62.2256 80.68 62.1359 81.8111 61.8294C83.5099 61.367 85.0148 60.5692 86.284 59.3632C86.9614 58.7194 87.5308 57.9691 87.9724 57.1391C88.3255 56.4751 88.6839 55.8111 89.0104 55.1335C89.4977 54.1241 89.8308 53.0586 90.0479 51.9624C90.2194 51.0935 90.3235 50.211 90.4507 49.3338C90.4627 49.271 90.4813 49.005 90.4813 49.005L96 49Z" fill="black"/>
<path opacity="0.8" d="M82.7083 44C82.8377 44.0322 82.9688 44.0547 83.0944 44.0998C83.5816 44.2733 83.8538 44.6638 84 45.2012C83.8778 45.2012 83.7623 45.2108 83.6505 45.1956C83.6161 45.1919 83.5783 45.128 83.561 45.0825C83.3166 44.4697 82.6999 44.196 82.1455 44.4637C81.8804 44.5921 81.6872 44.8092 81.5687 45.0958C81.2827 45.7822 81.3066 46.463 81.6754 47.1043C81.8905 47.4797 82.2244 47.6568 82.6311 47.6269C83.0461 47.5947 83.3267 47.3343 83.5039 46.9346C83.5505 46.8288 83.5783 46.7156 83.6178 46.5969C83.7333 46.5969 83.8538 46.5969 83.9861 46.5969C83.9328 46.9438 83.8089 47.2455 83.5972 47.5004C83.3699 47.7755 83.0872 47.9379 82.7482 47.9793C82.7277 47.9811 82.7067 47.9926 82.6861 48C82.5899 48 82.4933 48 82.3967 48C82.3761 47.9926 82.3572 47.9811 82.3366 47.9775C81.8976 47.9209 81.5444 47.6982 81.3171 47.2833C80.9693 46.6498 80.9227 45.9634 81.1037 45.2637C81.255 44.6753 81.5893 44.2489 82.1421 44.0658C82.2265 44.0377 82.3127 44.0225 82.3988 44C82.5 44 82.6033 44 82.7083 44Z" fill="black"/>
<path opacity="0.8" d="M102.998 47C102.335 47 101.67 47 101 47C101 45.998 101 45.002 101 44C101.115 44 101.224 44 101.344 44C101.344 44.9007 101.344 45.7971 101.344 46.707C101.901 46.707 102.451 46.707 103 46.707C102.998 46.8038 102.998 46.9017 102.998 47Z" fill="black"/>
<path opacity="0.8" d="M88 46.9987C87.8785 46.9987 87.7704 47.0031 87.6644 46.9958C87.6339 46.9925 87.5926 46.958 87.5805 46.9309C87.4728 46.6768 87.3668 46.4212 87.2658 46.1661C87.242 46.1041 87.2094 46.0817 87.1339 46.0832C86.7131 46.0861 86.294 46.0861 85.8728 46.0832C85.7977 46.0832 85.7635 46.1026 85.7376 46.1642C85.6282 46.4425 85.5118 46.7175 85.3986 46.9958C85.2688 46.9958 85.1403 46.9958 85 46.9958C85.0806 46.8003 85.1574 46.6137 85.2363 46.426C85.5598 45.6565 85.8833 44.8869 86.203 44.1159C86.2356 44.0374 86.2698 43.9923 86.3792 44.003C86.5061 44.0165 86.6651 43.9744 86.754 44.0286C86.8379 44.0796 86.85 44.2226 86.8926 44.3263C87.2486 45.1813 87.603 46.0367 87.9587 46.8935C87.9708 46.9221 87.9812 46.9521 88 46.9987ZM86.499 44.308C86.294 44.8117 86.097 45.2957 85.8966 45.7888C86.3024 45.7888 86.6943 45.7888 87.098 45.7888C86.8997 45.2972 86.7043 44.8117 86.499 44.308Z" fill="black"/>
<path opacity="0.8" d="M97.3967 46.9943C97.2664 46.9943 97.1407 46.9943 97 46.9943C97.0138 46.9565 97.0243 46.9249 97.0377 46.8934C97.431 45.9593 97.8244 45.0252 98.216 44.091C98.2449 44.0221 98.2793 43.9949 98.3651 44.0008C98.4715 44.0085 98.58 44.0055 98.6864 44.0022C98.7413 44.0008 98.7706 44.0114 98.7928 44.0624C99.1928 45.0281 99.5949 45.9938 99.9967 46.9594C100 46.9686 99.9983 46.9774 100 46.9987C99.8848 46.9987 99.7717 47.0031 99.6582 46.9958C99.6326 46.9943 99.5983 46.955 99.5862 46.9279C99.4798 46.6799 99.3767 46.4315 99.2787 46.1805C99.2515 46.1097 99.2188 46.0796 99.1258 46.0811C98.712 46.087 98.2964 46.0855 97.8826 46.0811C97.795 46.0796 97.7624 46.1068 97.7351 46.1757C97.625 46.4465 97.5102 46.7187 97.3967 46.9943ZM99.1053 45.7894C98.9046 45.293 98.7069 44.8102 98.5025 44.3064C98.2964 44.8116 98.0991 45.2959 97.8981 45.7894C98.3052 45.7894 98.6948 45.7894 99.1053 45.7894Z" fill="black"/>
<path opacity="0.8" d="M89.3119 45.7206C89.3119 46.1529 89.3119 46.5735 89.3119 47C89.206 47 89.1059 47 89 47C89 46.0055 89 45.0106 89 44.0065C89.0323 44.0051 89.0617 44.0007 89.0926 44.0007C89.4414 44.0007 89.7899 43.9992 90.1373 44.0007C90.5935 44.0021 90.9567 44.3382 90.9965 44.7919C91.0364 45.2426 90.7288 45.6345 90.2726 45.7128C90.2195 45.722 90.1653 45.7206 90.1122 45.7206C89.8502 45.7206 89.5886 45.7206 89.3119 45.7206ZM89.3162 44.2992C89.3162 44.6819 89.3162 45.0529 89.3162 45.4279C89.3323 45.4312 89.3456 45.4341 89.3575 45.4341C89.6209 45.4327 89.8825 45.4371 90.146 45.4297C90.4316 45.4205 90.6699 45.1643 90.6771 44.872C90.6847 44.5735 90.4743 44.3201 90.1768 44.3036C89.8929 44.2871 89.6076 44.2992 89.3162 44.2992Z" fill="black"/>
<path opacity="0.8" d="M95.7165 47C95.5655 47 95.4364 47 95.2935 47C95.2935 46.0968 95.2935 45.198 95.2935 44.2885C94.8561 44.2885 94.4331 44.2885 94 44.2885C94 44.1887 94 44.098 94 44C94.9976 44 95.9928 44 97 44C97 44.0888 97 44.1813 97 44.2837C96.575 44.2837 96.1515 44.2837 95.7165 44.2837C95.7165 45.1932 95.7165 46.0924 95.7165 47Z" fill="black"/>
<path opacity="0.8" d="M93.3395 47C93.2245 47 93.1171 47 93 47C93 45.9995 93 45.002 93 44C93.1106 44 93.2208 44 93.3395 44C93.3395 44.9961 93.3395 45.9932 93.3395 47Z" fill="black"/>
<path opacity="0.8" d="M111.059 43.9989L115.909 40.7737H105V40H117V40.9611L111.873 44.4221V49.6877C111.934 51.2522 111.204 52.0173 109.683 51.9865C109.333 51.9915 109.008 51.9949 108.709 52C108.56 52 108.402 52 108.232 52C108.084 52 107.857 52 107.549 52C107.513 51.6898 107.459 51.3754 107.391 51.0597C108.036 51.0961 108.757 51.1156 109.554 51.1156C110.125 51.1206 110.516 51.0148 110.727 50.8011C110.953 50.6018 111.063 50.2307 111.059 49.6877V43.9989Z" fill="black"/>
<path opacity="0.8" d="M120.329 47.466C120.212 47.1787 120.104 46.9401 120 46.7503C121.248 45.5624 122.348 44.1019 123.3 42.366L123.943 42.7172C123.559 43.3694 123.118 44.0515 122.622 44.7606V52H121.925V45.6985C121.415 46.3334 120.884 46.9233 120.329 47.466ZM120.616 43.1694C120.509 42.9677 120.373 42.7558 120.207 42.5357C121.388 41.6182 122.45 40.4402 123.394 39L124.037 39.3714C123.103 40.7477 121.963 42.013 120.616 43.1694ZM124.481 45.6313H132.713V46.2646H131.075V47.621H133V48.2678H131.075V50.271C131.133 51.3011 130.617 51.8016 129.526 51.775C128.936 51.7934 128.343 51.8016 127.748 51.8016C127.694 51.5364 127.623 51.2892 127.534 51.0589C128.214 51.0859 128.812 51.0994 129.332 51.0994C129.735 51.1044 130.005 51.0457 130.144 50.9244C130.291 50.817 130.363 50.6034 130.358 50.2841V48.2678H123.905V47.621H130.358V46.2646H124.481V45.6313ZM125.085 49.086L125.621 48.6273C126.216 49.1938 126.724 49.7164 127.143 50.1919L126.567 50.6842C126.107 50.1263 125.612 49.5938 125.085 49.086ZM125.225 39.6067H131.899V44.3286H125.225V39.6067ZM125.923 40.2284V41.6652H131.195V40.2284H125.923ZM125.923 42.2717V43.7088H131.195V42.2717H125.923Z" fill="black"/>
<path opacity="0.8" d="M136 44.5808C137.127 43.8206 138.224 43.0136 139.289 42.1597C139.335 42.28 139.458 42.5021 139.663 42.8229C138.647 43.5785 137.605 44.3839 136.53 45.2374L136 44.5808ZM142.267 47.0956H142.994C142.994 47.5785 142.952 48.0546 142.866 48.5241C142.857 48.5559 142.845 48.6028 142.832 48.6648C142.8 48.8082 142.771 48.9154 142.744 48.9871C144.533 49.6487 146.468 50.4006 148.546 51.2411L148.138 51.9462C146.031 51.0157 144.132 50.2319 142.437 49.592C141.821 50.6211 139.937 51.4233 136.784 52C136.67 51.744 136.542 51.4917 136.396 51.2411C139.988 50.8033 141.914 49.8594 142.172 48.4108C142.234 48.0713 142.267 47.6336 142.267 47.0956ZM138.745 41.4345C138.062 40.8798 137.347 40.3434 136.604 39.8238L137.087 39.3008C137.738 39.7486 138.46 40.2666 139.248 40.8564L138.745 41.4345ZM138.031 45.6201H147.109V49.5235H146.381V46.2702H138.757V49.5235H138.029V45.6201H138.031ZM140.193 45.1575C140.058 44.915 139.907 44.6961 139.744 44.5005C142.495 43.8924 143.966 42.6912 144.16 40.8982H141.972C141.596 41.5014 141.122 42.1096 140.552 42.723C140.343 42.5172 140.152 42.3533 139.981 42.2331C140.941 41.2942 141.662 40.2164 142.143 39L142.85 39.1938C142.688 39.5781 142.515 39.9357 142.334 40.2666H148.504V40.9366L147.695 42.5873C147.509 42.4988 147.275 42.4104 146.994 42.3252L147.763 40.8965H144.868C144.841 41.0302 144.814 41.1588 144.787 41.2791C145.452 43.032 146.857 44.1145 149 44.5258C148.851 44.7495 148.717 44.9737 148.599 45.1958C146.447 44.5877 145.088 43.5651 144.521 42.1296C144.099 43.4163 142.658 44.4239 140.193 45.1575Z" fill="black"/>
<path opacity="0.8" d="M151.566 49.5822C151.373 49.3438 151.185 49.137 151 48.9625C153.483 47.2279 155.296 44.9444 156.434 42.1133H151.486V41.4264H157.115V39H157.845V41.4264H163.501V42.1133H158.512C159.659 44.8686 161.488 47.0583 164 48.6856C163.761 48.9559 163.576 49.1824 163.447 49.3655C160.819 47.5453 158.981 45.1275 157.932 42.1117H157.845V48.5897H160.957V49.2766H157.845V52H157.115V49.2766H153.909V48.5897H157.115V42.1117H157.075C155.985 45.2446 154.149 47.7349 151.566 49.5822Z" fill="black"/>
<path opacity="0.8" d="M62 63L61.9899 52.8345C61.9632 52.72 61.9053 52.5897 61.7559 52.5813C61.6777 52.5642 61.5534 52.6599 61.502 52.7438C61.4089 52.9068 61.3676 53.0522 61.3324 53.213C61.0538 54.4822 60.5757 55.6763 60.0231 56.839C59.5251 57.8855 58.8959 58.8481 58.1291 59.6995C57.1781 60.7561 56.0311 61.5164 54.6752 61.9175C53.9218 62.1402 53.1513 62.3286 52.3748 62.337C49.3557 62.3679 46.3382 62.3508 43.3188 62.3508C43.2062 62.3508 43.0949 62.3249 42.9439 62.3061C42.9439 62.1126 42.9439 61.948 42.9439 61.7838C42.9439 57.4351 42.9439 53.0881 42.9439 48.7394C42.9439 42.5854 42.9422 36.4316 42.9422 30.2777C42.9422 30.1561 42.9422 30.0328 42.9455 29.9112C42.9503 29.7485 43.0333 29.6577 43.1929 29.6491C43.2957 29.644 43.4001 29.6474 43.503 29.6474C44.8941 29.6474 46.8459 29.6474 48.2367 29.6474L48.2334 29C43.4831 29 37.752 29 33.0017 29L33 29.6731C34.7511 29.6731 36.4391 29.6731 38.2018 29.6731C38.2018 35.1625 38.2018 40.5953 38.2018 46.028C38.2018 51.4558 38.2018 56.8837 38.2018 62.3575C36.4407 62.3575 34.7312 62.3575 33.005 62.3575C33.005 62.5889 33.005 62.7702 33.005 62.9962C33.1926 62.9962 33.3386 62.9962 33.483 62.9962C42.8208 62.9962 52.6586 62.9962 61.9947 62.9962" fill="black"/>
<path opacity="0.8" d="M96 41.9868C96 41.9407 95.9492 41.7025 95.9492 41.7025C95.8541 41.3194 95.7797 40.9298 95.6709 40.5501C95.1542 38.7583 94.339 37.1046 93.2066 35.6004C92.5444 34.721 91.7713 33.9385 90.9189 33.2399C90.1256 32.5906 89.2578 32.03 88.3463 31.5368C87.343 30.9927 86.2921 30.5637 85.2073 30.2086C84.2701 29.9012 83.3264 29.6053 82.3449 29.4524C81.5892 29.3357 80.8298 29.2371 80.0687 29.1582C79.5603 29.1056 79.0468 29.099 78.535 29.0793C77.6809 29.048 76.8269 29.0086 75.9724 29.0004C75.4457 28.9954 74.9202 29.0415 74.3932 29.0678C73.9285 29.0908 73.4642 29.1204 73 29.1467C73.0608 29.7286 73.0728 29.7532 73.6048 29.7401C74.2369 29.7236 74.8694 29.6661 75.5015 29.6612C76.9794 29.6497 78.4573 29.6464 79.9162 29.9193C80.5942 30.0459 81.2804 30.1494 81.9382 30.3434C82.772 30.5883 83.5872 30.899 84.3549 31.3149C85.2565 31.8015 86.0937 32.3752 86.8175 33.0821C87.9023 34.1423 88.6935 35.3999 89.2748 36.7791C89.9073 38.2766 90.2562 39.8465 90.4629 41.4476C90.4798 41.599 90.5171 42 90.5171 42L96 41.9868Z" fill="black"/>
<path opacity="0.8" d="M69 20H68V71H69V20Z" fill="black"/>
</g>
</svg>
