<svg width="149" height="69" viewBox="0 0 149 69" fill="none" xmlns="http://www.w3.org/2000/svg">
<g opacity="0.8">
<g opacity="0.8">
<path opacity="0.8" d="M37.7934 22.253L42.0552 32.5012L45.0894 25.2499C45.1269 25.1761 45.1827 25.1133 45.2516 25.0681C45.3202 25.0227 45.3994 24.9963 45.4814 24.9916C45.5692 24.9914 45.6549 25.0154 45.7302 25.0609C45.8051 25.1064 45.8667 25.1718 45.9076 25.2499L48.925 32.5012L53.1865 22.253C53.2331 22.1492 53.3185 22.0683 53.424 22.0279C53.5294 21.9876 53.6462 21.9911 53.7492 22.0377C53.7998 22.0587 53.8455 22.0899 53.8839 22.1293C53.9224 22.1688 53.9525 22.2157 53.9723 22.2672C53.9922 22.3187 54.0016 22.3738 53.9998 22.4291C53.9983 22.4843 53.9855 22.5387 53.9623 22.5888L49.317 33.7241C49.2856 33.7938 49.2384 33.8552 49.1793 33.903C49.1198 33.9509 49.0503 33.9842 48.9759 33.9996H48.8909C48.8141 34.0027 48.7385 33.9783 48.6778 33.9308C48.6607 33.9135 48.6266 33.8963 48.6095 33.8617C48.583 33.8302 48.5602 33.7954 48.5413 33.7586C48.5425 33.7491 48.5416 33.7395 48.5388 33.7306C48.5358 33.7216 48.5309 33.7136 48.5242 33.7068L45.4985 26.4212L42.4472 33.7068C42.4466 33.7389 42.4344 33.7694 42.413 33.7929C42.3947 33.8395 42.3655 33.8808 42.328 33.9135C42.3149 33.9154 42.303 33.9213 42.2938 33.9308C42.2237 33.9793 42.1399 34.0033 42.0552 33.9996C41.9628 33.9996 41.8732 33.9694 41.7994 33.9135L41.7653 33.879L41.7482 33.8617C41.6927 33.8025 41.6571 33.7275 41.6461 33.6466L37.0368 22.5974C37.0146 22.5477 37.0021 22.4939 37.0002 22.4393C36.9984 22.3847 37.0072 22.3302 37.0261 22.2791C37.0453 22.2279 37.074 22.181 37.1109 22.141C37.1478 22.1011 37.1923 22.0689 37.2417 22.0463C37.2907 22.0237 37.3441 22.0111 37.398 22.0092C37.452 22.0074 37.5059 22.0163 37.5565 22.0355C37.6071 22.0547 37.6538 22.0838 37.6931 22.1211C37.7327 22.1584 37.7647 22.2032 37.787 22.253H37.7934Z" fill="black"/>
<path opacity="0.8" d="M61.022 22C64.3679 22 66.9821 24.6873 67 28C66.9799 31.3148 64.3679 34 61.022 34C57.6496 34 55 31.3127 55 28C55 24.6873 57.6474 22 61.022 22ZM61.022 33.1719C63.7703 33.1719 66.09 30.89 66.1075 28C66.09 25.0761 63.7703 22.8451 61.022 22.8451C58.1851 22.8451 55.8653 25.0761 55.8653 28C55.8631 30.8921 58.1828 33.1719 61.022 33.1719Z" fill="black"/>
<path opacity="0.8" d="M71.446 33.9914H71.4227C71.3135 33.9914 71.2083 33.9485 71.1297 33.8713C71.0508 33.7945 71.0042 33.6892 71 33.5778V22.345C71.0194 22.2476 71.0714 22.1601 71.1466 22.0972C71.2222 22.0344 71.3166 22 71.4142 22C71.5116 22 71.6062 22.0344 71.6818 22.0972C71.7571 22.1601 71.8091 22.2476 71.8285 22.345V33.1472H77.4929C77.5543 33.1346 77.6178 33.1358 77.6786 33.1512C77.7394 33.1667 77.7962 33.1954 77.8446 33.2358C77.8933 33.2762 77.9323 33.3272 77.9592 33.3849C77.9858 33.4423 78 33.5056 78 33.5695C78 33.633 77.9858 33.6963 77.9592 33.7537C77.9323 33.8114 77.8933 33.8624 77.8446 33.9028C77.7962 33.9432 77.7394 33.9722 77.6786 33.9874C77.6178 34.0028 77.5543 34.004 77.4929 33.9914H71.446Z" fill="black"/>
<path opacity="0.8" d="M80 22.4138C80.0006 22.3071 80.042 22.2047 80.1158 22.1277C80.1898 22.0507 80.2905 22.005 80.3973 22H86.6546C86.7521 22.0198 86.8398 22.0726 86.9028 22.1496C86.9657 22.2266 87 22.323 87 22.4224C87 22.5218 86.9657 22.6182 86.9028 22.6952C86.8398 22.7722 86.7521 22.825 86.6546 22.8448H80.8482V27.6205H85.9231C85.9857 27.6078 86.0505 27.6092 86.1126 27.6245C86.1746 27.6398 86.2323 27.6688 86.282 27.7092C86.3314 27.7496 86.3715 27.8005 86.3987 27.8583C86.4262 27.916 86.4404 27.979 86.4404 28.0429C86.4404 28.1068 86.4262 28.1699 86.3987 28.2276C86.3715 28.2853 86.3314 28.3362 86.282 28.3767C86.2323 28.4171 86.1746 28.446 86.1126 28.4613C86.0505 28.4767 85.9857 28.4781 85.9231 28.4653H80.8482V33.6547C80.8282 33.7523 80.7754 33.84 80.6982 33.9027C80.6213 33.9657 80.5247 34 80.425 34C80.3256 34 80.229 33.9657 80.1522 33.9027C80.075 33.84 80.0222 33.7523 80.0022 33.6547L80 22.4138Z" fill="black"/>
<path opacity="0.8" d="M91.0086 22.4114C91.0126 22.3037 91.0573 22.2015 91.1336 22.1252C91.2099 22.0489 91.3119 22.0043 91.4198 22H97.5883C97.6425 21.9994 97.6962 22.0097 97.7464 22.0302C97.7964 22.0506 97.842 22.0809 97.8803 22.1192C97.9186 22.1576 97.949 22.2032 97.9695 22.2533C97.99 22.3035 98.0001 22.3573 97.9995 22.4114C98.0023 22.467 97.9934 22.5225 97.9741 22.5745C97.9545 22.6265 97.9244 22.6741 97.8861 22.7142C97.8475 22.7543 97.8013 22.7861 97.7501 22.8078C97.6989 22.8294 97.6438 22.8404 97.5883 22.84H91.8481V27.5886H96.8686C96.9654 27.6083 97.0524 27.6608 97.1149 27.7374C97.1777 27.8139 97.2117 27.9097 97.2117 28.0086C97.2117 28.1074 97.1777 28.2033 97.1149 28.2798C97.0524 28.3564 96.9654 28.4089 96.8686 28.4286H91.8481V33.16H97.5883C97.6438 33.1597 97.6989 33.1708 97.7501 33.1923C97.8013 33.2138 97.8475 33.2457 97.8861 33.2859C97.9244 33.3259 97.9545 33.3735 97.9741 33.4257C97.9934 33.4776 98.0023 33.5332 97.9995 33.5884C98.0001 33.6428 97.99 33.6965 97.9695 33.7466C97.949 33.797 97.9186 33.8424 97.8803 33.8808C97.842 33.9192 97.7964 33.9493 97.7464 33.9699C97.6962 33.9905 97.6425 34.0006 97.5883 34H91.3769C91.2739 33.9914 91.1777 33.9444 91.1079 33.8679C91.038 33.7917 90.9997 33.6919 91 33.5884L91.0086 22.4114Z" fill="black"/>
<path opacity="0.8" d="M101.463 34H101.392C101.285 33.9914 101.185 33.9444 101.112 33.8679C101.04 33.7918 101 33.692 101 33.5885V22.4114C101.004 22.3037 101.051 22.2015 101.13 22.1252C101.209 22.049 101.316 22.0042 101.428 22H103.762C105.417 22 107.003 22.6321 108.173 23.7574C109.343 24.8826 110 26.4087 110 28C110 29.5913 109.343 31.1174 108.173 32.2427C107.003 33.368 105.417 34 103.762 34H101.463ZM103.762 33.16C105.185 33.16 106.55 32.6164 107.555 31.6487C108.561 30.681 109.127 29.3685 109.127 28C109.127 26.6315 108.561 25.319 107.555 24.3514C106.55 23.3837 105.185 22.84 103.762 22.84H101.873V33.16H103.762Z" fill="black"/>
<path opacity="0.8" d="M118.963 28.6759C118.909 28.6785 118.855 28.6699 118.804 28.6507C118.754 28.6314 118.707 28.6019 118.668 28.564C118.63 28.526 118.598 28.4804 118.577 28.4299C118.556 28.3794 118.546 28.3251 118.546 28.2703C118.546 28.1583 118.59 28.0508 118.668 27.9716C118.746 27.8923 118.852 27.8478 118.963 27.8478H122.617C122.719 27.8603 122.813 27.9102 122.881 27.9881C122.948 28.0661 122.985 28.1665 122.984 28.2703V32.3941C122.973 32.5107 122.919 32.6191 122.834 32.6984C121.759 33.5529 120.43 34.0116 119.063 33.9998C115.711 33.9828 113 31.3295 113 27.983C113 24.6873 115.711 22 119.074 22C120.449 21.9998 121.784 22.4703 122.861 23.3352C122.94 23.4067 122.989 23.5059 122.998 23.6125C123.008 23.7192 122.977 23.8254 122.912 23.9098C122.84 23.9933 122.741 24.0466 122.633 24.0591C122.524 24.0716 122.415 24.0424 122.327 23.9774C121.406 23.2259 120.257 22.8199 119.074 22.8282C116.154 22.8282 113.818 25.1521 113.818 27.983C113.818 30.8562 116.154 33.1717 119.074 33.1717C120.183 33.1726 121.263 32.8174 122.161 32.1576V28.6759H118.963Z" fill="black"/>
<path opacity="0.8" d="M128.008 22.4114C128.013 22.3037 128.057 22.2015 128.134 22.1252C128.21 22.0489 128.312 22.0043 128.42 22H134.588C134.643 21.9994 134.696 22.0097 134.746 22.0302C134.796 22.0506 134.842 22.0809 134.88 22.1192C134.919 22.1576 134.949 22.2032 134.969 22.2533C134.99 22.3035 135 22.3573 135 22.4114C135.002 22.467 134.993 22.5225 134.974 22.5745C134.954 22.6265 134.924 22.6741 134.886 22.7142C134.848 22.7543 134.801 22.7861 134.75 22.8078C134.699 22.8294 134.644 22.8404 134.588 22.84H128.848V27.5886H133.869C133.965 27.6083 134.052 27.6608 134.115 27.7374C134.177 27.8139 134.212 27.9097 134.212 28.0086C134.212 28.1074 134.177 28.2033 134.115 28.2798C134.052 28.3564 133.965 28.4089 133.869 28.4286H128.848V33.16H134.588C134.644 33.1597 134.699 33.1708 134.75 33.1923C134.801 33.2138 134.848 33.2457 134.886 33.2859C134.924 33.3259 134.954 33.3735 134.974 33.4257C134.993 33.4776 135.002 33.5332 135 33.5884C135 33.6428 134.99 33.6965 134.969 33.7466C134.949 33.797 134.919 33.8424 134.88 33.8808C134.842 33.9192 134.796 33.9493 134.746 33.9699C134.696 33.9905 134.643 34.0006 134.588 34H128.377C128.274 33.9914 128.178 33.9444 128.108 33.8679C128.038 33.7917 127.999 33.6919 128 33.5884L128.008 22.4114Z" fill="black"/>
<path opacity="0.8" d="M39.3989 42C39.9522 42.0013 40.4899 42.1909 40.9294 42.5401C40.9472 42.5544 40.9619 42.5719 40.9729 42.5921C40.9838 42.6126 40.991 42.6347 40.9932 42.6578C40.9957 42.6808 40.9938 42.7043 40.9873 42.7267C40.9807 42.7488 40.9701 42.7696 40.9557 42.7875C40.931 42.8216 40.8941 42.8444 40.8531 42.8509C40.8121 42.8574 40.7705 42.8467 40.737 42.8213C40.3573 42.5134 39.8893 42.3459 39.4076 42.345C38.8568 42.345 38.3282 42.5719 37.9387 42.9761C37.5493 43.3805 37.3303 43.9284 37.3303 44.5C37.3303 45.0716 37.5493 45.6198 37.9387 46.0239C38.3282 46.4284 38.8568 46.6553 39.4076 46.6553C39.8859 46.6622 40.3507 46.4924 40.7195 46.1767C40.7373 46.1628 40.758 46.1527 40.7799 46.1471C40.8018 46.1416 40.8246 46.141 40.8465 46.1449C40.8687 46.1491 40.89 46.1579 40.9088 46.1706C40.9275 46.1836 40.9435 46.2001 40.9557 46.2197C40.9713 46.2366 40.9832 46.2564 40.9907 46.2785C40.9982 46.3003 41.0013 46.3237 40.9995 46.3468C40.9976 46.3702 40.991 46.3926 40.9801 46.4128C40.9691 46.4333 40.9541 46.4508 40.936 46.4648C40.4965 46.8134 39.9585 47.0016 39.4054 47C38.7673 47 38.1558 46.7373 37.7047 46.2691C37.2537 45.8012 37 45.1665 37 44.5045C37 43.8429 37.2537 43.2082 37.7047 42.74C38.1558 42.2721 38.7673 42.0091 39.4054 42.0091L39.3989 42Z" fill="black"/>
<path opacity="0.8" d="M57.1892 45.7007H54.815L54.3542 46.8842C54.3415 46.9177 54.3181 46.9469 54.2879 46.9678C54.2573 46.9884 54.2209 46.9997 54.1839 47H54.1166C54.0719 46.9814 54.0359 46.9472 54.0163 46.9041C53.9967 46.8613 53.9947 46.8125 54.0108 46.7683L55.8208 42.1067C55.8373 42.0748 55.8627 42.0479 55.8939 42.0293C55.9252 42.0104 55.9616 42.0005 55.9983 42.0001C56.0361 41.9988 56.0732 42.0081 56.1051 42.027C56.1374 42.0463 56.1628 42.0738 56.1786 42.1067L57.9858 46.7683C58.0044 46.8115 58.0047 46.8596 57.9869 46.9031C57.969 46.9462 57.934 46.9811 57.89 47C57.8588 47 57.8444 47 57.8227 47C57.7856 46.9987 57.7499 46.9871 57.7197 46.9665C57.6891 46.9459 57.6658 46.9174 57.6524 46.8842L57.1892 45.7007ZM54.9496 45.3489H57.057L56.0055 42.6393L54.9496 45.3489Z" fill="black"/>
<path opacity="0.8" d="M70 42.1704C70.0003 42.1255 70.0187 42.0822 70.0512 42.0505C70.0837 42.0188 70.1272 42.0007 70.1731 42H71.6098C71.9837 42.0149 72.3369 42.1714 72.5963 42.4369C72.8554 42.7027 73 43.0567 73 43.4249C73 43.7935 72.8554 44.1475 72.5963 44.413C72.3369 44.6788 71.9837 44.8353 71.6098 44.8502L70.3555 44.8641V46.8293C70.3548 46.8524 70.3498 46.8748 70.3401 46.896C70.3307 46.9171 70.317 46.9359 70.3003 46.9518C70.2832 46.9676 70.2631 46.9802 70.2414 46.9884C70.2196 46.9967 70.1965 47.0003 70.1731 47C70.1272 46.9993 70.0837 46.9812 70.0512 46.9491C70.0187 46.9174 70.0003 46.8745 70 46.8293V42.1704ZM71.6098 44.5044C71.9004 44.5008 72.1782 44.3852 72.3834 44.1825C72.5886 43.9794 72.7048 43.7056 72.7071 43.4193C72.7068 43.133 72.5906 42.8589 72.3851 42.6565C72.1792 42.4544 71.9004 42.3408 71.6098 42.3408H70.3555V44.5044H71.6098Z" fill="black"/>
<path opacity="0.8" d="M86 42.1704C86.0006 42.1255 86.0177 42.0822 86.0476 42.0505C86.0777 42.0188 86.1181 42.0007 86.1607 42C86.2042 41.9994 86.2465 42.0169 86.2782 42.0486C86.3099 42.0806 86.3286 42.1242 86.3301 42.1704V46.8293C86.3286 46.8755 86.3099 46.9194 86.2782 46.9511C86.2465 46.9831 86.2042 47.0006 86.1607 47C86.1181 46.9993 86.0777 46.9812 86.0476 46.9491C86.0177 46.9174 86.0006 46.8745 86 46.8293V42.1704Z" fill="black"/>
<path opacity="0.8" d="M101.364 42.3513H100.14C100.102 42.3496 100.067 42.3298 100.041 42.2963C100.015 42.2625 100 42.2177 100 42.171C100.001 42.1256 100.016 42.0825 100.042 42.0507C100.068 42.0186 100.103 42.0007 100.14 42H102.86C102.897 42 102.932 42.0179 102.958 42.05C102.985 42.0819 102.999 42.1256 103 42.171C103.001 42.2177 102.986 42.2631 102.96 42.2969C102.934 42.3304 102.898 42.3503 102.86 42.3513H101.642V46.8466C101.638 46.889 101.621 46.9278 101.596 46.9563C101.57 46.9844 101.537 47 101.503 47C101.468 47 101.435 46.9844 101.41 46.9563C101.384 46.9278 101.368 46.889 101.364 46.8466V42.3513Z" fill="black"/>
<path opacity="0.8" d="M119.189 45.7007H116.815L116.354 46.8842C116.341 46.9177 116.318 46.9469 116.288 46.9678C116.257 46.9884 116.221 46.9997 116.184 47H116.117C116.072 46.9814 116.036 46.9472 116.016 46.9041C115.997 46.8613 115.995 46.8125 116.011 46.7683L117.821 42.1067C117.837 42.0748 117.863 42.0479 117.894 42.0293C117.925 42.0104 117.962 42.0005 117.998 42.0001C118.036 41.9988 118.073 42.0081 118.105 42.027C118.137 42.0463 118.163 42.0738 118.179 42.1067L119.986 46.7683C120.004 46.8115 120.005 46.8596 119.987 46.9031C119.969 46.9462 119.934 46.9811 119.89 47C119.859 47 119.844 47 119.823 47C119.786 46.9987 119.75 46.9871 119.72 46.9665C119.689 46.9459 119.666 46.9174 119.652 46.8842L119.189 45.7007ZM116.95 45.3489H119.057L118.013 42.6393L116.95 45.3489Z" fill="black"/>
<path opacity="0.8" d="M132.187 47H132.175C132.129 46.9993 132.085 46.9812 132.052 46.9491C132.019 46.9174 132.001 46.8745 132 46.8293V42.1705C132.001 42.1256 132.019 42.0823 132.052 42.0506C132.085 42.0189 132.129 42.0007 132.175 42.0001C132.199 41.9994 132.222 42.0034 132.244 42.0116C132.266 42.0199 132.287 42.0321 132.304 42.048C132.321 42.0638 132.335 42.083 132.344 42.1038C132.354 42.1249 132.359 42.1474 132.36 42.1705V46.6496H134.818C134.842 46.6496 134.866 46.6543 134.888 46.6635C134.91 46.6724 134.931 46.6856 134.948 46.7025C134.964 46.7193 134.978 46.7391 134.987 46.7609C134.996 46.7827 135 46.8058 135 46.8293C134.999 46.8755 134.979 46.9191 134.945 46.9511C134.911 46.9828 134.865 47.0003 134.818 47H132.187Z" fill="black"/>
<path opacity="0.8" d="M30 23H27V40H30V23Z" fill="black"/>
<path opacity="0.8" d="M32 23H29V40H32V23Z" fill="#363636"/>
<path opacity="0.8" d="M30.6473 21L27 22.8124L28.3527 25L32 23.1876L30.6473 21Z" fill="#262626"/>
<path opacity="0.8" d="M27 36H24V40H27V36Z" fill="black"/>
<path opacity="0.8" d="M29 36H26V40H29V36Z" fill="#363636"/>
<path opacity="0.8" d="M27.6761 34L24 35.8417L25.3239 38L29 36.1586L27.6761 34Z" fill="#262626"/>
<path opacity="0.8" d="M24 33H21V39H24V33Z" fill="black"/>
<path opacity="0.8" d="M26 33H23V39H26V33Z" fill="#363636"/>
<path opacity="0.8" d="M24.6743 31L21 32.8397L22.3257 35L26 33.1603L24.6743 31Z" fill="#262626"/>
<path opacity="0.8" d="M21 39H18V43H21V39Z" fill="black"/>
<path opacity="0.8" d="M23 39H20V43H23V39Z" fill="#363636"/>
<path opacity="0.8" d="M21.6882 37L18 38.8446L19.3118 41L23 39.1554L21.6882 37Z" fill="#262626"/>
<path opacity="0.8" d="M18 30H15V47H18V30Z" fill="black"/>
<path opacity="0.8" d="M20 30H17V47H20V30Z" fill="#363636"/>
<path opacity="0.8" d="M18.6478 28L15 29.8128L16.3522 32L20 30.187L18.6478 28Z" fill="#262626"/>
</g>
</g>
</svg>
